<?xml version="1.0" encoding="utf-8" standalone="no"?>
<!DOCTYPE svg PUBLIC "-//W3C//DTD SVG 1.1//EN"
  "http://www.w3.org/Graphics/SVG/1.1/DTD/svg11.dtd">
<svg xmlns:xlink="http://www.w3.org/1999/xlink" width="413.178213pt" height="312.099091pt" viewBox="0 0 413.178213 312.099091" xmlns="http://www.w3.org/2000/svg" version="1.1">
 <metadata>
  <rdf:RDF xmlns:dc="http://purl.org/dc/elements/1.1/" xmlns:cc="http://creativecommons.org/ns#" xmlns:rdf="http://www.w3.org/1999/02/22-rdf-syntax-ns#">
   <cc:Work>
    <dc:type rdf:resource="http://purl.org/dc/dcmitype/StillImage"/>
    <dc:date>2022-01-27T20:19:39.551979</dc:date>
    <dc:format>image/svg+xml</dc:format>
    <dc:creator>
     <cc:Agent>
      <dc:title>Matplotlib v3.5.0, https://matplotlib.org/</dc:title>
     </cc:Agent>
    </dc:creator>
   </cc:Work>
  </rdf:RDF>
 </metadata>
 <defs>
  <style type="text/css">*{stroke-linejoin: round; stroke-linecap: butt}</style>
 </defs>
 <g id="figure_1">
  <g id="patch_1">
   <path d="M 0 312.099091 
L 413.178213 312.099091 
L 413.178213 0 
L 0 0 
z
" style="fill: #ffffff"/>
  </g>
  <g id="axes_1">
   <g id="patch_2">
    <path d="M 60.30875 239.758125 
L 395.10875 239.758125 
L 395.10875 22.318125 
L 60.30875 22.318125 
z
" style="fill: #eaeaf2"/>
   </g>
   <g id="matplotlib.axis_1">
    <g id="xtick_1">
     <g id="line2d_1">
      <path d="M 72.808977 239.758125 
L 72.808977 22.318125 
" clip-path="url(#pc6410c2714)" style="fill: none; stroke: #ffffff; stroke-linecap: round"/>
     </g>
     <g id="text_1">
      <!-- 2021-05 -->
      <g style="fill: #262626" transform="translate(58.705567 287.667723)rotate(-45)scale(0.11 -0.11)">
       <defs>
        <path id="DejaVuSans-32" d="M 1228 531 
L 3431 531 
L 3431 0 
L 469 0 
L 469 531 
Q 828 903 1448 1529 
Q 2069 2156 2228 2338 
Q 2531 2678 2651 2914 
Q 2772 3150 2772 3378 
Q 2772 3750 2511 3984 
Q 2250 4219 1831 4219 
Q 1534 4219 1204 4116 
Q 875 4013 500 3803 
L 500 4441 
Q 881 4594 1212 4672 
Q 1544 4750 1819 4750 
Q 2544 4750 2975 4387 
Q 3406 4025 3406 3419 
Q 3406 3131 3298 2873 
Q 3191 2616 2906 2266 
Q 2828 2175 2409 1742 
Q 1991 1309 1228 531 
z
" transform="scale(0.015625)"/>
        <path id="DejaVuSans-30" d="M 2034 4250 
Q 1547 4250 1301 3770 
Q 1056 3291 1056 2328 
Q 1056 1369 1301 889 
Q 1547 409 2034 409 
Q 2525 409 2770 889 
Q 3016 1369 3016 2328 
Q 3016 3291 2770 3770 
Q 2525 4250 2034 4250 
z
M 2034 4750 
Q 2819 4750 3233 4129 
Q 3647 3509 3647 2328 
Q 3647 1150 3233 529 
Q 2819 -91 2034 -91 
Q 1250 -91 836 529 
Q 422 1150 422 2328 
Q 422 3509 836 4129 
Q 1250 4750 2034 4750 
z
" transform="scale(0.015625)"/>
        <path id="DejaVuSans-31" d="M 794 531 
L 1825 531 
L 1825 4091 
L 703 3866 
L 703 4441 
L 1819 4666 
L 2450 4666 
L 2450 531 
L 3481 531 
L 3481 0 
L 794 0 
L 794 531 
z
" transform="scale(0.015625)"/>
        <path id="DejaVuSans-2d" d="M 313 2009 
L 1997 2009 
L 1997 1497 
L 313 1497 
L 313 2009 
z
" transform="scale(0.015625)"/>
        <path id="DejaVuSans-35" d="M 691 4666 
L 3169 4666 
L 3169 4134 
L 1269 4134 
L 1269 2991 
Q 1406 3038 1543 3061 
Q 1681 3084 1819 3084 
Q 2600 3084 3056 2656 
Q 3513 2228 3513 1497 
Q 3513 744 3044 326 
Q 2575 -91 1722 -91 
Q 1428 -91 1123 -41 
Q 819 9 494 109 
L 494 744 
Q 775 591 1075 516 
Q 1375 441 1709 441 
Q 2250 441 2565 725 
Q 2881 1009 2881 1497 
Q 2881 1984 2565 2268 
Q 2250 2553 1709 2553 
Q 1456 2553 1204 2497 
Q 953 2441 691 2322 
L 691 4666 
z
" transform="scale(0.015625)"/>
       </defs>
       <use xlink:href="#DejaVuSans-32"/>
       <use xlink:href="#DejaVuSans-30" x="63.623047"/>
       <use xlink:href="#DejaVuSans-32" x="127.246094"/>
       <use xlink:href="#DejaVuSans-31" x="190.869141"/>
       <use xlink:href="#DejaVuSans-2d" x="254.492188"/>
       <use xlink:href="#DejaVuSans-30" x="290.576172"/>
       <use xlink:href="#DejaVuSans-35" x="354.199219"/>
      </g>
     </g>
    </g>
    <g id="xtick_2">
     <g id="line2d_2">
      <path d="M 107.976945 239.758125 
L 107.976945 22.318125 
" clip-path="url(#pc6410c2714)" style="fill: none; stroke: #ffffff; stroke-linecap: round"/>
     </g>
     <g id="text_2">
      <!-- 2021-06 -->
      <g style="fill: #262626" transform="translate(93.873535 287.667723)rotate(-45)scale(0.11 -0.11)">
       <defs>
        <path id="DejaVuSans-36" d="M 2113 2584 
Q 1688 2584 1439 2293 
Q 1191 2003 1191 1497 
Q 1191 994 1439 701 
Q 1688 409 2113 409 
Q 2538 409 2786 701 
Q 3034 994 3034 1497 
Q 3034 2003 2786 2293 
Q 2538 2584 2113 2584 
z
M 3366 4563 
L 3366 3988 
Q 3128 4100 2886 4159 
Q 2644 4219 2406 4219 
Q 1781 4219 1451 3797 
Q 1122 3375 1075 2522 
Q 1259 2794 1537 2939 
Q 1816 3084 2150 3084 
Q 2853 3084 3261 2657 
Q 3669 2231 3669 1497 
Q 3669 778 3244 343 
Q 2819 -91 2113 -91 
Q 1303 -91 875 529 
Q 447 1150 447 2328 
Q 447 3434 972 4092 
Q 1497 4750 2381 4750 
Q 2619 4750 2861 4703 
Q 3103 4656 3366 4563 
z
" transform="scale(0.015625)"/>
       </defs>
       <use xlink:href="#DejaVuSans-32"/>
       <use xlink:href="#DejaVuSans-30" x="63.623047"/>
       <use xlink:href="#DejaVuSans-32" x="127.246094"/>
       <use xlink:href="#DejaVuSans-31" x="190.869141"/>
       <use xlink:href="#DejaVuSans-2d" x="254.492188"/>
       <use xlink:href="#DejaVuSans-30" x="290.576172"/>
       <use xlink:href="#DejaVuSans-36" x="354.199219"/>
      </g>
     </g>
    </g>
    <g id="xtick_3">
     <g id="line2d_3">
      <path d="M 142.010463 239.758125 
L 142.010463 22.318125 
" clip-path="url(#pc6410c2714)" style="fill: none; stroke: #ffffff; stroke-linecap: round"/>
     </g>
     <g id="text_3">
      <!-- 2021-07 -->
      <g style="fill: #262626" transform="translate(127.907052 287.667723)rotate(-45)scale(0.11 -0.11)">
       <defs>
        <path id="DejaVuSans-37" d="M 525 4666 
L 3525 4666 
L 3525 4397 
L 1831 0 
L 1172 0 
L 2766 4134 
L 525 4134 
L 525 4666 
z
" transform="scale(0.015625)"/>
       </defs>
       <use xlink:href="#DejaVuSans-32"/>
       <use xlink:href="#DejaVuSans-30" x="63.623047"/>
       <use xlink:href="#DejaVuSans-32" x="127.246094"/>
       <use xlink:href="#DejaVuSans-31" x="190.869141"/>
       <use xlink:href="#DejaVuSans-2d" x="254.492188"/>
       <use xlink:href="#DejaVuSans-30" x="290.576172"/>
       <use xlink:href="#DejaVuSans-37" x="354.199219"/>
      </g>
     </g>
    </g>
    <g id="xtick_4">
     <g id="line2d_4">
      <path d="M 177.17843 239.758125 
L 177.17843 22.318125 
" clip-path="url(#pc6410c2714)" style="fill: none; stroke: #ffffff; stroke-linecap: round"/>
     </g>
     <g id="text_4">
      <!-- 2021-08 -->
      <g style="fill: #262626" transform="translate(163.07502 287.667723)rotate(-45)scale(0.11 -0.11)">
       <defs>
        <path id="DejaVuSans-38" d="M 2034 2216 
Q 1584 2216 1326 1975 
Q 1069 1734 1069 1313 
Q 1069 891 1326 650 
Q 1584 409 2034 409 
Q 2484 409 2743 651 
Q 3003 894 3003 1313 
Q 3003 1734 2745 1975 
Q 2488 2216 2034 2216 
z
M 1403 2484 
Q 997 2584 770 2862 
Q 544 3141 544 3541 
Q 544 4100 942 4425 
Q 1341 4750 2034 4750 
Q 2731 4750 3128 4425 
Q 3525 4100 3525 3541 
Q 3525 3141 3298 2862 
Q 3072 2584 2669 2484 
Q 3125 2378 3379 2068 
Q 3634 1759 3634 1313 
Q 3634 634 3220 271 
Q 2806 -91 2034 -91 
Q 1263 -91 848 271 
Q 434 634 434 1313 
Q 434 1759 690 2068 
Q 947 2378 1403 2484 
z
M 1172 3481 
Q 1172 3119 1398 2916 
Q 1625 2713 2034 2713 
Q 2441 2713 2670 2916 
Q 2900 3119 2900 3481 
Q 2900 3844 2670 4047 
Q 2441 4250 2034 4250 
Q 1625 4250 1398 4047 
Q 1172 3844 1172 3481 
z
" transform="scale(0.015625)"/>
       </defs>
       <use xlink:href="#DejaVuSans-32"/>
       <use xlink:href="#DejaVuSans-30" x="63.623047"/>
       <use xlink:href="#DejaVuSans-32" x="127.246094"/>
       <use xlink:href="#DejaVuSans-31" x="190.869141"/>
       <use xlink:href="#DejaVuSans-2d" x="254.492188"/>
       <use xlink:href="#DejaVuSans-30" x="290.576172"/>
       <use xlink:href="#DejaVuSans-38" x="354.199219"/>
      </g>
     </g>
    </g>
    <g id="xtick_5">
     <g id="line2d_5">
      <path d="M 212.346398 239.758125 
L 212.346398 22.318125 
" clip-path="url(#pc6410c2714)" style="fill: none; stroke: #ffffff; stroke-linecap: round"/>
     </g>
     <g id="text_5">
      <!-- 2021-09 -->
      <g style="fill: #262626" transform="translate(198.242988 287.667723)rotate(-45)scale(0.11 -0.11)">
       <defs>
        <path id="DejaVuSans-39" d="M 703 97 
L 703 672 
Q 941 559 1184 500 
Q 1428 441 1663 441 
Q 2288 441 2617 861 
Q 2947 1281 2994 2138 
Q 2813 1869 2534 1725 
Q 2256 1581 1919 1581 
Q 1219 1581 811 2004 
Q 403 2428 403 3163 
Q 403 3881 828 4315 
Q 1253 4750 1959 4750 
Q 2769 4750 3195 4129 
Q 3622 3509 3622 2328 
Q 3622 1225 3098 567 
Q 2575 -91 1691 -91 
Q 1453 -91 1209 -44 
Q 966 3 703 97 
z
M 1959 2075 
Q 2384 2075 2632 2365 
Q 2881 2656 2881 3163 
Q 2881 3666 2632 3958 
Q 2384 4250 1959 4250 
Q 1534 4250 1286 3958 
Q 1038 3666 1038 3163 
Q 1038 2656 1286 2365 
Q 1534 2075 1959 2075 
z
" transform="scale(0.015625)"/>
       </defs>
       <use xlink:href="#DejaVuSans-32"/>
       <use xlink:href="#DejaVuSans-30" x="63.623047"/>
       <use xlink:href="#DejaVuSans-32" x="127.246094"/>
       <use xlink:href="#DejaVuSans-31" x="190.869141"/>
       <use xlink:href="#DejaVuSans-2d" x="254.492188"/>
       <use xlink:href="#DejaVuSans-30" x="290.576172"/>
       <use xlink:href="#DejaVuSans-39" x="354.199219"/>
      </g>
     </g>
    </g>
    <g id="xtick_6">
     <g id="line2d_6">
      <path d="M 246.379916 239.758125 
L 246.379916 22.318125 
" clip-path="url(#pc6410c2714)" style="fill: none; stroke: #ffffff; stroke-linecap: round"/>
     </g>
     <g id="text_6">
      <!-- 2021-10 -->
      <g style="fill: #262626" transform="translate(232.276505 287.667723)rotate(-45)scale(0.11 -0.11)">
       <use xlink:href="#DejaVuSans-32"/>
       <use xlink:href="#DejaVuSans-30" x="63.623047"/>
       <use xlink:href="#DejaVuSans-32" x="127.246094"/>
       <use xlink:href="#DejaVuSans-31" x="190.869141"/>
       <use xlink:href="#DejaVuSans-2d" x="254.492188"/>
       <use xlink:href="#DejaVuSans-31" x="290.576172"/>
       <use xlink:href="#DejaVuSans-30" x="354.199219"/>
      </g>
     </g>
    </g>
    <g id="xtick_7">
     <g id="line2d_7">
      <path d="M 281.547884 239.758125 
L 281.547884 22.318125 
" clip-path="url(#pc6410c2714)" style="fill: none; stroke: #ffffff; stroke-linecap: round"/>
     </g>
     <g id="text_7">
      <!-- 2021-11 -->
      <g style="fill: #262626" transform="translate(267.444473 287.667723)rotate(-45)scale(0.11 -0.11)">
       <use xlink:href="#DejaVuSans-32"/>
       <use xlink:href="#DejaVuSans-30" x="63.623047"/>
       <use xlink:href="#DejaVuSans-32" x="127.246094"/>
       <use xlink:href="#DejaVuSans-31" x="190.869141"/>
       <use xlink:href="#DejaVuSans-2d" x="254.492188"/>
       <use xlink:href="#DejaVuSans-31" x="290.576172"/>
       <use xlink:href="#DejaVuSans-31" x="354.199219"/>
      </g>
     </g>
    </g>
    <g id="xtick_8">
     <g id="line2d_8">
      <path d="M 315.62867 239.758125 
L 315.62867 22.318125 
" clip-path="url(#pc6410c2714)" style="fill: none; stroke: #ffffff; stroke-linecap: round"/>
     </g>
     <g id="text_8">
      <!-- 2021-12 -->
      <g style="fill: #262626" transform="translate(301.525259 287.667723)rotate(-45)scale(0.11 -0.11)">
       <use xlink:href="#DejaVuSans-32"/>
       <use xlink:href="#DejaVuSans-30" x="63.623047"/>
       <use xlink:href="#DejaVuSans-32" x="127.246094"/>
       <use xlink:href="#DejaVuSans-31" x="190.869141"/>
       <use xlink:href="#DejaVuSans-2d" x="254.492188"/>
       <use xlink:href="#DejaVuSans-31" x="290.576172"/>
       <use xlink:href="#DejaVuSans-32" x="354.199219"/>
      </g>
     </g>
    </g>
    <g id="xtick_9">
     <g id="line2d_9">
      <path d="M 350.796638 239.758125 
L 350.796638 22.318125 
" clip-path="url(#pc6410c2714)" style="fill: none; stroke: #ffffff; stroke-linecap: round"/>
     </g>
     <g id="text_9">
      <!-- 2022-01 -->
      <g style="fill: #262626" transform="translate(336.693227 287.667723)rotate(-45)scale(0.11 -0.11)">
       <use xlink:href="#DejaVuSans-32"/>
       <use xlink:href="#DejaVuSans-30" x="63.623047"/>
       <use xlink:href="#DejaVuSans-32" x="127.246094"/>
       <use xlink:href="#DejaVuSans-32" x="190.869141"/>
       <use xlink:href="#DejaVuSans-2d" x="254.492188"/>
       <use xlink:href="#DejaVuSans-30" x="290.576172"/>
       <use xlink:href="#DejaVuSans-31" x="354.199219"/>
      </g>
     </g>
    </g>
    <g id="xtick_10">
     <g id="line2d_10">
      <path d="M 385.964606 239.758125 
L 385.964606 22.318125 
" clip-path="url(#pc6410c2714)" style="fill: none; stroke: #ffffff; stroke-linecap: round"/>
     </g>
     <g id="text_10">
      <!-- 2022-02 -->
      <g style="fill: #262626" transform="translate(371.861195 287.667723)rotate(-45)scale(0.11 -0.11)">
       <use xlink:href="#DejaVuSans-32"/>
       <use xlink:href="#DejaVuSans-30" x="63.623047"/>
       <use xlink:href="#DejaVuSans-32" x="127.246094"/>
       <use xlink:href="#DejaVuSans-32" x="190.869141"/>
       <use xlink:href="#DejaVuSans-2d" x="254.492188"/>
       <use xlink:href="#DejaVuSans-30" x="290.576172"/>
       <use xlink:href="#DejaVuSans-32" x="354.199219"/>
      </g>
     </g>
    </g>
    <g id="text_11">
     <!-- Datetime -->
     <g style="fill: #262626" transform="translate(199.8125 302.403466)scale(0.12 -0.12)">
      <defs>
       <path id="DejaVuSans-44" d="M 1259 4147 
L 1259 519 
L 2022 519 
Q 2988 519 3436 956 
Q 3884 1394 3884 2338 
Q 3884 3275 3436 3711 
Q 2988 4147 2022 4147 
L 1259 4147 
z
M 628 4666 
L 1925 4666 
Q 3281 4666 3915 4102 
Q 4550 3538 4550 2338 
Q 4550 1131 3912 565 
Q 3275 0 1925 0 
L 628 0 
L 628 4666 
z
" transform="scale(0.015625)"/>
       <path id="DejaVuSans-61" d="M 2194 1759 
Q 1497 1759 1228 1600 
Q 959 1441 959 1056 
Q 959 750 1161 570 
Q 1363 391 1709 391 
Q 2188 391 2477 730 
Q 2766 1069 2766 1631 
L 2766 1759 
L 2194 1759 
z
M 3341 1997 
L 3341 0 
L 2766 0 
L 2766 531 
Q 2569 213 2275 61 
Q 1981 -91 1556 -91 
Q 1019 -91 701 211 
Q 384 513 384 1019 
Q 384 1609 779 1909 
Q 1175 2209 1959 2209 
L 2766 2209 
L 2766 2266 
Q 2766 2663 2505 2880 
Q 2244 3097 1772 3097 
Q 1472 3097 1187 3025 
Q 903 2953 641 2809 
L 641 3341 
Q 956 3463 1253 3523 
Q 1550 3584 1831 3584 
Q 2591 3584 2966 3190 
Q 3341 2797 3341 1997 
z
" transform="scale(0.015625)"/>
       <path id="DejaVuSans-74" d="M 1172 4494 
L 1172 3500 
L 2356 3500 
L 2356 3053 
L 1172 3053 
L 1172 1153 
Q 1172 725 1289 603 
Q 1406 481 1766 481 
L 2356 481 
L 2356 0 
L 1766 0 
Q 1100 0 847 248 
Q 594 497 594 1153 
L 594 3053 
L 172 3053 
L 172 3500 
L 594 3500 
L 594 4494 
L 1172 4494 
z
" transform="scale(0.015625)"/>
       <path id="DejaVuSans-65" d="M 3597 1894 
L 3597 1613 
L 953 1613 
Q 991 1019 1311 708 
Q 1631 397 2203 397 
Q 2534 397 2845 478 
Q 3156 559 3463 722 
L 3463 178 
Q 3153 47 2828 -22 
Q 2503 -91 2169 -91 
Q 1331 -91 842 396 
Q 353 884 353 1716 
Q 353 2575 817 3079 
Q 1281 3584 2069 3584 
Q 2775 3584 3186 3129 
Q 3597 2675 3597 1894 
z
M 3022 2063 
Q 3016 2534 2758 2815 
Q 2500 3097 2075 3097 
Q 1594 3097 1305 2825 
Q 1016 2553 972 2059 
L 3022 2063 
z
" transform="scale(0.015625)"/>
       <path id="DejaVuSans-69" d="M 603 3500 
L 1178 3500 
L 1178 0 
L 603 0 
L 603 3500 
z
M 603 4863 
L 1178 4863 
L 1178 4134 
L 603 4134 
L 603 4863 
z
" transform="scale(0.015625)"/>
       <path id="DejaVuSans-6d" d="M 3328 2828 
Q 3544 3216 3844 3400 
Q 4144 3584 4550 3584 
Q 5097 3584 5394 3201 
Q 5691 2819 5691 2113 
L 5691 0 
L 5113 0 
L 5113 2094 
Q 5113 2597 4934 2840 
Q 4756 3084 4391 3084 
Q 3944 3084 3684 2787 
Q 3425 2491 3425 1978 
L 3425 0 
L 2847 0 
L 2847 2094 
Q 2847 2600 2669 2842 
Q 2491 3084 2119 3084 
Q 1678 3084 1418 2786 
Q 1159 2488 1159 1978 
L 1159 0 
L 581 0 
L 581 3500 
L 1159 3500 
L 1159 2956 
Q 1356 3278 1631 3431 
Q 1906 3584 2284 3584 
Q 2666 3584 2933 3390 
Q 3200 3197 3328 2828 
z
" transform="scale(0.015625)"/>
      </defs>
      <use xlink:href="#DejaVuSans-44"/>
      <use xlink:href="#DejaVuSans-61" x="77.001953"/>
      <use xlink:href="#DejaVuSans-74" x="138.28125"/>
      <use xlink:href="#DejaVuSans-65" x="177.490234"/>
      <use xlink:href="#DejaVuSans-74" x="239.013672"/>
      <use xlink:href="#DejaVuSans-69" x="278.222656"/>
      <use xlink:href="#DejaVuSans-6d" x="306.005859"/>
      <use xlink:href="#DejaVuSans-65" x="403.417969"/>
     </g>
    </g>
   </g>
   <g id="matplotlib.axis_2">
    <g id="ytick_1">
     <g id="line2d_11">
      <path d="M 60.30875 220.198303 
L 395.10875 220.198303 
" clip-path="url(#pc6410c2714)" style="fill: none; stroke: #ffffff; stroke-linecap: round"/>
     </g>
     <g id="text_12">
      <!-- 4100 -->
      <g style="fill: #262626" transform="translate(22.81375 224.377444)scale(0.11 -0.11)">
       <defs>
        <path id="DejaVuSans-34" d="M 2419 4116 
L 825 1625 
L 2419 1625 
L 2419 4116 
z
M 2253 4666 
L 3047 4666 
L 3047 1625 
L 3713 1625 
L 3713 1100 
L 3047 1100 
L 3047 0 
L 2419 0 
L 2419 1100 
L 313 1100 
L 313 1709 
L 2253 4666 
z
" transform="scale(0.015625)"/>
       </defs>
       <use xlink:href="#DejaVuSans-34"/>
       <use xlink:href="#DejaVuSans-31" x="63.623047"/>
       <use xlink:href="#DejaVuSans-30" x="127.246094"/>
       <use xlink:href="#DejaVuSans-30" x="190.869141"/>
      </g>
     </g>
    </g>
    <g id="ytick_2">
     <g id="line2d_12">
      <path d="M 60.30875 193.839829 
L 395.10875 193.839829 
" clip-path="url(#pc6410c2714)" style="fill: none; stroke: #ffffff; stroke-linecap: round"/>
     </g>
     <g id="text_13">
      <!-- 4200 -->
      <g style="fill: #262626" transform="translate(22.81375 198.018969)scale(0.11 -0.11)">
       <use xlink:href="#DejaVuSans-34"/>
       <use xlink:href="#DejaVuSans-32" x="63.623047"/>
       <use xlink:href="#DejaVuSans-30" x="127.246094"/>
       <use xlink:href="#DejaVuSans-30" x="190.869141"/>
      </g>
     </g>
    </g>
    <g id="ytick_3">
     <g id="line2d_13">
      <path d="M 60.30875 167.481354 
L 395.10875 167.481354 
" clip-path="url(#pc6410c2714)" style="fill: none; stroke: #ffffff; stroke-linecap: round"/>
     </g>
     <g id="text_14">
      <!-- 4300 -->
      <g style="fill: #262626" transform="translate(22.81375 171.660495)scale(0.11 -0.11)">
       <defs>
        <path id="DejaVuSans-33" d="M 2597 2516 
Q 3050 2419 3304 2112 
Q 3559 1806 3559 1356 
Q 3559 666 3084 287 
Q 2609 -91 1734 -91 
Q 1441 -91 1130 -33 
Q 819 25 488 141 
L 488 750 
Q 750 597 1062 519 
Q 1375 441 1716 441 
Q 2309 441 2620 675 
Q 2931 909 2931 1356 
Q 2931 1769 2642 2001 
Q 2353 2234 1838 2234 
L 1294 2234 
L 1294 2753 
L 1863 2753 
Q 2328 2753 2575 2939 
Q 2822 3125 2822 3475 
Q 2822 3834 2567 4026 
Q 2313 4219 1838 4219 
Q 1578 4219 1281 4162 
Q 984 4106 628 3988 
L 628 4550 
Q 988 4650 1302 4700 
Q 1616 4750 1894 4750 
Q 2613 4750 3031 4423 
Q 3450 4097 3450 3541 
Q 3450 3153 3228 2886 
Q 3006 2619 2597 2516 
z
" transform="scale(0.015625)"/>
       </defs>
       <use xlink:href="#DejaVuSans-34"/>
       <use xlink:href="#DejaVuSans-33" x="63.623047"/>
       <use xlink:href="#DejaVuSans-30" x="127.246094"/>
       <use xlink:href="#DejaVuSans-30" x="190.869141"/>
      </g>
     </g>
    </g>
    <g id="ytick_4">
     <g id="line2d_14">
      <path d="M 60.30875 141.12288 
L 395.10875 141.12288 
" clip-path="url(#pc6410c2714)" style="fill: none; stroke: #ffffff; stroke-linecap: round"/>
     </g>
     <g id="text_15">
      <!-- 4400 -->
      <g style="fill: #262626" transform="translate(22.81375 145.30202)scale(0.11 -0.11)">
       <use xlink:href="#DejaVuSans-34"/>
       <use xlink:href="#DejaVuSans-34" x="63.623047"/>
       <use xlink:href="#DejaVuSans-30" x="127.246094"/>
       <use xlink:href="#DejaVuSans-30" x="190.869141"/>
      </g>
     </g>
    </g>
    <g id="ytick_5">
     <g id="line2d_15">
      <path d="M 60.30875 114.764405 
L 395.10875 114.764405 
" clip-path="url(#pc6410c2714)" style="fill: none; stroke: #ffffff; stroke-linecap: round"/>
     </g>
     <g id="text_16">
      <!-- 4500 -->
      <g style="fill: #262626" transform="translate(22.81375 118.943546)scale(0.11 -0.11)">
       <use xlink:href="#DejaVuSans-34"/>
       <use xlink:href="#DejaVuSans-35" x="63.623047"/>
       <use xlink:href="#DejaVuSans-30" x="127.246094"/>
       <use xlink:href="#DejaVuSans-30" x="190.869141"/>
      </g>
     </g>
    </g>
    <g id="ytick_6">
     <g id="line2d_16">
      <path d="M 60.30875 88.405931 
L 395.10875 88.405931 
" clip-path="url(#pc6410c2714)" style="fill: none; stroke: #ffffff; stroke-linecap: round"/>
     </g>
     <g id="text_17">
      <!-- 4600 -->
      <g style="fill: #262626" transform="translate(22.81375 92.585072)scale(0.11 -0.11)">
       <use xlink:href="#DejaVuSans-34"/>
       <use xlink:href="#DejaVuSans-36" x="63.623047"/>
       <use xlink:href="#DejaVuSans-30" x="127.246094"/>
       <use xlink:href="#DejaVuSans-30" x="190.869141"/>
      </g>
     </g>
    </g>
    <g id="ytick_7">
     <g id="line2d_17">
      <path d="M 60.30875 62.047457 
L 395.10875 62.047457 
" clip-path="url(#pc6410c2714)" style="fill: none; stroke: #ffffff; stroke-linecap: round"/>
     </g>
     <g id="text_18">
      <!-- 4700 -->
      <g style="fill: #262626" transform="translate(22.81375 66.226597)scale(0.11 -0.11)">
       <use xlink:href="#DejaVuSans-34"/>
       <use xlink:href="#DejaVuSans-37" x="63.623047"/>
       <use xlink:href="#DejaVuSans-30" x="127.246094"/>
       <use xlink:href="#DejaVuSans-30" x="190.869141"/>
      </g>
     </g>
    </g>
    <g id="ytick_8">
     <g id="line2d_18">
      <path d="M 60.30875 35.688982 
L 395.10875 35.688982 
" clip-path="url(#pc6410c2714)" style="fill: none; stroke: #ffffff; stroke-linecap: round"/>
     </g>
     <g id="text_19">
      <!-- 4800 -->
      <g style="fill: #262626" transform="translate(22.81375 39.868123)scale(0.11 -0.11)">
       <use xlink:href="#DejaVuSans-34"/>
       <use xlink:href="#DejaVuSans-38" x="63.623047"/>
       <use xlink:href="#DejaVuSans-30" x="127.246094"/>
       <use xlink:href="#DejaVuSans-30" x="190.869141"/>
      </g>
     </g>
    </g>
    <g id="text_20">
     <!-- Close -->
     <g style="fill: #262626" transform="translate(16.318125 147.383437)rotate(-90)scale(0.12 -0.12)">
      <defs>
       <path id="DejaVuSans-43" d="M 4122 4306 
L 4122 3641 
Q 3803 3938 3442 4084 
Q 3081 4231 2675 4231 
Q 1875 4231 1450 3742 
Q 1025 3253 1025 2328 
Q 1025 1406 1450 917 
Q 1875 428 2675 428 
Q 3081 428 3442 575 
Q 3803 722 4122 1019 
L 4122 359 
Q 3791 134 3420 21 
Q 3050 -91 2638 -91 
Q 1578 -91 968 557 
Q 359 1206 359 2328 
Q 359 3453 968 4101 
Q 1578 4750 2638 4750 
Q 3056 4750 3426 4639 
Q 3797 4528 4122 4306 
z
" transform="scale(0.015625)"/>
       <path id="DejaVuSans-6c" d="M 603 4863 
L 1178 4863 
L 1178 0 
L 603 0 
L 603 4863 
z
" transform="scale(0.015625)"/>
       <path id="DejaVuSans-6f" d="M 1959 3097 
Q 1497 3097 1228 2736 
Q 959 2375 959 1747 
Q 959 1119 1226 758 
Q 1494 397 1959 397 
Q 2419 397 2687 759 
Q 2956 1122 2956 1747 
Q 2956 2369 2687 2733 
Q 2419 3097 1959 3097 
z
M 1959 3584 
Q 2709 3584 3137 3096 
Q 3566 2609 3566 1747 
Q 3566 888 3137 398 
Q 2709 -91 1959 -91 
Q 1206 -91 779 398 
Q 353 888 353 1747 
Q 353 2609 779 3096 
Q 1206 3584 1959 3584 
z
" transform="scale(0.015625)"/>
       <path id="DejaVuSans-73" d="M 2834 3397 
L 2834 2853 
Q 2591 2978 2328 3040 
Q 2066 3103 1784 3103 
Q 1356 3103 1142 2972 
Q 928 2841 928 2578 
Q 928 2378 1081 2264 
Q 1234 2150 1697 2047 
L 1894 2003 
Q 2506 1872 2764 1633 
Q 3022 1394 3022 966 
Q 3022 478 2636 193 
Q 2250 -91 1575 -91 
Q 1294 -91 989 -36 
Q 684 19 347 128 
L 347 722 
Q 666 556 975 473 
Q 1284 391 1588 391 
Q 1994 391 2212 530 
Q 2431 669 2431 922 
Q 2431 1156 2273 1281 
Q 2116 1406 1581 1522 
L 1381 1569 
Q 847 1681 609 1914 
Q 372 2147 372 2553 
Q 372 3047 722 3315 
Q 1072 3584 1716 3584 
Q 2034 3584 2315 3537 
Q 2597 3491 2834 3397 
z
" transform="scale(0.015625)"/>
      </defs>
      <use xlink:href="#DejaVuSans-43"/>
      <use xlink:href="#DejaVuSans-6c" x="69.824219"/>
      <use xlink:href="#DejaVuSans-6f" x="97.607422"/>
      <use xlink:href="#DejaVuSans-73" x="158.789062"/>
      <use xlink:href="#DejaVuSans-65" x="210.888672"/>
     </g>
    </g>
   </g>
   <g id="line2d_19">
    <path d="M 75.526932 192.711743 
L 75.574201 195.553129 
L 75.668738 195.189413 
L 75.716007 193.702759 
L 75.763276 194.546282 
L 75.810544 195.692773 
L 76.661382 205.81453 
L 76.708651 209.575889 
L 76.75592 208.11562 
L 76.897726 206.905678 
L 76.944995 202.867606 
L 77.795833 201.923952 
L 77.890371 198.146762 
L 77.937639 199.301361 
L 77.984908 198.71872 
L 78.079446 202.306201 
L 78.930284 206.022772 
L 79.024821 197.474673 
L 79.07209 199.694035 
L 79.119359 201.734243 
L 79.213896 193.747548 
L 80.112003 184.962248 
L 80.20654 187.276594 
L 80.301078 184.424525 
L 80.348347 185.529058 
L 83.468086 186.646591 
L 83.515355 185.373456 
L 83.562623 185.547463 
L 83.609892 186.628186 
L 83.751699 196.78405 
L 84.602536 212.406723 
L 84.744343 206.737076 
L 84.791612 205.071139 
L 84.83888 205.785443 
L 84.886149 206.544665 
L 85.736987 216.529224 
L 86.0206 229.874489 
L 86.871438 214.902927 
L 87.013244 220.395992 
L 87.107781 213.637643 
L 87.15505 217.159228 
L 88.005888 206.022772 
L 88.194963 200.200098 
L 88.242232 199.506901 
L 88.289501 200.983001 
L 91.40924 206.254696 
L 91.456509 206.639519 
L 91.503777 205.690588 
L 91.551046 207.459232 
L 91.598315 206.009516 
L 91.692853 203.563506 
L 92.54369 202.867606 
L 92.638228 203.808557 
L 92.685497 203.463246 
L 92.827303 212.928615 
L 93.678141 226.273944 
L 93.867216 218.176629 
L 93.914485 218.511386 
L 93.961754 216.044269 
L 94.812592 208.74292 
L 94.954398 204.18553 
L 95.001667 203.842921 
L 95.048936 201.083132 
L 95.096204 204.768042 
L 95.947042 200.360977 
L 96.088849 204.114357 
L 96.136117 204.011523 
L 96.183386 202.638256 
L 96.230655 205.390066 
L 99.350394 194.764949 
L 99.444932 194.941659 
L 99.539469 192.007863 
L 99.586738 192.282002 
L 99.634007 194.664818 
L 100.484845 193.570967 
L 100.532113 196.056617 
L 100.579382 194.048071 
L 100.626651 194.454002 
L 100.768457 196.902714 
L 101.619295 195.452998 
L 101.713833 193.990026 
L 101.761101 194.024389 
L 101.855639 194.909998 
L 101.902908 194.904721 
L 102.753746 191.406947 
L 102.801014 192.656271 
L 102.895552 192.374282 
L 103.037358 193.755528 
L 103.888196 192.079036 
L 103.982734 189.277161 
L 104.030003 190.632023 
L 104.077271 190.31567 
L 104.12454 190.592511 
L 104.171809 192.627313 
L 108.425999 191.422777 
L 108.520536 192.33477 
L 108.567805 194.192991 
L 108.615074 192.342621 
L 108.709611 193.465559 
L 109.560449 190.268307 
L 109.607718 189.588238 
L 109.796793 193.070182 
L 109.844062 191.625743 
L 110.6949 198.829534 
L 110.836706 193.091289 
L 110.978512 195.655964 
L 111.82935 189.074196 
L 112.018425 186.274895 
L 112.112963 186.050951 
L 115.232702 188.33621 
L 115.374508 189.372016 
L 115.516315 186.823172 
L 116.367153 187.708909 
L 116.414421 190.173324 
L 116.556228 185.950691 
L 116.603497 185.592252 
L 116.650765 186.641314 
L 117.548872 184.996612 
L 117.596141 185.729321 
L 117.64341 185.23111 
L 117.690678 185.360328 
L 117.785216 188.694649 
L 118.636054 182.980086 
L 118.683323 184.353352 
L 118.730591 184.192601 
L 118.77786 182.927446 
L 118.825129 183.125135 
L 118.919666 183.62592 
L 119.770504 183.222692 
L 119.865042 184.938567 
L 119.912311 184.218985 
L 120.054117 181.345938 
L 123.173856 183.699667 
L 123.362931 184.701366 
L 123.457469 179.334817 
L 124.308307 181.664865 
L 124.355575 182.284315 
L 124.402844 181.498837 
L 124.450113 182.265781 
L 124.497382 180.881961 
L 124.544651 181.480304 
L 124.591919 181.475027 
L 125.442757 181.833595 
L 125.490026 181.23255 
L 125.631832 188.908168 
L 125.679101 185.281175 
L 125.72637 187.708909 
L 126.577208 187.932853 
L 126.624477 187.743144 
L 126.671745 193.953216 
L 126.719014 187.284445 
L 126.766283 187.255487 
L 126.813552 186.398836 
L 126.86082 188.254483 
L 127.711658 198.360281 
L 127.758927 201.080558 
L 127.806196 196.847372 
L 127.900734 198.070312 
L 127.948002 198.631846 
L 127.995271 202.909821 
L 131.11501 192.005289 
L 131.304085 188.09103 
L 131.351354 188.083179 
L 131.398623 187.376726 
L 132.249461 186.269618 
L 132.343998 183.106601 
L 132.391267 183.204158 
L 132.438536 182.977512 
L 132.485805 179.426968 
L 132.533073 181.64646 
L 133.383911 179.861986 
L 133.43118 181.090204 
L 133.478449 180.655315 
L 133.525718 180.175637 
L 133.572986 181.016457 
L 133.620255 179.809218 
L 133.667524 182.919466 
L 134.518362 175.188634 
L 134.565631 176.619817 
L 134.660168 176.369488 
L 134.707437 175.357235 
L 134.754706 176.466917 
L 134.801975 176.306166 
L 135.652812 172.847904 
L 135.700081 173.061423 
L 135.74735 173.62553 
L 135.794619 173.409437 
L 135.889156 172.357672 
L 135.936425 172.573765 
L 139.056164 172.125748 
L 139.197971 174.028758 
L 139.339777 170.006517 
L 140.237884 168.079697 
L 140.37969 169.645375 
L 140.474227 169.632247 
L 141.372334 168.949475 
L 141.419603 169.21306 
L 141.466872 169.094524 
L 141.51414 169.057586 
L 141.608678 167.352136 
L 142.459516 165.024791 
L 142.506785 165.314631 
L 142.743129 162.164871 
L 143.641235 158.197843 
L 143.877579 153.674816 
L 148.131769 157.726145 
L 148.226306 162.328324 
L 148.273575 159.979743 
L 148.415381 156.155061 
L 149.266219 156.782491 
L 149.455294 152.325231 
L 149.502563 151.81119 
L 149.549832 151.956239 
L 150.40067 166.793434 
L 150.542476 160.219646 
L 150.589745 163.545988 
L 150.637014 163.45641 
L 150.684283 161.671936 
L 151.724196 150.187595 
L 151.818733 149.199152 
L 154.938472 146.882232 
L 154.985741 147.066664 
L 155.222085 144.913198 
L 156.072923 145.013329 
L 156.120192 143.553188 
L 156.16746 144.109316 
L 156.356536 149.019868 
L 157.207373 146.225844 
L 157.254642 148.490125 
L 157.34918 148.305564 
L 157.396449 146.278613 
L 157.443717 147.451488 
L 157.490986 147.649176 
L 158.341824 151.824446 
L 158.389093 150.714765 
L 158.436362 151.90347 
L 158.48363 153.711625 
L 158.530899 153.58511 
L 158.625437 151.737443 
L 159.523543 155.770238 
L 159.570812 153.827716 
L 159.618081 154.52619 
L 159.759887 160.414632 
L 162.879626 180.022737 
L 162.926895 179.057976 
L 163.11597 184.16892 
L 163.163239 178.383183 
L 164.014077 166.5377 
L 164.250421 158.609051 
L 164.29769 161.326625 
L 165.195796 155.467141 
L 165.43214 152.106436 
L 166.330247 151.692654 
L 166.377516 152.944681 
L 166.519322 149.468014 
L 166.566591 149.723619 
L 167.417429 144.109316 
L 167.559235 138.131167 
L 167.653773 138.82179 
L 167.701041 138.197063 
L 170.82078 139.074821 
L 170.962587 136.607704 
L 171.009855 136.552362 
L 171.104393 135.176393 
L 171.955231 140.126586 
L 172.097037 147.638751 
L 172.238844 140.677437 
L 173.089682 139.992091 
L 173.184219 140.906787 
L 173.231488 142.670153 
L 173.326025 138.958859 
L 173.373294 141.033302 
L 174.271401 134.854891 
L 174.365938 133.4156 
L 174.507745 136.088386 
L 175.45312 141.684284 
L 175.500389 141.370634 
L 175.547658 142.865139 
L 175.594927 142.158814 
L 175.642195 142.18507 
L 178.761934 136.868586 
L 178.809203 137.43797 
L 178.856472 141.779268 
L 178.95101 141.365357 
L 179.045547 144.520523 
L 179.896385 143.764004 
L 179.943654 143.97482 
L 180.132729 135.703562 
L 180.179998 134.936489 
L 181.030836 138.626676 
L 181.078104 139.981537 
L 181.125373 139.781275 
L 181.219911 137.854455 
L 181.267179 138.792832 
L 181.314448 140.479749 
L 182.165286 136.855458 
L 182.212555 135.237012 
L 182.259824 135.88542 
L 182.307092 135.980403 
L 182.354361 135.777438 
L 182.40163 135.830078 
L 182.448899 133.473645 
L 183.441543 131.349137 
L 183.488812 131.567933 
L 183.536081 131.705002 
L 183.583349 131.581061 
L 186.703088 133.51586 
L 186.892164 131.423013 
L 186.939432 132.187383 
L 186.986701 132.556376 
L 187.837539 130.199944 
L 187.884808 131.36767 
L 187.932077 130.184113 
L 188.121152 131.415033 
L 188.97199 128.639542 
L 189.019258 130.677047 
L 189.066527 130.445124 
L 189.208334 128.594754 
L 189.255602 128.592051 
L 190.10644 129.546259 
L 190.390053 125.220792 
L 191.240891 124.488083 
L 191.382697 124.000425 
L 191.429966 123.884463 
L 191.477235 124.285117 
L 191.524503 123.206968 
L 194.644243 130.793009 
L 194.927855 120.094146 
L 195.778693 126.346304 
L 195.920499 133.183676 
L 195.967768 132.590611 
L 196.062306 128.420747 
L 196.913144 127.922535 
L 197.007681 130.985421 
L 197.05495 130.914248 
L 197.102219 130.471379 
L 197.196756 140.930468 
L 198.047594 141.531385 
L 198.094863 141.900506 
L 198.142132 138.510714 
L 198.189401 140.456067 
L 198.236669 143.858859 
L 198.283938 136.773732 
L 198.331207 139.588863 
L 199.182045 132.371815 
L 199.229314 133.323448 
L 199.323851 130.621705 
L 199.37112 132.013376 
L 199.418389 130.210497 
L 199.465657 130.263137 
L 202.585397 120.932263 
L 202.679934 118.349184 
L 202.727203 118.828862 
L 202.82174 118.441464 
L 202.869009 120.276004 
L 203.719847 117.049665 
L 203.814385 118.807754 
L 203.861653 117.980191 
L 203.956191 116.841422 
L 204.00346 118.393973 
L 204.854298 117.302696 
L 204.948835 114.630039 
L 204.996104 115.238807 
L 205.043373 114.896198 
L 205.13791 115.779232 
L 206.036017 119.47727 
L 206.083286 118.209412 
L 206.130555 119.704045 
L 206.272361 122.748398 
L 207.217736 112.982634 
L 207.265005 111.859696 
L 207.359543 111.915039 
L 207.406812 112.468593 
L 210.526551 107.17579 
L 210.668357 105.79995 
L 210.715626 105.388742 
L 210.762894 105.760309 
L 210.810163 107.291752 
L 211.661001 108.831175 
L 211.755539 106.559043 
L 211.897345 109.716783 
L 211.944614 108.846877 
L 212.842721 107.017614 
L 212.937258 105.24112 
L 212.984527 105.979105 
L 213.079064 108.41469 
L 213.977171 103.801957 
L 214.118977 107.734621 
L 214.166246 107.249666 
L 214.213515 105.009196 
L 215.064353 106.48787 
L 215.253428 104.576881 
L 215.300697 104.742908 
L 215.347966 105.480894 
L 219.649424 110.576008 
L 219.743962 107.724067 
L 219.79123 108.354071 
L 219.885768 109.397856 
L 220.736606 111.219139 
L 220.783875 113.217132 
L 220.831143 111.485427 
L 220.878412 111.994192 
L 220.925681 111.603963 
L 221.020218 111.074219 
L 221.871056 107.631787 
L 222.060131 115.038544 
L 222.1074 114.677402 
L 222.154669 116.614776 
L 223.005507 116.106011 
L 223.052776 120.11255 
L 223.100045 116.659564 
L 223.147313 116.78608 
L 223.28912 125.529165 
L 226.408859 124.190134 
L 226.550665 126.048484 
L 226.597934 128.299508 
L 226.692471 122.901297 
L 227.590578 125.291965 
L 227.637847 124.73056 
L 227.779653 131.212068 
L 227.826922 129.548833 
L 228.67776 128.60003 
L 228.914104 119.440461 
L 228.961373 119.701343 
L 229.859479 127.353151 
L 230.048554 120.787343 
L 230.095823 121.678228 
L 230.946661 128.201951 
L 231.135736 132.991265 
L 231.230274 132.374518 
L 234.350013 150.430073 
L 234.397282 150.250789 
L 234.539088 162.673507 
L 234.586357 160.752092 
L 234.633625 152.198716 
L 235.484463 149.167491 
L 235.531732 151.236657 
L 235.579001 147.029855 
L 235.62627 151.505519 
L 235.673538 153.419082 
L 235.720807 147.994488 
L 235.768076 153.403252 
L 236.618914 143.534655 
L 236.807989 138.091655 
L 236.902527 142.27735 
L 237.895171 125.001996 
L 237.94244 125.423757 
L 238.036977 128.412767 
L 238.887815 128.336446 
L 238.935084 130.445124 
L 238.982353 127.706442 
L 239.029621 127.42175 
L 239.07689 128.304785 
L 239.124159 126.016823 
L 239.171428 126.472819 
L 242.291167 126.675785 
L 242.338436 128.739674 
L 242.432973 128.5842 
L 242.480242 127.102823 
L 242.527511 128.088563 
L 242.574779 129.633262 
L 243.472886 150.988903 
L 243.567424 150.788512 
L 243.614692 149.528633 
L 243.661961 150.314111 
L 243.70923 153.45602 
L 244.560068 146.610668 
L 244.654606 151.236657 
L 244.701874 150.899197 
L 244.749143 146.950703 
L 244.796412 147.037706 
L 244.843681 151.774381 
L 245.694519 149.794792 
L 245.741787 150.988903 
L 245.789056 162.127933 
L 245.836325 160.91014 
L 245.883594 156.426626 
L 245.930862 157.277999 
L 245.978131 165.760202 
L 246.828969 169.265828 
L 247.018044 152.710055 
L 247.065313 150.606654 
L 247.112582 152.981619 
L 250.232321 163.351002 
L 250.374127 170.91053 
L 250.515933 167.191385 
L 251.555847 150.079484 
L 251.603115 151.813893 
L 251.650384 155.567272 
L 252.501222 162.027801 
L 252.59576 164.77176 
L 252.784835 150.807045 
L 253.635673 133.850618 
L 253.682941 135.218607 
L 253.73021 134.754631 
L 253.777479 134.364531 
L 253.919285 141.246821 
L 254.817392 140.010496 
L 254.911929 144.161955 
L 254.959198 139.797105 
L 255.006467 140.532388 
L 255.053736 143.505696 
L 258.173475 137.142724 
L 258.457088 151.46073 
L 259.307925 151.726889 
L 259.402463 150.266619 
L 259.591538 154.196709 
L 260.442376 158.590646 
L 260.631451 151.336789 
L 260.67872 152.077477 
L 260.725989 150.617207 
L 261.765902 131.088255 
L 261.860439 131.154151 
L 262.711277 125.819134 
L 262.900352 121.588651 
L 262.99489 122.405789 
L 266.114629 122.461131 
L 266.256435 119.511505 
L 266.303704 119.862093 
L 266.398242 118.304395 
L 267.532692 109.437368 
L 268.38353 104.677012 
L 268.525336 106.445656 
L 268.667143 105.114604 
L 269.517981 104.650628 
L 269.565249 107.484164 
L 269.612518 105.388742 
L 269.707056 104.85887 
L 269.801593 101.619403 
L 270.652431 99.094241 
L 270.746969 105.143562 
L 270.794238 103.583161 
L 270.841506 102.325857 
L 270.888775 103.514562 
L 270.936044 102.881985 
L 274.055783 101.092234 
L 274.244858 95.949757 
L 274.339396 97.080546 
L 275.237502 89.447142 
L 275.33204 94.684473 
L 275.379309 93.348145 
L 275.426577 93.421892 
L 275.473846 95.135193 
L 276.324684 95.752069 
L 276.46649 93.269121 
L 276.513759 93.62756 
L 276.608297 101.071127 
L 277.506404 91.352855 
L 277.553672 92.035498 
L 277.600941 92.639118 
L 277.742747 89.44444 
L 278.593585 93.474661 
L 278.688123 87.335762 
L 278.735392 88.044789 
L 278.78266 90.693893 
L 278.829929 90.535716 
L 278.877198 87.153904 
L 281.996937 87.667945 
L 282.091475 85.864938 
L 282.138743 86.882468 
L 282.186012 88.677367 
L 282.233281 86.581945 
L 282.28055 84.863368 
L 283.131388 81.631752 
L 283.178656 80.332361 
L 283.225925 80.50624 
L 283.320463 81.165202 
L 283.367731 80.216399 
L 283.415 80.282296 
L 284.313107 81.742565 
L 284.360376 81.383998 
L 284.407645 81.679243 
L 284.549451 72.461628 
L 285.400289 67.595864 
L 285.447558 71.162238 
L 285.494826 69.398871 
L 285.542095 69.124733 
L 285.589364 69.169522 
L 285.636633 69.451511 
L 285.683901 67.29547 
L 286.534739 59.005679 
L 286.629277 60.19181 
L 286.676546 66.910647 
L 286.723814 62.369087 
L 286.771083 63.494599 
L 286.818352 62.996388 
L 289.98536 60.260409 
L 290.079897 62.572052 
L 290.174435 61.615142 
L 290.221704 61.272533 
L 290.268973 61.620419 
L 291.11981 66.428266 
L 291.214348 68.391895 
L 291.261617 68.041436 
L 291.356154 67.44837 
L 291.403423 65.882563 
L 292.254261 67.303321 
L 292.348799 69.607114 
L 292.443336 78.268472 
L 292.537874 76.13341 
L 293.388712 74.325255 
L 293.43598 73.869258 
L 293.483249 74.422812 
L 293.577787 73.900919 
L 293.672324 75.448064 
L 294.523162 73.776978 
L 294.6177 66.80511 
L 294.664968 68.18893 
L 294.712237 68.515837 
L 294.806775 66.538951 
L 297.973783 65.376501 
L 298.021051 68.376065 
L 298.115589 67.801532 
L 298.162858 66.093508 
L 298.210127 66.502013 
L 299.060964 64.406592 
L 299.202771 59.169132 
L 299.25004 59.066298 
L 299.344577 61.981561 
L 300.195415 64.822947 
L 300.242684 63.876719 
L 300.289953 65.674321 
L 300.337221 63.839782 
L 300.479028 64.915228 
L 301.329866 68.273359 
L 301.424403 59.930928 
L 301.518941 62.564073 
L 301.56621 60.405329 
L 301.613478 60.805983 
L 302.464316 62.593031 
L 302.558854 58.628706 
L 302.606123 61.802277 
L 302.70066 61.752211 
L 302.747929 62.587754 
L 305.867668 51.57524 
L 305.962206 59.158578 
L 306.056743 57.200097 
L 306.104012 56.306638 
L 306.151281 66.639082 
L 307.002119 70.250245 
L 307.049387 68.924342 
L 307.096656 69.599134 
L 307.143925 72.000355 
L 307.191194 70.37676 
L 307.285731 64.348546 
L 308.136569 66.902667 
L 308.278375 62.985834 
L 308.325644 65.690152 
L 308.420182 61.620419 
L 310.40547 83.861668 
L 310.452739 89.13864 
L 310.500008 84.652423 
L 310.570911 89.823986 
L 313.808822 79.219977 
L 313.856091 78.437202 
L 313.950628 70.553342 
L 313.997897 70.9724 
L 314.045166 71.080511 
L 314.092435 74.232974 
L 314.943273 79.433496 
L 315.085079 94.233754 
L 315.132348 90.556824 
L 315.226885 96.761619 
L 316.077723 80.469431 
L 316.124992 75.490279 
L 316.172261 80.000178 
L 316.361336 111.828035 
L 317.212174 100.283075 
L 317.401249 90.683339 
L 317.495786 94.600173 
L 318.346624 98.596159 
L 318.535699 111.150669 
L 318.582968 110.336233 
L 318.630237 104.584732 
L 321.749976 92.230484 
L 321.797245 93.735671 
L 321.891782 86.15761 
L 321.939051 86.566115 
L 322.033589 90.941647 
L 322.931695 65.194643 
L 323.026233 65.437121 
L 323.073502 65.089235 
L 323.120771 67.659186 
L 323.168039 65.584743 
L 324.018877 67.105633 
L 324.30249 61.760191 
L 325.153328 67.42456 
L 325.200597 64.42757 
L 325.295134 64.759754 
L 325.389672 69.253822 
L 325.43694 70.579726 
L 326.287778 62.569349 
L 326.335047 66.024909 
L 326.382316 64.58047 
L 326.571391 58.97672 
L 329.69113 66.662764 
L 329.738399 68.916491 
L 329.785668 66.536248 
L 329.832936 67.535245 
L 329.880205 66.251685 
L 329.927474 66.3782 
L 329.974743 70.202753 
L 330.825581 76.230967 
L 330.920118 84.431053 
L 330.967387 83.803752 
L 331.061925 77.129832 
L 331.109193 79.243787 
L 331.960031 82.469998 
L 332.0073 83.453163 
L 332.054569 82.219541 
L 332.101838 81.858527 
L 332.149106 77.812476 
L 332.243644 59.841222 
L 333.094482 56.251166 
L 333.378094 70.313438 
L 334.228932 84.847537 
L 334.276201 72.556611 
L 334.370739 75.61422 
L 334.512545 83.065766 
L 337.632284 103.359088 
L 337.679553 104.893105 
L 337.915897 96.872304 
L 338.766735 91.471391 
L 339.050347 75.495556 
L 339.901185 72.366774 
L 339.995723 66.241131 
L 340.042992 66.82892 
L 340.09026 69.237992 
L 340.137529 66.148851 
L 340.184798 62.996388 
L 341.224711 53.003849 
L 341.27198 53.285838 
L 341.319249 55.381388 
L 345.573438 44.80904 
L 345.857051 38.061245 
L 346.707889 36.10019 
L 346.896964 39.48728 
L 346.944233 38.688546 
L 346.991501 39.078646 
L 347.842339 39.56373 
L 347.889608 39.413404 
L 347.936877 40.536342 
L 347.984146 39.236823 
L 348.078683 36.334816 
L 348.125952 37.549906 
L 348.97679 33.938744 
L 349.071327 36.021037 
L 349.118596 35.886671 
L 349.165865 35.601979 
L 349.260403 41.150515 
L 350.111241 41.371885 
L 350.158509 41.630193 
L 350.205778 43.483137 
L 350.347584 40.185754 
L 350.394853 44.624479 
L 353.514592 39.605816 
L 353.561861 42.673978 
L 353.60913 41.469442 
L 353.656399 41.121428 
L 353.798205 36.759152 
L 354.649043 32.201761 
L 354.790849 39.344934 
L 354.838118 40.169923 
L 354.885387 35.578297 
L 354.932655 37.431241 
L 355.783493 36.948861 
L 355.9253 42.046677 
L 356.067106 61.918238 
L 356.917944 63.391765 
L 357.012482 58.454828 
L 357.05975 61.040609 
L 357.107019 60.866602 
L 357.154288 60.186533 
L 357.201557 63.0359 
L 358.052395 65.561062 
L 358.099663 67.071397 
L 358.146932 65.484612 
L 358.194201 65.663896 
L 358.336007 68.239124 
L 361.455746 89.228346 
L 361.644821 75.832887 
L 361.69209 76.937421 
L 361.739359 69.994511 
L 362.590197 73.558182 
L 362.779272 61.955176 
L 362.87381 58.65509 
L 363.724647 51.517195 
L 363.771916 56.770485 
L 363.866454 55.544842 
L 363.913723 54.851645 
L 363.960991 56.272274 
L 364.00826 55.049333 
L 364.859098 54.964904 
L 364.906367 55.397219 
L 365.048173 64.622685 
L 365.142711 72.535504 
L 365.993549 76.228264 
L 366.135355 83.181728 
L 366.277161 72.084784 
L 370.531351 86.877191 
L 370.673157 94.847927 
L 370.720426 91.803575 
L 370.767695 92.24374 
L 370.814964 93.972872 
L 371.665801 93.906976 
L 371.71307 96.313473 
L 371.760339 89.404928 
L 371.807608 92.499346 
L 371.949414 106.037151 
L 372.800252 93.603879 
L 372.847521 89.752813 
L 372.89479 91.184125 
L 373.083865 119.437758 
L 373.934703 130.215774 
L 373.981971 117.489831 
L 374.02924 127.906705 
L 374.218315 141.684284 
L 377.338054 167.520866 
L 377.385323 170.156714 
L 377.432592 183.45719 
L 377.479861 173.169534 
L 377.574398 155.517207 
L 377.621667 137.994098 
L 378.519774 158.066051 
L 378.567043 157.570542 
L 378.66158 144.314855 
L 378.756118 152.185588 
L 379.606956 139.746911 
L 379.701493 133.618566 
L 379.748762 135.237012 
L 379.796031 133.262829 
L 379.843299 155.883626 
L 379.890568 155.024401 
" clip-path="url(#pc6410c2714)" style="fill: none; stroke: #4c72b0; stroke-width: 1.5; stroke-linecap: round"/>
   </g>
   <g id="line2d_20"/>
   <g id="patch_3">
    <path d="M 60.30875 239.758125 
L 60.30875 22.318125 
" style="fill: none; stroke: #ffffff; stroke-width: 1.25; stroke-linejoin: miter; stroke-linecap: square"/>
   </g>
   <g id="patch_4">
    <path d="M 395.10875 239.758125 
L 395.10875 22.318125 
" style="fill: none; stroke: #ffffff; stroke-width: 1.25; stroke-linejoin: miter; stroke-linecap: square"/>
   </g>
   <g id="patch_5">
    <path d="M 60.30875 239.758125 
L 395.10875 239.758125 
" style="fill: none; stroke: #ffffff; stroke-width: 1.25; stroke-linejoin: miter; stroke-linecap: square"/>
   </g>
   <g id="patch_6">
    <path d="M 60.30875 22.318125 
L 395.10875 22.318125 
" style="fill: none; stroke: #ffffff; stroke-width: 1.25; stroke-linejoin: miter; stroke-linecap: square"/>
   </g>
   <g id="text_21">
    <!-- ^GSPC -->
    <g style="fill: #262626" transform="translate(206.415312 16.318125)scale(0.12 -0.12)">
     <defs>
      <path id="DejaVuSans-5e" d="M 2988 4666 
L 4684 2925 
L 4056 2925 
L 2681 4159 
L 1306 2925 
L 678 2925 
L 2375 4666 
L 2988 4666 
z
" transform="scale(0.015625)"/>
      <path id="DejaVuSans-47" d="M 3809 666 
L 3809 1919 
L 2778 1919 
L 2778 2438 
L 4434 2438 
L 4434 434 
Q 4069 175 3628 42 
Q 3188 -91 2688 -91 
Q 1594 -91 976 548 
Q 359 1188 359 2328 
Q 359 3472 976 4111 
Q 1594 4750 2688 4750 
Q 3144 4750 3555 4637 
Q 3966 4525 4313 4306 
L 4313 3634 
Q 3963 3931 3569 4081 
Q 3175 4231 2741 4231 
Q 1884 4231 1454 3753 
Q 1025 3275 1025 2328 
Q 1025 1384 1454 906 
Q 1884 428 2741 428 
Q 3075 428 3337 486 
Q 3600 544 3809 666 
z
" transform="scale(0.015625)"/>
      <path id="DejaVuSans-53" d="M 3425 4513 
L 3425 3897 
Q 3066 4069 2747 4153 
Q 2428 4238 2131 4238 
Q 1616 4238 1336 4038 
Q 1056 3838 1056 3469 
Q 1056 3159 1242 3001 
Q 1428 2844 1947 2747 
L 2328 2669 
Q 3034 2534 3370 2195 
Q 3706 1856 3706 1288 
Q 3706 609 3251 259 
Q 2797 -91 1919 -91 
Q 1588 -91 1214 -16 
Q 841 59 441 206 
L 441 856 
Q 825 641 1194 531 
Q 1563 422 1919 422 
Q 2459 422 2753 634 
Q 3047 847 3047 1241 
Q 3047 1584 2836 1778 
Q 2625 1972 2144 2069 
L 1759 2144 
Q 1053 2284 737 2584 
Q 422 2884 422 3419 
Q 422 4038 858 4394 
Q 1294 4750 2059 4750 
Q 2388 4750 2728 4690 
Q 3069 4631 3425 4513 
z
" transform="scale(0.015625)"/>
      <path id="DejaVuSans-50" d="M 1259 4147 
L 1259 2394 
L 2053 2394 
Q 2494 2394 2734 2622 
Q 2975 2850 2975 3272 
Q 2975 3691 2734 3919 
Q 2494 4147 2053 4147 
L 1259 4147 
z
M 628 4666 
L 2053 4666 
Q 2838 4666 3239 4311 
Q 3641 3956 3641 3272 
Q 3641 2581 3239 2228 
Q 2838 1875 2053 1875 
L 1259 1875 
L 1259 0 
L 628 0 
L 628 4666 
z
" transform="scale(0.015625)"/>
     </defs>
     <use xlink:href="#DejaVuSans-5e"/>
     <use xlink:href="#DejaVuSans-47" x="83.789062"/>
     <use xlink:href="#DejaVuSans-53" x="161.279297"/>
     <use xlink:href="#DejaVuSans-50" x="224.755859"/>
     <use xlink:href="#DejaVuSans-43" x="285.058594"/>
    </g>
   </g>
   <g id="legend_1">
    <g id="patch_7">
     <path d="M 68.00875 64.377813 
L 142.246719 64.377813 
Q 144.446719 64.377813 144.446719 62.177813 
L 144.446719 30.018125 
Q 144.446719 27.818125 142.246719 27.818125 
L 68.00875 27.818125 
Q 65.80875 27.818125 65.80875 30.018125 
L 65.80875 62.177813 
Q 65.80875 64.377813 68.00875 64.377813 
z
" style="fill: #eaeaf2; opacity: 0.8; stroke: #cccccc; stroke-linejoin: miter"/>
    </g>
    <g id="text_22">
     <!-- Ticker -->
     <g style="fill: #262626" transform="translate(87.269297 41.33625)scale(0.12 -0.12)">
      <defs>
       <path id="DejaVuSans-54" d="M -19 4666 
L 3928 4666 
L 3928 4134 
L 2272 4134 
L 2272 0 
L 1638 0 
L 1638 4134 
L -19 4134 
L -19 4666 
z
" transform="scale(0.015625)"/>
       <path id="DejaVuSans-63" d="M 3122 3366 
L 3122 2828 
Q 2878 2963 2633 3030 
Q 2388 3097 2138 3097 
Q 1578 3097 1268 2742 
Q 959 2388 959 1747 
Q 959 1106 1268 751 
Q 1578 397 2138 397 
Q 2388 397 2633 464 
Q 2878 531 3122 666 
L 3122 134 
Q 2881 22 2623 -34 
Q 2366 -91 2075 -91 
Q 1284 -91 818 406 
Q 353 903 353 1747 
Q 353 2603 823 3093 
Q 1294 3584 2113 3584 
Q 2378 3584 2631 3529 
Q 2884 3475 3122 3366 
z
" transform="scale(0.015625)"/>
       <path id="DejaVuSans-6b" d="M 581 4863 
L 1159 4863 
L 1159 1991 
L 2875 3500 
L 3609 3500 
L 1753 1863 
L 3688 0 
L 2938 0 
L 1159 1709 
L 1159 0 
L 581 0 
L 581 4863 
z
" transform="scale(0.015625)"/>
       <path id="DejaVuSans-72" d="M 2631 2963 
Q 2534 3019 2420 3045 
Q 2306 3072 2169 3072 
Q 1681 3072 1420 2755 
Q 1159 2438 1159 1844 
L 1159 0 
L 581 0 
L 581 3500 
L 1159 3500 
L 1159 2956 
Q 1341 3275 1631 3429 
Q 1922 3584 2338 3584 
Q 2397 3584 2469 3576 
Q 2541 3569 2628 3553 
L 2631 2963 
z
" transform="scale(0.015625)"/>
      </defs>
      <use xlink:href="#DejaVuSans-54"/>
      <use xlink:href="#DejaVuSans-69" x="57.958984"/>
      <use xlink:href="#DejaVuSans-63" x="85.742188"/>
      <use xlink:href="#DejaVuSans-6b" x="140.722656"/>
      <use xlink:href="#DejaVuSans-65" x="195.007812"/>
      <use xlink:href="#DejaVuSans-72" x="256.53125"/>
     </g>
    </g>
    <g id="line2d_21">
     <path d="M 70.20875 53.840156 
L 81.20875 53.840156 
L 92.20875 53.840156 
" style="fill: none; stroke: #4c72b0; stroke-width: 1.5; stroke-linecap: round"/>
    </g>
    <g id="text_23">
     <!-- ^GSPC -->
     <g style="fill: #262626" transform="translate(101.00875 57.690156)scale(0.11 -0.11)">
      <use xlink:href="#DejaVuSans-5e"/>
      <use xlink:href="#DejaVuSans-47" x="83.789062"/>
      <use xlink:href="#DejaVuSans-53" x="161.279297"/>
      <use xlink:href="#DejaVuSans-50" x="224.755859"/>
      <use xlink:href="#DejaVuSans-43" x="285.058594"/>
     </g>
    </g>
   </g>
  </g>
 </g>
 <defs>
  <clipPath id="pc6410c2714">
   <rect x="60.30875" y="22.318125" width="334.8" height="217.44"/>
  </clipPath>
 </defs>
</svg>
