<?xml version="1.0" encoding="utf-8" standalone="no"?>
<!DOCTYPE svg PUBLIC "-//W3C//DTD SVG 1.1//EN"
  "http://www.w3.org/Graphics/SVG/1.1/DTD/svg11.dtd">
<svg xmlns:xlink="http://www.w3.org/1999/xlink" width="402.30875pt" height="312.099091pt" viewBox="0 0 402.30875 312.099091" xmlns="http://www.w3.org/2000/svg" version="1.1">
 <metadata>
  <rdf:RDF xmlns:dc="http://purl.org/dc/elements/1.1/" xmlns:cc="http://creativecommons.org/ns#" xmlns:rdf="http://www.w3.org/1999/02/22-rdf-syntax-ns#">
   <cc:Work>
    <dc:type rdf:resource="http://purl.org/dc/dcmitype/StillImage"/>
    <dc:date>2022-01-27T20:19:38.927717</dc:date>
    <dc:format>image/svg+xml</dc:format>
    <dc:creator>
     <cc:Agent>
      <dc:title>Matplotlib v3.5.0, https://matplotlib.org/</dc:title>
     </cc:Agent>
    </dc:creator>
   </cc:Work>
  </rdf:RDF>
 </metadata>
 <defs>
  <style type="text/css">*{stroke-linejoin: round; stroke-linecap: butt}</style>
 </defs>
 <g id="figure_1">
  <g id="patch_1">
   <path d="M 0 312.099091 
L 402.30875 312.099091 
L 402.30875 0 
L 0 0 
z
" style="fill: #ffffff"/>
  </g>
  <g id="axes_1">
   <g id="patch_2">
    <path d="M 60.30875 239.758125 
L 395.10875 239.758125 
L 395.10875 22.318125 
L 60.30875 22.318125 
z
" style="fill: #eaeaf2"/>
   </g>
   <g id="matplotlib.axis_1">
    <g id="xtick_1">
     <g id="line2d_1">
      <path d="M 64.092862 239.758125 
L 64.092862 22.318125 
" clip-path="url(#p2a2ee16e91)" style="fill: none; stroke: #ffffff; stroke-linecap: round"/>
     </g>
     <g id="text_1">
      <!-- 2020-01 -->
      <g style="fill: #262626" transform="translate(49.989451 287.667723)rotate(-45)scale(0.11 -0.11)">
       <defs>
        <path id="DejaVuSans-32" d="M 1228 531 
L 3431 531 
L 3431 0 
L 469 0 
L 469 531 
Q 828 903 1448 1529 
Q 2069 2156 2228 2338 
Q 2531 2678 2651 2914 
Q 2772 3150 2772 3378 
Q 2772 3750 2511 3984 
Q 2250 4219 1831 4219 
Q 1534 4219 1204 4116 
Q 875 4013 500 3803 
L 500 4441 
Q 881 4594 1212 4672 
Q 1544 4750 1819 4750 
Q 2544 4750 2975 4387 
Q 3406 4025 3406 3419 
Q 3406 3131 3298 2873 
Q 3191 2616 2906 2266 
Q 2828 2175 2409 1742 
Q 1991 1309 1228 531 
z
" transform="scale(0.015625)"/>
        <path id="DejaVuSans-30" d="M 2034 4250 
Q 1547 4250 1301 3770 
Q 1056 3291 1056 2328 
Q 1056 1369 1301 889 
Q 1547 409 2034 409 
Q 2525 409 2770 889 
Q 3016 1369 3016 2328 
Q 3016 3291 2770 3770 
Q 2525 4250 2034 4250 
z
M 2034 4750 
Q 2819 4750 3233 4129 
Q 3647 3509 3647 2328 
Q 3647 1150 3233 529 
Q 2819 -91 2034 -91 
Q 1250 -91 836 529 
Q 422 1150 422 2328 
Q 422 3509 836 4129 
Q 1250 4750 2034 4750 
z
" transform="scale(0.015625)"/>
        <path id="DejaVuSans-2d" d="M 313 2009 
L 1997 2009 
L 1997 1497 
L 313 1497 
L 313 2009 
z
" transform="scale(0.015625)"/>
        <path id="DejaVuSans-31" d="M 794 531 
L 1825 531 
L 1825 4091 
L 703 3866 
L 703 4441 
L 1819 4666 
L 2450 4666 
L 2450 531 
L 3481 531 
L 3481 0 
L 794 0 
L 794 531 
z
" transform="scale(0.015625)"/>
       </defs>
       <use xlink:href="#DejaVuSans-32"/>
       <use xlink:href="#DejaVuSans-30" x="63.623047"/>
       <use xlink:href="#DejaVuSans-32" x="127.246094"/>
       <use xlink:href="#DejaVuSans-30" x="190.869141"/>
       <use xlink:href="#DejaVuSans-2d" x="254.492188"/>
       <use xlink:href="#DejaVuSans-30" x="290.576172"/>
       <use xlink:href="#DejaVuSans-31" x="354.199219"/>
      </g>
     </g>
    </g>
    <g id="xtick_2">
     <g id="line2d_2">
      <path d="M 102.055713 239.758125 
L 102.055713 22.318125 
" clip-path="url(#p2a2ee16e91)" style="fill: none; stroke: #ffffff; stroke-linecap: round"/>
     </g>
     <g id="text_2">
      <!-- 2020-04 -->
      <g style="fill: #262626" transform="translate(87.952302 287.667723)rotate(-45)scale(0.11 -0.11)">
       <defs>
        <path id="DejaVuSans-34" d="M 2419 4116 
L 825 1625 
L 2419 1625 
L 2419 4116 
z
M 2253 4666 
L 3047 4666 
L 3047 1625 
L 3713 1625 
L 3713 1100 
L 3047 1100 
L 3047 0 
L 2419 0 
L 2419 1100 
L 313 1100 
L 313 1709 
L 2253 4666 
z
" transform="scale(0.015625)"/>
       </defs>
       <use xlink:href="#DejaVuSans-32"/>
       <use xlink:href="#DejaVuSans-30" x="63.623047"/>
       <use xlink:href="#DejaVuSans-32" x="127.246094"/>
       <use xlink:href="#DejaVuSans-30" x="190.869141"/>
       <use xlink:href="#DejaVuSans-2d" x="254.492188"/>
       <use xlink:href="#DejaVuSans-30" x="290.576172"/>
       <use xlink:href="#DejaVuSans-34" x="354.199219"/>
      </g>
     </g>
    </g>
    <g id="xtick_3">
     <g id="line2d_3">
      <path d="M 140.035954 239.758125 
L 140.035954 22.318125 
" clip-path="url(#p2a2ee16e91)" style="fill: none; stroke: #ffffff; stroke-linecap: round"/>
     </g>
     <g id="text_3">
      <!-- 2020-07 -->
      <g style="fill: #262626" transform="translate(125.932544 287.667723)rotate(-45)scale(0.11 -0.11)">
       <defs>
        <path id="DejaVuSans-37" d="M 525 4666 
L 3525 4666 
L 3525 4397 
L 1831 0 
L 1172 0 
L 2766 4134 
L 525 4134 
L 525 4666 
z
" transform="scale(0.015625)"/>
       </defs>
       <use xlink:href="#DejaVuSans-32"/>
       <use xlink:href="#DejaVuSans-30" x="63.623047"/>
       <use xlink:href="#DejaVuSans-32" x="127.246094"/>
       <use xlink:href="#DejaVuSans-30" x="190.869141"/>
       <use xlink:href="#DejaVuSans-2d" x="254.492188"/>
       <use xlink:href="#DejaVuSans-30" x="290.576172"/>
       <use xlink:href="#DejaVuSans-37" x="354.199219"/>
      </g>
     </g>
    </g>
    <g id="xtick_4">
     <g id="line2d_4">
      <path d="M 178.433561 239.758125 
L 178.433561 22.318125 
" clip-path="url(#p2a2ee16e91)" style="fill: none; stroke: #ffffff; stroke-linecap: round"/>
     </g>
     <g id="text_4">
      <!-- 2020-10 -->
      <g style="fill: #262626" transform="translate(164.33015 287.667723)rotate(-45)scale(0.11 -0.11)">
       <use xlink:href="#DejaVuSans-32"/>
       <use xlink:href="#DejaVuSans-30" x="63.623047"/>
       <use xlink:href="#DejaVuSans-32" x="127.246094"/>
       <use xlink:href="#DejaVuSans-30" x="190.869141"/>
       <use xlink:href="#DejaVuSans-2d" x="254.492188"/>
       <use xlink:href="#DejaVuSans-31" x="290.576172"/>
       <use xlink:href="#DejaVuSans-30" x="354.199219"/>
      </g>
     </g>
    </g>
    <g id="xtick_5">
     <g id="line2d_5">
      <path d="M 216.848557 239.758125 
L 216.848557 22.318125 
" clip-path="url(#p2a2ee16e91)" style="fill: none; stroke: #ffffff; stroke-linecap: round"/>
     </g>
     <g id="text_5">
      <!-- 2021-01 -->
      <g style="fill: #262626" transform="translate(202.745147 287.667723)rotate(-45)scale(0.11 -0.11)">
       <use xlink:href="#DejaVuSans-32"/>
       <use xlink:href="#DejaVuSans-30" x="63.623047"/>
       <use xlink:href="#DejaVuSans-32" x="127.246094"/>
       <use xlink:href="#DejaVuSans-31" x="190.869141"/>
       <use xlink:href="#DejaVuSans-2d" x="254.492188"/>
       <use xlink:href="#DejaVuSans-30" x="290.576172"/>
       <use xlink:href="#DejaVuSans-31" x="354.199219"/>
      </g>
     </g>
    </g>
    <g id="xtick_6">
     <g id="line2d_6">
      <path d="M 254.394043 239.758125 
L 254.394043 22.318125 
" clip-path="url(#p2a2ee16e91)" style="fill: none; stroke: #ffffff; stroke-linecap: round"/>
     </g>
     <g id="text_6">
      <!-- 2021-04 -->
      <g style="fill: #262626" transform="translate(240.290633 287.667723)rotate(-45)scale(0.11 -0.11)">
       <use xlink:href="#DejaVuSans-32"/>
       <use xlink:href="#DejaVuSans-30" x="63.623047"/>
       <use xlink:href="#DejaVuSans-32" x="127.246094"/>
       <use xlink:href="#DejaVuSans-31" x="190.869141"/>
       <use xlink:href="#DejaVuSans-2d" x="254.492188"/>
       <use xlink:href="#DejaVuSans-30" x="290.576172"/>
       <use xlink:href="#DejaVuSans-34" x="354.199219"/>
      </g>
     </g>
    </g>
    <g id="xtick_7">
     <g id="line2d_7">
      <path d="M 292.374284 239.758125 
L 292.374284 22.318125 
" clip-path="url(#p2a2ee16e91)" style="fill: none; stroke: #ffffff; stroke-linecap: round"/>
     </g>
     <g id="text_7">
      <!-- 2021-07 -->
      <g style="fill: #262626" transform="translate(278.270874 287.667723)rotate(-45)scale(0.11 -0.11)">
       <use xlink:href="#DejaVuSans-32"/>
       <use xlink:href="#DejaVuSans-30" x="63.623047"/>
       <use xlink:href="#DejaVuSans-32" x="127.246094"/>
       <use xlink:href="#DejaVuSans-31" x="190.869141"/>
       <use xlink:href="#DejaVuSans-2d" x="254.492188"/>
       <use xlink:href="#DejaVuSans-30" x="290.576172"/>
       <use xlink:href="#DejaVuSans-37" x="354.199219"/>
      </g>
     </g>
    </g>
    <g id="xtick_8">
     <g id="line2d_8">
      <path d="M 330.771891 239.758125 
L 330.771891 22.318125 
" clip-path="url(#p2a2ee16e91)" style="fill: none; stroke: #ffffff; stroke-linecap: round"/>
     </g>
     <g id="text_8">
      <!-- 2021-10 -->
      <g style="fill: #262626" transform="translate(316.66848 287.667723)rotate(-45)scale(0.11 -0.11)">
       <use xlink:href="#DejaVuSans-32"/>
       <use xlink:href="#DejaVuSans-30" x="63.623047"/>
       <use xlink:href="#DejaVuSans-32" x="127.246094"/>
       <use xlink:href="#DejaVuSans-31" x="190.869141"/>
       <use xlink:href="#DejaVuSans-2d" x="254.492188"/>
       <use xlink:href="#DejaVuSans-31" x="290.576172"/>
       <use xlink:href="#DejaVuSans-30" x="354.199219"/>
      </g>
     </g>
    </g>
    <g id="xtick_9">
     <g id="line2d_9">
      <path d="M 369.186888 239.758125 
L 369.186888 22.318125 
" clip-path="url(#p2a2ee16e91)" style="fill: none; stroke: #ffffff; stroke-linecap: round"/>
     </g>
     <g id="text_9">
      <!-- 2022-01 -->
      <g style="fill: #262626" transform="translate(355.083477 287.667723)rotate(-45)scale(0.11 -0.11)">
       <use xlink:href="#DejaVuSans-32"/>
       <use xlink:href="#DejaVuSans-30" x="63.623047"/>
       <use xlink:href="#DejaVuSans-32" x="127.246094"/>
       <use xlink:href="#DejaVuSans-32" x="190.869141"/>
       <use xlink:href="#DejaVuSans-2d" x="254.492188"/>
       <use xlink:href="#DejaVuSans-30" x="290.576172"/>
       <use xlink:href="#DejaVuSans-31" x="354.199219"/>
      </g>
     </g>
    </g>
    <g id="text_10">
     <!-- Datetime -->
     <g style="fill: #262626" transform="translate(199.8125 302.403466)scale(0.12 -0.12)">
      <defs>
       <path id="DejaVuSans-44" d="M 1259 4147 
L 1259 519 
L 2022 519 
Q 2988 519 3436 956 
Q 3884 1394 3884 2338 
Q 3884 3275 3436 3711 
Q 2988 4147 2022 4147 
L 1259 4147 
z
M 628 4666 
L 1925 4666 
Q 3281 4666 3915 4102 
Q 4550 3538 4550 2338 
Q 4550 1131 3912 565 
Q 3275 0 1925 0 
L 628 0 
L 628 4666 
z
" transform="scale(0.015625)"/>
       <path id="DejaVuSans-61" d="M 2194 1759 
Q 1497 1759 1228 1600 
Q 959 1441 959 1056 
Q 959 750 1161 570 
Q 1363 391 1709 391 
Q 2188 391 2477 730 
Q 2766 1069 2766 1631 
L 2766 1759 
L 2194 1759 
z
M 3341 1997 
L 3341 0 
L 2766 0 
L 2766 531 
Q 2569 213 2275 61 
Q 1981 -91 1556 -91 
Q 1019 -91 701 211 
Q 384 513 384 1019 
Q 384 1609 779 1909 
Q 1175 2209 1959 2209 
L 2766 2209 
L 2766 2266 
Q 2766 2663 2505 2880 
Q 2244 3097 1772 3097 
Q 1472 3097 1187 3025 
Q 903 2953 641 2809 
L 641 3341 
Q 956 3463 1253 3523 
Q 1550 3584 1831 3584 
Q 2591 3584 2966 3190 
Q 3341 2797 3341 1997 
z
" transform="scale(0.015625)"/>
       <path id="DejaVuSans-74" d="M 1172 4494 
L 1172 3500 
L 2356 3500 
L 2356 3053 
L 1172 3053 
L 1172 1153 
Q 1172 725 1289 603 
Q 1406 481 1766 481 
L 2356 481 
L 2356 0 
L 1766 0 
Q 1100 0 847 248 
Q 594 497 594 1153 
L 594 3053 
L 172 3053 
L 172 3500 
L 594 3500 
L 594 4494 
L 1172 4494 
z
" transform="scale(0.015625)"/>
       <path id="DejaVuSans-65" d="M 3597 1894 
L 3597 1613 
L 953 1613 
Q 991 1019 1311 708 
Q 1631 397 2203 397 
Q 2534 397 2845 478 
Q 3156 559 3463 722 
L 3463 178 
Q 3153 47 2828 -22 
Q 2503 -91 2169 -91 
Q 1331 -91 842 396 
Q 353 884 353 1716 
Q 353 2575 817 3079 
Q 1281 3584 2069 3584 
Q 2775 3584 3186 3129 
Q 3597 2675 3597 1894 
z
M 3022 2063 
Q 3016 2534 2758 2815 
Q 2500 3097 2075 3097 
Q 1594 3097 1305 2825 
Q 1016 2553 972 2059 
L 3022 2063 
z
" transform="scale(0.015625)"/>
       <path id="DejaVuSans-69" d="M 603 3500 
L 1178 3500 
L 1178 0 
L 603 0 
L 603 3500 
z
M 603 4863 
L 1178 4863 
L 1178 4134 
L 603 4134 
L 603 4863 
z
" transform="scale(0.015625)"/>
       <path id="DejaVuSans-6d" d="M 3328 2828 
Q 3544 3216 3844 3400 
Q 4144 3584 4550 3584 
Q 5097 3584 5394 3201 
Q 5691 2819 5691 2113 
L 5691 0 
L 5113 0 
L 5113 2094 
Q 5113 2597 4934 2840 
Q 4756 3084 4391 3084 
Q 3944 3084 3684 2787 
Q 3425 2491 3425 1978 
L 3425 0 
L 2847 0 
L 2847 2094 
Q 2847 2600 2669 2842 
Q 2491 3084 2119 3084 
Q 1678 3084 1418 2786 
Q 1159 2488 1159 1978 
L 1159 0 
L 581 0 
L 581 3500 
L 1159 3500 
L 1159 2956 
Q 1356 3278 1631 3431 
Q 1906 3584 2284 3584 
Q 2666 3584 2933 3390 
Q 3200 3197 3328 2828 
z
" transform="scale(0.015625)"/>
      </defs>
      <use xlink:href="#DejaVuSans-44"/>
      <use xlink:href="#DejaVuSans-61" x="77.001953"/>
      <use xlink:href="#DejaVuSans-74" x="138.28125"/>
      <use xlink:href="#DejaVuSans-65" x="177.490234"/>
      <use xlink:href="#DejaVuSans-74" x="239.013672"/>
      <use xlink:href="#DejaVuSans-69" x="278.222656"/>
      <use xlink:href="#DejaVuSans-6d" x="306.005859"/>
      <use xlink:href="#DejaVuSans-65" x="403.417969"/>
     </g>
    </g>
   </g>
   <g id="matplotlib.axis_2">
    <g id="ytick_1">
     <g id="line2d_10">
      <path d="M 60.30875 207.780885 
L 395.10875 207.780885 
" clip-path="url(#p2a2ee16e91)" style="fill: none; stroke: #ffffff; stroke-linecap: round"/>
     </g>
     <g id="text_11">
      <!-- 2500 -->
      <g style="fill: #262626" transform="translate(22.81375 211.960026)scale(0.11 -0.11)">
       <defs>
        <path id="DejaVuSans-35" d="M 691 4666 
L 3169 4666 
L 3169 4134 
L 1269 4134 
L 1269 2991 
Q 1406 3038 1543 3061 
Q 1681 3084 1819 3084 
Q 2600 3084 3056 2656 
Q 3513 2228 3513 1497 
Q 3513 744 3044 326 
Q 2575 -91 1722 -91 
Q 1428 -91 1123 -41 
Q 819 9 494 109 
L 494 744 
Q 775 591 1075 516 
Q 1375 441 1709 441 
Q 2250 441 2565 725 
Q 2881 1009 2881 1497 
Q 2881 1984 2565 2268 
Q 2250 2553 1709 2553 
Q 1456 2553 1204 2497 
Q 953 2441 691 2322 
L 691 4666 
z
" transform="scale(0.015625)"/>
       </defs>
       <use xlink:href="#DejaVuSans-32"/>
       <use xlink:href="#DejaVuSans-35" x="63.623047"/>
       <use xlink:href="#DejaVuSans-30" x="127.246094"/>
       <use xlink:href="#DejaVuSans-30" x="190.869141"/>
      </g>
     </g>
    </g>
    <g id="ytick_2">
     <g id="line2d_11">
      <path d="M 60.30875 169.829812 
L 395.10875 169.829812 
" clip-path="url(#p2a2ee16e91)" style="fill: none; stroke: #ffffff; stroke-linecap: round"/>
     </g>
     <g id="text_12">
      <!-- 3000 -->
      <g style="fill: #262626" transform="translate(22.81375 174.008952)scale(0.11 -0.11)">
       <defs>
        <path id="DejaVuSans-33" d="M 2597 2516 
Q 3050 2419 3304 2112 
Q 3559 1806 3559 1356 
Q 3559 666 3084 287 
Q 2609 -91 1734 -91 
Q 1441 -91 1130 -33 
Q 819 25 488 141 
L 488 750 
Q 750 597 1062 519 
Q 1375 441 1716 441 
Q 2309 441 2620 675 
Q 2931 909 2931 1356 
Q 2931 1769 2642 2001 
Q 2353 2234 1838 2234 
L 1294 2234 
L 1294 2753 
L 1863 2753 
Q 2328 2753 2575 2939 
Q 2822 3125 2822 3475 
Q 2822 3834 2567 4026 
Q 2313 4219 1838 4219 
Q 1578 4219 1281 4162 
Q 984 4106 628 3988 
L 628 4550 
Q 988 4650 1302 4700 
Q 1616 4750 1894 4750 
Q 2613 4750 3031 4423 
Q 3450 4097 3450 3541 
Q 3450 3153 3228 2886 
Q 3006 2619 2597 2516 
z
" transform="scale(0.015625)"/>
       </defs>
       <use xlink:href="#DejaVuSans-33"/>
       <use xlink:href="#DejaVuSans-30" x="63.623047"/>
       <use xlink:href="#DejaVuSans-30" x="127.246094"/>
       <use xlink:href="#DejaVuSans-30" x="190.869141"/>
      </g>
     </g>
    </g>
    <g id="ytick_3">
     <g id="line2d_12">
      <path d="M 60.30875 131.878738 
L 395.10875 131.878738 
" clip-path="url(#p2a2ee16e91)" style="fill: none; stroke: #ffffff; stroke-linecap: round"/>
     </g>
     <g id="text_13">
      <!-- 3500 -->
      <g style="fill: #262626" transform="translate(22.81375 136.057878)scale(0.11 -0.11)">
       <use xlink:href="#DejaVuSans-33"/>
       <use xlink:href="#DejaVuSans-35" x="63.623047"/>
       <use xlink:href="#DejaVuSans-30" x="127.246094"/>
       <use xlink:href="#DejaVuSans-30" x="190.869141"/>
      </g>
     </g>
    </g>
    <g id="ytick_4">
     <g id="line2d_13">
      <path d="M 60.30875 93.927664 
L 395.10875 93.927664 
" clip-path="url(#p2a2ee16e91)" style="fill: none; stroke: #ffffff; stroke-linecap: round"/>
     </g>
     <g id="text_14">
      <!-- 4000 -->
      <g style="fill: #262626" transform="translate(22.81375 98.106804)scale(0.11 -0.11)">
       <use xlink:href="#DejaVuSans-34"/>
       <use xlink:href="#DejaVuSans-30" x="63.623047"/>
       <use xlink:href="#DejaVuSans-30" x="127.246094"/>
       <use xlink:href="#DejaVuSans-30" x="190.869141"/>
      </g>
     </g>
    </g>
    <g id="ytick_5">
     <g id="line2d_14">
      <path d="M 60.30875 55.97659 
L 395.10875 55.97659 
" clip-path="url(#p2a2ee16e91)" style="fill: none; stroke: #ffffff; stroke-linecap: round"/>
     </g>
     <g id="text_15">
      <!-- 4500 -->
      <g style="fill: #262626" transform="translate(22.81375 60.15573)scale(0.11 -0.11)">
       <use xlink:href="#DejaVuSans-34"/>
       <use xlink:href="#DejaVuSans-35" x="63.623047"/>
       <use xlink:href="#DejaVuSans-30" x="127.246094"/>
       <use xlink:href="#DejaVuSans-30" x="190.869141"/>
      </g>
     </g>
    </g>
    <g id="text_16">
     <!-- Close -->
     <g style="fill: #262626" transform="translate(16.318125 147.383437)rotate(-90)scale(0.12 -0.12)">
      <defs>
       <path id="DejaVuSans-43" d="M 4122 4306 
L 4122 3641 
Q 3803 3938 3442 4084 
Q 3081 4231 2675 4231 
Q 1875 4231 1450 3742 
Q 1025 3253 1025 2328 
Q 1025 1406 1450 917 
Q 1875 428 2675 428 
Q 3081 428 3442 575 
Q 3803 722 4122 1019 
L 4122 359 
Q 3791 134 3420 21 
Q 3050 -91 2638 -91 
Q 1578 -91 968 557 
Q 359 1206 359 2328 
Q 359 3453 968 4101 
Q 1578 4750 2638 4750 
Q 3056 4750 3426 4639 
Q 3797 4528 4122 4306 
z
" transform="scale(0.015625)"/>
       <path id="DejaVuSans-6c" d="M 603 4863 
L 1178 4863 
L 1178 0 
L 603 0 
L 603 4863 
z
" transform="scale(0.015625)"/>
       <path id="DejaVuSans-6f" d="M 1959 3097 
Q 1497 3097 1228 2736 
Q 959 2375 959 1747 
Q 959 1119 1226 758 
Q 1494 397 1959 397 
Q 2419 397 2687 759 
Q 2956 1122 2956 1747 
Q 2956 2369 2687 2733 
Q 2419 3097 1959 3097 
z
M 1959 3584 
Q 2709 3584 3137 3096 
Q 3566 2609 3566 1747 
Q 3566 888 3137 398 
Q 2709 -91 1959 -91 
Q 1206 -91 779 398 
Q 353 888 353 1747 
Q 353 2609 779 3096 
Q 1206 3584 1959 3584 
z
" transform="scale(0.015625)"/>
       <path id="DejaVuSans-73" d="M 2834 3397 
L 2834 2853 
Q 2591 2978 2328 3040 
Q 2066 3103 1784 3103 
Q 1356 3103 1142 2972 
Q 928 2841 928 2578 
Q 928 2378 1081 2264 
Q 1234 2150 1697 2047 
L 1894 2003 
Q 2506 1872 2764 1633 
Q 3022 1394 3022 966 
Q 3022 478 2636 193 
Q 2250 -91 1575 -91 
Q 1294 -91 989 -36 
Q 684 19 347 128 
L 347 722 
Q 666 556 975 473 
Q 1284 391 1588 391 
Q 1994 391 2212 530 
Q 2431 669 2431 922 
Q 2431 1156 2273 1281 
Q 2116 1406 1581 1522 
L 1381 1569 
Q 847 1681 609 1914 
Q 372 2147 372 2553 
Q 372 3047 722 3315 
Q 1072 3584 1716 3584 
Q 2034 3584 2315 3537 
Q 2597 3491 2834 3397 
z
" transform="scale(0.015625)"/>
      </defs>
      <use xlink:href="#DejaVuSans-43"/>
      <use xlink:href="#DejaVuSans-6c" x="69.824219"/>
      <use xlink:href="#DejaVuSans-6f" x="97.607422"/>
      <use xlink:href="#DejaVuSans-73" x="158.789062"/>
      <use xlink:href="#DejaVuSans-65" x="210.888672"/>
     </g>
    </g>
   </g>
   <g id="line2d_15">
    <path d="M 75.526932 149.21176 
L 75.613883 148.253866 
L 75.631273 148.873221 
L 75.944297 148.558994 
L 76.013858 147.85462 
L 76.031248 148.40719 
L 76.048638 149.062976 
L 76.396443 150.630367 
L 76.413833 150.758637 
L 76.431223 150.213665 
L 76.466004 148.300175 
L 76.779028 150.588617 
L 76.865979 152.981054 
L 76.883369 152.750309 
L 78.031124 149.480438 
L 78.135465 150.950672 
L 78.483269 146.672059 
L 78.55283 147.204134 
L 78.935415 144.839029 
L 78.952805 144.404871 
L 78.970195 144.40943 
L 79.283219 144.118719 
L 79.318 143.500883 
L 79.387561 143.601061 
L 79.700585 144.376779 
L 79.735365 144.012463 
L 79.752755 144.260646 
L 79.770146 145.1305 
L 79.804926 144.96048 
L 81.022241 144.105821 
L 81.057022 143.115295 
L 81.370046 141.384722 
L 81.387436 141.870488 
L 81.474387 142.677338 
L 81.891752 141.045441 
L 82.204776 141.932733 
L 82.274337 140.964221 
L 82.309118 141.445447 
L 82.622142 141.282247 
L 82.639532 141.087951 
L 82.674312 141.716423 
L 82.691703 141.537286 
L 82.709093 141.594213 
L 82.726483 141.014328 
L 84.291603 142.234062 
L 84.308993 142.656843 
L 84.361164 141.580555 
L 84.378554 141.584354 
L 84.395944 141.742218 
L 84.708968 140.670489 
L 84.778529 140.168008 
L 84.813309 140.526264 
L 85.126333 140.523225 
L 85.161114 143.105418 
L 85.230675 141.527428 
L 85.63065 144.57945 
L 85.64804 144.193101 
L 86.813185 151.238344 
L 86.900136 152.689583 
L 87.21316 154.307822 
L 87.282721 160.065767 
L 87.317501 160.003522 
L 87.647915 156.367798 
L 87.734866 160.975833 
L 88.04789 167.88065 
L 88.065281 165.866963 
L 88.082671 163.817605 
L 88.134842 167.895067 
L 88.152232 171.208948 
L 88.465256 180.008297 
L 88.569597 173.259825 
L 89.717352 172.628333 
L 89.821693 163.000138 
L 90.134717 162.493876 
L 90.239058 169.687124 
L 90.639033 162.033905 
L 90.656424 160.004282 
L 90.969447 165.618002 
L 90.986838 163.834302 
L 91.039008 168.794514 
L 91.056399 169.263584 
L 91.073789 168.529617 
L 91.473764 175.849615 
L 91.491154 171.948994 
L 92.673689 186.125239 
L 92.72586 189.073285 
L 93.038884 183.334316 
L 93.056274 188.853158 
L 93.125835 181.900532 
L 93.143225 178.801442 
L 93.5432 190.493412 
L 93.56059 189.457355 
L 93.977956 209.301968 
L 94.29098 200.987643 
L 94.32576 206.293956 
L 94.377931 201.223707 
L 94.395321 191.996278 
L 95.543075 211.282243 
L 95.560466 203.594889 
L 95.630027 211.242031 
L 95.647417 216.526329 
L 95.960441 212.657598 
L 96.064782 205.619954 
L 96.377806 212.724383 
L 96.447367 223.687704 
L 96.482147 214.90355 
L 96.795171 214.157426 
L 96.812562 212.001812 
L 96.829952 215.127457 
L 96.899513 214.642432 
L 97.212537 213.265575 
L 97.316878 222.664544 
L 98.464632 224.795104 
L 98.551584 229.874489 
L 98.568974 227.837268 
L 98.986339 211.827233 
L 99.299363 213.030271 
L 99.351534 204.331137 
L 99.403704 209.652626 
L 99.803679 200.577019 
L 99.82107 197.961416 
L 100.134094 204.877628 
L 100.186264 203.993376 
L 100.221045 199.654037 
L 100.238435 204.741761 
L 101.386189 201.925042 
L 101.490531 198.214176 
L 101.803555 198.02442 
L 101.820945 197.373934 
L 101.838335 199.195585 
L 101.890506 202.041156 
L 101.907896 201.821047 
L 102.307871 210.958158 
L 102.325261 209.916004 
L 102.655676 207.768748 
L 102.707846 208.985461 
L 102.742627 205.831724 
L 103.055651 207.091688 
L 103.107821 209.766479 
L 103.159992 208.648442 
L 104.325137 199.467321 
L 104.412088 195.549262 
L 104.742502 191.194747 
L 104.759892 189.683542 
L 104.794673 192.397043 
L 104.829453 195.802763 
L 105.142477 193.792116 
L 105.246818 188.913124 
L 105.612013 183.846655 
L 105.629403 186.107783 
L 105.664184 185.842126 
L 107.229303 189.461895 
L 107.246694 189.386752 
L 107.281474 189.880876 
L 107.333645 187.957527 
L 107.75101 181.558973 
L 108.064034 187.524129 
L 108.098815 186.894897 
L 108.133595 185.506644 
L 108.168375 186.233793 
L 108.481399 186.405314 
L 108.51618 186.611024 
L 108.585741 184.983668 
L 109.003106 179.427634 
L 110.150861 181.657649 
L 110.168251 180.42802 
L 110.237812 182.695226 
L 110.255202 183.256894 
L 110.568226 186.948025 
L 110.585616 190.019783 
L 110.672567 189.791317 
L 111.072542 184.532814 
L 111.089932 185.160526 
L 111.420347 182.088768 
L 111.437737 182.236014 
L 111.507298 185.208354 
L 111.820322 184.946477 
L 111.837712 185.196198 
L 111.872492 184.321803 
L 111.924663 182.246651 
L 113.072418 180.103934 
L 113.159369 178.856849 
L 113.176759 179.02005 
L 113.489783 177.876199 
L 113.594124 180.181338 
L 113.994099 173.383555 
L 114.011489 174.418093 
L 114.324513 175.426075 
L 114.359294 177.590046 
L 114.428855 176.55853 
L 114.759269 181.596164 
L 114.794049 182.943427 
L 114.84622 182.555559 
L 116.011365 183.82314 
L 116.046145 183.952929 
L 116.098316 181.715336 
L 116.480901 177.709218 
L 116.515681 179.82688 
L 116.863486 179.642443 
L 116.880876 179.495957 
L 116.898266 180.012837 
L 116.915656 179.919479 
L 116.933046 181.336585 
L 117.280851 177.49137 
L 117.333022 178.67925 
L 117.350412 178.855329 
L 117.767777 175.202168 
L 118.915532 176.402185 
L 118.967702 174.337632 
L 119.019873 175.104251 
L 119.332897 175.629488 
L 119.350287 175.116389 
L 119.385068 176.535774 
L 119.402458 176.527416 
L 119.437238 179.715307 
L 119.750262 180.03865 
L 119.837213 184.888031 
L 119.854603 183.472463 
L 120.167627 186.689947 
L 120.271969 181.002604 
L 120.584993 181.706978 
L 120.602383 182.582132 
L 120.654554 180.396906 
L 120.671944 180.673201 
L 120.689334 180.148705 
L 121.837089 174.688309 
L 121.92404 172.862099 
L 121.94143 173.423786 
L 122.254454 173.468556 
L 122.271844 172.879555 
L 122.341405 173.649973 
L 122.358795 175.719066 
L 122.689209 171.40934 
L 122.7066 172.09018 
L 122.72399 172.603279 
L 122.75877 171.897385 
L 122.77616 171.996822 
L 123.089184 172.140268 
L 123.106575 174.068954 
L 123.193526 173.696263 
L 123.50655 174.100067 
L 123.52394 174.560798 
L 123.576111 173.468556 
L 123.593501 173.887537 
L 123.610891 173.213535 
L 125.176011 168.77704 
L 125.228182 168.663187 
L 125.280352 170.449926 
L 125.593376 169.914071 
L 125.610766 170.570617 
L 125.662937 168.843084 
L 125.697717 167.127688 
L 126.010741 166.440788 
L 126.062912 164.73147 
L 126.097693 166.431671 
L 126.115083 167.574762 
L 126.462887 168.951618 
L 126.480277 168.73151 
L 126.532448 166.198646 
L 127.680203 166.032425 
L 127.697593 166.391441 
L 127.732373 165.245329 
L 127.749763 165.611924 
L 127.767154 165.392575 
L 127.784544 165.592189 
L 128.097568 164.399769 
L 128.114958 165.435085 
L 128.184519 164.9493 
L 128.201909 163.685536 
L 128.601884 160.274498 
L 128.619275 160.508264 
L 128.932298 160.393651 
L 129.01925 162.227459 
L 129.03664 161.297658 
L 129.401834 154.215984 
L 129.454005 155.093417 
L 130.60176 154.757917 
L 130.706101 152.134753 
L 131.019125 154.623569 
L 131.106076 153.030383 
L 131.123466 154.071758 
L 131.43649 155.42434 
L 131.506051 153.084271 
L 131.540832 155.435736 
L 131.871246 163.272633 
L 131.958197 169.687866 
L 132.271221 165.322751 
L 132.340782 169.208177 
L 132.375562 166.758054 
L 133.523317 169.986174 
L 133.592878 164.029375 
L 133.627658 164.729191 
L 133.940682 158.31242 
L 134.027633 160.836927 
L 134.045023 160.221352 
L 134.358047 161.174687 
L 134.410218 159.369732 
L 134.462389 161.205801 
L 134.775413 161.586831 
L 134.862364 161.830492 
L 134.879754 161.068432 
L 135.192778 159.115471 
L 135.210168 159.705232 
L 135.262339 163.252138 
L 135.297119 162.426313 
L 136.444874 161.907154 
L 136.462264 162.178112 
L 136.497044 161.214158 
L 136.514435 161.198981 
L 136.531825 161.67109 
L 136.549215 160.878676 
L 136.91441 158.239557 
L 136.9318 158.518872 
L 136.96658 159.831223 
L 137.279604 162.762554 
L 137.383946 166.062797 
L 137.69697 165.404713 
L 137.71436 166.099988 
L 137.76653 165.858606 
L 137.801311 163.463148 
L 138.218676 169.182364 
L 139.366431 167.567924 
L 139.470772 165.767527 
L 139.783796 164.953099 
L 139.888137 162.226699 
L 140.201161 160.810353 
L 140.218551 162.090072 
L 140.288112 160.342043 
L 140.305503 161.016045 
L 140.688087 158.460426 
L 140.722868 159.955694 
L 142.287988 156.999309 
L 142.305378 156.120357 
L 142.392329 156.129474 
L 142.705353 156.40575 
L 142.722743 156.020939 
L 142.774914 157.249031 
L 142.809694 158.757215 
L 143.122718 157.542021 
L 143.140108 158.95227 
L 143.209669 157.302918 
L 143.22706 156.905192 
L 143.540084 157.702924 
L 143.557474 160.320788 
L 143.644425 158.285087 
L 143.957449 158.068018 
L 144.06179 155.752242 
L 145.209545 153.140456 
L 145.261715 152.269842 
L 145.279106 154.077077 
L 145.313886 157.995914 
L 145.62691 158.40198 
L 145.731251 154.78373 
L 146.044275 152.184841 
L 146.061666 152.739691 
L 146.079056 153.563978 
L 146.113836 152.587886 
L 146.148617 152.621279 
L 146.496421 154.376127 
L 146.548592 153.447845 
L 146.565982 153.475178 
L 146.879006 153.994355 
L 146.965957 152.321469 
L 146.983347 152.784461 
L 148.165882 151.967753 
L 148.218053 150.609112 
L 148.235443 150.738902 
L 148.548467 149.684629 
L 148.618028 149.04704 
L 148.635418 150.235679 
L 148.652808 150.271351 
L 148.983223 149.954067 
L 149.070174 148.912692 
L 149.383198 149.222378 
L 149.400588 149.031103 
L 149.417978 149.731679 
L 149.470149 152.178004 
L 149.487539 151.916145 
L 149.835343 153.433428 
L 149.887514 153.959425 
L 149.870124 153.033422 
L 149.904904 153.416732 
L 151.052659 152.127915 
L 151.070049 152.792059 
L 151.13961 151.634551 
L 151.157 151.643649 
L 151.504804 152.071748 
L 151.522195 151.714252 
L 151.556975 152.557514 
L 151.574365 153.223178 
L 151.95695 150.747259 
L 151.97434 150.11119 
L 151.991731 150.165837 
L 152.304755 153.536663 
L 152.322145 152.571931 
L 152.391706 150.893745 
L 152.409096 151.097917 
L 152.72212 152.029998 
L 152.791681 152.211396 
L 152.826461 149.235276 
L 154.008996 147.411345 
L 154.043777 147.00528 
L 154.078557 147.482707 
L 154.391581 147.494085 
L 154.461142 147.566188 
L 154.495922 146.555185 
L 154.878507 144.958961 
L 154.895897 145.179829 
L 154.913288 144.946045 
L 155.226312 144.66749 
L 155.243702 145.314178 
L 155.295873 143.81587 
L 155.330653 143.328584 
L 155.643677 143.812071 
L 155.661067 143.746046 
L 155.713238 144.737314 
L 155.748018 143.157044 
L 156.895773 142.591559 
L 156.913163 143.297452 
L 157.000114 142.467087 
L 157.313138 141.678472 
L 157.365309 140.962701 
L 157.382699 141.868227 
L 157.417479 144.472416 
L 157.817454 140.549038 
L 157.834845 141.001412 
L 158.182649 140.751691 
L 158.25221 141.496296 
L 158.565234 141.958547 
L 158.617405 141.296682 
L 158.652185 142.064042 
L 158.669575 141.56082 
L 159.81733 140.723617 
L 159.83472 140.53994 
L 159.85211 140.771427 
L 159.904281 140.726656 
L 159.921671 140.803318 
L 160.234695 141.588134 
L 160.304256 140.098944 
L 160.339036 140.258327 
L 160.65206 140.036699 
L 160.686841 139.658708 
L 160.721621 140.622661 
L 160.756402 141.321717 
L 161.086816 141.319438 
L 161.173767 140.587749 
L 161.521571 140.252268 
L 161.538962 140.307675 
L 161.573742 139.614679 
L 161.591132 139.64581 
L 162.738887 137.674634 
L 162.756277 138.174817 
L 162.825838 137.807463 
L 162.843228 137.033246 
L 163.156252 137.154697 
L 163.260593 136.16493 
L 163.573617 135.508383 
L 163.643178 133.377045 
L 163.677959 133.478001 
L 163.990983 132.29316 
L 164.008373 132.442685 
L 164.077934 132.108723 
L 164.095324 133.050662 
L 164.408348 132.548959 
L 164.460519 132.58995 
L 164.512689 131.285937 
L 165.660444 131.599423 
L 165.677834 132.106444 
L 165.712614 131.27152 
L 165.764785 131.854444 
L 166.077809 130.729587 
L 166.095199 131.108338 
L 166.14737 130.394087 
L 166.16476 130.578543 
L 166.18215 129.801287 
L 166.529955 127.638076 
L 166.599516 125.792909 
L 166.91254 129.824821 
L 166.999491 137.150898 
L 167.016881 135.232089 
L 167.329905 140.076929 
L 167.347295 142.224204 
L 167.399466 138.29019 
L 167.416856 135.587325 
L 167.434246 137.440089 
L 168.999366 141.399899 
L 169.103707 144.655352 
L 169.503683 137.766472 
L 169.521073 139.543335 
L 169.834097 138.395704 
L 169.886267 140.545999 
L 169.938438 144.165768 
L 170.268852 142.782833 
L 170.286242 143.063686 
L 170.303633 145.788566 
L 170.355803 143.918345 
L 171.503558 139.376354 
L 171.520948 139.730051 
L 171.538338 139.777879 
L 171.590509 140.849608 
L 171.607899 140.782063 
L 171.955704 138.347116 
L 171.973094 138.405563 
L 172.007874 139.551692 
L 172.025264 139.405948 
L 172.338288 138.731186 
L 172.407849 137.82036 
L 172.42524 139.838605 
L 172.44263 140.640117 
L 172.755654 142.871652 
L 172.773044 142.146782 
L 172.790434 144.354023 
L 172.825215 144.137694 
L 172.842605 144.341867 
L 172.859995 142.678857 
L 173.173019 142.805608 
L 173.22519 146.83298 
L 173.27736 145.650419 
L 174.442505 151.857699 
L 174.529456 148.460318 
L 174.84248 147.113055 
L 174.85987 148.306234 
L 174.929431 146.005654 
L 174.946821 145.893302 
L 175.259845 146.484583 
L 175.364187 151.842522 
L 175.677211 151.726389 
L 175.711991 150.165077 
L 175.729381 149.00529 
L 175.764162 152.083126 
L 175.781552 151.119172 
L 176.094576 150.716127 
L 176.181527 146.741142 
L 176.198917 147.136589 
L 177.346672 143.109216 
L 177.364062 143.364256 
L 177.381452 143.592722 
L 177.416233 142.757798 
L 177.433623 142.714529 
L 177.451013 143.106937 
L 177.764037 142.864814 
L 177.798818 144.572612 
L 177.868379 144.369959 
L 178.216183 140.590029 
L 178.250963 141.190408 
L 178.268354 143.041672 
L 178.285744 142.401043 
L 178.598768 141.574477 
L 178.616158 140.783583 
L 178.685719 141.621545 
L 178.703109 140.88452 
L 179.033523 142.641666 
L 179.050913 142.398023 
L 179.068304 141.980561 
L 179.120474 143.389291 
L 180.268229 140.486794 
L 180.35518 138.826823 
L 180.37257 138.862495 
L 180.685594 138.463249 
L 180.755155 137.869689 
L 180.789936 142.457229 
L 181.189911 137.700429 
L 181.207301 138.069321 
L 181.95508 134.296228 
L 182.024641 133.570599 
L 182.042031 133.624487 
L 183.189786 131.017241 
L 183.259347 128.145875 
L 183.294127 129.282128 
L 183.659322 130.349317 
L 183.676712 131.394491 
L 183.694102 130.258219 
L 183.711493 130.956534 
L 184.041907 131.139451 
L 184.076687 132.901897 
L 184.128858 132.728078 
L 184.441882 135.232089 
L 184.476662 134.816147 
L 184.528833 132.971721 
L 184.546223 133.152378 
L 184.859247 130.76146 
L 184.963588 133.362628 
L 186.111343 132.536044 
L 186.215684 137.358109 
L 186.528708 135.537977 
L 186.563489 135.663227 
L 186.580879 133.937954 
L 186.63305 136.2044 
L 186.946074 134.986927 
L 187.050415 136.802519 
L 187.363439 137.367226 
L 187.45039 135.245005 
L 187.46778 135.40135 
L 187.780804 135.104579 
L 187.815585 136.091307 
L 187.867755 134.936078 
L 187.885145 134.498881 
L 189.0329 137.597972 
L 189.085071 141.739939 
L 189.137241 139.316388 
L 189.450265 140.013925 
L 189.467655 139.852262 
L 189.502436 139.159266 
L 189.554607 140.177125 
L 189.971972 149.163172 
L 190.337166 146.485342 
L 190.354557 144.146052 
L 190.389337 146.388945 
L 190.719751 150.87249 
L 190.737142 149.155593 
L 190.771922 151.203432 
L 190.806702 149.194286 
L 191.971847 145.245113 
L 192.024018 147.857659 
L 192.076189 146.284209 
L 192.406603 140.760049 
L 192.441383 141.821919 
L 192.458773 142.277332 
L 192.476164 141.674673 
L 192.493554 141.865188 
L 192.841358 133.307981 
L 192.876139 134.416141 
L 192.910919 136.158852 
L 193.241333 130.526916 
L 193.258724 132.03738 
L 193.293504 130.246082 
L 193.328284 131.073408 
L 193.676089 131.514404 
L 193.693479 130.838122 
L 193.74565 131.157667 
L 194.893404 122.690019 
L 194.997746 128.140557 
L 195.31077 129.57434 
L 195.397721 127.91513 
L 195.415111 128.369783 
L 195.728135 126.998986 
L 195.780305 126.123832 
L 195.815086 127.273 
L 195.832476 126.343199 
L 196.1455 127.389893 
L 196.16289 127.181922 
L 196.232451 129.941713 
L 196.249841 129.088574 
L 196.632426 125.981144 
L 196.667207 125.411119 
L 197.814961 122.815269 
L 197.867132 123.805017 
L 197.919303 122.124552 
L 198.232327 124.346209 
L 198.301887 122.789455 
L 198.336668 123.525702 
L 198.667082 123.067251 
L 198.684472 123.121898 
L 198.754033 126.742445 
L 199.067057 127.631256 
L 199.171398 125.661599 
L 199.484422 126.429719 
L 199.501813 126.063866 
L 199.553983 126.255141 
L 199.588764 127.49083 
L 200.736518 126.969392 
L 200.753908 127.339785 
L 200.788689 126.59822 
L 200.806079 126.711313 
L 200.823469 125.781512 
L 200.84086 125.943953 
L 201.153884 123.453599 
L 201.240835 121.556805 
L 201.258225 121.584138 
L 201.571249 122.530636 
L 201.606029 122.450175 
L 201.6582 121.782232 
L 201.67559 122.00766 
L 202.405979 121.053564 
L 202.42337 121.183373 
L 202.44076 121.945415 
L 202.466845 121.377668 
L 203.658075 123.172765 
L 203.675465 123.999331 
L 203.727636 123.088505 
L 203.745026 123.166687 
L 203.762417 122.449415 
L 204.145001 118.628494 
L 204.179782 119.591707 
L 204.492806 119.782203 
L 204.597147 119.050515 
L 204.927561 118.361317 
L 204.944952 118.604979 
L 204.979732 118.879735 
L 204.997122 118.107056 
L 205.014512 119.24027 
L 205.362317 117.352593 
L 205.414488 117.436834 
L 205.431878 116.800783 
L 206.597023 116.983701 
L 206.649193 117.774595 
L 206.683974 117.330579 
L 206.996998 118.019758 
L 207.066558 116.141939 
L 207.101339 116.564719 
L 207.414363 116.366607 
L 207.501314 119.603844 
L 207.518704 118.821289 
L 207.831728 118.924524 
L 207.849118 118.487327 
L 207.901289 119.713899 
L 207.918679 119.016363 
L 207.936069 119.118819 
L 208.249093 120.075954 
L 208.283874 121.403481 
L 208.336045 119.643315 
L 208.353435 119.483913 
L 209.501189 117.008754 
L 209.605531 120.755274 
L 209.935945 119.209157 
L 210.022896 117.117289 
L 210.35331 116.537387 
L 210.3707 116.743857 
L 210.405481 117.178015 
L 210.422871 116.109307 
L 210.440261 116.619367 
L 210.857626 114.983672 
L 211.240211 117.148403 
L 211.257602 117.637968 
L 211.274992 115.896777 
L 212.422746 120.93821 
L 212.492307 116.751436 
L 212.527088 117.085416 
L 212.840112 117.117289 
L 212.927063 117.842918 
L 212.909672 117.087677 
L 212.944453 117.688835 
L 213.292257 116.255793 
L 213.309648 115.949905 
L 213.344428 116.505514 
L 213.361818 117.458849 
L 213.674842 116.652 
L 213.692232 117.146123 
L 213.735708 116.466043 
L 215.396474 113.999223 
L 215.413864 113.737364 
L 215.448645 114.022757 
L 215.761669 113.853497 
L 215.779059 113.615154 
L 215.813839 114.317249 
L 215.83123 114.774941 
L 215.84862 114.116875 
L 215.86601 114.614798 
L 216.179034 113.542291 
L 216.213814 113.680438 
L 216.265985 114.270959 
L 216.283375 114.218591 
L 216.596399 114.133571 
L 216.613789 114.346101 
L 216.66596 113.807948 
L 216.700741 112.424254 
L 218.26586 113.752541 
L 218.300641 118.414464 
L 218.370202 116.593572 
L 218.718006 115.749531 
L 218.752787 114.062228 
L 218.787567 114.612518 
L 219.100591 112.81744 
L 219.152762 111.043598 
L 219.204932 113.039068 
L 219.604907 108.559322 
L 219.622298 108.831058 
L 219.935322 108.958568 
L 219.987492 109.188554 
L 220.039663 107.241653 
L 221.187417 108.429532 
L 221.222198 108.212444 
L 221.239588 108.346792 
L 221.274368 109.451932 
L 221.291759 109.105814 
L 221.604783 108.65344 
L 221.639563 110.070527 
L 221.709124 109.010176 
L 222.022148 108.733901 
L 222.091709 107.593089 
L 222.126489 108.334655 
L 222.439513 107.433687 
L 222.543855 109.393486 
L 222.856879 112.377204 
L 222.909049 110.523661 
L 222.96122 111.499011 
L 224.52634 110.084203 
L 224.54373 110.213993 
L 224.595901 108.995 
L 224.630681 109.202211 
L 225.030656 104.902362 
L 225.048046 105.195334 
L 225.36107 104.588876 
L 225.395851 105.431398 
L 225.465412 105.096657 
L 225.778436 106.52742 
L 225.795826 106.133492 
L 225.865387 105.256059 
L 225.882777 105.984727 
L 227.030531 104.749038 
L 227.047922 107.756272 
L 227.134873 104.899323 
L 227.447897 104.623029 
L 227.534848 104.515253 
L 227.552238 105.315265 
L 227.900042 109.861037 
L 227.917433 109.305446 
L 227.952213 113.218947 
L 227.969603 112.727102 
L 228.300017 108.371846 
L 228.317408 107.194603 
L 228.369578 108.743759 
L 228.386969 110.195017 
L 228.699993 111.139235 
L 228.804334 115.694124 
L 229.952088 113.550648 
L 230.021649 110.589705 
L 230.05643 111.134677 
L 230.456405 106.184341 
L 230.473795 107.098966 
L 230.786819 107.640899 
L 230.85638 105.622673 
L 230.89116 106.822671 
L 231.204184 105.481486 
L 231.308526 103.662114 
L 231.63894 102.757366 
L 231.67372 102.22909 
L 231.708501 102.857544 
L 231.725891 102.518264 
L 232.873645 101.109534 
L 232.943206 101.489786 
L 232.960597 101.107254 
L 232.977987 100.342155 
L 233.291011 100.646523 
L 233.308401 100.989602 
L 233.360572 100.27839 
L 233.395352 100.648803 
L 233.743156 101.304589 
L 233.795327 100.506857 
L 233.812717 100.733044 
L 234.125741 100.15164 
L 234.160522 101.878414 
L 234.230083 100.205527 
L 234.543107 100.435513 
L 234.647448 98.858264 
L 236.212568 97.868497 
L 236.316909 98.997171 
L 236.647323 100.852975 
L 236.664713 100.285228 
L 236.734274 99.123162 
L 237.047298 102.177464 
L 237.082079 101.575565 
L 237.134249 100.077257 
L 237.15164 100.461326 
L 237.464664 99.670413 
L 237.482054 99.238535 
L 237.516834 100.663219 
L 237.534224 101.154304 
L 237.551615 100.510655 
L 237.569005 100.996422 
L 238.716759 102.853764 
L 238.78632 101.585423 
L 238.803711 102.773303 
L 238.821101 103.228716 
L 239.168905 105.404065 
L 239.221076 101.886771 
L 239.238466 102.980514 
L 239.55149 102.95622 
L 239.655831 99.562638 
L 239.968855 101.319766 
L 240.055806 106.914529 
L 240.073197 106.912249 
L 240.386221 109.832203 
L 240.421001 105.100456 
L 240.490562 108.287587 
L 241.655707 101.960394 
L 241.707877 100.811985 
L 241.742658 101.416923 
L 242.055682 102.882598 
L 242.073072 102.633636 
L 242.107852 101.792653 
L 242.142633 102.718656 
L 242.160023 103.784325 
L 242.473047 105.574845 
L 242.490437 103.874644 
L 242.559998 106.470494 
L 242.577388 107.630281 
L 242.890412 108.497837 
L 242.907803 107.240893 
L 242.942583 111.260686 
L 242.977363 111.8899 
L 242.994754 111.410971 
L 243.307778 111.738095 
L 243.325168 114.052351 
L 243.377339 107.477717 
L 243.412119 105.952076 
L 244.559874 103.636301 
L 244.612044 103.2105 
L 244.664215 107.566516 
L 245.012019 101.508761 
L 245.06419 101.921683 
L 245.08158 103.495893 
L 245.394604 102.399111 
L 245.464165 100.938754 
L 245.498945 101.609717 
L 245.811969 98.950863 
L 245.88153 97.42752 
L 245.916311 98.559214 
L 246.229335 99.974782 
L 246.246725 99.608187 
L 246.333676 98.245729 
L 247.46404 98.53568 
L 247.481431 99.016147 
L 247.516211 98.136434 
L 247.568382 96.326939 
L 247.881406 95.552722 
L 247.898796 95.766011 
L 247.950966 97.21575 
L 247.985747 96.764877 
L 248.350942 98.102282 
L 248.385722 95.892002 
L 248.403112 95.904159 
L 248.716136 97.458633 
L 248.750917 96.522754 
L 248.785697 98.36642 
L 248.820477 100.368728 
L 249.133501 101.286373 
L 249.150892 101.170241 
L 249.185672 99.661315 
L 249.237843 100.632106 
L 250.385597 99.318995 
L 250.455158 97.731128 
L 250.489939 98.432464 
L 250.802963 98.320871 
L 250.820353 97.882173 
L 250.872523 98.78844 
L 250.889914 100.858293 
L 250.907304 100.696612 
L 251.220328 99.780486 
L 251.255108 98.781602 
L 251.307279 100.874989 
L 251.324669 102.345964 
L 251.655083 103.790384 
L 251.742035 100.802126 
L 252.055058 98.816514 
L 252.072449 99.738737 
L 252.14201 98.23663 
L 252.1594 95.879865 
L 253.307154 97.926943 
L 253.394105 95.397897 
L 253.411496 96.090115 
L 253.7593 97.43054 
L 253.794081 97.200573 
L 253.811471 96.591077 
L 253.828861 96.986524 
L 254.159275 95.435848 
L 254.194056 94.499209 
L 254.246226 95.930713 
L 254.663592 92.425557 
L 256.246102 88.496861 
L 256.263492 87.86081 
L 256.333053 88.045247 
L 256.680857 87.635383 
L 256.698247 88.298007 
L 256.750418 88.275993 
L 257.063442 87.729501 
L 257.098222 88.686617 
L 257.167783 87.850933 
L 257.480807 87.309 
L 257.585149 86.54844 
L 257.898173 86.360983 
L 257.985124 84.980327 
L 258.002514 84.230423 
L 259.150268 84.727567 
L 259.167659 84.617494 
L 259.25461 84.203072 
L 259.619804 83.853173 
L 259.654585 82.805738 
L 259.671975 83.220902 
L 259.984999 82.896799 
L 260.002389 83.023549 
L 260.019779 83.034186 
L 260.03717 82.910474 
L 260.08934 84.375371 
L 260.506706 81.047833 
L 260.85451 80.268316 
L 260.8719 80.434537 
L 260.906681 79.710428 
L 260.924071 79.907781 
L 262.071825 80.949138 
L 262.158776 82.109684 
L 262.176167 81.469075 
L 262.489191 82.447464 
L 262.541361 84.445973 
L 262.593532 83.734761 
L 262.993507 81.506285 
L 263.010897 80.784436 
L 263.323921 81.381053 
L 263.358702 80.599239 
L 263.376092 81.850105 
L 263.410872 83.806883 
L 263.428263 83.684654 
L 263.741287 82.174209 
L 263.828238 79.535089 
L 263.845628 80.303969 
L 265.010773 79.387844 
L 265.080334 79.872869 
L 265.097724 79.651982 
L 265.410748 79.972305 
L 265.428138 79.941173 
L 265.497699 79.474383 
L 265.515089 79.809864 
L 265.828113 79.223142 
L 265.845503 79.409117 
L 265.915064 79.371907 
L 265.932454 79.979903 
L 266.245478 78.734337 
L 266.262868 79.008333 
L 266.280259 80.029232 
L 266.34982 77.873618 
L 266.662844 79.009111 
L 266.680234 80.222026 
L 266.767185 80.12789 
L 267.914939 78.422389 
L 268.019281 79.28081 
L 268.349695 83.278607 
L 268.419256 82.50969 
L 268.436646 81.346883 
L 268.74967 81.075147 
L 268.78445 79.987463 
L 268.854011 81.18522 
L 269.167035 82.255448 
L 269.271377 78.720661 
L 269.601791 76.190836 
L 269.619181 76.417023 
L 269.636571 76.857278 
L 269.671352 76.035993 
L 269.688742 76.354056 
L 270.836496 76.675861 
L 270.853887 76.309248 
L 270.888667 76.670562 
L 270.940838 79.595055 
L 271.253862 84.093777 
L 271.323423 81.981414 
L 271.358203 82.405732 
L 271.688617 85.985252 
L 271.775568 89.123814 
L 272.088592 84.812587 
L 272.123373 85.189058 
L 272.140763 86.394375 
L 272.175543 84.448234 
L 272.192934 85.462313 
L 272.592909 80.37913 
L 272.610299 80.80419 
L 273.775444 82.433047 
L 273.810224 82.669092 
L 273.862395 81.547275 
L 274.175419 81.346883 
L 274.192809 81.453138 
L 274.26237 82.472517 
L 274.27976 84.244062 
L 274.592784 88.086997 
L 274.610174 87.210324 
L 274.697125 85.141249 
L 275.010149 83.038744 
L 275.0971 80.833024 
L 275.114491 81.894134 
L 275.427515 80.625071 
L 275.531856 82.073253 
L 276.67961 79.013633 
L 276.749171 78.219699 
L 276.714391 79.064518 
L 276.783952 78.984799 
L 277.096976 78.669812 
L 277.201317 79.629226 
L 277.531731 79.051584 
L 277.549121 78.790485 
L 277.618682 79.053882 
L 277.931706 78.046659 
L 278.036048 78.722959 
L 278.349072 78.240194 
L 278.383852 77.433363 
L 278.453413 78.398077 
L 280.018533 78.051217 
L 280.035923 78.143797 
L 280.070703 78.848931 
L 280.122874 78.639459 
L 280.453288 77.522941 
L 280.522849 78.525606 
L 280.540239 78.109663 
L 280.853263 80.184075 
L 280.905434 78.531684 
L 280.957605 79.27021 
L 281.37497 76.50434 
L 282.522725 77.162406 
L 282.574895 77.460678 
L 282.592285 77.270922 
L 282.627066 76.72671 
L 282.94009 76.981768 
L 282.95748 77.691423 
L 283.027041 76.372253 
L 283.044431 76.674342 
L 283.374845 76.200732 
L 283.461796 77.265623 
L 283.826991 75.604893 
L 283.844381 75.661819 
L 283.879162 75.806026 
L 284.192186 75.689912 
L 284.226966 76.184017 
L 284.261747 75.61249 
L 284.279137 75.745319 
L 284.296527 75.14948 
L 285.496452 75.967688 
L 285.513842 76.115713 
L 285.531233 75.705848 
L 285.548623 74.570355 
L 285.913817 75.414359 
L 285.931208 75.015873 
L 285.965988 75.186652 
L 286.279012 75.289906 
L 286.296402 75.116828 
L 286.313793 75.877369 
L 286.348573 77.327108 
L 286.383353 76.981768 
L 286.713768 76.991626 
L 286.731158 78.779885 
L 286.783328 76.604518 
L 286.800719 77.138872 
L 287.218084 81.359039 
L 288.365839 78.218958 
L 288.47018 76.886112 
L 288.783204 76.567308 
L 288.870155 74.596891 
L 288.887545 75.236018 
L 289.200569 74.722159 
L 289.28752 74.706964 
L 289.30491 75.602595 
L 289.617934 73.376416 
L 289.687495 73.424967 
L 289.704886 73.744512 
L 289.722276 73.698222 
L 290.122251 72.561209 
L 290.139641 72.623435 
L 291.287396 72.494424 
L 291.339566 73.042417 
L 291.356956 72.426119 
L 291.391737 71.884168 
L 291.722151 71.329319 
L 291.739541 71.442394 
L 291.774322 71.780173 
L 291.809102 71.776393 
L 292.191687 71.610913 
L 292.226467 71.119809 
L 292.591662 70.211281 
L 292.643833 69.626079 
L 292.991637 68.143689 
L 293.061198 67.181274 
L 294.626318 68.347899 
L 294.661098 69.673147 
L 294.713269 67.932697 
L 294.730659 67.895488 
L 295.043683 68.076163 
L 295.130634 66.644622 
L 295.148024 66.68639 
L 295.461048 70.958925 
L 295.478439 70.154355 
L 295.513219 69.06593 
L 295.56539 69.484133 
L 295.982755 65.892457 
L 297.16529 65.172906 
L 297.234851 64.658268 
L 297.547875 64.687102 
L 297.565265 64.266639 
L 297.617436 65.211598 
L 297.652216 65.84083 
L 297.96524 65.03626 
L 297.98263 65.688284 
L 298.069581 65.446124 
L 298.434776 67.191873 
L 298.486947 66.623385 
L 298.817361 67.784673 
L 298.834751 67.225303 
L 298.886922 68.814689 
L 298.904312 69.122078 
L 300.086847 75.127465 
L 300.139018 75.962389 
L 300.156408 74.296322 
L 300.486822 70.182448 
L 300.556383 68.602141 
L 300.573773 69.384697 
L 300.991139 66.729641 
L 301.321553 66.610488 
L 301.338943 66.971023 
L 301.391114 65.969878 
L 301.408504 66.043483 
L 301.721528 64.426782 
L 301.773698 62.705308 
L 301.825869 62.724283 
L 302.973624 62.977043 
L 303.077965 61.854448 
L 303.390989 63.279911 
L 303.44316 65.443122 
L 303.49533 63.438534 
L 303.808354 63.241181 
L 303.825744 63.361113 
L 303.860525 64.012359 
L 303.877915 63.304186 
L 303.895305 62.943651 
L 303.912696 63.54101 
L 304.27789 61.347408 
L 304.312671 61.958442 
L 304.330061 62.117066 
L 304.712646 64.068507 
L 304.747426 63.872674 
L 305.895181 62.341733 
L 305.912571 62.505694 
L 305.999522 64.545194 
L 306.312546 64.327345 
L 306.329936 64.388052 
L 306.416887 61.785365 
L 306.747301 63.238142 
L 306.782082 62.763013 
L 306.799472 62.625625 
L 306.816862 62.895841 
L 306.834253 63.381608 
L 307.147277 62.337953 
L 307.251618 61.364123 
L 307.616812 60.752347 
L 307.668983 60.819132 
L 308.816738 61.376279 
L 308.834128 61.264686 
L 308.886299 60.77362 
L 308.921079 61.099985 
L 309.234103 60.421424 
L 309.268883 60.416865 
L 309.338444 60.771322 
L 309.651468 59.972089 
L 309.668858 60.558811 
L 309.75581 59.958413 
L 310.068834 60.233188 
L 310.173175 58.987622 
L 310.55576 58.602811 
L 310.57315 58.718184 
L 310.59054 58.407719 
L 311.738295 60.592204 
L 311.842636 57.511347 
L 312.17305 59.960711 
L 312.207831 61.280623 
L 312.260001 59.909084 
L 312.573025 59.765619 
L 312.677367 63.511397 
L 313.007781 63.790731 
L 313.077342 62.314419 
L 313.059951 64.35466 
L 313.094732 63.125067 
L 313.494707 60.424463 
L 313.512097 60.439621 
L 314.659852 57.752693 
L 314.694632 57.008866 
L 314.764193 57.563715 
L 315.077217 56.634655 
L 315.094607 56.923106 
L 315.111997 57.140917 
L 315.164168 56.57469 
L 315.181558 57.021764 
L 315.494582 56.707518 
L 315.529363 55.937897 
L 315.598924 56.26882 
L 315.929338 57.333711 
L 315.946728 56.968617 
L 315.998899 58.016831 
L 316.016289 58.275669 
L 316.381484 55.140147 
L 316.433654 55.315485 
L 317.581409 53.791364 
L 317.65097 53.276764 
L 317.68575 53.824756 
L 317.998774 54.26805 
L 318.033554 53.613765 
L 318.085725 54.523071 
L 318.103115 54.272572 
L 318.43353 53.745815 
L 318.46831 53.234254 
L 318.50309 53.847549 
L 318.520481 54.148119 
L 318.850895 52.819831 
L 318.868285 53.104464 
L 318.903065 53.952285 
L 318.937846 53.167469 
L 319.25087 53.59327 
L 319.320431 53.042979 
L 319.355211 53.3033 
L 320.937721 54.770494 
L 320.972502 53.949246 
L 321.024672 54.431232 
L 321.337696 54.955691 
L 321.355087 55.531035 
L 321.442038 54.91396 
L 321.755062 53.922673 
L 321.859403 56.509424 
L 322.172427 56.36292 
L 322.276768 59.076422 
L 323.459303 58.786489 
L 323.494084 59.874172 
L 323.528864 58.319698 
L 323.859278 59.008117 
L 323.876668 58.846454 
L 323.928839 60.712876 
L 323.946229 60.233929 
L 324.259253 59.960711 
L 324.346204 57.323112 
L 324.363595 57.398235 
L 324.694009 59.601658 
L 324.711399 59.063524 
L 324.76357 57.710961 
L 324.78096 57.967502 
L 325.146155 60.709096 
L 325.163545 61.225216 
L 325.198325 61.047617 
L 326.34608 66.246914 
L 326.36347 66.195287 
L 326.415641 69.772546 
L 326.450421 66.756214 
L 326.763445 65.883339 
L 326.833006 67.107632 
L 326.798225 65.267783 
L 326.867786 67.103074 
L 327.632956 59.493142 
L 327.650346 58.924617 
L 327.702517 59.906787 
L 328.015541 59.884809 
L 328.032931 60.492026 
L 328.102492 59.216848 
L 328.119882 59.348157 
L 329.267637 59.406603 
L 329.371978 60.258242 
L 329.789343 67.118269 
L 330.102367 65.147074 
L 330.119758 65.598706 
L 330.171928 65.244991 
L 330.206709 66.634022 
L 330.519733 66.063978 
L 330.537123 66.407835 
L 330.624074 70.661395 
L 330.937098 71.670878 
L 331.024049 66.297762 
L 331.041439 66.98166 
L 332.189194 69.967639 
L 332.241364 72.144488 
L 332.293535 71.073519 
L 332.67612 66.145958 
L 332.69351 66.6454 
L 332.7109 67.726227 
L 333.023924 69.586608 
L 333.058705 70.376761 
L 333.076095 69.128898 
L 333.128266 66.355467 
L 333.44129 61.472676 
L 333.49346 61.620663 
L 333.545631 63.602495 
L 333.876045 63.246481 
L 333.910826 64.44194 
L 333.928216 63.185033 
L 333.962996 64.252963 
L 335.110751 62.420675 
L 335.215092 66.543703 
L 335.528116 66.620346 
L 335.562897 66.199846 
L 335.580287 66.872328 
L 335.597677 66.35165 
L 335.632457 67.331558 
L 335.945481 68.596841 
L 336.049823 66.300801 
L 336.432408 60.677223 
L 336.467188 60.696199 
L 336.797602 58.56638 
L 336.832383 58.655179 
L 336.849773 57.941707 
L 336.884553 58.177011 
L 338.032308 58.192947 
L 338.136649 56.995969 
L 338.867038 53.071813 
L 338.919209 53.581113 
L 338.97138 53.197822 
L 339.284404 53.064215 
L 339.301794 53.880163 
L 339.371355 52.509366 
L 339.388745 52.191341 
L 339.701769 51.464192 
L 339.736549 53.206161 
L 339.80611 52.554915 
L 340.953865 52.039536 
L 341.023426 50.558703 
L 341.058206 50.884326 
L 341.38862 48.686203 
L 341.475571 50.32414 
L 341.788595 50.501777 
L 341.840766 49.786784 
L 341.858156 49.890001 
L 341.892937 52.033458 
L 342.310302 48.685425 
L 342.623326 49.845972 
L 342.727667 48.02584 
L 343.875422 48.173864 
L 343.944983 48.464538 
L 343.979763 47.366254 
L 344.379738 46.028108 
L 344.397128 46.047084 
L 344.762323 46.449351 
L 344.814494 43.795036 
L 345.127518 42.393885 
L 345.144908 43.420862 
L 345.231859 42.307384 
L 345.544883 39.920246 
L 345.579663 40.261806 
L 345.597054 42.19657 
L 345.649224 41.069415 
L 346.814369 40.28156 
L 346.84915 40.947223 
L 346.91871 40.67319 
L 347.266515 42.623111 
L 347.318685 42.351413 
L 347.336076 41.900522 
L 347.66649 42.462968 
L 347.718661 45.467181 
L 347.753441 44.852366 
L 348.136026 44.209496 
L 348.153416 44.339286 
L 348.170806 44.655013 
L 348.48383 44.173806 
L 348.588172 42.089536 
L 349.753316 41.754795 
L 349.770707 42.618553 
L 349.840267 42.078899 
L 350.153291 41.475499 
L 350.222852 39.937702 
L 350.257633 40.777185 
L 350.570657 41.595393 
L 350.622827 41.31228 
L 350.605437 41.840556 
L 350.674998 41.621967 
L 350.988022 42.588978 
L 351.022802 40.186682 
L 351.092363 40.438664 
L 351.405387 40.953264 
L 351.440168 39.811693 
L 351.509729 40.951745 
L 352.657483 37.780569 
L 352.761824 42.11837 
L 353.074848 43.158244 
L 353.127019 43.662207 
L 353.17919 41.458784 
L 353.492214 42.194272 
L 353.596555 40.67319 
L 354.326944 47.077804 
L 354.38781 48.79472 
L 355.59643 45.515769 
L 355.631211 43.245524 
L 355.683381 44.305115 
L 355.996405 45.802663 
L 356.100747 50.792488 
L 356.431161 44.66717 
L 356.448551 45.965845 
L 356.518112 55.131029 
L 356.848526 50.787929 
L 356.900697 49.04218 
L 356.935477 50.170075 
L 357.248501 51.320764 
L 357.318062 54.935974 
L 357.352843 53.04524 
L 358.500597 49.487697 
L 358.517987 49.921133 
L 358.535378 48.994333 
L 358.552768 47.738946 
L 358.604938 49.116562 
L 358.987523 41.672074 
L 359.022304 41.814761 
L 359.335328 42.252718 
L 359.439669 40.713439 
L 359.752693 42.344556 
L 359.770083 41.48154 
L 359.839644 42.871313 
L 359.857034 43.253122 
L 360.170058 40.946445 
L 360.187449 41.941512 
L 360.257009 40.865984 
L 360.2744 39.911907 
L 361.422154 42.125189 
L 361.491715 42.006814 
L 361.526496 43.144568 
L 361.839519 44.880459 
L 361.8743 47.241765 
L 361.943861 45.748034 
L 362.274275 46.960171 
L 362.309055 46.500977 
L 362.361226 40.16085 
L 362.67425 39.127054 
L 362.778591 43.176441 
L 363.091615 47.361696 
L 363.109006 43.822388 
L 363.195957 46.848615 
L 364.361101 53.134039 
L 364.395882 52.572371 
L 364.448053 50.824361 
L 364.761076 49.269108 
L 364.865418 44.668689 
L 365.178442 43.767722 
L 365.282783 41.069415 
L 365.665368 38.191953 
L 365.700148 38.876592 
L 367.265268 35.832167 
L 367.36961 33.889065 
L 367.682634 33.324357 
L 367.752194 34.299707 
L 367.786975 34.182037 
L 368.099999 34.321722 
L 368.117389 34.278434 
L 368.134779 34.601796 
L 368.16956 33.790407 
L 368.18695 33.39192 
L 368.20434 33.741819 
L 368.517364 32.701945 
L 368.621705 34.778654 
L 368.95212 34.916783 
L 369.02168 34.50084 
L 369.039071 35.779021 
L 370.186825 34.333841 
L 370.204215 35.217352 
L 370.273776 33.78129 
L 370.291167 33.514112 
L 370.604191 32.201761 
L 370.673751 34.496282 
L 370.708532 33.707648 
L 371.021556 33.568741 
L 371.091117 36.832534 
L 371.125897 40.75895 
L 371.438921 41.183268 
L 371.473702 39.761623 
L 371.543262 41.080793 
L 371.856286 41.807942 
L 371.891067 41.785927 
L 371.960628 42.579119 
L 373.108382 48.623198 
L 373.212724 43.084602 
L 373.525748 44.110801 
L 373.630089 39.819291 
L 373.943113 37.763854 
L 373.960503 39.276598 
L 374.047454 38.780973 
L 374.360478 38.75666 
L 374.377868 38.88115 
L 374.464819 43.81631 
L 374.777843 44.879681 
L 374.830014 46.882008 
L 374.864795 44.437202 
L 374.882185 43.68652 
L 376.447305 47.946157 
L 376.499475 50.241419 
L 376.551646 49.989437 
L 376.86467 49.970462 
L 376.89945 48.674047 
L 376.969011 53.46348 
L 377.299425 48.774224 
L 377.334206 50.504037 
L 377.386376 57.322333 
L 377.6994 60.425982 
L 377.716791 56.761406 
L 377.786352 63.562246 
L 377.803742 63.728467 
L 378.968887 71.927419 
L 378.986277 75.757438 
L 379.038447 67.71181 
L 379.055838 62.665837 
L 379.386252 68.445778 
L 379.421032 67.415799 
L 379.438422 64.485969 
L 379.473203 66.752434 
L 379.803617 62.013071 
L 379.855788 61.303416 
L 379.873178 67.817325 
L 379.890568 67.569902 
" clip-path="url(#p2a2ee16e91)" style="fill: none; stroke: #4c72b0; stroke-width: 1.5; stroke-linecap: round"/>
   </g>
   <g id="line2d_16"/>
   <g id="patch_3">
    <path d="M 60.30875 239.758125 
L 60.30875 22.318125 
" style="fill: none; stroke: #ffffff; stroke-width: 1.25; stroke-linejoin: miter; stroke-linecap: square"/>
   </g>
   <g id="patch_4">
    <path d="M 395.10875 239.758125 
L 395.10875 22.318125 
" style="fill: none; stroke: #ffffff; stroke-width: 1.25; stroke-linejoin: miter; stroke-linecap: square"/>
   </g>
   <g id="patch_5">
    <path d="M 60.30875 239.758125 
L 395.10875 239.758125 
" style="fill: none; stroke: #ffffff; stroke-width: 1.25; stroke-linejoin: miter; stroke-linecap: square"/>
   </g>
   <g id="patch_6">
    <path d="M 60.30875 22.318125 
L 395.10875 22.318125 
" style="fill: none; stroke: #ffffff; stroke-width: 1.25; stroke-linejoin: miter; stroke-linecap: square"/>
   </g>
   <g id="text_17">
    <!-- ^GSPC -->
    <g style="fill: #262626" transform="translate(206.415312 16.318125)scale(0.12 -0.12)">
     <defs>
      <path id="DejaVuSans-5e" d="M 2988 4666 
L 4684 2925 
L 4056 2925 
L 2681 4159 
L 1306 2925 
L 678 2925 
L 2375 4666 
L 2988 4666 
z
" transform="scale(0.015625)"/>
      <path id="DejaVuSans-47" d="M 3809 666 
L 3809 1919 
L 2778 1919 
L 2778 2438 
L 4434 2438 
L 4434 434 
Q 4069 175 3628 42 
Q 3188 -91 2688 -91 
Q 1594 -91 976 548 
Q 359 1188 359 2328 
Q 359 3472 976 4111 
Q 1594 4750 2688 4750 
Q 3144 4750 3555 4637 
Q 3966 4525 4313 4306 
L 4313 3634 
Q 3963 3931 3569 4081 
Q 3175 4231 2741 4231 
Q 1884 4231 1454 3753 
Q 1025 3275 1025 2328 
Q 1025 1384 1454 906 
Q 1884 428 2741 428 
Q 3075 428 3337 486 
Q 3600 544 3809 666 
z
" transform="scale(0.015625)"/>
      <path id="DejaVuSans-53" d="M 3425 4513 
L 3425 3897 
Q 3066 4069 2747 4153 
Q 2428 4238 2131 4238 
Q 1616 4238 1336 4038 
Q 1056 3838 1056 3469 
Q 1056 3159 1242 3001 
Q 1428 2844 1947 2747 
L 2328 2669 
Q 3034 2534 3370 2195 
Q 3706 1856 3706 1288 
Q 3706 609 3251 259 
Q 2797 -91 1919 -91 
Q 1588 -91 1214 -16 
Q 841 59 441 206 
L 441 856 
Q 825 641 1194 531 
Q 1563 422 1919 422 
Q 2459 422 2753 634 
Q 3047 847 3047 1241 
Q 3047 1584 2836 1778 
Q 2625 1972 2144 2069 
L 1759 2144 
Q 1053 2284 737 2584 
Q 422 2884 422 3419 
Q 422 4038 858 4394 
Q 1294 4750 2059 4750 
Q 2388 4750 2728 4690 
Q 3069 4631 3425 4513 
z
" transform="scale(0.015625)"/>
      <path id="DejaVuSans-50" d="M 1259 4147 
L 1259 2394 
L 2053 2394 
Q 2494 2394 2734 2622 
Q 2975 2850 2975 3272 
Q 2975 3691 2734 3919 
Q 2494 4147 2053 4147 
L 1259 4147 
z
M 628 4666 
L 2053 4666 
Q 2838 4666 3239 4311 
Q 3641 3956 3641 3272 
Q 3641 2581 3239 2228 
Q 2838 1875 2053 1875 
L 1259 1875 
L 1259 0 
L 628 0 
L 628 4666 
z
" transform="scale(0.015625)"/>
     </defs>
     <use xlink:href="#DejaVuSans-5e"/>
     <use xlink:href="#DejaVuSans-47" x="83.789062"/>
     <use xlink:href="#DejaVuSans-53" x="161.279297"/>
     <use xlink:href="#DejaVuSans-50" x="224.755859"/>
     <use xlink:href="#DejaVuSans-43" x="285.058594"/>
    </g>
   </g>
   <g id="legend_1">
    <g id="patch_7">
     <path d="M 68.00875 64.377813 
L 142.246719 64.377813 
Q 144.446719 64.377813 144.446719 62.177813 
L 144.446719 30.018125 
Q 144.446719 27.818125 142.246719 27.818125 
L 68.00875 27.818125 
Q 65.80875 27.818125 65.80875 30.018125 
L 65.80875 62.177813 
Q 65.80875 64.377813 68.00875 64.377813 
z
" style="fill: #eaeaf2; opacity: 0.8; stroke: #cccccc; stroke-linejoin: miter"/>
    </g>
    <g id="text_18">
     <!-- Ticker -->
     <g style="fill: #262626" transform="translate(87.269297 41.33625)scale(0.12 -0.12)">
      <defs>
       <path id="DejaVuSans-54" d="M -19 4666 
L 3928 4666 
L 3928 4134 
L 2272 4134 
L 2272 0 
L 1638 0 
L 1638 4134 
L -19 4134 
L -19 4666 
z
" transform="scale(0.015625)"/>
       <path id="DejaVuSans-63" d="M 3122 3366 
L 3122 2828 
Q 2878 2963 2633 3030 
Q 2388 3097 2138 3097 
Q 1578 3097 1268 2742 
Q 959 2388 959 1747 
Q 959 1106 1268 751 
Q 1578 397 2138 397 
Q 2388 397 2633 464 
Q 2878 531 3122 666 
L 3122 134 
Q 2881 22 2623 -34 
Q 2366 -91 2075 -91 
Q 1284 -91 818 406 
Q 353 903 353 1747 
Q 353 2603 823 3093 
Q 1294 3584 2113 3584 
Q 2378 3584 2631 3529 
Q 2884 3475 3122 3366 
z
" transform="scale(0.015625)"/>
       <path id="DejaVuSans-6b" d="M 581 4863 
L 1159 4863 
L 1159 1991 
L 2875 3500 
L 3609 3500 
L 1753 1863 
L 3688 0 
L 2938 0 
L 1159 1709 
L 1159 0 
L 581 0 
L 581 4863 
z
" transform="scale(0.015625)"/>
       <path id="DejaVuSans-72" d="M 2631 2963 
Q 2534 3019 2420 3045 
Q 2306 3072 2169 3072 
Q 1681 3072 1420 2755 
Q 1159 2438 1159 1844 
L 1159 0 
L 581 0 
L 581 3500 
L 1159 3500 
L 1159 2956 
Q 1341 3275 1631 3429 
Q 1922 3584 2338 3584 
Q 2397 3584 2469 3576 
Q 2541 3569 2628 3553 
L 2631 2963 
z
" transform="scale(0.015625)"/>
      </defs>
      <use xlink:href="#DejaVuSans-54"/>
      <use xlink:href="#DejaVuSans-69" x="57.958984"/>
      <use xlink:href="#DejaVuSans-63" x="85.742188"/>
      <use xlink:href="#DejaVuSans-6b" x="140.722656"/>
      <use xlink:href="#DejaVuSans-65" x="195.007812"/>
      <use xlink:href="#DejaVuSans-72" x="256.53125"/>
     </g>
    </g>
    <g id="line2d_17">
     <path d="M 70.20875 53.840156 
L 81.20875 53.840156 
L 92.20875 53.840156 
" style="fill: none; stroke: #4c72b0; stroke-width: 1.5; stroke-linecap: round"/>
    </g>
    <g id="text_19">
     <!-- ^GSPC -->
     <g style="fill: #262626" transform="translate(101.00875 57.690156)scale(0.11 -0.11)">
      <use xlink:href="#DejaVuSans-5e"/>
      <use xlink:href="#DejaVuSans-47" x="83.789062"/>
      <use xlink:href="#DejaVuSans-53" x="161.279297"/>
      <use xlink:href="#DejaVuSans-50" x="224.755859"/>
      <use xlink:href="#DejaVuSans-43" x="285.058594"/>
     </g>
    </g>
   </g>
  </g>
 </g>
 <defs>
  <clipPath id="p2a2ee16e91">
   <rect x="60.30875" y="22.318125" width="334.8" height="217.44"/>
  </clipPath>
 </defs>
</svg>
