<?xml version="1.0" encoding="utf-8" standalone="no"?>
<!DOCTYPE svg PUBLIC "-//W3C//DTD SVG 1.1//EN"
  "http://www.w3.org/Graphics/SVG/1.1/DTD/svg11.dtd">
<svg xmlns:xlink="http://www.w3.org/1999/xlink" width="395.31pt" height="324.803037pt" viewBox="0 0 395.31 324.803037" xmlns="http://www.w3.org/2000/svg" version="1.1">
 <metadata>
  <rdf:RDF xmlns:dc="http://purl.org/dc/elements/1.1/" xmlns:cc="http://creativecommons.org/ns#" xmlns:rdf="http://www.w3.org/1999/02/22-rdf-syntax-ns#">
   <cc:Work>
    <dc:type rdf:resource="http://purl.org/dc/dcmitype/StillImage"/>
    <dc:date>2022-01-30T23:40:56.492569</dc:date>
    <dc:format>image/svg+xml</dc:format>
    <dc:creator>
     <cc:Agent>
      <dc:title>Matplotlib v3.5.0, https://matplotlib.org/</dc:title>
     </cc:Agent>
    </dc:creator>
   </cc:Work>
  </rdf:RDF>
 </metadata>
 <defs>
  <style type="text/css">*{stroke-linejoin: round; stroke-linecap: butt}</style>
 </defs>
 <g id="figure_1">
  <g id="patch_1">
   <path d="M 0 324.803037 
L 395.31 324.803037 
L 395.31 0 
L 0 0 
z
" style="fill: #ffffff"/>
  </g>
  <g id="axes_1">
   <g id="patch_2">
    <path d="M 53.31 239.758125 
L 388.11 239.758125 
L 388.11 22.318125 
L 53.31 22.318125 
z
" style="fill: #eaeaf2"/>
   </g>
   <g id="matplotlib.axis_1">
    <g id="xtick_1">
     <g id="line2d_1">
      <path d="M 79.619756 239.758125 
L 79.619756 22.318125 
" clip-path="url(#pea3efb2715)" style="fill: none; stroke: #ffffff; stroke-linecap: round"/>
     </g>
     <g id="text_1">
      <!-- 2021-11-15 -->
      <g style="fill: #262626" transform="translate(59.164372 300.37167)rotate(-45)scale(0.11 -0.11)">
       <defs>
        <path id="DejaVuSans-32" d="M 1228 531 
L 3431 531 
L 3431 0 
L 469 0 
L 469 531 
Q 828 903 1448 1529 
Q 2069 2156 2228 2338 
Q 2531 2678 2651 2914 
Q 2772 3150 2772 3378 
Q 2772 3750 2511 3984 
Q 2250 4219 1831 4219 
Q 1534 4219 1204 4116 
Q 875 4013 500 3803 
L 500 4441 
Q 881 4594 1212 4672 
Q 1544 4750 1819 4750 
Q 2544 4750 2975 4387 
Q 3406 4025 3406 3419 
Q 3406 3131 3298 2873 
Q 3191 2616 2906 2266 
Q 2828 2175 2409 1742 
Q 1991 1309 1228 531 
z
" transform="scale(0.015625)"/>
        <path id="DejaVuSans-30" d="M 2034 4250 
Q 1547 4250 1301 3770 
Q 1056 3291 1056 2328 
Q 1056 1369 1301 889 
Q 1547 409 2034 409 
Q 2525 409 2770 889 
Q 3016 1369 3016 2328 
Q 3016 3291 2770 3770 
Q 2525 4250 2034 4250 
z
M 2034 4750 
Q 2819 4750 3233 4129 
Q 3647 3509 3647 2328 
Q 3647 1150 3233 529 
Q 2819 -91 2034 -91 
Q 1250 -91 836 529 
Q 422 1150 422 2328 
Q 422 3509 836 4129 
Q 1250 4750 2034 4750 
z
" transform="scale(0.015625)"/>
        <path id="DejaVuSans-31" d="M 794 531 
L 1825 531 
L 1825 4091 
L 703 3866 
L 703 4441 
L 1819 4666 
L 2450 4666 
L 2450 531 
L 3481 531 
L 3481 0 
L 794 0 
L 794 531 
z
" transform="scale(0.015625)"/>
        <path id="DejaVuSans-2d" d="M 313 2009 
L 1997 2009 
L 1997 1497 
L 313 1497 
L 313 2009 
z
" transform="scale(0.015625)"/>
        <path id="DejaVuSans-35" d="M 691 4666 
L 3169 4666 
L 3169 4134 
L 1269 4134 
L 1269 2991 
Q 1406 3038 1543 3061 
Q 1681 3084 1819 3084 
Q 2600 3084 3056 2656 
Q 3513 2228 3513 1497 
Q 3513 744 3044 326 
Q 2575 -91 1722 -91 
Q 1428 -91 1123 -41 
Q 819 9 494 109 
L 494 744 
Q 775 591 1075 516 
Q 1375 441 1709 441 
Q 2250 441 2565 725 
Q 2881 1009 2881 1497 
Q 2881 1984 2565 2268 
Q 2250 2553 1709 2553 
Q 1456 2553 1204 2497 
Q 953 2441 691 2322 
L 691 4666 
z
" transform="scale(0.015625)"/>
       </defs>
       <use xlink:href="#DejaVuSans-32"/>
       <use xlink:href="#DejaVuSans-30" x="63.623047"/>
       <use xlink:href="#DejaVuSans-32" x="127.246094"/>
       <use xlink:href="#DejaVuSans-31" x="190.869141"/>
       <use xlink:href="#DejaVuSans-2d" x="254.492188"/>
       <use xlink:href="#DejaVuSans-31" x="290.576172"/>
       <use xlink:href="#DejaVuSans-31" x="354.199219"/>
       <use xlink:href="#DejaVuSans-2d" x="417.822266"/>
       <use xlink:href="#DejaVuSans-31" x="453.90625"/>
       <use xlink:href="#DejaVuSans-35" x="517.529297"/>
      </g>
     </g>
    </g>
    <g id="xtick_2">
     <g id="line2d_2">
      <path d="M 148.968433 239.758125 
L 148.968433 22.318125 
" clip-path="url(#pea3efb2715)" style="fill: none; stroke: #ffffff; stroke-linecap: round"/>
     </g>
     <g id="text_2">
      <!-- 2021-12-01 -->
      <g style="fill: #262626" transform="translate(128.513049 300.37167)rotate(-45)scale(0.11 -0.11)">
       <use xlink:href="#DejaVuSans-32"/>
       <use xlink:href="#DejaVuSans-30" x="63.623047"/>
       <use xlink:href="#DejaVuSans-32" x="127.246094"/>
       <use xlink:href="#DejaVuSans-31" x="190.869141"/>
       <use xlink:href="#DejaVuSans-2d" x="254.492188"/>
       <use xlink:href="#DejaVuSans-31" x="290.576172"/>
       <use xlink:href="#DejaVuSans-32" x="354.199219"/>
       <use xlink:href="#DejaVuSans-2d" x="417.822266"/>
       <use xlink:href="#DejaVuSans-30" x="453.90625"/>
       <use xlink:href="#DejaVuSans-31" x="517.529297"/>
      </g>
     </g>
    </g>
    <g id="xtick_3">
     <g id="line2d_3">
      <path d="M 209.648525 239.758125 
L 209.648525 22.318125 
" clip-path="url(#pea3efb2715)" style="fill: none; stroke: #ffffff; stroke-linecap: round"/>
     </g>
     <g id="text_3">
      <!-- 2021-12-15 -->
      <g style="fill: #262626" transform="translate(189.193141 300.37167)rotate(-45)scale(0.11 -0.11)">
       <use xlink:href="#DejaVuSans-32"/>
       <use xlink:href="#DejaVuSans-30" x="63.623047"/>
       <use xlink:href="#DejaVuSans-32" x="127.246094"/>
       <use xlink:href="#DejaVuSans-31" x="190.869141"/>
       <use xlink:href="#DejaVuSans-2d" x="254.492188"/>
       <use xlink:href="#DejaVuSans-31" x="290.576172"/>
       <use xlink:href="#DejaVuSans-32" x="354.199219"/>
       <use xlink:href="#DejaVuSans-2d" x="417.822266"/>
       <use xlink:href="#DejaVuSans-31" x="453.90625"/>
       <use xlink:href="#DejaVuSans-35" x="517.529297"/>
      </g>
     </g>
    </g>
    <g id="xtick_4">
     <g id="line2d_4">
      <path d="M 283.331494 239.758125 
L 283.331494 22.318125 
" clip-path="url(#pea3efb2715)" style="fill: none; stroke: #ffffff; stroke-linecap: round"/>
     </g>
     <g id="text_4">
      <!-- 2022-01-01 -->
      <g style="fill: #262626" transform="translate(262.87611 300.37167)rotate(-45)scale(0.11 -0.11)">
       <use xlink:href="#DejaVuSans-32"/>
       <use xlink:href="#DejaVuSans-30" x="63.623047"/>
       <use xlink:href="#DejaVuSans-32" x="127.246094"/>
       <use xlink:href="#DejaVuSans-32" x="190.869141"/>
       <use xlink:href="#DejaVuSans-2d" x="254.492188"/>
       <use xlink:href="#DejaVuSans-30" x="290.576172"/>
       <use xlink:href="#DejaVuSans-31" x="354.199219"/>
       <use xlink:href="#DejaVuSans-2d" x="417.822266"/>
       <use xlink:href="#DejaVuSans-30" x="453.90625"/>
       <use xlink:href="#DejaVuSans-31" x="517.529297"/>
      </g>
     </g>
    </g>
    <g id="xtick_5">
     <g id="line2d_5">
      <path d="M 344.011586 239.758125 
L 344.011586 22.318125 
" clip-path="url(#pea3efb2715)" style="fill: none; stroke: #ffffff; stroke-linecap: round"/>
     </g>
     <g id="text_5">
      <!-- 2022-01-15 -->
      <g style="fill: #262626" transform="translate(323.556202 300.37167)rotate(-45)scale(0.11 -0.11)">
       <use xlink:href="#DejaVuSans-32"/>
       <use xlink:href="#DejaVuSans-30" x="63.623047"/>
       <use xlink:href="#DejaVuSans-32" x="127.246094"/>
       <use xlink:href="#DejaVuSans-32" x="190.869141"/>
       <use xlink:href="#DejaVuSans-2d" x="254.492188"/>
       <use xlink:href="#DejaVuSans-30" x="290.576172"/>
       <use xlink:href="#DejaVuSans-31" x="354.199219"/>
       <use xlink:href="#DejaVuSans-2d" x="417.822266"/>
       <use xlink:href="#DejaVuSans-31" x="453.90625"/>
       <use xlink:href="#DejaVuSans-35" x="517.529297"/>
      </g>
     </g>
    </g>
    <g id="text_6">
     <!-- Datetime -->
     <g style="fill: #262626" transform="translate(192.81375 315.107412)scale(0.12 -0.12)">
      <defs>
       <path id="DejaVuSans-44" d="M 1259 4147 
L 1259 519 
L 2022 519 
Q 2988 519 3436 956 
Q 3884 1394 3884 2338 
Q 3884 3275 3436 3711 
Q 2988 4147 2022 4147 
L 1259 4147 
z
M 628 4666 
L 1925 4666 
Q 3281 4666 3915 4102 
Q 4550 3538 4550 2338 
Q 4550 1131 3912 565 
Q 3275 0 1925 0 
L 628 0 
L 628 4666 
z
" transform="scale(0.015625)"/>
       <path id="DejaVuSans-61" d="M 2194 1759 
Q 1497 1759 1228 1600 
Q 959 1441 959 1056 
Q 959 750 1161 570 
Q 1363 391 1709 391 
Q 2188 391 2477 730 
Q 2766 1069 2766 1631 
L 2766 1759 
L 2194 1759 
z
M 3341 1997 
L 3341 0 
L 2766 0 
L 2766 531 
Q 2569 213 2275 61 
Q 1981 -91 1556 -91 
Q 1019 -91 701 211 
Q 384 513 384 1019 
Q 384 1609 779 1909 
Q 1175 2209 1959 2209 
L 2766 2209 
L 2766 2266 
Q 2766 2663 2505 2880 
Q 2244 3097 1772 3097 
Q 1472 3097 1187 3025 
Q 903 2953 641 2809 
L 641 3341 
Q 956 3463 1253 3523 
Q 1550 3584 1831 3584 
Q 2591 3584 2966 3190 
Q 3341 2797 3341 1997 
z
" transform="scale(0.015625)"/>
       <path id="DejaVuSans-74" d="M 1172 4494 
L 1172 3500 
L 2356 3500 
L 2356 3053 
L 1172 3053 
L 1172 1153 
Q 1172 725 1289 603 
Q 1406 481 1766 481 
L 2356 481 
L 2356 0 
L 1766 0 
Q 1100 0 847 248 
Q 594 497 594 1153 
L 594 3053 
L 172 3053 
L 172 3500 
L 594 3500 
L 594 4494 
L 1172 4494 
z
" transform="scale(0.015625)"/>
       <path id="DejaVuSans-65" d="M 3597 1894 
L 3597 1613 
L 953 1613 
Q 991 1019 1311 708 
Q 1631 397 2203 397 
Q 2534 397 2845 478 
Q 3156 559 3463 722 
L 3463 178 
Q 3153 47 2828 -22 
Q 2503 -91 2169 -91 
Q 1331 -91 842 396 
Q 353 884 353 1716 
Q 353 2575 817 3079 
Q 1281 3584 2069 3584 
Q 2775 3584 3186 3129 
Q 3597 2675 3597 1894 
z
M 3022 2063 
Q 3016 2534 2758 2815 
Q 2500 3097 2075 3097 
Q 1594 3097 1305 2825 
Q 1016 2553 972 2059 
L 3022 2063 
z
" transform="scale(0.015625)"/>
       <path id="DejaVuSans-69" d="M 603 3500 
L 1178 3500 
L 1178 0 
L 603 0 
L 603 3500 
z
M 603 4863 
L 1178 4863 
L 1178 4134 
L 603 4134 
L 603 4863 
z
" transform="scale(0.015625)"/>
       <path id="DejaVuSans-6d" d="M 3328 2828 
Q 3544 3216 3844 3400 
Q 4144 3584 4550 3584 
Q 5097 3584 5394 3201 
Q 5691 2819 5691 2113 
L 5691 0 
L 5113 0 
L 5113 2094 
Q 5113 2597 4934 2840 
Q 4756 3084 4391 3084 
Q 3944 3084 3684 2787 
Q 3425 2491 3425 1978 
L 3425 0 
L 2847 0 
L 2847 2094 
Q 2847 2600 2669 2842 
Q 2491 3084 2119 3084 
Q 1678 3084 1418 2786 
Q 1159 2488 1159 1978 
L 1159 0 
L 581 0 
L 581 3500 
L 1159 3500 
L 1159 2956 
Q 1356 3278 1631 3431 
Q 1906 3584 2284 3584 
Q 2666 3584 2933 3390 
Q 3200 3197 3328 2828 
z
" transform="scale(0.015625)"/>
      </defs>
      <use xlink:href="#DejaVuSans-44"/>
      <use xlink:href="#DejaVuSans-61" x="77.001953"/>
      <use xlink:href="#DejaVuSans-74" x="138.28125"/>
      <use xlink:href="#DejaVuSans-65" x="177.490234"/>
      <use xlink:href="#DejaVuSans-74" x="239.013672"/>
      <use xlink:href="#DejaVuSans-69" x="278.222656"/>
      <use xlink:href="#DejaVuSans-6d" x="306.005859"/>
      <use xlink:href="#DejaVuSans-65" x="403.417969"/>
     </g>
    </g>
   </g>
   <g id="matplotlib.axis_2">
    <g id="ytick_1">
     <g id="line2d_6">
      <path d="M 53.31 233.468538 
L 388.11 233.468538 
" clip-path="url(#pea3efb2715)" style="fill: none; stroke: #ffffff; stroke-linecap: round"/>
     </g>
     <g id="text_7">
      <!-- 0 -->
      <g style="fill: #262626" transform="translate(36.81125 237.647679)scale(0.11 -0.11)">
       <use xlink:href="#DejaVuSans-30"/>
      </g>
     </g>
    </g>
    <g id="ytick_2">
     <g id="line2d_7">
      <path d="M 53.31 203.518125 
L 388.11 203.518125 
" clip-path="url(#pea3efb2715)" style="fill: none; stroke: #ffffff; stroke-linecap: round"/>
     </g>
     <g id="text_8">
      <!-- 25 -->
      <g style="fill: #262626" transform="translate(29.8125 207.697266)scale(0.11 -0.11)">
       <use xlink:href="#DejaVuSans-32"/>
       <use xlink:href="#DejaVuSans-35" x="63.623047"/>
      </g>
     </g>
    </g>
    <g id="ytick_3">
     <g id="line2d_8">
      <path d="M 53.31 173.567712 
L 388.11 173.567712 
" clip-path="url(#pea3efb2715)" style="fill: none; stroke: #ffffff; stroke-linecap: round"/>
     </g>
     <g id="text_9">
      <!-- 50 -->
      <g style="fill: #262626" transform="translate(29.8125 177.746852)scale(0.11 -0.11)">
       <use xlink:href="#DejaVuSans-35"/>
       <use xlink:href="#DejaVuSans-30" x="63.623047"/>
      </g>
     </g>
    </g>
    <g id="ytick_4">
     <g id="line2d_9">
      <path d="M 53.31 143.617299 
L 388.11 143.617299 
" clip-path="url(#pea3efb2715)" style="fill: none; stroke: #ffffff; stroke-linecap: round"/>
     </g>
     <g id="text_10">
      <!-- 75 -->
      <g style="fill: #262626" transform="translate(29.8125 147.796439)scale(0.11 -0.11)">
       <defs>
        <path id="DejaVuSans-37" d="M 525 4666 
L 3525 4666 
L 3525 4397 
L 1831 0 
L 1172 0 
L 2766 4134 
L 525 4134 
L 525 4666 
z
" transform="scale(0.015625)"/>
       </defs>
       <use xlink:href="#DejaVuSans-37"/>
       <use xlink:href="#DejaVuSans-35" x="63.623047"/>
      </g>
     </g>
    </g>
    <g id="ytick_5">
     <g id="line2d_10">
      <path d="M 53.31 113.666885 
L 388.11 113.666885 
" clip-path="url(#pea3efb2715)" style="fill: none; stroke: #ffffff; stroke-linecap: round"/>
     </g>
     <g id="text_11">
      <!-- 100 -->
      <g style="fill: #262626" transform="translate(22.81375 117.846026)scale(0.11 -0.11)">
       <use xlink:href="#DejaVuSans-31"/>
       <use xlink:href="#DejaVuSans-30" x="63.623047"/>
       <use xlink:href="#DejaVuSans-30" x="127.246094"/>
      </g>
     </g>
    </g>
    <g id="ytick_6">
     <g id="line2d_11">
      <path d="M 53.31 83.716472 
L 388.11 83.716472 
" clip-path="url(#pea3efb2715)" style="fill: none; stroke: #ffffff; stroke-linecap: round"/>
     </g>
     <g id="text_12">
      <!-- 125 -->
      <g style="fill: #262626" transform="translate(22.81375 87.895613)scale(0.11 -0.11)">
       <use xlink:href="#DejaVuSans-31"/>
       <use xlink:href="#DejaVuSans-32" x="63.623047"/>
       <use xlink:href="#DejaVuSans-35" x="127.246094"/>
      </g>
     </g>
    </g>
    <g id="ytick_7">
     <g id="line2d_12">
      <path d="M 53.31 53.766059 
L 388.11 53.766059 
" clip-path="url(#pea3efb2715)" style="fill: none; stroke: #ffffff; stroke-linecap: round"/>
     </g>
     <g id="text_13">
      <!-- 150 -->
      <g style="fill: #262626" transform="translate(22.81375 57.9452)scale(0.11 -0.11)">
       <use xlink:href="#DejaVuSans-31"/>
       <use xlink:href="#DejaVuSans-35" x="63.623047"/>
       <use xlink:href="#DejaVuSans-30" x="127.246094"/>
      </g>
     </g>
    </g>
    <g id="ytick_8">
     <g id="line2d_13">
      <path d="M 53.31 23.815646 
L 388.11 23.815646 
" clip-path="url(#pea3efb2715)" style="fill: none; stroke: #ffffff; stroke-linecap: round"/>
     </g>
     <g id="text_14">
      <!-- 175 -->
      <g style="fill: #262626" transform="translate(22.81375 27.994786)scale(0.11 -0.11)">
       <use xlink:href="#DejaVuSans-31"/>
       <use xlink:href="#DejaVuSans-37" x="63.623047"/>
       <use xlink:href="#DejaVuSans-35" x="127.246094"/>
      </g>
     </g>
    </g>
    <g id="text_15">
     <!-- Clusters -->
     <g style="fill: #262626" transform="translate(16.318125 155.459062)rotate(-90)scale(0.12 -0.12)">
      <defs>
       <path id="DejaVuSans-43" d="M 4122 4306 
L 4122 3641 
Q 3803 3938 3442 4084 
Q 3081 4231 2675 4231 
Q 1875 4231 1450 3742 
Q 1025 3253 1025 2328 
Q 1025 1406 1450 917 
Q 1875 428 2675 428 
Q 3081 428 3442 575 
Q 3803 722 4122 1019 
L 4122 359 
Q 3791 134 3420 21 
Q 3050 -91 2638 -91 
Q 1578 -91 968 557 
Q 359 1206 359 2328 
Q 359 3453 968 4101 
Q 1578 4750 2638 4750 
Q 3056 4750 3426 4639 
Q 3797 4528 4122 4306 
z
" transform="scale(0.015625)"/>
       <path id="DejaVuSans-6c" d="M 603 4863 
L 1178 4863 
L 1178 0 
L 603 0 
L 603 4863 
z
" transform="scale(0.015625)"/>
       <path id="DejaVuSans-75" d="M 544 1381 
L 544 3500 
L 1119 3500 
L 1119 1403 
Q 1119 906 1312 657 
Q 1506 409 1894 409 
Q 2359 409 2629 706 
Q 2900 1003 2900 1516 
L 2900 3500 
L 3475 3500 
L 3475 0 
L 2900 0 
L 2900 538 
Q 2691 219 2414 64 
Q 2138 -91 1772 -91 
Q 1169 -91 856 284 
Q 544 659 544 1381 
z
M 1991 3584 
L 1991 3584 
z
" transform="scale(0.015625)"/>
       <path id="DejaVuSans-73" d="M 2834 3397 
L 2834 2853 
Q 2591 2978 2328 3040 
Q 2066 3103 1784 3103 
Q 1356 3103 1142 2972 
Q 928 2841 928 2578 
Q 928 2378 1081 2264 
Q 1234 2150 1697 2047 
L 1894 2003 
Q 2506 1872 2764 1633 
Q 3022 1394 3022 966 
Q 3022 478 2636 193 
Q 2250 -91 1575 -91 
Q 1294 -91 989 -36 
Q 684 19 347 128 
L 347 722 
Q 666 556 975 473 
Q 1284 391 1588 391 
Q 1994 391 2212 530 
Q 2431 669 2431 922 
Q 2431 1156 2273 1281 
Q 2116 1406 1581 1522 
L 1381 1569 
Q 847 1681 609 1914 
Q 372 2147 372 2553 
Q 372 3047 722 3315 
Q 1072 3584 1716 3584 
Q 2034 3584 2315 3537 
Q 2597 3491 2834 3397 
z
" transform="scale(0.015625)"/>
       <path id="DejaVuSans-72" d="M 2631 2963 
Q 2534 3019 2420 3045 
Q 2306 3072 2169 3072 
Q 1681 3072 1420 2755 
Q 1159 2438 1159 1844 
L 1159 0 
L 581 0 
L 581 3500 
L 1159 3500 
L 1159 2956 
Q 1341 3275 1631 3429 
Q 1922 3584 2338 3584 
Q 2397 3584 2469 3576 
Q 2541 3569 2628 3553 
L 2631 2963 
z
" transform="scale(0.015625)"/>
      </defs>
      <use xlink:href="#DejaVuSans-43"/>
      <use xlink:href="#DejaVuSans-6c" x="69.824219"/>
      <use xlink:href="#DejaVuSans-75" x="97.607422"/>
      <use xlink:href="#DejaVuSans-73" x="160.986328"/>
      <use xlink:href="#DejaVuSans-74" x="213.085938"/>
      <use xlink:href="#DejaVuSans-65" x="252.294922"/>
      <use xlink:href="#DejaVuSans-72" x="313.818359"/>
      <use xlink:href="#DejaVuSans-73" x="354.931641"/>
     </g>
    </g>
   </g>
   <g id="line2d_14">
    <path d="M 68.528182 229.874489 
L 68.573331 227.478456 
L 68.633529 228.676472 
L 68.648579 228.676472 
L 68.768976 227.478456 
L 68.889373 228.676472 
L 68.934522 228.676472 
L 69.039869 226.280439 
L 69.115117 228.676472 
L 69.145216 227.478456 
L 69.160266 227.478456 
L 69.250564 226.280439 
L 69.280663 228.676472 
L 69.40106 227.478456 
L 69.41611 227.478456 
L 69.491358 226.280439 
L 81.365513 226.280439 
L 81.455811 227.478456 
L 81.410662 225.082423 
L 81.47086 226.280439 
L 81.500959 226.280439 
L 81.561158 227.478456 
L 81.531059 225.082423 
L 81.591257 225.082423 
L 81.621356 225.082423 
L 81.666505 227.478456 
L 81.726704 226.280439 
L 81.786902 227.478456 
L 81.847101 225.082423 
L 81.922349 227.478456 
L 81.967498 226.280439 
L 82.012647 226.280439 
L 82.087895 227.478456 
L 82.117994 226.280439 
L 82.178193 226.280439 
L 82.28354 227.478456 
L 82.343738 225.082423 
L 82.403937 226.280439 
L 82.449086 227.478456 
L 82.479185 225.082423 
L 82.494235 226.280439 
L 85.699805 227.478456 
L 85.729904 225.082423 
L 85.805152 227.478456 
L 85.835252 227.478456 
L 85.955649 226.280439 
L 85.970698 227.478456 
L 86.045946 225.082423 
L 86.060996 226.280439 
L 86.106145 226.280439 
L 86.151294 225.082423 
L 86.166343 227.478456 
L 86.196443 227.478456 
L 86.226542 227.478456 
L 86.286741 225.082423 
L 86.346939 226.280439 
L 86.437237 226.280439 
L 86.497435 227.478456 
L 86.527535 225.082423 
L 86.542584 226.280439 
L 86.557634 226.280439 
L 86.647932 225.082423 
L 86.662981 227.478456 
L 86.678031 223.884406 
L 86.768329 227.478456 
L 86.828527 226.280439 
L 90.079246 226.280439 
L 90.169544 223.884406 
L 90.184594 226.280439 
L 90.229743 226.280439 
L 90.289941 227.478456 
L 90.33509 226.280439 
L 90.380239 226.280439 
L 90.485586 227.478456 
L 90.605983 225.082423 
L 90.621033 227.478456 
L 90.636082 223.884406 
L 90.711331 226.280439 
L 90.801628 225.082423 
L 90.786579 227.478456 
L 90.816678 226.280439 
L 90.846777 225.082423 
L 90.937075 227.478456 
L 90.952125 227.478456 
L 91.027373 223.884406 
L 91.087571 225.082423 
L 91.102621 225.082423 
L 91.162819 226.280439 
L 94.35334 226.280439 
L 94.473737 227.478456 
L 94.594134 225.082423 
L 94.669382 227.478456 
L 94.699481 226.280439 
L 94.729581 226.280439 
L 94.77473 228.676472 
L 94.849978 227.478456 
L 94.955325 225.082423 
L 94.970375 226.280439 
L 94.985424 226.280439 
L 95.060672 225.082423 
L 95.105821 227.478456 
L 95.135921 227.478456 
L 95.15097 226.280439 
L 95.226218 228.676472 
L 95.241268 228.676472 
L 95.286417 226.280439 
L 95.346615 227.478456 
L 95.376715 227.478456 
L 95.451963 225.082423 
L 95.497112 228.676472 
L 98.672583 227.478456 
L 98.702682 226.280439 
L 98.79298 228.676472 
L 98.808029 228.676472 
L 98.928426 226.280439 
L 98.973575 228.676472 
L 99.018724 227.478456 
L 99.033774 225.082423 
L 99.093972 228.676472 
L 99.109022 227.478456 
L 99.124071 228.676472 
L 99.16922 226.280439 
L 99.214369 227.478456 
L 99.229419 227.478456 
L 99.244468 228.676472 
L 99.259518 226.280439 
L 99.334766 227.478456 
L 99.349816 227.478456 
L 99.364866 226.280439 
L 99.440114 227.478456 
L 99.560511 228.676472 
L 99.680908 227.478456 
L 99.695957 227.478456 
L 99.711007 228.676472 
L 99.726057 226.280439 
L 99.786255 227.478456 
L 99.831404 226.280439 
L 111.67546 226.280439 
L 111.780807 228.676472 
L 111.825956 226.280439 
L 111.886154 227.478456 
L 111.901204 227.478456 
L 112.006551 225.082423 
L 112.036651 228.676472 
L 112.126948 226.280439 
L 112.172097 226.280439 
L 112.307544 228.676472 
L 112.442991 226.280439 
L 112.533288 228.676472 
L 112.548338 227.478456 
L 112.563388 226.280439 
L 112.593487 228.676472 
L 112.653685 227.478456 
L 112.668735 227.478456 
L 112.774082 226.280439 
L 112.819231 227.478456 
L 112.834281 226.280439 
L 116.039851 227.478456 
L 116.054901 226.280439 
L 116.130149 228.676472 
L 116.145199 227.478456 
L 116.160248 227.478456 
L 116.190347 226.280439 
L 116.265596 227.478456 
L 116.295695 227.478456 
L 116.310744 228.676472 
L 116.401042 227.478456 
L 116.416092 227.478456 
L 116.536489 228.676472 
L 116.581638 227.478456 
L 116.641836 228.676472 
L 116.852531 228.676472 
L 116.867581 229.874489 
L 116.88263 227.478456 
L 116.957878 228.676472 
L 117.078275 227.478456 
L 117.168573 228.676472 
L 120.404243 228.676472 
L 120.419292 227.478456 
L 120.50959 228.676472 
L 120.690186 228.676472 
L 120.705235 229.874489 
L 120.735334 227.478456 
L 120.795533 228.676472 
L 120.825632 228.676472 
L 120.855731 229.874489 
L 120.93098 228.676472 
L 121.036327 228.676472 
L 121.051377 229.874489 
L 121.141674 228.676472 
L 121.171774 228.676472 
L 121.186823 227.478456 
L 121.277121 228.676472 
L 121.427617 228.676472 
L 121.442667 227.478456 
L 121.457716 229.874489 
L 121.502865 228.676472 
L 129.253423 228.676472 
L 129.283522 229.874489 
L 129.35877 228.676472 
L 129.509266 228.676472 
L 129.524316 227.478456 
L 129.554415 229.874489 
L 129.614614 228.676472 
L 142.045605 228.676472 
L 142.075704 229.874489 
L 142.150952 228.676472 
L 142.2262 228.676472 
L 142.316498 229.874489 
L 142.331548 228.676472 
L 142.406796 228.676472 
L 142.436895 229.874489 
L 142.497094 227.478456 
L 142.512143 227.478456 
L 142.557292 228.676472 
L 142.617491 227.478456 
L 142.64759 227.478456 
L 142.767987 228.676472 
L 142.888384 228.676472 
L 142.993731 227.478456 
L 143.068979 228.676472 
L 143.099079 227.478456 
L 143.129178 227.478456 
L 143.174327 228.676472 
L 146.349798 227.478456 
L 146.455145 228.676472 
L 146.575542 227.478456 
L 146.695939 227.478456 
L 146.771187 228.676472 
L 146.801287 227.478456 
L 146.816336 227.478456 
L 146.876535 226.280439 
L 146.936733 228.676472 
L 146.951783 228.676472 
L 147.05713 226.280439 
L 147.147428 228.676472 
L 147.162478 227.478456 
L 147.177527 227.478456 
L 147.297924 228.676472 
L 147.312974 228.676472 
L 147.418321 227.478456 
L 147.508619 228.676472 
L 150.69914 228.676472 
L 150.804487 227.478456 
L 150.924884 228.676472 
L 151.030232 228.676472 
L 151.135579 227.478456 
L 151.255976 229.874489 
L 151.376373 227.478456 
L 151.49677 228.676472 
L 151.526869 228.676472 
L 151.556968 229.874489 
L 151.617167 227.478456 
L 151.632217 228.676472 
L 151.647266 227.478456 
L 151.737564 228.676472 
L 151.767663 228.676472 
L 151.782713 227.478456 
L 151.842911 228.676472 
L 155.048482 228.676472 
L 155.063531 229.874489 
L 155.078581 227.478456 
L 155.153829 228.676472 
L 155.168879 228.676472 
L 155.183928 229.874489 
L 155.274226 228.676472 
L 155.349474 228.676472 
L 155.364524 227.478456 
L 155.379574 229.874489 
L 155.454822 228.676472 
L 155.484921 228.676472 
L 155.560169 227.478456 
L 155.590268 228.676472 
L 155.665516 228.676472 
L 155.755814 229.874489 
L 155.725715 227.478456 
L 155.770864 228.676472 
L 155.816013 228.676472 
L 155.891261 227.478456 
L 155.93641 229.874489 
L 156.056807 228.676472 
L 156.071856 228.676472 
L 156.162154 229.874489 
L 156.117005 227.478456 
L 156.177204 228.676472 
L 159.382774 228.676472 
L 159.397824 229.874489 
L 159.473072 228.676472 
L 159.488121 227.478456 
L 159.518221 229.874489 
L 159.56337 229.874489 
L 159.578419 229.874489 
L 159.698816 228.676472 
L 159.804164 228.676472 
L 159.924561 229.874489 
L 160.044958 228.676472 
L 160.165355 229.874489 
L 160.240603 229.874489 
L 160.300801 228.676472 
L 160.34595 229.874489 
L 160.391099 229.874489 
L 160.511496 228.676472 
L 172.400701 229.874489 
L 172.506048 228.676472 
L 172.626445 229.874489 
L 172.656544 229.874489 
L 172.761892 228.676472 
L 172.882289 229.874489 
L 172.942487 229.874489 
L 173.062884 228.676472 
L 173.22843 228.676472 
L 173.288628 229.874489 
L 173.333777 228.676472 
L 173.424075 228.676472 
L 173.499323 229.874489 
L 173.514373 228.676472 
L 177.066085 228.676472 
L 177.141333 229.874489 
L 177.171432 228.676472 
L 177.276779 228.676472 
L 177.382127 229.874489 
L 177.502524 228.676472 
L 177.547673 228.676472 
L 177.622921 229.874489 
L 177.65302 228.676472 
L 177.773417 227.478456 
L 177.848665 228.676472 
L 181.024136 227.478456 
L 181.144533 228.676472 
L 181.189682 228.676472 
L 181.310079 229.874489 
L 181.385327 227.478456 
L 181.415426 228.676472 
L 181.430476 229.874489 
L 181.520774 228.676472 
L 181.535824 228.676472 
L 181.626121 227.478456 
L 181.641171 228.676472 
L 181.656221 228.676472 
L 181.716419 229.874489 
L 181.761568 228.676472 
L 181.806717 228.676472 
L 181.836816 229.874489 
L 181.912064 228.676472 
L 181.942163 228.676472 
L 182.032461 227.478456 
L 182.047511 229.874489 
L 182.137809 228.676472 
L 185.373478 228.676472 
L 185.478826 227.478456 
L 185.554074 228.676472 
L 185.584173 227.478456 
L 185.599223 227.478456 
L 185.644371 226.280439 
L 185.71962 228.676472 
L 185.779818 228.676472 
L 185.855066 227.478456 
L 185.870116 229.874489 
L 185.885165 228.676472 
L 185.960414 228.676472 
L 186.065761 227.478456 
L 186.186158 228.676472 
L 186.246356 228.676472 
L 186.366753 229.874489 
L 186.426952 229.874489 
L 186.472101 228.676472 
L 186.51725 229.874489 
L 189.692721 228.676472 
L 189.798068 229.874489 
L 189.918465 228.676472 
L 190.023813 229.874489 
L 190.038862 228.676472 
L 190.12916 229.874489 
L 190.279656 229.874489 
L 190.294706 228.676472 
L 190.385004 229.874489 
L 190.580649 229.874489 
L 190.701046 228.676472 
L 190.731145 229.874489 
L 190.806393 228.676472 
L 202.695598 228.676472 
L 202.815995 229.874489 
L 202.831044 229.874489 
L 202.936392 228.676472 
L 202.966491 229.874489 
L 203.041739 228.676472 
L 203.116987 228.676472 
L 203.132037 227.478456 
L 203.222335 228.676472 
L 203.312632 229.874489 
L 203.327682 228.676472 
L 203.342732 228.676472 
L 203.448079 229.874489 
L 203.463129 227.478456 
L 203.553426 228.676472 
L 203.598575 228.676472 
L 203.718972 229.874489 
L 203.82432 228.676472 
L 203.839369 229.874489 
L 203.854419 228.676472 
L 207.04494 229.874489 
L 207.165337 228.676472 
L 207.285734 229.874489 
L 207.406131 228.676472 
L 207.43623 228.676472 
L 207.466329 229.874489 
L 207.541577 227.478456 
L 207.586726 229.874489 
L 207.661974 228.676472 
L 207.722173 228.676472 
L 207.737222 229.874489 
L 207.82752 228.676472 
L 207.932868 228.676472 
L 207.947917 229.874489 
L 207.993066 227.478456 
L 208.038215 228.676472 
L 208.053265 228.676472 
L 208.158612 227.478456 
L 208.188711 228.676472 
L 211.424381 228.676472 
L 211.43943 229.874489 
L 211.529728 228.676472 
L 211.544778 228.676472 
L 211.559827 227.478456 
L 211.650125 228.676472 
L 211.665175 228.676472 
L 211.755473 227.478456 
L 211.695274 229.874489 
L 211.770522 228.676472 
L 211.815671 228.676472 
L 211.936068 227.478456 
L 211.996267 227.478456 
L 212.041415 228.676472 
L 212.101614 227.478456 
L 212.116664 227.478456 
L 212.131713 226.280439 
L 212.206961 227.478456 
L 212.222011 229.874489 
L 212.312309 227.478456 
L 212.432706 228.676472 
L 216.029566 228.676472 
L 216.074715 227.478456 
L 216.149963 229.874489 
L 216.180063 227.478456 
L 216.27036 228.676472 
L 216.28541 228.676472 
L 216.30046 229.874489 
L 216.345608 227.478456 
L 216.390757 228.676472 
L 216.6767 228.676472 
L 216.69175 229.874489 
L 216.782048 228.676472 
L 216.842246 228.676472 
L 216.857296 227.478456 
L 220.108015 228.676472 
L 220.213362 229.874489 
L 220.30366 228.676472 
L 220.31871 229.874489 
L 220.363859 229.874489 
L 220.454156 228.676472 
L 220.469206 229.874489 
L 220.484256 229.874489 
L 220.574553 228.676472 
L 220.589603 229.874489 
L 220.634752 229.874489 
L 220.649801 228.676472 
L 220.740099 229.874489 
L 220.755149 229.874489 
L 220.875546 228.676472 
L 220.920695 228.676472 
L 221.010993 229.874489 
L 221.026042 228.676472 
L 221.041092 228.676472 
L 221.161489 229.874489 
L 221.176538 229.874489 
L 221.191588 228.676472 
L 233.050693 228.676472 
L 233.065743 227.478456 
L 233.095842 229.874489 
L 233.140991 228.676472 
L 233.20119 227.478456 
L 233.231289 229.874489 
L 233.291487 227.478456 
L 233.336636 228.676472 
L 233.381785 228.676472 
L 233.396835 229.874489 
L 233.487132 228.676472 
L 233.607529 228.676472 
L 233.622579 229.874489 
L 233.637629 227.478456 
L 233.712877 228.676472 
L 233.727926 228.676472 
L 233.788125 229.874489 
L 233.833274 227.478456 
L 233.848324 229.874489 
L 233.938621 228.676472 
L 233.968721 228.676472 
L 233.98377 229.874489 
L 234.043969 227.478456 
L 234.074068 228.676472 
L 234.149316 228.676472 
L 234.164366 227.478456 
L 234.194465 228.676472 
L 237.475283 228.676472 
L 237.565581 227.478456 
L 237.580631 229.874489 
L 237.670929 228.676472 
L 237.746177 228.676472 
L 237.836474 229.874489 
L 237.806375 227.478456 
L 237.851524 228.676472 
L 237.941822 228.676472 
L 238.01707 227.478456 
L 238.047169 228.676472 
L 238.062219 228.676472 
L 238.182616 227.478456 
L 238.272914 228.676472 
L 238.287963 227.478456 
L 238.303013 226.280439 
L 238.318062 228.676472 
L 238.378261 228.676472 
L 238.483608 228.676472 
L 238.498658 227.478456 
L 238.528757 228.676472 
L 241.719278 228.676472 
L 241.809576 227.478456 
L 241.824625 228.676472 
L 242.366412 228.676472 
L 242.45671 227.478456 
L 242.44166 229.874489 
L 242.471759 228.676472 
L 242.697504 228.676472 
L 242.757702 227.478456 
L 242.802851 228.676472 
L 246.173967 228.676472 
L 246.234166 227.478456 
L 246.279315 228.676472 
L 246.294364 228.676472 
L 246.384662 227.478456 
L 246.399712 228.676472 
L 246.47496 228.676472 
L 246.580307 227.478456 
L 246.700704 228.676472 
L 246.806051 227.478456 
L 246.926449 228.676472 
L 246.941498 226.280439 
L 247.031796 227.478456 
L 247.107044 227.478456 
L 247.182292 228.676472 
L 247.197342 227.478456 
L 263.405789 228.676472 
L 263.496087 227.478456 
L 263.511136 228.676472 
L 263.526186 228.676472 
L 263.631533 227.478456 
L 263.706782 228.676472 
L 263.661633 226.280439 
L 263.721831 227.478456 
L 263.75193 226.280439 
L 263.812129 227.478456 
L 263.932526 228.676472 
L 264.022824 226.280439 
L 264.037873 227.478456 
L 264.052923 228.676472 
L 264.128171 227.478456 
L 264.143221 226.280439 
L 264.17332 228.676472 
L 264.233518 227.478456 
L 264.248568 227.478456 
L 264.368965 228.676472 
L 264.489362 227.478456 
L 264.504412 228.676472 
L 264.534511 227.478456 
L 267.709982 228.676472 
L 267.770181 226.280439 
L 267.815329 227.478456 
L 267.830379 227.478456 
L 267.875528 226.280439 
L 267.905627 228.676472 
L 267.935726 227.478456 
L 268.056123 228.676472 
L 268.131372 229.874489 
L 268.17652 227.478456 
L 268.296917 229.874489 
L 268.402265 228.676472 
L 268.522662 229.874489 
L 268.537711 229.874489 
L 268.643059 228.676472 
L 268.658108 229.874489 
L 268.748406 228.676472 
L 268.763456 228.676472 
L 268.838704 227.478456 
L 268.868803 229.874489 
L 272.044274 228.676472 
L 272.149622 229.874489 
L 272.270019 228.676472 
L 272.300118 228.676472 
L 272.420515 229.874489 
L 272.540912 227.478456 
L 272.60111 229.874489 
L 272.646259 227.478456 
L 272.661309 227.478456 
L 272.751607 229.874489 
L 272.781706 228.676472 
L 272.796756 228.676472 
L 272.902103 229.874489 
L 273.00745 227.478456 
L 273.0225 228.676472 
L 273.03755 228.676472 
L 273.082699 227.478456 
L 273.142897 228.676472 
L 273.172996 228.676472 
L 273.188046 227.478456 
L 273.203096 228.676472 
L 276.378567 228.676472 
L 276.468864 226.280439 
L 276.483914 228.676472 
L 276.498964 228.676472 
L 276.574212 227.478456 
L 276.604311 228.676472 
L 276.63441 228.676472 
L 276.724708 226.280439 
L 276.754807 227.478456 
L 276.769857 227.478456 
L 276.830055 226.280439 
L 276.875204 227.478456 
L 276.980552 227.478456 
L 277.010651 226.280439 
L 277.085899 227.478456 
L 277.100949 227.478456 
L 277.115998 226.280439 
L 277.131048 228.676472 
L 277.206296 227.478456 
L 277.221346 227.478456 
L 277.236395 226.280439 
L 277.326693 227.478456 
L 277.386892 227.478456 
L 277.507289 226.280439 
L 277.537388 227.478456 
L 280.742958 227.478456 
L 280.758008 226.280439 
L 280.848306 227.478456 
L 280.983752 227.478456 
L 281.028901 226.280439 
L 281.0891 227.478456 
L 281.104149 227.478456 
L 281.224546 226.280439 
L 281.254645 226.280439 
L 281.390092 228.676472 
L 281.495439 227.478456 
L 281.600787 228.676472 
L 281.706134 227.478456 
L 281.811482 228.676472 
L 281.826531 227.478456 
L 281.841581 229.874489 
L 281.87168 228.676472 
L 293.715736 228.676472 
L 293.745835 227.478456 
L 293.821083 228.676472 
L 293.896331 228.676472 
L 294.001679 227.478456 
L 294.122076 228.676472 
L 294.197324 227.478456 
L 294.212373 228.676472 
L 294.272572 229.874489 
L 294.317721 228.676472 
L 294.36287 228.676472 
L 294.377919 229.874489 
L 294.423068 227.478456 
L 294.468217 228.676472 
L 294.483267 228.676472 
L 294.498316 227.478456 
L 294.588614 228.676472 
L 294.603664 229.874489 
L 294.648813 227.478456 
L 294.693961 228.676472 
L 294.75416 228.676472 
L 294.874557 227.478456 
L 298.050028 228.676472 
L 298.155375 227.478456 
L 298.215574 228.676472 
L 298.260723 227.478456 
L 298.275772 227.478456 
L 298.396169 228.676472 
L 298.426269 228.676472 
L 298.531616 227.478456 
L 298.636963 228.676472 
L 298.652013 227.478456 
L 298.742311 228.676472 
L 298.77241 228.676472 
L 298.78746 227.478456 
L 298.877757 228.676472 
L 299.013204 228.676472 
L 299.028254 229.874489 
L 299.103502 227.478456 
L 299.118551 228.676472 
L 299.148651 228.676472 
L 299.1637 229.874489 
L 299.208849 228.676472 
L 302.519767 228.676472 
L 302.549866 229.874489 
L 302.640164 227.478456 
L 302.760561 228.676472 
L 302.896008 228.676472 
L 303.016405 227.478456 
L 303.121752 229.874489 
L 303.136802 228.676472 
L 303.302348 228.676472 
L 303.347496 227.478456 
L 303.392645 229.874489 
L 303.407695 228.676472 
L 306.914258 228.676472 
L 307.034655 229.874489 
L 307.155052 228.676472 
L 307.170101 228.676472 
L 307.2303 229.874489 
L 307.275449 228.676472 
L 307.305548 228.676472 
L 307.425945 229.874489 
L 307.531292 229.874489 
L 307.651689 228.676472 
L 307.666739 229.874489 
L 307.741987 228.676472 
L 307.817235 227.478456 
L 307.847335 228.676472 
L 311.052905 228.676472 
L 311.067955 229.874489 
L 311.083004 227.478456 
L 311.158252 228.676472 
L 311.218451 228.676472 
L 311.338848 227.478456 
L 311.444195 228.676472 
L 311.564592 227.478456 
L 311.63984 227.478456 
L 311.715088 228.676472 
L 311.745188 227.478456 
L 311.760237 227.478456 
L 311.865585 228.676472 
L 311.955882 227.478456 
L 311.970932 228.676472 
L 312.091329 228.676472 
L 312.181627 227.478456 
L 312.196676 228.676472 
L 312.211726 228.676472 
L 324.055782 227.478456 
L 324.176179 228.676472 
L 324.281526 228.676472 
L 324.401923 226.280439 
L 324.447072 228.676472 
L 324.52232 227.478456 
L 324.552419 227.478456 
L 324.627668 226.280439 
L 324.672816 228.676472 
L 324.748065 227.478456 
L 324.778164 228.676472 
L 324.808263 228.676472 
L 324.92866 227.478456 
L 325.049057 228.676472 
L 325.109256 228.676472 
L 325.169454 227.478456 
L 325.214603 228.676472 
L 332.724366 32.201761 
L 368.060888 32.201761 
L 368.166236 229.874489 
L 368.181285 228.676472 
L 368.241484 228.676472 
L 368.331782 229.874489 
L 368.346831 228.676472 
L 368.361881 227.478456 
L 368.39198 229.874489 
L 368.452179 228.676472 
L 368.542476 229.874489 
L 368.557526 228.676472 
L 371.732997 228.676472 
L 371.808245 229.874489 
L 371.838344 228.676472 
L 371.853394 228.676472 
L 371.973791 229.874489 
L 372.094188 228.676472 
L 372.109238 229.874489 
L 372.139337 227.478456 
L 372.199535 228.676472 
L 372.274784 228.676472 
L 372.395181 229.874489 
L 372.500528 227.478456 
L 372.515578 228.676472 
L 372.545677 228.676472 
L 372.635975 229.874489 
L 372.651024 228.676472 
L 372.696173 228.676472 
L 372.771421 227.478456 
L 372.81657 229.874489 
L 372.876769 228.676472 
L 372.891818 229.874489 
" clip-path="url(#pea3efb2715)" style="fill: none; stroke: #4c72b0; stroke-width: 1.5; stroke-linecap: round"/>
   </g>
   <g id="patch_3">
    <path d="M 53.31 239.758125 
L 53.31 22.318125 
" style="fill: none; stroke: #ffffff; stroke-width: 1.25; stroke-linejoin: miter; stroke-linecap: square"/>
   </g>
   <g id="patch_4">
    <path d="M 388.11 239.758125 
L 388.11 22.318125 
" style="fill: none; stroke: #ffffff; stroke-width: 1.25; stroke-linejoin: miter; stroke-linecap: square"/>
   </g>
   <g id="patch_5">
    <path d="M 53.31 239.758125 
L 388.11 239.758125 
" style="fill: none; stroke: #ffffff; stroke-width: 1.25; stroke-linejoin: miter; stroke-linecap: square"/>
   </g>
   <g id="patch_6">
    <path d="M 53.31 22.318125 
L 388.11 22.318125 
" style="fill: none; stroke: #ffffff; stroke-width: 1.25; stroke-linejoin: miter; stroke-linecap: square"/>
   </g>
   <g id="text_16">
    <!-- Number of clusters per period -->
    <g style="fill: #262626" transform="translate(130.583438 16.318125)scale(0.12 -0.12)">
     <defs>
      <path id="DejaVuSans-4e" d="M 628 4666 
L 1478 4666 
L 3547 763 
L 3547 4666 
L 4159 4666 
L 4159 0 
L 3309 0 
L 1241 3903 
L 1241 0 
L 628 0 
L 628 4666 
z
" transform="scale(0.015625)"/>
      <path id="DejaVuSans-62" d="M 3116 1747 
Q 3116 2381 2855 2742 
Q 2594 3103 2138 3103 
Q 1681 3103 1420 2742 
Q 1159 2381 1159 1747 
Q 1159 1113 1420 752 
Q 1681 391 2138 391 
Q 2594 391 2855 752 
Q 3116 1113 3116 1747 
z
M 1159 2969 
Q 1341 3281 1617 3432 
Q 1894 3584 2278 3584 
Q 2916 3584 3314 3078 
Q 3713 2572 3713 1747 
Q 3713 922 3314 415 
Q 2916 -91 2278 -91 
Q 1894 -91 1617 61 
Q 1341 213 1159 525 
L 1159 0 
L 581 0 
L 581 4863 
L 1159 4863 
L 1159 2969 
z
" transform="scale(0.015625)"/>
      <path id="DejaVuSans-20" transform="scale(0.015625)"/>
      <path id="DejaVuSans-6f" d="M 1959 3097 
Q 1497 3097 1228 2736 
Q 959 2375 959 1747 
Q 959 1119 1226 758 
Q 1494 397 1959 397 
Q 2419 397 2687 759 
Q 2956 1122 2956 1747 
Q 2956 2369 2687 2733 
Q 2419 3097 1959 3097 
z
M 1959 3584 
Q 2709 3584 3137 3096 
Q 3566 2609 3566 1747 
Q 3566 888 3137 398 
Q 2709 -91 1959 -91 
Q 1206 -91 779 398 
Q 353 888 353 1747 
Q 353 2609 779 3096 
Q 1206 3584 1959 3584 
z
" transform="scale(0.015625)"/>
      <path id="DejaVuSans-66" d="M 2375 4863 
L 2375 4384 
L 1825 4384 
Q 1516 4384 1395 4259 
Q 1275 4134 1275 3809 
L 1275 3500 
L 2222 3500 
L 2222 3053 
L 1275 3053 
L 1275 0 
L 697 0 
L 697 3053 
L 147 3053 
L 147 3500 
L 697 3500 
L 697 3744 
Q 697 4328 969 4595 
Q 1241 4863 1831 4863 
L 2375 4863 
z
" transform="scale(0.015625)"/>
      <path id="DejaVuSans-63" d="M 3122 3366 
L 3122 2828 
Q 2878 2963 2633 3030 
Q 2388 3097 2138 3097 
Q 1578 3097 1268 2742 
Q 959 2388 959 1747 
Q 959 1106 1268 751 
Q 1578 397 2138 397 
Q 2388 397 2633 464 
Q 2878 531 3122 666 
L 3122 134 
Q 2881 22 2623 -34 
Q 2366 -91 2075 -91 
Q 1284 -91 818 406 
Q 353 903 353 1747 
Q 353 2603 823 3093 
Q 1294 3584 2113 3584 
Q 2378 3584 2631 3529 
Q 2884 3475 3122 3366 
z
" transform="scale(0.015625)"/>
      <path id="DejaVuSans-70" d="M 1159 525 
L 1159 -1331 
L 581 -1331 
L 581 3500 
L 1159 3500 
L 1159 2969 
Q 1341 3281 1617 3432 
Q 1894 3584 2278 3584 
Q 2916 3584 3314 3078 
Q 3713 2572 3713 1747 
Q 3713 922 3314 415 
Q 2916 -91 2278 -91 
Q 1894 -91 1617 61 
Q 1341 213 1159 525 
z
M 3116 1747 
Q 3116 2381 2855 2742 
Q 2594 3103 2138 3103 
Q 1681 3103 1420 2742 
Q 1159 2381 1159 1747 
Q 1159 1113 1420 752 
Q 1681 391 2138 391 
Q 2594 391 2855 752 
Q 3116 1113 3116 1747 
z
" transform="scale(0.015625)"/>
      <path id="DejaVuSans-64" d="M 2906 2969 
L 2906 4863 
L 3481 4863 
L 3481 0 
L 2906 0 
L 2906 525 
Q 2725 213 2448 61 
Q 2172 -91 1784 -91 
Q 1150 -91 751 415 
Q 353 922 353 1747 
Q 353 2572 751 3078 
Q 1150 3584 1784 3584 
Q 2172 3584 2448 3432 
Q 2725 3281 2906 2969 
z
M 947 1747 
Q 947 1113 1208 752 
Q 1469 391 1925 391 
Q 2381 391 2643 752 
Q 2906 1113 2906 1747 
Q 2906 2381 2643 2742 
Q 2381 3103 1925 3103 
Q 1469 3103 1208 2742 
Q 947 2381 947 1747 
z
" transform="scale(0.015625)"/>
     </defs>
     <use xlink:href="#DejaVuSans-4e"/>
     <use xlink:href="#DejaVuSans-75" x="74.804688"/>
     <use xlink:href="#DejaVuSans-6d" x="138.183594"/>
     <use xlink:href="#DejaVuSans-62" x="235.595703"/>
     <use xlink:href="#DejaVuSans-65" x="299.072266"/>
     <use xlink:href="#DejaVuSans-72" x="360.595703"/>
     <use xlink:href="#DejaVuSans-20" x="401.708984"/>
     <use xlink:href="#DejaVuSans-6f" x="433.496094"/>
     <use xlink:href="#DejaVuSans-66" x="494.677734"/>
     <use xlink:href="#DejaVuSans-20" x="529.882812"/>
     <use xlink:href="#DejaVuSans-63" x="561.669922"/>
     <use xlink:href="#DejaVuSans-6c" x="616.650391"/>
     <use xlink:href="#DejaVuSans-75" x="644.433594"/>
     <use xlink:href="#DejaVuSans-73" x="707.8125"/>
     <use xlink:href="#DejaVuSans-74" x="759.912109"/>
     <use xlink:href="#DejaVuSans-65" x="799.121094"/>
     <use xlink:href="#DejaVuSans-72" x="860.644531"/>
     <use xlink:href="#DejaVuSans-73" x="901.757812"/>
     <use xlink:href="#DejaVuSans-20" x="953.857422"/>
     <use xlink:href="#DejaVuSans-70" x="985.644531"/>
     <use xlink:href="#DejaVuSans-65" x="1049.121094"/>
     <use xlink:href="#DejaVuSans-72" x="1110.644531"/>
     <use xlink:href="#DejaVuSans-20" x="1151.757812"/>
     <use xlink:href="#DejaVuSans-70" x="1183.544922"/>
     <use xlink:href="#DejaVuSans-65" x="1247.021484"/>
     <use xlink:href="#DejaVuSans-72" x="1308.544922"/>
     <use xlink:href="#DejaVuSans-69" x="1349.658203"/>
     <use xlink:href="#DejaVuSans-6f" x="1377.441406"/>
     <use xlink:href="#DejaVuSans-64" x="1438.623047"/>
    </g>
   </g>
  </g>
 </g>
 <defs>
  <clipPath id="pea3efb2715">
   <rect x="53.31" y="22.318125" width="334.8" height="217.44"/>
  </clipPath>
 </defs>
</svg>
