<?xml version="1.0" encoding="utf-8" standalone="no"?>
<!DOCTYPE svg PUBLIC "-//W3C//DTD SVG 1.1//EN"
  "http://www.w3.org/Graphics/SVG/1.1/DTD/svg11.dtd">
<svg xmlns:xlink="http://www.w3.org/1999/xlink" width="381.3125pt" height="312.099091pt" viewBox="0 0 381.3125 312.099091" xmlns="http://www.w3.org/2000/svg" version="1.1">
 <metadata>
  <rdf:RDF xmlns:dc="http://purl.org/dc/elements/1.1/" xmlns:cc="http://creativecommons.org/ns#" xmlns:rdf="http://www.w3.org/1999/02/22-rdf-syntax-ns#">
   <cc:Work>
    <dc:type rdf:resource="http://purl.org/dc/dcmitype/StillImage"/>
    <dc:date>2022-01-30T23:41:12.051888</dc:date>
    <dc:format>image/svg+xml</dc:format>
    <dc:creator>
     <cc:Agent>
      <dc:title>Matplotlib v3.5.0, https://matplotlib.org/</dc:title>
     </cc:Agent>
    </dc:creator>
   </cc:Work>
  </rdf:RDF>
 </metadata>
 <defs>
  <style type="text/css">*{stroke-linejoin: round; stroke-linecap: butt}</style>
 </defs>
 <g id="figure_1">
  <g id="patch_1">
   <path d="M 0 312.099091 
L 381.3125 312.099091 
L 381.3125 0 
L 0 0 
z
" style="fill: #ffffff"/>
  </g>
  <g id="axes_1">
   <g id="patch_2">
    <path d="M 39.3125 239.758125 
L 374.1125 239.758125 
L 374.1125 22.318125 
L 39.3125 22.318125 
z
" style="fill: #eaeaf2"/>
   </g>
   <g id="matplotlib.axis_1">
    <g id="xtick_1">
     <g id="line2d_1">
      <path d="M 66.582328 239.758125 
L 66.582328 22.318125 
" clip-path="url(#pd3fe3ccc0d)" style="fill: none; stroke: #ffffff; stroke-linecap: round"/>
     </g>
     <g id="text_1">
      <!-- 2020-04 -->
      <g style="fill: #262626" transform="translate(52.478918 287.667723)rotate(-45)scale(0.11 -0.11)">
       <defs>
        <path id="DejaVuSans-32" d="M 1228 531 
L 3431 531 
L 3431 0 
L 469 0 
L 469 531 
Q 828 903 1448 1529 
Q 2069 2156 2228 2338 
Q 2531 2678 2651 2914 
Q 2772 3150 2772 3378 
Q 2772 3750 2511 3984 
Q 2250 4219 1831 4219 
Q 1534 4219 1204 4116 
Q 875 4013 500 3803 
L 500 4441 
Q 881 4594 1212 4672 
Q 1544 4750 1819 4750 
Q 2544 4750 2975 4387 
Q 3406 4025 3406 3419 
Q 3406 3131 3298 2873 
Q 3191 2616 2906 2266 
Q 2828 2175 2409 1742 
Q 1991 1309 1228 531 
z
" transform="scale(0.015625)"/>
        <path id="DejaVuSans-30" d="M 2034 4250 
Q 1547 4250 1301 3770 
Q 1056 3291 1056 2328 
Q 1056 1369 1301 889 
Q 1547 409 2034 409 
Q 2525 409 2770 889 
Q 3016 1369 3016 2328 
Q 3016 3291 2770 3770 
Q 2525 4250 2034 4250 
z
M 2034 4750 
Q 2819 4750 3233 4129 
Q 3647 3509 3647 2328 
Q 3647 1150 3233 529 
Q 2819 -91 2034 -91 
Q 1250 -91 836 529 
Q 422 1150 422 2328 
Q 422 3509 836 4129 
Q 1250 4750 2034 4750 
z
" transform="scale(0.015625)"/>
        <path id="DejaVuSans-2d" d="M 313 2009 
L 1997 2009 
L 1997 1497 
L 313 1497 
L 313 2009 
z
" transform="scale(0.015625)"/>
        <path id="DejaVuSans-34" d="M 2419 4116 
L 825 1625 
L 2419 1625 
L 2419 4116 
z
M 2253 4666 
L 3047 4666 
L 3047 1625 
L 3713 1625 
L 3713 1100 
L 3047 1100 
L 3047 0 
L 2419 0 
L 2419 1100 
L 313 1100 
L 313 1709 
L 2253 4666 
z
" transform="scale(0.015625)"/>
       </defs>
       <use xlink:href="#DejaVuSans-32"/>
       <use xlink:href="#DejaVuSans-30" x="63.623047"/>
       <use xlink:href="#DejaVuSans-32" x="127.246094"/>
       <use xlink:href="#DejaVuSans-30" x="190.869141"/>
       <use xlink:href="#DejaVuSans-2d" x="254.492188"/>
       <use xlink:href="#DejaVuSans-30" x="290.576172"/>
       <use xlink:href="#DejaVuSans-34" x="354.199219"/>
      </g>
     </g>
    </g>
    <g id="xtick_2">
     <g id="line2d_2">
      <path d="M 106.492558 239.758125 
L 106.492558 22.318125 
" clip-path="url(#pd3fe3ccc0d)" style="fill: none; stroke: #ffffff; stroke-linecap: round"/>
     </g>
     <g id="text_2">
      <!-- 2020-07 -->
      <g style="fill: #262626" transform="translate(92.389148 287.667723)rotate(-45)scale(0.11 -0.11)">
       <defs>
        <path id="DejaVuSans-37" d="M 525 4666 
L 3525 4666 
L 3525 4397 
L 1831 0 
L 1172 0 
L 2766 4134 
L 525 4134 
L 525 4666 
z
" transform="scale(0.015625)"/>
       </defs>
       <use xlink:href="#DejaVuSans-32"/>
       <use xlink:href="#DejaVuSans-30" x="63.623047"/>
       <use xlink:href="#DejaVuSans-32" x="127.246094"/>
       <use xlink:href="#DejaVuSans-30" x="190.869141"/>
       <use xlink:href="#DejaVuSans-2d" x="254.492188"/>
       <use xlink:href="#DejaVuSans-30" x="290.576172"/>
       <use xlink:href="#DejaVuSans-37" x="354.199219"/>
      </g>
     </g>
    </g>
    <g id="xtick_3">
     <g id="line2d_3">
      <path d="M 146.841361 239.758125 
L 146.841361 22.318125 
" clip-path="url(#pd3fe3ccc0d)" style="fill: none; stroke: #ffffff; stroke-linecap: round"/>
     </g>
     <g id="text_3">
      <!-- 2020-10 -->
      <g style="fill: #262626" transform="translate(132.737951 287.667723)rotate(-45)scale(0.11 -0.11)">
       <defs>
        <path id="DejaVuSans-31" d="M 794 531 
L 1825 531 
L 1825 4091 
L 703 3866 
L 703 4441 
L 1819 4666 
L 2450 4666 
L 2450 531 
L 3481 531 
L 3481 0 
L 794 0 
L 794 531 
z
" transform="scale(0.015625)"/>
       </defs>
       <use xlink:href="#DejaVuSans-32"/>
       <use xlink:href="#DejaVuSans-30" x="63.623047"/>
       <use xlink:href="#DejaVuSans-32" x="127.246094"/>
       <use xlink:href="#DejaVuSans-30" x="190.869141"/>
       <use xlink:href="#DejaVuSans-2d" x="254.492188"/>
       <use xlink:href="#DejaVuSans-31" x="290.576172"/>
       <use xlink:href="#DejaVuSans-30" x="354.199219"/>
      </g>
     </g>
    </g>
    <g id="xtick_4">
     <g id="line2d_4">
      <path d="M 187.208439 239.758125 
L 187.208439 22.318125 
" clip-path="url(#pd3fe3ccc0d)" style="fill: none; stroke: #ffffff; stroke-linecap: round"/>
     </g>
     <g id="text_4">
      <!-- 2021-01 -->
      <g style="fill: #262626" transform="translate(173.105028 287.667723)rotate(-45)scale(0.11 -0.11)">
       <use xlink:href="#DejaVuSans-32"/>
       <use xlink:href="#DejaVuSans-30" x="63.623047"/>
       <use xlink:href="#DejaVuSans-32" x="127.246094"/>
       <use xlink:href="#DejaVuSans-31" x="190.869141"/>
       <use xlink:href="#DejaVuSans-2d" x="254.492188"/>
       <use xlink:href="#DejaVuSans-30" x="290.576172"/>
       <use xlink:href="#DejaVuSans-31" x="354.199219"/>
      </g>
     </g>
    </g>
    <g id="xtick_5">
     <g id="line2d_5">
      <path d="M 226.66182 239.758125 
L 226.66182 22.318125 
" clip-path="url(#pd3fe3ccc0d)" style="fill: none; stroke: #ffffff; stroke-linecap: round"/>
     </g>
     <g id="text_5">
      <!-- 2021-04 -->
      <g style="fill: #262626" transform="translate(212.55841 287.667723)rotate(-45)scale(0.11 -0.11)">
       <use xlink:href="#DejaVuSans-32"/>
       <use xlink:href="#DejaVuSans-30" x="63.623047"/>
       <use xlink:href="#DejaVuSans-32" x="127.246094"/>
       <use xlink:href="#DejaVuSans-31" x="190.869141"/>
       <use xlink:href="#DejaVuSans-2d" x="254.492188"/>
       <use xlink:href="#DejaVuSans-30" x="290.576172"/>
       <use xlink:href="#DejaVuSans-34" x="354.199219"/>
      </g>
     </g>
    </g>
    <g id="xtick_6">
     <g id="line2d_6">
      <path d="M 266.57205 239.758125 
L 266.57205 22.318125 
" clip-path="url(#pd3fe3ccc0d)" style="fill: none; stroke: #ffffff; stroke-linecap: round"/>
     </g>
     <g id="text_6">
      <!-- 2021-07 -->
      <g style="fill: #262626" transform="translate(252.468639 287.667723)rotate(-45)scale(0.11 -0.11)">
       <use xlink:href="#DejaVuSans-32"/>
       <use xlink:href="#DejaVuSans-30" x="63.623047"/>
       <use xlink:href="#DejaVuSans-32" x="127.246094"/>
       <use xlink:href="#DejaVuSans-31" x="190.869141"/>
       <use xlink:href="#DejaVuSans-2d" x="254.492188"/>
       <use xlink:href="#DejaVuSans-30" x="290.576172"/>
       <use xlink:href="#DejaVuSans-37" x="354.199219"/>
      </g>
     </g>
    </g>
    <g id="xtick_7">
     <g id="line2d_7">
      <path d="M 306.920853 239.758125 
L 306.920853 22.318125 
" clip-path="url(#pd3fe3ccc0d)" style="fill: none; stroke: #ffffff; stroke-linecap: round"/>
     </g>
     <g id="text_7">
      <!-- 2021-10 -->
      <g style="fill: #262626" transform="translate(292.817443 287.667723)rotate(-45)scale(0.11 -0.11)">
       <use xlink:href="#DejaVuSans-32"/>
       <use xlink:href="#DejaVuSans-30" x="63.623047"/>
       <use xlink:href="#DejaVuSans-32" x="127.246094"/>
       <use xlink:href="#DejaVuSans-31" x="190.869141"/>
       <use xlink:href="#DejaVuSans-2d" x="254.492188"/>
       <use xlink:href="#DejaVuSans-31" x="290.576172"/>
       <use xlink:href="#DejaVuSans-30" x="354.199219"/>
      </g>
     </g>
    </g>
    <g id="xtick_8">
     <g id="line2d_8">
      <path d="M 347.287931 239.758125 
L 347.287931 22.318125 
" clip-path="url(#pd3fe3ccc0d)" style="fill: none; stroke: #ffffff; stroke-linecap: round"/>
     </g>
     <g id="text_8">
      <!-- 2022-01 -->
      <g style="fill: #262626" transform="translate(333.18452 287.667723)rotate(-45)scale(0.11 -0.11)">
       <use xlink:href="#DejaVuSans-32"/>
       <use xlink:href="#DejaVuSans-30" x="63.623047"/>
       <use xlink:href="#DejaVuSans-32" x="127.246094"/>
       <use xlink:href="#DejaVuSans-32" x="190.869141"/>
       <use xlink:href="#DejaVuSans-2d" x="254.492188"/>
       <use xlink:href="#DejaVuSans-30" x="290.576172"/>
       <use xlink:href="#DejaVuSans-31" x="354.199219"/>
      </g>
     </g>
    </g>
    <g id="text_9">
     <!-- Datetime -->
     <g style="fill: #262626" transform="translate(178.81625 302.403466)scale(0.12 -0.12)">
      <defs>
       <path id="DejaVuSans-44" d="M 1259 4147 
L 1259 519 
L 2022 519 
Q 2988 519 3436 956 
Q 3884 1394 3884 2338 
Q 3884 3275 3436 3711 
Q 2988 4147 2022 4147 
L 1259 4147 
z
M 628 4666 
L 1925 4666 
Q 3281 4666 3915 4102 
Q 4550 3538 4550 2338 
Q 4550 1131 3912 565 
Q 3275 0 1925 0 
L 628 0 
L 628 4666 
z
" transform="scale(0.015625)"/>
       <path id="DejaVuSans-61" d="M 2194 1759 
Q 1497 1759 1228 1600 
Q 959 1441 959 1056 
Q 959 750 1161 570 
Q 1363 391 1709 391 
Q 2188 391 2477 730 
Q 2766 1069 2766 1631 
L 2766 1759 
L 2194 1759 
z
M 3341 1997 
L 3341 0 
L 2766 0 
L 2766 531 
Q 2569 213 2275 61 
Q 1981 -91 1556 -91 
Q 1019 -91 701 211 
Q 384 513 384 1019 
Q 384 1609 779 1909 
Q 1175 2209 1959 2209 
L 2766 2209 
L 2766 2266 
Q 2766 2663 2505 2880 
Q 2244 3097 1772 3097 
Q 1472 3097 1187 3025 
Q 903 2953 641 2809 
L 641 3341 
Q 956 3463 1253 3523 
Q 1550 3584 1831 3584 
Q 2591 3584 2966 3190 
Q 3341 2797 3341 1997 
z
" transform="scale(0.015625)"/>
       <path id="DejaVuSans-74" d="M 1172 4494 
L 1172 3500 
L 2356 3500 
L 2356 3053 
L 1172 3053 
L 1172 1153 
Q 1172 725 1289 603 
Q 1406 481 1766 481 
L 2356 481 
L 2356 0 
L 1766 0 
Q 1100 0 847 248 
Q 594 497 594 1153 
L 594 3053 
L 172 3053 
L 172 3500 
L 594 3500 
L 594 4494 
L 1172 4494 
z
" transform="scale(0.015625)"/>
       <path id="DejaVuSans-65" d="M 3597 1894 
L 3597 1613 
L 953 1613 
Q 991 1019 1311 708 
Q 1631 397 2203 397 
Q 2534 397 2845 478 
Q 3156 559 3463 722 
L 3463 178 
Q 3153 47 2828 -22 
Q 2503 -91 2169 -91 
Q 1331 -91 842 396 
Q 353 884 353 1716 
Q 353 2575 817 3079 
Q 1281 3584 2069 3584 
Q 2775 3584 3186 3129 
Q 3597 2675 3597 1894 
z
M 3022 2063 
Q 3016 2534 2758 2815 
Q 2500 3097 2075 3097 
Q 1594 3097 1305 2825 
Q 1016 2553 972 2059 
L 3022 2063 
z
" transform="scale(0.015625)"/>
       <path id="DejaVuSans-69" d="M 603 3500 
L 1178 3500 
L 1178 0 
L 603 0 
L 603 3500 
z
M 603 4863 
L 1178 4863 
L 1178 4134 
L 603 4134 
L 603 4863 
z
" transform="scale(0.015625)"/>
       <path id="DejaVuSans-6d" d="M 3328 2828 
Q 3544 3216 3844 3400 
Q 4144 3584 4550 3584 
Q 5097 3584 5394 3201 
Q 5691 2819 5691 2113 
L 5691 0 
L 5113 0 
L 5113 2094 
Q 5113 2597 4934 2840 
Q 4756 3084 4391 3084 
Q 3944 3084 3684 2787 
Q 3425 2491 3425 1978 
L 3425 0 
L 2847 0 
L 2847 2094 
Q 2847 2600 2669 2842 
Q 2491 3084 2119 3084 
Q 1678 3084 1418 2786 
Q 1159 2488 1159 1978 
L 1159 0 
L 581 0 
L 581 3500 
L 1159 3500 
L 1159 2956 
Q 1356 3278 1631 3431 
Q 1906 3584 2284 3584 
Q 2666 3584 2933 3390 
Q 3200 3197 3328 2828 
z
" transform="scale(0.015625)"/>
      </defs>
      <use xlink:href="#DejaVuSans-44"/>
      <use xlink:href="#DejaVuSans-61" x="77.001953"/>
      <use xlink:href="#DejaVuSans-74" x="138.28125"/>
      <use xlink:href="#DejaVuSans-65" x="177.490234"/>
      <use xlink:href="#DejaVuSans-74" x="239.013672"/>
      <use xlink:href="#DejaVuSans-69" x="278.222656"/>
      <use xlink:href="#DejaVuSans-6d" x="306.005859"/>
      <use xlink:href="#DejaVuSans-65" x="403.417969"/>
     </g>
    </g>
   </g>
   <g id="matplotlib.axis_2">
    <g id="ytick_1">
     <g id="line2d_9">
      <path d="M 39.3125 229.874489 
L 374.1125 229.874489 
" clip-path="url(#pd3fe3ccc0d)" style="fill: none; stroke: #ffffff; stroke-linecap: round"/>
     </g>
     <g id="text_10">
      <!-- 2 -->
      <g style="fill: #262626" transform="translate(22.81375 234.053629)scale(0.11 -0.11)">
       <use xlink:href="#DejaVuSans-32"/>
      </g>
     </g>
    </g>
    <g id="ytick_2">
     <g id="line2d_10">
      <path d="M 39.3125 196.929034 
L 374.1125 196.929034 
" clip-path="url(#pd3fe3ccc0d)" style="fill: none; stroke: #ffffff; stroke-linecap: round"/>
     </g>
     <g id="text_11">
      <!-- 3 -->
      <g style="fill: #262626" transform="translate(22.81375 201.108175)scale(0.11 -0.11)">
       <defs>
        <path id="DejaVuSans-33" d="M 2597 2516 
Q 3050 2419 3304 2112 
Q 3559 1806 3559 1356 
Q 3559 666 3084 287 
Q 2609 -91 1734 -91 
Q 1441 -91 1130 -33 
Q 819 25 488 141 
L 488 750 
Q 750 597 1062 519 
Q 1375 441 1716 441 
Q 2309 441 2620 675 
Q 2931 909 2931 1356 
Q 2931 1769 2642 2001 
Q 2353 2234 1838 2234 
L 1294 2234 
L 1294 2753 
L 1863 2753 
Q 2328 2753 2575 2939 
Q 2822 3125 2822 3475 
Q 2822 3834 2567 4026 
Q 2313 4219 1838 4219 
Q 1578 4219 1281 4162 
Q 984 4106 628 3988 
L 628 4550 
Q 988 4650 1302 4700 
Q 1616 4750 1894 4750 
Q 2613 4750 3031 4423 
Q 3450 4097 3450 3541 
Q 3450 3153 3228 2886 
Q 3006 2619 2597 2516 
z
" transform="scale(0.015625)"/>
       </defs>
       <use xlink:href="#DejaVuSans-33"/>
      </g>
     </g>
    </g>
    <g id="ytick_3">
     <g id="line2d_11">
      <path d="M 39.3125 163.98358 
L 374.1125 163.98358 
" clip-path="url(#pd3fe3ccc0d)" style="fill: none; stroke: #ffffff; stroke-linecap: round"/>
     </g>
     <g id="text_12">
      <!-- 4 -->
      <g style="fill: #262626" transform="translate(22.81375 168.16272)scale(0.11 -0.11)">
       <use xlink:href="#DejaVuSans-34"/>
      </g>
     </g>
    </g>
    <g id="ytick_4">
     <g id="line2d_12">
      <path d="M 39.3125 131.038125 
L 374.1125 131.038125 
" clip-path="url(#pd3fe3ccc0d)" style="fill: none; stroke: #ffffff; stroke-linecap: round"/>
     </g>
     <g id="text_13">
      <!-- 5 -->
      <g style="fill: #262626" transform="translate(22.81375 135.217266)scale(0.11 -0.11)">
       <defs>
        <path id="DejaVuSans-35" d="M 691 4666 
L 3169 4666 
L 3169 4134 
L 1269 4134 
L 1269 2991 
Q 1406 3038 1543 3061 
Q 1681 3084 1819 3084 
Q 2600 3084 3056 2656 
Q 3513 2228 3513 1497 
Q 3513 744 3044 326 
Q 2575 -91 1722 -91 
Q 1428 -91 1123 -41 
Q 819 9 494 109 
L 494 744 
Q 775 591 1075 516 
Q 1375 441 1709 441 
Q 2250 441 2565 725 
Q 2881 1009 2881 1497 
Q 2881 1984 2565 2268 
Q 2250 2553 1709 2553 
Q 1456 2553 1204 2497 
Q 953 2441 691 2322 
L 691 4666 
z
" transform="scale(0.015625)"/>
       </defs>
       <use xlink:href="#DejaVuSans-35"/>
      </g>
     </g>
    </g>
    <g id="ytick_5">
     <g id="line2d_13">
      <path d="M 39.3125 98.09267 
L 374.1125 98.09267 
" clip-path="url(#pd3fe3ccc0d)" style="fill: none; stroke: #ffffff; stroke-linecap: round"/>
     </g>
     <g id="text_14">
      <!-- 6 -->
      <g style="fill: #262626" transform="translate(22.81375 102.271811)scale(0.11 -0.11)">
       <defs>
        <path id="DejaVuSans-36" d="M 2113 2584 
Q 1688 2584 1439 2293 
Q 1191 2003 1191 1497 
Q 1191 994 1439 701 
Q 1688 409 2113 409 
Q 2538 409 2786 701 
Q 3034 994 3034 1497 
Q 3034 2003 2786 2293 
Q 2538 2584 2113 2584 
z
M 3366 4563 
L 3366 3988 
Q 3128 4100 2886 4159 
Q 2644 4219 2406 4219 
Q 1781 4219 1451 3797 
Q 1122 3375 1075 2522 
Q 1259 2794 1537 2939 
Q 1816 3084 2150 3084 
Q 2853 3084 3261 2657 
Q 3669 2231 3669 1497 
Q 3669 778 3244 343 
Q 2819 -91 2113 -91 
Q 1303 -91 875 529 
Q 447 1150 447 2328 
Q 447 3434 972 4092 
Q 1497 4750 2381 4750 
Q 2619 4750 2861 4703 
Q 3103 4656 3366 4563 
z
" transform="scale(0.015625)"/>
       </defs>
       <use xlink:href="#DejaVuSans-36"/>
      </g>
     </g>
    </g>
    <g id="ytick_6">
     <g id="line2d_14">
      <path d="M 39.3125 65.147216 
L 374.1125 65.147216 
" clip-path="url(#pd3fe3ccc0d)" style="fill: none; stroke: #ffffff; stroke-linecap: round"/>
     </g>
     <g id="text_15">
      <!-- 7 -->
      <g style="fill: #262626" transform="translate(22.81375 69.326357)scale(0.11 -0.11)">
       <use xlink:href="#DejaVuSans-37"/>
      </g>
     </g>
    </g>
    <g id="ytick_7">
     <g id="line2d_15">
      <path d="M 39.3125 32.201761 
L 374.1125 32.201761 
" clip-path="url(#pd3fe3ccc0d)" style="fill: none; stroke: #ffffff; stroke-linecap: round"/>
     </g>
     <g id="text_16">
      <!-- 8 -->
      <g style="fill: #262626" transform="translate(22.81375 36.380902)scale(0.11 -0.11)">
       <defs>
        <path id="DejaVuSans-38" d="M 2034 2216 
Q 1584 2216 1326 1975 
Q 1069 1734 1069 1313 
Q 1069 891 1326 650 
Q 1584 409 2034 409 
Q 2484 409 2743 651 
Q 3003 894 3003 1313 
Q 3003 1734 2745 1975 
Q 2488 2216 2034 2216 
z
M 1403 2484 
Q 997 2584 770 2862 
Q 544 3141 544 3541 
Q 544 4100 942 4425 
Q 1341 4750 2034 4750 
Q 2731 4750 3128 4425 
Q 3525 4100 3525 3541 
Q 3525 3141 3298 2862 
Q 3072 2584 2669 2484 
Q 3125 2378 3379 2068 
Q 3634 1759 3634 1313 
Q 3634 634 3220 271 
Q 2806 -91 2034 -91 
Q 1263 -91 848 271 
Q 434 634 434 1313 
Q 434 1759 690 2068 
Q 947 2378 1403 2484 
z
M 1172 3481 
Q 1172 3119 1398 2916 
Q 1625 2713 2034 2713 
Q 2441 2713 2670 2916 
Q 2900 3119 2900 3481 
Q 2900 3844 2670 4047 
Q 2441 4250 2034 4250 
Q 1625 4250 1398 4047 
Q 1172 3844 1172 3481 
z
" transform="scale(0.015625)"/>
       </defs>
       <use xlink:href="#DejaVuSans-38"/>
      </g>
     </g>
    </g>
    <g id="text_17">
     <!-- Clusters -->
     <g style="fill: #262626" transform="translate(16.318125 155.459062)rotate(-90)scale(0.12 -0.12)">
      <defs>
       <path id="DejaVuSans-43" d="M 4122 4306 
L 4122 3641 
Q 3803 3938 3442 4084 
Q 3081 4231 2675 4231 
Q 1875 4231 1450 3742 
Q 1025 3253 1025 2328 
Q 1025 1406 1450 917 
Q 1875 428 2675 428 
Q 3081 428 3442 575 
Q 3803 722 4122 1019 
L 4122 359 
Q 3791 134 3420 21 
Q 3050 -91 2638 -91 
Q 1578 -91 968 557 
Q 359 1206 359 2328 
Q 359 3453 968 4101 
Q 1578 4750 2638 4750 
Q 3056 4750 3426 4639 
Q 3797 4528 4122 4306 
z
" transform="scale(0.015625)"/>
       <path id="DejaVuSans-6c" d="M 603 4863 
L 1178 4863 
L 1178 0 
L 603 0 
L 603 4863 
z
" transform="scale(0.015625)"/>
       <path id="DejaVuSans-75" d="M 544 1381 
L 544 3500 
L 1119 3500 
L 1119 1403 
Q 1119 906 1312 657 
Q 1506 409 1894 409 
Q 2359 409 2629 706 
Q 2900 1003 2900 1516 
L 2900 3500 
L 3475 3500 
L 3475 0 
L 2900 0 
L 2900 538 
Q 2691 219 2414 64 
Q 2138 -91 1772 -91 
Q 1169 -91 856 284 
Q 544 659 544 1381 
z
M 1991 3584 
L 1991 3584 
z
" transform="scale(0.015625)"/>
       <path id="DejaVuSans-73" d="M 2834 3397 
L 2834 2853 
Q 2591 2978 2328 3040 
Q 2066 3103 1784 3103 
Q 1356 3103 1142 2972 
Q 928 2841 928 2578 
Q 928 2378 1081 2264 
Q 1234 2150 1697 2047 
L 1894 2003 
Q 2506 1872 2764 1633 
Q 3022 1394 3022 966 
Q 3022 478 2636 193 
Q 2250 -91 1575 -91 
Q 1294 -91 989 -36 
Q 684 19 347 128 
L 347 722 
Q 666 556 975 473 
Q 1284 391 1588 391 
Q 1994 391 2212 530 
Q 2431 669 2431 922 
Q 2431 1156 2273 1281 
Q 2116 1406 1581 1522 
L 1381 1569 
Q 847 1681 609 1914 
Q 372 2147 372 2553 
Q 372 3047 722 3315 
Q 1072 3584 1716 3584 
Q 2034 3584 2315 3537 
Q 2597 3491 2834 3397 
z
" transform="scale(0.015625)"/>
       <path id="DejaVuSans-72" d="M 2631 2963 
Q 2534 3019 2420 3045 
Q 2306 3072 2169 3072 
Q 1681 3072 1420 2755 
Q 1159 2438 1159 1844 
L 1159 0 
L 581 0 
L 581 3500 
L 1159 3500 
L 1159 2956 
Q 1341 3275 1631 3429 
Q 1922 3584 2338 3584 
Q 2397 3584 2469 3576 
Q 2541 3569 2628 3553 
L 2631 2963 
z
" transform="scale(0.015625)"/>
      </defs>
      <use xlink:href="#DejaVuSans-43"/>
      <use xlink:href="#DejaVuSans-6c" x="69.824219"/>
      <use xlink:href="#DejaVuSans-75" x="97.607422"/>
      <use xlink:href="#DejaVuSans-73" x="160.986328"/>
      <use xlink:href="#DejaVuSans-74" x="213.085938"/>
      <use xlink:href="#DejaVuSans-65" x="252.294922"/>
      <use xlink:href="#DejaVuSans-72" x="313.818359"/>
      <use xlink:href="#DejaVuSans-73" x="354.931641"/>
     </g>
    </g>
   </g>
   <g id="line2d_16">
    <path d="M 54.530682 98.09267 
L 54.548956 98.09267 
L 54.585504 65.147216 
L 54.603777 131.038125 
L 54.98753 98.09267 
L 55.005804 65.147216 
L 55.042351 98.09267 
L 55.371282 98.09267 
L 55.40783 32.201761 
L 55.480925 65.147216 
L 56.66873 65.147216 
L 56.778373 98.09267 
L 57.143852 98.09267 
L 57.180399 65.147216 
L 57.198673 131.038125 
L 57.216947 98.09267 
L 57.984452 98.09267 
L 58.075821 131.038125 
L 58.094095 98.09267 
L 58.423026 65.147216 
L 58.477847 131.038125 
L 58.532669 98.09267 
L 59.793569 98.09267 
L 59.811843 65.147216 
L 59.848391 98.09267 
L 60.177321 131.038125 
L 60.213869 65.147216 
L 60.286965 98.09267 
L 60.615895 65.147216 
L 60.688991 131.038125 
L 60.725539 98.09267 
L 61.054469 65.147216 
L 61.164113 131.038125 
L 61.493043 163.98358 
L 61.584413 98.09267 
L 61.602687 131.038125 
L 62.808765 131.038125 
L 62.881861 65.147216 
L 62.918409 98.09267 
L 63.265613 131.038125 
L 63.338709 163.98358 
L 63.356983 131.038125 
L 63.777283 131.038125 
L 63.795557 98.09267 
L 64.161035 163.98358 
L 64.215857 131.038125 
L 64.23413 163.98358 
L 64.581335 163.98358 
L 64.654431 131.038125 
L 64.672704 163.98358 
L 65.878783 163.98358 
L 65.970152 98.09267 
L 65.988426 131.038125 
L 66.317357 131.038125 
L 66.427 163.98358 
L 66.810752 163.98358 
L 66.865574 131.038125 
L 67.194505 98.09267 
L 67.304148 163.98358 
L 67.633079 163.98358 
L 67.742722 131.038125 
L 68.9488 131.038125 
L 69.058444 163.98358 
L 69.405648 163.98358 
L 69.46047 196.929034 
L 69.497018 163.98358 
L 69.825948 196.929034 
L 69.935592 163.98358 
L 70.374166 163.98358 
L 72.018818 196.929034 
L 72.128462 163.98358 
L 72.457392 196.929034 
L 72.567036 163.98358 
L 72.895966 196.929034 
L 72.950788 163.98358 
L 73.005609 196.929034 
L 73.33454 163.98358 
L 73.352814 196.929034 
L 73.42591 163.98358 
L 73.444183 131.038125 
L 73.773114 163.98358 
L 73.84621 196.929034 
L 73.882757 163.98358 
L 75.10711 196.929034 
L 75.180205 163.98358 
L 75.198479 196.929034 
L 75.52741 163.98358 
L 75.618779 196.929034 
L 75.637053 131.038125 
L 75.965984 163.98358 
L 75.984258 196.929034 
L 76.057353 163.98358 
L 76.075627 131.038125 
L 76.404558 196.929034 
L 76.477653 131.038125 
L 76.514201 163.98358 
L 76.843132 131.038125 
L 76.934501 196.929034 
L 76.952775 163.98358 
L 78.213675 163.98358 
L 78.268497 196.929034 
L 78.597427 163.98358 
L 78.615701 196.929034 
L 78.633975 131.038125 
L 78.707071 163.98358 
L 79.090823 163.98358 
L 79.109097 196.929034 
L 79.145645 163.98358 
L 79.529397 163.98358 
L 79.547671 131.038125 
L 79.584219 163.98358 
L 79.949697 163.98358 
L 80.004519 196.929034 
L 80.022793 163.98358 
L 81.228871 196.929034 
L 81.265419 98.09267 
L 81.338515 163.98358 
L 81.667445 131.038125 
L 81.758815 196.929034 
L 81.777088 131.038125 
L 82.124293 163.98358 
L 82.179115 131.038125 
L 82.215662 163.98358 
L 82.599415 163.98358 
L 82.635962 196.929034 
L 82.654236 163.98358 
L 83.001441 196.929034 
L 83.09281 163.98358 
L 84.408532 163.98358 
L 84.737463 131.038125 
L 84.828832 196.929034 
L 84.847106 163.98358 
L 85.212584 163.98358 
L 85.267406 196.929034 
L 85.28568 163.98358 
L 86.162828 163.98358 
L 87.368906 196.929034 
L 87.47855 131.038125 
L 87.80748 163.98358 
L 87.917124 196.929034 
L 88.282602 196.929034 
L 88.355698 163.98358 
L 88.684628 163.98358 
L 88.775998 196.929034 
L 88.794272 163.98358 
L 89.123202 163.98358 
L 89.214572 196.929034 
L 89.232846 163.98358 
L 90.914046 163.98358 
L 90.93232 196.929034 
L 90.987141 163.98358 
L 91.334346 163.98358 
L 91.370894 196.929034 
L 91.425715 163.98358 
L 93.545489 163.98358 
L 93.563763 131.038125 
L 93.618585 163.98358 
L 94.038885 163.98358 
L 94.057159 131.038125 
L 94.38609 131.038125 
L 94.495733 196.929034 
L 94.824664 196.929034 
L 94.934307 163.98358 
L 95.263237 196.929034 
L 95.299785 131.038125 
L 95.372881 196.929034 
L 96.578959 163.98358 
L 96.615507 131.038125 
L 96.670329 196.929034 
L 96.688603 131.038125 
L 97.017533 131.038125 
L 97.127177 163.98358 
L 97.474381 163.98358 
L 97.510929 131.038125 
L 97.565751 196.929034 
L 97.894681 163.98358 
L 97.986051 196.929034 
L 98.004325 163.98358 
L 99.685525 163.98358 
L 99.722073 196.929034 
L 99.75862 163.98358 
L 100.142373 163.98358 
L 100.160647 131.038125 
L 100.197194 196.929034 
L 100.526125 196.929034 
L 100.635768 163.98358 
L 100.964699 196.929034 
L 101.019521 131.038125 
L 101.074342 163.98358 
L 101.403273 163.98358 
L 101.476368 196.929034 
L 101.512916 163.98358 
L 102.755542 163.98358 
L 102.810364 196.929034 
L 102.828638 163.98358 
L 103.157569 196.929034 
L 103.267212 163.98358 
L 103.596143 163.98358 
L 103.614416 131.038125 
L 103.669238 196.929034 
L 103.687512 196.929034 
L 103.705786 196.929034 
L 104.034716 163.98358 
L 104.05299 196.929034 
L 104.14436 163.98358 
L 105.82556 163.98358 
L 105.843834 131.038125 
L 105.898656 163.98358 
L 106.227586 196.929034 
L 106.318956 131.038125 
L 106.33723 163.98358 
L 106.739256 163.98358 
L 106.75753 196.929034 
L 106.775804 131.038125 
L 107.141282 163.98358 
L 107.159556 131.038125 
L 107.214378 163.98358 
L 108.950399 163.98358 
L 108.968673 131.038125 
L 109.3707 163.98358 
L 109.388973 196.929034 
L 109.407247 163.98358 
L 109.736178 131.038125 
L 109.845821 163.98358 
L 110.193026 163.98358 
L 110.2113 196.929034 
L 110.284395 163.98358 
L 110.613326 196.929034 
L 110.649874 131.038125 
L 110.722969 196.929034 
L 111.929048 131.038125 
L 112.038691 163.98358 
L 112.440717 163.98358 
L 112.458991 131.038125 
L 112.477265 163.98358 
L 112.806195 196.929034 
L 112.824469 131.038125 
L 112.915839 196.929034 
L 113.336139 163.98358 
L 113.354413 131.038125 
L 113.719891 163.98358 
L 113.738165 131.038125 
L 113.774713 196.929034 
L 113.792987 163.98358 
L 114.999065 131.038125 
L 115.108709 163.98358 
L 115.474187 131.038125 
L 115.529009 163.98358 
L 115.547283 131.038125 
L 115.876213 163.98358 
L 115.967583 131.038125 
L 115.985857 163.98358 
L 116.314787 131.038125 
L 116.424431 163.98358 
L 116.753361 131.038125 
L 116.789909 196.929034 
L 116.863005 163.98358 
L 118.069083 163.98358 
L 118.087357 131.038125 
L 118.178726 163.98358 
L 118.507657 163.98358 
L 118.6173 131.038125 
L 118.946231 131.038125 
L 119.001053 163.98358 
L 119.055874 131.038125 
L 119.403079 163.98358 
L 119.421353 98.09267 
L 119.494448 131.038125 
L 119.823379 131.038125 
L 119.914748 163.98358 
L 119.933022 131.038125 
L 121.139101 163.98358 
L 121.157374 98.09267 
L 121.248744 131.038125 
L 121.577674 131.038125 
L 121.65077 98.09267 
L 121.687318 163.98358 
L 122.016248 131.038125 
L 122.052796 163.98358 
L 122.125892 98.09267 
L 122.49137 131.038125 
L 122.509644 163.98358 
L 122.546192 65.147216 
L 122.564466 98.09267 
L 122.948218 131.038125 
L 122.966492 163.98358 
L 122.984766 98.09267 
L 123.00304 98.09267 
L 124.227392 98.09267 
L 124.300488 163.98358 
L 124.318762 131.038125 
L 124.647692 163.98358 
L 124.665966 131.038125 
L 124.757336 163.98358 
L 125.086266 131.038125 
L 125.19591 163.98358 
L 125.52484 131.038125 
L 125.634484 163.98358 
L 125.963414 163.98358 
L 125.981688 131.038125 
L 126.073057 163.98358 
L 127.735984 163.98358 
L 127.790805 131.038125 
L 127.827353 163.98358 
L 128.156284 131.038125 
L 128.247653 163.98358 
L 128.265927 131.038125 
L 128.594858 131.038125 
L 128.667953 163.98358 
L 128.704501 131.038125 
L 129.033432 131.038125 
L 129.088253 98.09267 
L 129.106527 163.98358 
L 129.143075 131.038125 
L 130.385701 131.038125 
L 130.403975 163.98358 
L 130.458797 131.038125 
L 130.879097 131.038125 
L 130.897371 98.09267 
L 131.226301 131.038125 
L 131.262849 98.09267 
L 131.281123 163.98358 
L 131.335945 131.038125 
L 131.756245 131.038125 
L 131.774519 98.09267 
L 132.103449 98.09267 
L 132.194819 131.038125 
L 132.213093 98.09267 
L 133.419171 98.09267 
L 133.528815 131.038125 
L 133.894293 131.038125 
L 133.949115 65.147216 
L 133.967389 98.09267 
L 134.296319 163.98358 
L 134.332867 98.09267 
L 134.405963 131.038125 
L 134.734893 131.038125 
L 134.771441 98.09267 
L 134.844536 163.98358 
L 135.191741 163.98358 
L 135.246563 131.038125 
L 135.28311 163.98358 
L 136.927763 196.929034 
L 137.037406 163.98358 
L 137.366337 196.929034 
L 137.457706 163.98358 
L 137.47598 196.929034 
L 137.804911 163.98358 
L 137.823185 196.929034 
L 137.914554 163.98358 
L 138.243485 196.929034 
L 138.31658 163.98358 
L 138.353128 196.929034 
L 139.559206 196.929034 
L 139.66885 163.98358 
L 139.99778 163.98358 
L 140.016054 196.929034 
L 140.107424 163.98358 
L 140.50945 163.98358 
L 140.527724 131.038125 
L 140.545998 163.98358 
L 140.874928 163.98358 
L 140.893202 196.929034 
L 140.984572 163.98358 
L 141.386598 163.98358 
L 141.404872 196.929034 
L 141.423146 163.98358 
L 142.665772 163.98358 
L 142.684046 131.038125 
L 142.738868 163.98358 
L 143.067798 131.038125 
L 143.177442 163.98358 
L 143.506372 131.038125 
L 143.616015 163.98358 
L 143.944946 163.98358 
L 143.981494 131.038125 
L 144.054589 163.98358 
L 144.401794 163.98358 
L 144.474889 131.038125 
L 144.493163 163.98358 
L 145.717516 163.98358 
L 145.808885 131.038125 
L 146.57639 131.038125 
L 146.686033 163.98358 
L 147.124607 131.038125 
L 148.787533 131.038125 
L 148.805807 163.98358 
L 148.878903 131.038125 
L 149.737777 131.038125 
L 149.756051 163.98358 
L 150.103255 131.038125 
L 150.121529 163.98358 
L 150.194625 131.038125 
L 150.614925 131.038125 
L 150.633199 163.98358 
L 151.930647 131.038125 
L 151.948921 163.98358 
L 152.277851 131.038125 
L 152.387494 163.98358 
L 152.716425 163.98358 
L 152.826068 131.038125 
L 153.173273 131.038125 
L 153.264642 163.98358 
L 153.593573 163.98358 
L 153.684942 131.038125 
L 153.703216 163.98358 
L 154.909295 163.98358 
L 154.98239 131.038125 
L 155.018938 163.98358 
L 155.347869 163.98358 
L 155.366143 131.038125 
L 155.457512 163.98358 
L 155.804717 163.98358 
L 155.859538 131.038125 
L 155.896086 163.98358 
L 156.700138 163.98358 
L 156.773234 131.038125 
L 157.979312 131.038125 
L 158.034134 163.98358 
L 158.088956 131.038125 
L 158.43616 163.98358 
L 158.472708 98.09267 
L 158.52753 163.98358 
L 158.893008 163.98358 
L 158.94783 131.038125 
L 158.966104 163.98358 
L 159.295034 163.98358 
L 159.386404 131.038125 
L 159.404678 163.98358 
L 159.751882 163.98358 
L 159.806704 131.038125 
L 159.843252 163.98358 
L 161.067604 163.98358 
L 161.122426 131.038125 
L 161.177247 163.98358 
L 161.506178 163.98358 
L 161.524452 131.038125 
L 161.597547 196.929034 
L 161.615821 163.98358 
L 161.963026 131.038125 
L 162.054395 163.98358 
L 162.419874 163.98358 
L 162.474695 131.038125 
L 162.492969 196.929034 
L 162.8219 196.929034 
L 162.931543 131.038125 
L 164.137622 163.98358 
L 164.192443 131.038125 
L 164.228991 163.98358 
L 164.247265 196.929034 
L 164.594469 163.98358 
L 164.631017 131.038125 
L 164.685839 196.929034 
L 165.014769 131.038125 
L 165.124413 163.98358 
L 165.508165 163.98358 
L 165.562987 196.929034 
L 165.891917 163.98358 
L 165.946739 196.929034 
L 166.001561 163.98358 
L 167.225913 163.98358 
L 167.317283 131.038125 
L 167.664487 163.98358 
L 167.755857 131.038125 
L 168.084787 98.09267 
L 168.139609 163.98358 
L 168.194431 131.038125 
L 168.523361 131.038125 
L 168.633005 163.98358 
L 168.961935 131.038125 
L 169.053305 196.929034 
L 169.071579 131.038125 
L 170.277657 131.038125 
L 170.350753 196.929034 
L 170.3873 163.98358 
L 170.771053 163.98358 
L 170.8076 131.038125 
L 170.825874 196.929034 
L 171.154805 163.98358 
L 171.264448 196.929034 
L 172.031953 196.929034 
L 172.050227 163.98358 
L 172.095911 196.929034 
L 173.347675 163.98358 
L 173.457318 196.929034 
L 173.822796 196.929034 
L 173.84107 131.038125 
L 173.895892 196.929034 
L 174.224822 196.929034 
L 174.26137 163.98358 
L 174.334466 196.929034 
L 174.663396 196.929034 
L 174.77304 131.038125 
L 175.10197 163.98358 
L 175.120244 196.929034 
L 175.211614 163.98358 
L 176.417692 196.929034 
L 176.527336 163.98358 
L 176.856266 196.929034 
L 176.96591 163.98358 
L 177.29484 98.09267 
L 177.404484 196.929034 
L 177.843058 163.98358 
L 179.542532 163.98358 
L 179.560806 131.038125 
L 179.597353 163.98358 
L 179.999379 163.98358 
L 180.017653 131.038125 
L 180.035927 163.98358 
L 180.419679 163.98358 
L 180.474501 131.038125 
L 180.858253 131.038125 
L 180.894801 163.98358 
L 180.913075 131.038125 
L 181.242006 131.038125 
L 181.315101 163.98358 
L 181.351649 131.038125 
L 182.557728 131.038125 
L 182.576001 98.09267 
L 182.594275 163.98358 
L 182.667371 131.038125 
L 182.996301 163.98358 
L 183.087671 98.09267 
L 183.105945 131.038125 
L 183.434875 163.98358 
L 183.544519 131.038125 
L 183.937408 131.038125 
L 185.700841 163.98358 
L 185.719115 131.038125 
L 185.737389 163.98358 
L 186.066319 131.038125 
L 186.157689 163.98358 
L 186.175963 131.038125 
L 187.016563 131.038125 
L 187.034837 163.98358 
L 187.05311 131.038125 
L 188.789132 131.038125 
L 188.807406 163.98358 
L 189.209432 131.038125 
L 189.24598 163.98358 
L 189.574911 131.038125 
L 189.66628 163.98358 
L 189.684554 131.038125 
L 190.031759 131.038125 
L 190.068306 196.929034 
L 190.123128 163.98358 
L 190.452059 131.038125 
L 190.543428 163.98358 
L 190.561702 131.038125 
L 191.76778 163.98358 
L 191.786054 131.038125 
L 191.877424 163.98358 
L 192.27945 163.98358 
L 192.297724 131.038125 
L 192.315998 163.98358 
L 192.663202 131.038125 
L 192.736298 196.929034 
L 192.754572 163.98358 
L 193.12005 163.98358 
L 193.193146 98.09267 
L 193.558624 131.038125 
L 193.576898 196.929034 
L 193.63172 163.98358 
L 195.276372 163.98358 
L 195.349468 131.038125 
L 195.386016 163.98358 
L 195.714946 131.038125 
L 195.73322 98.09267 
L 195.751494 163.98358 
L 195.82459 131.038125 
L 196.15352 163.98358 
L 196.171794 98.09267 
L 196.263163 163.98358 
L 196.592094 163.98358 
L 196.610368 131.038125 
L 196.683463 196.929034 
L 196.701737 163.98358 
L 197.92609 163.98358 
L 197.944364 196.929034 
L 197.999185 131.038125 
L 198.017459 163.98358 
L 198.34639 163.98358 
L 198.401211 131.038125 
L 198.456033 163.98358 
L 198.876333 163.98358 
L 198.894607 196.929034 
L 199.223538 163.98358 
L 199.241812 196.929034 
L 199.260085 131.038125 
L 199.333181 163.98358 
L 199.680385 163.98358 
L 199.698659 196.929034 
L 199.771755 131.038125 
L 200.996107 131.038125 
L 201.014381 98.09267 
L 201.069203 163.98358 
L 201.087477 131.038125 
L 201.416407 131.038125 
L 201.489503 163.98358 
L 201.526051 98.09267 
L 202.293555 163.98358 
L 202.403199 131.038125 
L 202.750403 163.98358 
L 202.841773 131.038125 
L 204.084399 131.038125 
L 204.120947 163.98358 
L 204.157495 131.038125 
L 204.504699 131.038125 
L 204.559521 98.09267 
L 204.596069 131.038125 
L 204.924999 163.98358 
L 204.943273 131.038125 
L 205.034642 163.98358 
L 205.363573 163.98358 
L 205.400121 98.09267 
L 205.473216 131.038125 
L 205.838695 163.98358 
L 205.893516 98.09267 
L 205.91179 131.038125 
L 207.556443 131.038125 
L 207.647812 163.98358 
L 207.666086 131.038125 
L 207.995017 131.038125 
L 208.086386 163.98358 
L 208.10466 98.09267 
L 208.451864 163.98358 
L 208.543234 131.038125 
L 208.890438 163.98358 
L 208.981808 98.09267 
L 210.187886 131.038125 
L 210.279256 163.98358 
L 210.260982 98.09267 
L 210.29753 131.038125 
L 210.644734 163.98358 
L 210.736104 131.038125 
L 211.119856 163.98358 
L 211.156404 131.038125 
L 211.174678 163.98358 
L 211.503608 163.98358 
L 211.576704 131.038125 
L 211.613252 163.98358 
L 213.257904 163.98358 
L 213.367548 131.038125 
L 213.696478 131.038125 
L 213.806121 196.929034 
L 214.135052 196.929034 
L 214.189874 163.98358 
L 214.244695 196.929034 
L 214.664995 163.98358 
L 214.683269 196.929034 
L 215.048748 163.98358 
L 215.121843 196.929034 
L 216.327922 196.929034 
L 216.437565 163.98358 
L 217.241617 163.98358 
L 217.259891 196.929034 
L 217.314713 163.98358 
L 217.661917 163.98358 
L 217.680191 196.929034 
L 217.753287 163.98358 
L 218.100491 163.98358 
L 218.173587 196.929034 
L 218.191861 163.98358 
L 219.379665 196.929034 
L 219.452761 163.98358 
L 219.489309 196.929034 
L 219.873061 163.98358 
L 219.891335 196.929034 
L 219.927883 163.98358 
L 220.695387 163.98358 
L 220.713661 196.929034 
L 220.805031 163.98358 
L 221.133961 163.98358 
L 221.207057 196.929034 
L 221.243605 163.98358 
L 222.449683 196.929034 
L 222.559327 163.98358 
L 222.906531 163.98358 
L 222.979627 196.929034 
L 222.997901 163.98358 
L 223.381653 163.98358 
L 223.436474 196.929034 
L 223.765405 163.98358 
L 223.875048 196.929034 
L 224.258801 163.98358 
L 224.295348 196.929034 
L 224.313622 163.98358 
L 225.537975 196.929034 
L 225.629344 163.98358 
L 225.958275 196.929034 
L 226.067918 163.98358 
L 226.506492 163.98358 
L 226.835423 196.929034 
L 226.945066 163.98358 
L 229.119662 163.98358 
L 229.137936 196.929034 
L 229.466866 131.038125 
L 229.57651 163.98358 
L 229.90544 163.98358 
L 229.923714 131.038125 
L 229.99681 196.929034 
L 230.015084 163.98358 
L 230.435384 163.98358 
L 230.453658 196.929034 
L 231.659736 196.929034 
L 231.76938 163.98358 
L 232.116584 163.98358 
L 232.207953 196.929034 
L 232.555158 196.929034 
L 232.646527 163.98358 
L 233.048554 163.98358 
L 233.066827 196.929034 
L 233.085101 163.98358 
L 237.799771 163.98358 
L 237.854593 131.038125 
L 237.909415 163.98358 
L 238.274893 163.98358 
L 238.347989 131.038125 
L 238.676919 163.98358 
L 238.768289 131.038125 
L 238.786563 163.98358 
L 239.225137 163.98358 
L 239.608889 131.038125 
L 239.663711 163.98358 
L 240.869789 131.038125 
L 240.979432 163.98358 
L 241.363185 163.98358 
L 241.399733 131.038125 
L 241.418006 163.98358 
L 241.746937 131.038125 
L 241.85658 163.98358 
L 242.258606 163.98358 
L 242.27688 196.929034 
L 242.295154 163.98358 
L 245.31035 163.98358 
L 245.328624 131.038125 
L 245.365172 163.98358 
L 247.009824 163.98358 
L 247.028098 131.038125 
L 247.119468 163.98358 
L 247.448398 163.98358 
L 247.558042 196.929034 
L 247.886972 163.98358 
L 247.996616 196.929034 
L 248.325546 131.038125 
L 248.43519 163.98358 
L 248.782394 163.98358 
L 248.873764 196.929034 
L 250.11639 163.98358 
L 250.134664 131.038125 
L 250.152938 196.929034 
L 250.189485 163.98358 
L 250.518416 163.98358 
L 250.573238 131.038125 
L 250.628059 196.929034 
L 250.975264 163.98358 
L 251.048359 196.929034 
L 251.066633 163.98358 
L 251.395564 196.929034 
L 251.450386 131.038125 
L 251.505207 163.98358 
L 251.834138 163.98358 
L 251.943781 196.929034 
L 253.588434 163.98358 
L 253.698077 196.929034 
L 254.027008 163.98358 
L 254.118377 196.929034 
L 254.136651 163.98358 
L 254.483855 196.929034 
L 254.575225 163.98358 
L 254.958977 163.98358 
L 254.995525 196.929034 
L 255.013799 163.98358 
L 256.219877 196.929034 
L 256.292973 131.038125 
L 256.329521 163.98358 
L 256.676725 163.98358 
L 256.768095 196.929034 
L 257.097025 196.929034 
L 257.206669 163.98358 
L 257.626969 163.98358 
L 257.645243 131.038125 
L 258.047269 163.98358 
L 258.065543 131.038125 
L 258.083817 163.98358 
L 259.289895 196.929034 
L 259.381264 131.038125 
L 259.399538 163.98358 
L 259.819838 163.98358 
L 259.838112 196.929034 
L 260.167043 163.98358 
L 260.185317 196.929034 
L 260.276686 163.98358 
L 260.623891 163.98358 
L 260.642165 196.929034 
L 260.71526 163.98358 
L 261.044191 196.929034 
L 261.13556 163.98358 
L 261.153834 196.929034 
L 262.359913 163.98358 
L 262.378186 196.929034 
L 262.469556 163.98358 
L 263.255334 163.98358 
L 263.346704 196.929034 
L 263.675634 196.929034 
L 263.785278 163.98358 
L 264.150756 163.98358 
L 264.16903 131.038125 
L 264.205578 196.929034 
L 264.223852 163.98358 
L 265.448204 196.929034 
L 265.539574 163.98358 
L 266.307078 163.98358 
L 266.380174 131.038125 
L 266.416722 163.98358 
L 266.763926 131.038125 
L 266.837022 163.98358 
L 266.855296 131.038125 
L 267.184226 163.98358 
L 267.257322 131.038125 
L 267.29387 163.98358 
L 268.956796 163.98358 
L 269.048165 131.038125 
L 269.377096 163.98358 
L 269.486739 131.038125 
L 269.81567 131.038125 
L 269.925313 196.929034 
L 270.272518 163.98358 
L 270.345613 131.038125 
L 270.309065 196.929034 
L 270.363887 163.98358 
L 271.643061 131.038125 
L 271.679609 196.929034 
L 272.026813 131.038125 
L 272.099909 163.98358 
L 272.118183 131.038125 
L 272.447113 163.98358 
L 272.520209 131.038125 
L 272.556757 163.98358 
L 272.903961 163.98358 
L 272.940509 196.929034 
L 272.995331 131.038125 
L 273.433905 163.98358 
L 274.639983 163.98358 
L 274.676531 131.038125 
L 274.749627 196.929034 
L 275.078557 131.038125 
L 275.115105 196.929034 
L 275.188201 163.98358 
L 275.517131 163.98358 
L 275.571953 196.929034 
L 275.626775 131.038125 
L 275.992253 163.98358 
L 276.010527 131.038125 
L 276.028801 196.929034 
L 276.065349 196.929034 
L 276.412553 131.038125 
L 276.449101 196.929034 
L 276.503922 163.98358 
L 277.710001 131.038125 
L 277.819644 163.98358 
L 278.185123 163.98358 
L 278.203397 131.038125 
L 278.258218 163.98358 
L 279.043997 163.98358 
L 279.117092 131.038125 
L 279.135366 163.98358 
L 279.500844 163.98358 
L 279.537392 131.038125 
L 279.57394 163.98358 
L 280.780018 163.98358 
L 280.871388 131.038125 
L 280.889662 163.98358 
L 281.273414 163.98358 
L 281.291688 131.038125 
L 281.328236 163.98358 
L 281.657166 163.98358 
L 281.748536 131.038125 
L 281.76681 163.98358 
L 282.09574 163.98358 
L 282.150562 131.038125 
L 282.205384 163.98358 
L 282.534314 131.038125 
L 282.643958 163.98358 
L 283.850036 131.038125 
L 283.923132 163.98358 
L 283.95968 131.038125 
L 284.28861 163.98358 
L 284.325158 131.038125 
L 284.398254 163.98358 
L 284.763732 163.98358 
L 284.80028 131.038125 
L 284.836828 163.98358 
L 285.165758 131.038125 
L 285.275401 163.98358 
L 285.604332 98.09267 
L 285.713975 163.98358 
L 286.920054 131.038125 
L 286.993149 196.929034 
L 287.029697 163.98358 
L 287.358628 196.929034 
L 287.376902 131.038125 
L 287.468271 163.98358 
L 287.852023 163.98358 
L 287.906845 196.929034 
L 288.235776 196.929034 
L 288.327145 131.038125 
L 288.345419 163.98358 
L 288.710897 163.98358 
L 288.783993 196.929034 
L 290.081441 163.98358 
L 290.099715 196.929034 
L 290.428645 163.98358 
L 290.538289 196.929034 
L 290.867219 163.98358 
L 290.940315 196.929034 
L 290.976863 163.98358 
L 291.342341 163.98358 
L 291.415437 196.929034 
L 291.762641 163.98358 
L 291.835737 131.038125 
L 291.854011 196.929034 
L 293.060089 163.98358 
L 293.169733 196.929034 
L 293.571759 196.929034 
L 293.590033 163.98358 
L 293.608307 196.929034 
L 293.955511 163.98358 
L 293.992059 196.929034 
L 294.04688 131.038125 
L 294.375811 196.929034 
L 294.467181 163.98358 
L 294.485454 196.929034 
L 294.814385 163.98358 
L 294.905754 131.038125 
L 294.924028 196.929034 
L 296.568681 163.98358 
L 296.678324 196.929034 
L 297.007255 163.98358 
L 297.098624 131.038125 
L 297.116898 163.98358 
L 297.445829 163.98358 
L 297.464103 196.929034 
L 297.555472 163.98358 
L 297.884403 131.038125 
L 297.939224 196.929034 
L 297.994046 163.98358 
L 299.200124 131.038125 
L 299.309768 163.98358 
L 299.675246 163.98358 
L 299.69352 131.038125 
L 299.748342 163.98358 
L 300.132094 163.98358 
L 300.150368 131.038125 
L 300.186916 163.98358 
L 300.515846 131.038125 
L 300.62549 163.98358 
L 302.324964 163.98358 
L 302.379786 131.038125 
L 302.745264 163.98358 
L 302.781812 131.038125 
L 302.818359 163.98358 
L 303.14729 131.038125 
L 303.23866 196.929034 
L 303.256933 163.98358 
L 303.695507 163.98358 
L 304.024438 131.038125 
L 304.134081 163.98358 
L 306.272129 163.98358 
L 306.308677 131.038125 
L 306.326951 163.98358 
L 306.692429 163.98358 
L 306.710703 131.038125 
L 306.765525 163.98358 
L 307.131003 163.98358 
L 307.149277 196.929034 
L 307.204099 163.98358 
L 308.410177 131.038125 
L 308.519821 196.929034 
L 308.867025 163.98358 
L 308.921847 131.038125 
L 308.958395 163.98358 
L 309.360421 163.98358 
L 309.396969 131.038125 
L 309.817269 163.98358 
L 309.835543 131.038125 
L 310.182747 163.98358 
L 310.274117 131.038125 
L 311.480195 131.038125 
L 311.589838 163.98358 
L 311.937043 163.98358 
L 311.955317 131.038125 
L 311.973591 196.929034 
L 312.028412 163.98358 
L 312.375617 163.98358 
L 312.393891 131.038125 
L 312.466986 163.98358 
L 312.795917 131.038125 
L 312.90556 163.98358 
L 313.271039 163.98358 
L 313.289313 131.038125 
L 313.344134 163.98358 
L 314.58676 163.98358 
L 314.659856 196.929034 
L 314.988787 163.98358 
L 315.080156 196.929034 
L 315.09843 163.98358 
L 315.427361 163.98358 
L 315.445634 131.038125 
L 315.500456 196.929034 
L 315.537004 163.98358 
L 315.884208 163.98358 
L 315.957304 196.929034 
L 315.975578 163.98358 
L 316.304508 196.929034 
L 316.414152 131.038125 
L 317.62023 131.038125 
L 317.729874 163.98358 
L 318.058804 196.929034 
L 318.168448 131.038125 
L 318.5522 163.98358 
L 318.607022 131.038125 
L 318.935952 163.98358 
L 319.027322 131.038125 
L 319.045596 163.98358 
L 319.447622 163.98358 
L 319.465896 131.038125 
L 319.48417 163.98358 
L 320.726796 163.98358 
L 320.74507 131.038125 
L 320.799891 163.98358 
L 321.128822 98.09267 
L 321.183644 163.98358 
L 321.238465 131.038125 
L 321.567396 163.98358 
L 321.658765 131.038125 
L 321.677039 163.98358 
L 322.024244 163.98358 
L 322.042518 196.929034 
L 322.060792 98.09267 
L 322.115613 131.038125 
L 322.444544 98.09267 
L 322.554187 163.98358 
L 323.888183 131.038125 
L 324.217113 98.09267 
L 324.326757 131.038125 
L 324.655687 98.09267 
L 324.747057 163.98358 
L 324.765331 131.038125 
L 325.149083 131.038125 
L 325.185631 163.98358 
L 325.203905 131.038125 
L 325.532835 131.038125 
L 325.551109 163.98358 
L 325.624205 131.038125 
L 325.642479 98.09267 
L 326.866831 131.038125 
L 326.939927 98.09267 
L 326.958201 163.98358 
L 327.287131 131.038125 
L 327.378501 163.98358 
L 327.360227 98.09267 
L 327.396775 131.038125 
L 327.743979 131.038125 
L 327.817075 98.09267 
L 327.780527 163.98358 
L 327.835349 131.038125 
L 328.200827 131.038125 
L 328.219101 98.09267 
L 328.237375 163.98358 
L 328.273923 163.98358 
L 328.621127 131.038125 
L 328.712496 163.98358 
L 329.936849 131.038125 
L 329.99167 163.98358 
L 330.028218 98.09267 
L 330.357149 163.98358 
L 330.466792 131.038125 
L 330.813997 131.038125 
L 330.905366 163.98358 
L 331.709418 163.98358 
L 331.736829 131.038125 
L 333.079962 163.98358 
L 333.098236 196.929034 
L 333.518536 163.98358 
L 333.53681 196.929034 
L 333.86574 196.929034 
L 333.884014 163.98358 
L 333.975384 196.929034 
L 334.304314 196.929034 
L 334.395684 163.98358 
L 334.413958 196.929034 
L 334.79771 196.929034 
L 334.815984 163.98358 
L 334.852532 196.929034 
L 336.076884 196.929034 
L 336.168254 163.98358 
L 336.515458 163.98358 
L 336.533732 131.038125 
L 336.552006 196.929034 
L 336.606828 196.929034 
L 336.935758 131.038125 
L 336.972306 196.929034 
L 337.045402 131.038125 
L 337.483975 163.98358 
L 339.201723 163.98358 
L 339.238271 196.929034 
L 339.585476 163.98358 
L 339.60375 196.929034 
L 339.676845 163.98358 
L 340.02405 196.929034 
L 340.078871 163.98358 
L 340.115419 196.929034 
L 340.462624 196.929034 
L 340.499171 131.038125 
L 340.553993 196.929034 
L 340.882924 196.929034 
L 340.992567 163.98358 
L 342.198645 196.929034 
L 342.308289 163.98358 
L 342.637219 196.929034 
L 342.692041 131.038125 
L 342.746863 196.929034 
L 343.075793 196.929034 
L 343.185437 163.98358 
L 343.550915 163.98358 
L 343.569189 196.929034 
L 343.624011 163.98358 
L 346.584385 163.98358 
L 346.602659 196.929034 
L 346.639207 131.038125 
L 346.694028 163.98358 
L 348.777255 163.98358 
L 348.795529 131.038125 
L 348.886898 163.98358 
L 349.325472 163.98358 
L 349.654403 131.038125 
L 349.764046 163.98358 
L 350.092977 196.929034 
L 350.20262 163.98358 
L 351.408698 131.038125 
L 351.518342 163.98358 
L 351.902094 163.98358 
L 351.938642 131.038125 
L 351.956916 163.98358 
L 352.285846 131.038125 
L 352.377216 163.98358 
L 352.39549 131.038125 
L 352.72442 131.038125 
L 352.81579 163.98358 
L 352.834064 131.038125 
L 353.272638 163.98358 
L 354.972112 163.98358 
L 355.026933 196.929034 
L 355.465507 163.98358 
L 355.794438 163.98358 
L 355.904081 196.929034 
L 356.233012 163.98358 
L 356.306108 196.929034 
L 356.342655 163.98358 
L 357.658377 196.929034 
L 358.005582 196.929034 
L 358.096951 229.874489 
L 358.894318 229.874489 
L 358.894318 229.874489 
" clip-path="url(#pd3fe3ccc0d)" style="fill: none; stroke: #4c72b0; stroke-width: 1.5; stroke-linecap: round"/>
   </g>
   <g id="patch_3">
    <path d="M 39.3125 239.758125 
L 39.3125 22.318125 
" style="fill: none; stroke: #ffffff; stroke-width: 1.25; stroke-linejoin: miter; stroke-linecap: square"/>
   </g>
   <g id="patch_4">
    <path d="M 374.1125 239.758125 
L 374.1125 22.318125 
" style="fill: none; stroke: #ffffff; stroke-width: 1.25; stroke-linejoin: miter; stroke-linecap: square"/>
   </g>
   <g id="patch_5">
    <path d="M 39.3125 239.758125 
L 374.1125 239.758125 
" style="fill: none; stroke: #ffffff; stroke-width: 1.25; stroke-linejoin: miter; stroke-linecap: square"/>
   </g>
   <g id="patch_6">
    <path d="M 39.3125 22.318125 
L 374.1125 22.318125 
" style="fill: none; stroke: #ffffff; stroke-width: 1.25; stroke-linejoin: miter; stroke-linecap: square"/>
   </g>
   <g id="text_18">
    <!-- Number of clusters per period -->
    <g style="fill: #262626" transform="translate(116.585938 16.318125)scale(0.12 -0.12)">
     <defs>
      <path id="DejaVuSans-4e" d="M 628 4666 
L 1478 4666 
L 3547 763 
L 3547 4666 
L 4159 4666 
L 4159 0 
L 3309 0 
L 1241 3903 
L 1241 0 
L 628 0 
L 628 4666 
z
" transform="scale(0.015625)"/>
      <path id="DejaVuSans-62" d="M 3116 1747 
Q 3116 2381 2855 2742 
Q 2594 3103 2138 3103 
Q 1681 3103 1420 2742 
Q 1159 2381 1159 1747 
Q 1159 1113 1420 752 
Q 1681 391 2138 391 
Q 2594 391 2855 752 
Q 3116 1113 3116 1747 
z
M 1159 2969 
Q 1341 3281 1617 3432 
Q 1894 3584 2278 3584 
Q 2916 3584 3314 3078 
Q 3713 2572 3713 1747 
Q 3713 922 3314 415 
Q 2916 -91 2278 -91 
Q 1894 -91 1617 61 
Q 1341 213 1159 525 
L 1159 0 
L 581 0 
L 581 4863 
L 1159 4863 
L 1159 2969 
z
" transform="scale(0.015625)"/>
      <path id="DejaVuSans-20" transform="scale(0.015625)"/>
      <path id="DejaVuSans-6f" d="M 1959 3097 
Q 1497 3097 1228 2736 
Q 959 2375 959 1747 
Q 959 1119 1226 758 
Q 1494 397 1959 397 
Q 2419 397 2687 759 
Q 2956 1122 2956 1747 
Q 2956 2369 2687 2733 
Q 2419 3097 1959 3097 
z
M 1959 3584 
Q 2709 3584 3137 3096 
Q 3566 2609 3566 1747 
Q 3566 888 3137 398 
Q 2709 -91 1959 -91 
Q 1206 -91 779 398 
Q 353 888 353 1747 
Q 353 2609 779 3096 
Q 1206 3584 1959 3584 
z
" transform="scale(0.015625)"/>
      <path id="DejaVuSans-66" d="M 2375 4863 
L 2375 4384 
L 1825 4384 
Q 1516 4384 1395 4259 
Q 1275 4134 1275 3809 
L 1275 3500 
L 2222 3500 
L 2222 3053 
L 1275 3053 
L 1275 0 
L 697 0 
L 697 3053 
L 147 3053 
L 147 3500 
L 697 3500 
L 697 3744 
Q 697 4328 969 4595 
Q 1241 4863 1831 4863 
L 2375 4863 
z
" transform="scale(0.015625)"/>
      <path id="DejaVuSans-63" d="M 3122 3366 
L 3122 2828 
Q 2878 2963 2633 3030 
Q 2388 3097 2138 3097 
Q 1578 3097 1268 2742 
Q 959 2388 959 1747 
Q 959 1106 1268 751 
Q 1578 397 2138 397 
Q 2388 397 2633 464 
Q 2878 531 3122 666 
L 3122 134 
Q 2881 22 2623 -34 
Q 2366 -91 2075 -91 
Q 1284 -91 818 406 
Q 353 903 353 1747 
Q 353 2603 823 3093 
Q 1294 3584 2113 3584 
Q 2378 3584 2631 3529 
Q 2884 3475 3122 3366 
z
" transform="scale(0.015625)"/>
      <path id="DejaVuSans-70" d="M 1159 525 
L 1159 -1331 
L 581 -1331 
L 581 3500 
L 1159 3500 
L 1159 2969 
Q 1341 3281 1617 3432 
Q 1894 3584 2278 3584 
Q 2916 3584 3314 3078 
Q 3713 2572 3713 1747 
Q 3713 922 3314 415 
Q 2916 -91 2278 -91 
Q 1894 -91 1617 61 
Q 1341 213 1159 525 
z
M 3116 1747 
Q 3116 2381 2855 2742 
Q 2594 3103 2138 3103 
Q 1681 3103 1420 2742 
Q 1159 2381 1159 1747 
Q 1159 1113 1420 752 
Q 1681 391 2138 391 
Q 2594 391 2855 752 
Q 3116 1113 3116 1747 
z
" transform="scale(0.015625)"/>
      <path id="DejaVuSans-64" d="M 2906 2969 
L 2906 4863 
L 3481 4863 
L 3481 0 
L 2906 0 
L 2906 525 
Q 2725 213 2448 61 
Q 2172 -91 1784 -91 
Q 1150 -91 751 415 
Q 353 922 353 1747 
Q 353 2572 751 3078 
Q 1150 3584 1784 3584 
Q 2172 3584 2448 3432 
Q 2725 3281 2906 2969 
z
M 947 1747 
Q 947 1113 1208 752 
Q 1469 391 1925 391 
Q 2381 391 2643 752 
Q 2906 1113 2906 1747 
Q 2906 2381 2643 2742 
Q 2381 3103 1925 3103 
Q 1469 3103 1208 2742 
Q 947 2381 947 1747 
z
" transform="scale(0.015625)"/>
     </defs>
     <use xlink:href="#DejaVuSans-4e"/>
     <use xlink:href="#DejaVuSans-75" x="74.804688"/>
     <use xlink:href="#DejaVuSans-6d" x="138.183594"/>
     <use xlink:href="#DejaVuSans-62" x="235.595703"/>
     <use xlink:href="#DejaVuSans-65" x="299.072266"/>
     <use xlink:href="#DejaVuSans-72" x="360.595703"/>
     <use xlink:href="#DejaVuSans-20" x="401.708984"/>
     <use xlink:href="#DejaVuSans-6f" x="433.496094"/>
     <use xlink:href="#DejaVuSans-66" x="494.677734"/>
     <use xlink:href="#DejaVuSans-20" x="529.882812"/>
     <use xlink:href="#DejaVuSans-63" x="561.669922"/>
     <use xlink:href="#DejaVuSans-6c" x="616.650391"/>
     <use xlink:href="#DejaVuSans-75" x="644.433594"/>
     <use xlink:href="#DejaVuSans-73" x="707.8125"/>
     <use xlink:href="#DejaVuSans-74" x="759.912109"/>
     <use xlink:href="#DejaVuSans-65" x="799.121094"/>
     <use xlink:href="#DejaVuSans-72" x="860.644531"/>
     <use xlink:href="#DejaVuSans-73" x="901.757812"/>
     <use xlink:href="#DejaVuSans-20" x="953.857422"/>
     <use xlink:href="#DejaVuSans-70" x="985.644531"/>
     <use xlink:href="#DejaVuSans-65" x="1049.121094"/>
     <use xlink:href="#DejaVuSans-72" x="1110.644531"/>
     <use xlink:href="#DejaVuSans-20" x="1151.757812"/>
     <use xlink:href="#DejaVuSans-70" x="1183.544922"/>
     <use xlink:href="#DejaVuSans-65" x="1247.021484"/>
     <use xlink:href="#DejaVuSans-72" x="1308.544922"/>
     <use xlink:href="#DejaVuSans-69" x="1349.658203"/>
     <use xlink:href="#DejaVuSans-6f" x="1377.441406"/>
     <use xlink:href="#DejaVuSans-64" x="1438.623047"/>
    </g>
   </g>
  </g>
 </g>
 <defs>
  <clipPath id="pd3fe3ccc0d">
   <rect x="39.3125" y="22.318125" width="334.8" height="217.44"/>
  </clipPath>
 </defs>
</svg>
