<?xml version="1.0" encoding="utf-8" standalone="no"?>
<!DOCTYPE svg PUBLIC "-//W3C//DTD SVG 1.1//EN"
  "http://www.w3.org/Graphics/SVG/1.1/DTD/svg11.dtd">
<svg xmlns:xlink="http://www.w3.org/1999/xlink" width="391.807187pt" height="324.803037pt" viewBox="0 0 391.807187 324.803037" xmlns="http://www.w3.org/2000/svg" version="1.1">
 <metadata>
  <rdf:RDF xmlns:dc="http://purl.org/dc/elements/1.1/" xmlns:cc="http://creativecommons.org/ns#" xmlns:rdf="http://www.w3.org/1999/02/22-rdf-syntax-ns#">
   <cc:Work>
    <dc:type rdf:resource="http://purl.org/dc/dcmitype/StillImage"/>
    <dc:date>2022-01-30T23:41:41.791886</dc:date>
    <dc:format>image/svg+xml</dc:format>
    <dc:creator>
     <cc:Agent>
      <dc:title>Matplotlib v3.5.0, https://matplotlib.org/</dc:title>
     </cc:Agent>
    </dc:creator>
   </cc:Work>
  </rdf:RDF>
 </metadata>
 <defs>
  <style type="text/css">*{stroke-linejoin: round; stroke-linecap: butt}</style>
 </defs>
 <g id="figure_1">
  <g id="patch_1">
   <path d="M 0 324.803037 
L 391.807187 324.803037 
L 391.807187 0 
L 0 0 
z
" style="fill: #ffffff"/>
  </g>
  <g id="axes_1">
   <g id="patch_2">
    <path d="M 49.807187 239.758125 
L 384.607188 239.758125 
L 384.607188 22.318125 
L 49.807187 22.318125 
z
" style="fill: #eaeaf2"/>
   </g>
   <g id="matplotlib.axis_1">
    <g id="xtick_1">
     <g id="line2d_1">
      <path d="M 76.116944 239.758125 
L 76.116944 22.318125 
" clip-path="url(#p3e7ce30cf1)" style="fill: none; stroke: #ffffff; stroke-linecap: round"/>
     </g>
     <g id="text_1">
      <!-- 2021-11-15 -->
      <g style="fill: #262626" transform="translate(55.66156 300.37167)rotate(-45)scale(0.11 -0.11)">
       <defs>
        <path id="DejaVuSans-32" d="M 1228 531 
L 3431 531 
L 3431 0 
L 469 0 
L 469 531 
Q 828 903 1448 1529 
Q 2069 2156 2228 2338 
Q 2531 2678 2651 2914 
Q 2772 3150 2772 3378 
Q 2772 3750 2511 3984 
Q 2250 4219 1831 4219 
Q 1534 4219 1204 4116 
Q 875 4013 500 3803 
L 500 4441 
Q 881 4594 1212 4672 
Q 1544 4750 1819 4750 
Q 2544 4750 2975 4387 
Q 3406 4025 3406 3419 
Q 3406 3131 3298 2873 
Q 3191 2616 2906 2266 
Q 2828 2175 2409 1742 
Q 1991 1309 1228 531 
z
" transform="scale(0.015625)"/>
        <path id="DejaVuSans-30" d="M 2034 4250 
Q 1547 4250 1301 3770 
Q 1056 3291 1056 2328 
Q 1056 1369 1301 889 
Q 1547 409 2034 409 
Q 2525 409 2770 889 
Q 3016 1369 3016 2328 
Q 3016 3291 2770 3770 
Q 2525 4250 2034 4250 
z
M 2034 4750 
Q 2819 4750 3233 4129 
Q 3647 3509 3647 2328 
Q 3647 1150 3233 529 
Q 2819 -91 2034 -91 
Q 1250 -91 836 529 
Q 422 1150 422 2328 
Q 422 3509 836 4129 
Q 1250 4750 2034 4750 
z
" transform="scale(0.015625)"/>
        <path id="DejaVuSans-31" d="M 794 531 
L 1825 531 
L 1825 4091 
L 703 3866 
L 703 4441 
L 1819 4666 
L 2450 4666 
L 2450 531 
L 3481 531 
L 3481 0 
L 794 0 
L 794 531 
z
" transform="scale(0.015625)"/>
        <path id="DejaVuSans-2d" d="M 313 2009 
L 1997 2009 
L 1997 1497 
L 313 1497 
L 313 2009 
z
" transform="scale(0.015625)"/>
        <path id="DejaVuSans-35" d="M 691 4666 
L 3169 4666 
L 3169 4134 
L 1269 4134 
L 1269 2991 
Q 1406 3038 1543 3061 
Q 1681 3084 1819 3084 
Q 2600 3084 3056 2656 
Q 3513 2228 3513 1497 
Q 3513 744 3044 326 
Q 2575 -91 1722 -91 
Q 1428 -91 1123 -41 
Q 819 9 494 109 
L 494 744 
Q 775 591 1075 516 
Q 1375 441 1709 441 
Q 2250 441 2565 725 
Q 2881 1009 2881 1497 
Q 2881 1984 2565 2268 
Q 2250 2553 1709 2553 
Q 1456 2553 1204 2497 
Q 953 2441 691 2322 
L 691 4666 
z
" transform="scale(0.015625)"/>
       </defs>
       <use xlink:href="#DejaVuSans-32"/>
       <use xlink:href="#DejaVuSans-30" x="63.623047"/>
       <use xlink:href="#DejaVuSans-32" x="127.246094"/>
       <use xlink:href="#DejaVuSans-31" x="190.869141"/>
       <use xlink:href="#DejaVuSans-2d" x="254.492188"/>
       <use xlink:href="#DejaVuSans-31" x="290.576172"/>
       <use xlink:href="#DejaVuSans-31" x="354.199219"/>
       <use xlink:href="#DejaVuSans-2d" x="417.822266"/>
       <use xlink:href="#DejaVuSans-31" x="453.90625"/>
       <use xlink:href="#DejaVuSans-35" x="517.529297"/>
      </g>
     </g>
    </g>
    <g id="xtick_2">
     <g id="line2d_2">
      <path d="M 145.46562 239.758125 
L 145.46562 22.318125 
" clip-path="url(#p3e7ce30cf1)" style="fill: none; stroke: #ffffff; stroke-linecap: round"/>
     </g>
     <g id="text_2">
      <!-- 2021-12-01 -->
      <g style="fill: #262626" transform="translate(125.010236 300.37167)rotate(-45)scale(0.11 -0.11)">
       <use xlink:href="#DejaVuSans-32"/>
       <use xlink:href="#DejaVuSans-30" x="63.623047"/>
       <use xlink:href="#DejaVuSans-32" x="127.246094"/>
       <use xlink:href="#DejaVuSans-31" x="190.869141"/>
       <use xlink:href="#DejaVuSans-2d" x="254.492188"/>
       <use xlink:href="#DejaVuSans-31" x="290.576172"/>
       <use xlink:href="#DejaVuSans-32" x="354.199219"/>
       <use xlink:href="#DejaVuSans-2d" x="417.822266"/>
       <use xlink:href="#DejaVuSans-30" x="453.90625"/>
       <use xlink:href="#DejaVuSans-31" x="517.529297"/>
      </g>
     </g>
    </g>
    <g id="xtick_3">
     <g id="line2d_3">
      <path d="M 206.145712 239.758125 
L 206.145712 22.318125 
" clip-path="url(#p3e7ce30cf1)" style="fill: none; stroke: #ffffff; stroke-linecap: round"/>
     </g>
     <g id="text_3">
      <!-- 2021-12-15 -->
      <g style="fill: #262626" transform="translate(185.690329 300.37167)rotate(-45)scale(0.11 -0.11)">
       <use xlink:href="#DejaVuSans-32"/>
       <use xlink:href="#DejaVuSans-30" x="63.623047"/>
       <use xlink:href="#DejaVuSans-32" x="127.246094"/>
       <use xlink:href="#DejaVuSans-31" x="190.869141"/>
       <use xlink:href="#DejaVuSans-2d" x="254.492188"/>
       <use xlink:href="#DejaVuSans-31" x="290.576172"/>
       <use xlink:href="#DejaVuSans-32" x="354.199219"/>
       <use xlink:href="#DejaVuSans-2d" x="417.822266"/>
       <use xlink:href="#DejaVuSans-31" x="453.90625"/>
       <use xlink:href="#DejaVuSans-35" x="517.529297"/>
      </g>
     </g>
    </g>
    <g id="xtick_4">
     <g id="line2d_4">
      <path d="M 279.828681 239.758125 
L 279.828681 22.318125 
" clip-path="url(#p3e7ce30cf1)" style="fill: none; stroke: #ffffff; stroke-linecap: round"/>
     </g>
     <g id="text_4">
      <!-- 2022-01-01 -->
      <g style="fill: #262626" transform="translate(259.373297 300.37167)rotate(-45)scale(0.11 -0.11)">
       <use xlink:href="#DejaVuSans-32"/>
       <use xlink:href="#DejaVuSans-30" x="63.623047"/>
       <use xlink:href="#DejaVuSans-32" x="127.246094"/>
       <use xlink:href="#DejaVuSans-32" x="190.869141"/>
       <use xlink:href="#DejaVuSans-2d" x="254.492188"/>
       <use xlink:href="#DejaVuSans-30" x="290.576172"/>
       <use xlink:href="#DejaVuSans-31" x="354.199219"/>
       <use xlink:href="#DejaVuSans-2d" x="417.822266"/>
       <use xlink:href="#DejaVuSans-30" x="453.90625"/>
       <use xlink:href="#DejaVuSans-31" x="517.529297"/>
      </g>
     </g>
    </g>
    <g id="xtick_5">
     <g id="line2d_5">
      <path d="M 340.508773 239.758125 
L 340.508773 22.318125 
" clip-path="url(#p3e7ce30cf1)" style="fill: none; stroke: #ffffff; stroke-linecap: round"/>
     </g>
     <g id="text_5">
      <!-- 2022-01-15 -->
      <g style="fill: #262626" transform="translate(320.05339 300.37167)rotate(-45)scale(0.11 -0.11)">
       <use xlink:href="#DejaVuSans-32"/>
       <use xlink:href="#DejaVuSans-30" x="63.623047"/>
       <use xlink:href="#DejaVuSans-32" x="127.246094"/>
       <use xlink:href="#DejaVuSans-32" x="190.869141"/>
       <use xlink:href="#DejaVuSans-2d" x="254.492188"/>
       <use xlink:href="#DejaVuSans-30" x="290.576172"/>
       <use xlink:href="#DejaVuSans-31" x="354.199219"/>
       <use xlink:href="#DejaVuSans-2d" x="417.822266"/>
       <use xlink:href="#DejaVuSans-31" x="453.90625"/>
       <use xlink:href="#DejaVuSans-35" x="517.529297"/>
      </g>
     </g>
    </g>
    <g id="text_6">
     <!-- Datetime -->
     <g style="fill: #262626" transform="translate(189.310937 315.107412)scale(0.12 -0.12)">
      <defs>
       <path id="DejaVuSans-44" d="M 1259 4147 
L 1259 519 
L 2022 519 
Q 2988 519 3436 956 
Q 3884 1394 3884 2338 
Q 3884 3275 3436 3711 
Q 2988 4147 2022 4147 
L 1259 4147 
z
M 628 4666 
L 1925 4666 
Q 3281 4666 3915 4102 
Q 4550 3538 4550 2338 
Q 4550 1131 3912 565 
Q 3275 0 1925 0 
L 628 0 
L 628 4666 
z
" transform="scale(0.015625)"/>
       <path id="DejaVuSans-61" d="M 2194 1759 
Q 1497 1759 1228 1600 
Q 959 1441 959 1056 
Q 959 750 1161 570 
Q 1363 391 1709 391 
Q 2188 391 2477 730 
Q 2766 1069 2766 1631 
L 2766 1759 
L 2194 1759 
z
M 3341 1997 
L 3341 0 
L 2766 0 
L 2766 531 
Q 2569 213 2275 61 
Q 1981 -91 1556 -91 
Q 1019 -91 701 211 
Q 384 513 384 1019 
Q 384 1609 779 1909 
Q 1175 2209 1959 2209 
L 2766 2209 
L 2766 2266 
Q 2766 2663 2505 2880 
Q 2244 3097 1772 3097 
Q 1472 3097 1187 3025 
Q 903 2953 641 2809 
L 641 3341 
Q 956 3463 1253 3523 
Q 1550 3584 1831 3584 
Q 2591 3584 2966 3190 
Q 3341 2797 3341 1997 
z
" transform="scale(0.015625)"/>
       <path id="DejaVuSans-74" d="M 1172 4494 
L 1172 3500 
L 2356 3500 
L 2356 3053 
L 1172 3053 
L 1172 1153 
Q 1172 725 1289 603 
Q 1406 481 1766 481 
L 2356 481 
L 2356 0 
L 1766 0 
Q 1100 0 847 248 
Q 594 497 594 1153 
L 594 3053 
L 172 3053 
L 172 3500 
L 594 3500 
L 594 4494 
L 1172 4494 
z
" transform="scale(0.015625)"/>
       <path id="DejaVuSans-65" d="M 3597 1894 
L 3597 1613 
L 953 1613 
Q 991 1019 1311 708 
Q 1631 397 2203 397 
Q 2534 397 2845 478 
Q 3156 559 3463 722 
L 3463 178 
Q 3153 47 2828 -22 
Q 2503 -91 2169 -91 
Q 1331 -91 842 396 
Q 353 884 353 1716 
Q 353 2575 817 3079 
Q 1281 3584 2069 3584 
Q 2775 3584 3186 3129 
Q 3597 2675 3597 1894 
z
M 3022 2063 
Q 3016 2534 2758 2815 
Q 2500 3097 2075 3097 
Q 1594 3097 1305 2825 
Q 1016 2553 972 2059 
L 3022 2063 
z
" transform="scale(0.015625)"/>
       <path id="DejaVuSans-69" d="M 603 3500 
L 1178 3500 
L 1178 0 
L 603 0 
L 603 3500 
z
M 603 4863 
L 1178 4863 
L 1178 4134 
L 603 4134 
L 603 4863 
z
" transform="scale(0.015625)"/>
       <path id="DejaVuSans-6d" d="M 3328 2828 
Q 3544 3216 3844 3400 
Q 4144 3584 4550 3584 
Q 5097 3584 5394 3201 
Q 5691 2819 5691 2113 
L 5691 0 
L 5113 0 
L 5113 2094 
Q 5113 2597 4934 2840 
Q 4756 3084 4391 3084 
Q 3944 3084 3684 2787 
Q 3425 2491 3425 1978 
L 3425 0 
L 2847 0 
L 2847 2094 
Q 2847 2600 2669 2842 
Q 2491 3084 2119 3084 
Q 1678 3084 1418 2786 
Q 1159 2488 1159 1978 
L 1159 0 
L 581 0 
L 581 3500 
L 1159 3500 
L 1159 2956 
Q 1356 3278 1631 3431 
Q 1906 3584 2284 3584 
Q 2666 3584 2933 3390 
Q 3200 3197 3328 2828 
z
" transform="scale(0.015625)"/>
      </defs>
      <use xlink:href="#DejaVuSans-44"/>
      <use xlink:href="#DejaVuSans-61" x="77.001953"/>
      <use xlink:href="#DejaVuSans-74" x="138.28125"/>
      <use xlink:href="#DejaVuSans-65" x="177.490234"/>
      <use xlink:href="#DejaVuSans-74" x="239.013672"/>
      <use xlink:href="#DejaVuSans-69" x="278.222656"/>
      <use xlink:href="#DejaVuSans-6d" x="306.005859"/>
      <use xlink:href="#DejaVuSans-65" x="403.417969"/>
     </g>
    </g>
   </g>
   <g id="matplotlib.axis_2">
    <g id="ytick_1">
     <g id="line2d_6">
      <path d="M 49.807187 229.874489 
L 384.607188 229.874489 
" clip-path="url(#p3e7ce30cf1)" style="fill: none; stroke: #ffffff; stroke-linecap: round"/>
     </g>
     <g id="text_7">
      <!-- 0.0 -->
      <g style="fill: #262626" transform="translate(22.81375 234.053629)scale(0.11 -0.11)">
       <defs>
        <path id="DejaVuSans-2e" d="M 684 794 
L 1344 794 
L 1344 0 
L 684 0 
L 684 794 
z
" transform="scale(0.015625)"/>
       </defs>
       <use xlink:href="#DejaVuSans-30"/>
       <use xlink:href="#DejaVuSans-2e" x="63.623047"/>
       <use xlink:href="#DejaVuSans-30" x="95.410156"/>
      </g>
     </g>
    </g>
    <g id="ytick_2">
     <g id="line2d_7">
      <path d="M 49.807187 190.339943 
L 384.607188 190.339943 
" clip-path="url(#p3e7ce30cf1)" style="fill: none; stroke: #ffffff; stroke-linecap: round"/>
     </g>
     <g id="text_8">
      <!-- 0.2 -->
      <g style="fill: #262626" transform="translate(22.81375 194.519084)scale(0.11 -0.11)">
       <use xlink:href="#DejaVuSans-30"/>
       <use xlink:href="#DejaVuSans-2e" x="63.623047"/>
       <use xlink:href="#DejaVuSans-32" x="95.410156"/>
      </g>
     </g>
    </g>
    <g id="ytick_3">
     <g id="line2d_8">
      <path d="M 49.807187 150.805398 
L 384.607188 150.805398 
" clip-path="url(#p3e7ce30cf1)" style="fill: none; stroke: #ffffff; stroke-linecap: round"/>
     </g>
     <g id="text_9">
      <!-- 0.4 -->
      <g style="fill: #262626" transform="translate(22.81375 154.984538)scale(0.11 -0.11)">
       <defs>
        <path id="DejaVuSans-34" d="M 2419 4116 
L 825 1625 
L 2419 1625 
L 2419 4116 
z
M 2253 4666 
L 3047 4666 
L 3047 1625 
L 3713 1625 
L 3713 1100 
L 3047 1100 
L 3047 0 
L 2419 0 
L 2419 1100 
L 313 1100 
L 313 1709 
L 2253 4666 
z
" transform="scale(0.015625)"/>
       </defs>
       <use xlink:href="#DejaVuSans-30"/>
       <use xlink:href="#DejaVuSans-2e" x="63.623047"/>
       <use xlink:href="#DejaVuSans-34" x="95.410156"/>
      </g>
     </g>
    </g>
    <g id="ytick_4">
     <g id="line2d_9">
      <path d="M 49.807187 111.270852 
L 384.607188 111.270852 
" clip-path="url(#p3e7ce30cf1)" style="fill: none; stroke: #ffffff; stroke-linecap: round"/>
     </g>
     <g id="text_10">
      <!-- 0.6 -->
      <g style="fill: #262626" transform="translate(22.81375 115.449993)scale(0.11 -0.11)">
       <defs>
        <path id="DejaVuSans-36" d="M 2113 2584 
Q 1688 2584 1439 2293 
Q 1191 2003 1191 1497 
Q 1191 994 1439 701 
Q 1688 409 2113 409 
Q 2538 409 2786 701 
Q 3034 994 3034 1497 
Q 3034 2003 2786 2293 
Q 2538 2584 2113 2584 
z
M 3366 4563 
L 3366 3988 
Q 3128 4100 2886 4159 
Q 2644 4219 2406 4219 
Q 1781 4219 1451 3797 
Q 1122 3375 1075 2522 
Q 1259 2794 1537 2939 
Q 1816 3084 2150 3084 
Q 2853 3084 3261 2657 
Q 3669 2231 3669 1497 
Q 3669 778 3244 343 
Q 2819 -91 2113 -91 
Q 1303 -91 875 529 
Q 447 1150 447 2328 
Q 447 3434 972 4092 
Q 1497 4750 2381 4750 
Q 2619 4750 2861 4703 
Q 3103 4656 3366 4563 
z
" transform="scale(0.015625)"/>
       </defs>
       <use xlink:href="#DejaVuSans-30"/>
       <use xlink:href="#DejaVuSans-2e" x="63.623047"/>
       <use xlink:href="#DejaVuSans-36" x="95.410156"/>
      </g>
     </g>
    </g>
    <g id="ytick_5">
     <g id="line2d_10">
      <path d="M 49.807187 71.736307 
L 384.607188 71.736307 
" clip-path="url(#p3e7ce30cf1)" style="fill: none; stroke: #ffffff; stroke-linecap: round"/>
     </g>
     <g id="text_11">
      <!-- 0.8 -->
      <g style="fill: #262626" transform="translate(22.81375 75.915447)scale(0.11 -0.11)">
       <defs>
        <path id="DejaVuSans-38" d="M 2034 2216 
Q 1584 2216 1326 1975 
Q 1069 1734 1069 1313 
Q 1069 891 1326 650 
Q 1584 409 2034 409 
Q 2484 409 2743 651 
Q 3003 894 3003 1313 
Q 3003 1734 2745 1975 
Q 2488 2216 2034 2216 
z
M 1403 2484 
Q 997 2584 770 2862 
Q 544 3141 544 3541 
Q 544 4100 942 4425 
Q 1341 4750 2034 4750 
Q 2731 4750 3128 4425 
Q 3525 4100 3525 3541 
Q 3525 3141 3298 2862 
Q 3072 2584 2669 2484 
Q 3125 2378 3379 2068 
Q 3634 1759 3634 1313 
Q 3634 634 3220 271 
Q 2806 -91 2034 -91 
Q 1263 -91 848 271 
Q 434 634 434 1313 
Q 434 1759 690 2068 
Q 947 2378 1403 2484 
z
M 1172 3481 
Q 1172 3119 1398 2916 
Q 1625 2713 2034 2713 
Q 2441 2713 2670 2916 
Q 2900 3119 2900 3481 
Q 2900 3844 2670 4047 
Q 2441 4250 2034 4250 
Q 1625 4250 1398 4047 
Q 1172 3844 1172 3481 
z
" transform="scale(0.015625)"/>
       </defs>
       <use xlink:href="#DejaVuSans-30"/>
       <use xlink:href="#DejaVuSans-2e" x="63.623047"/>
       <use xlink:href="#DejaVuSans-38" x="95.410156"/>
      </g>
     </g>
    </g>
    <g id="ytick_6">
     <g id="line2d_11">
      <path d="M 49.807187 32.201761 
L 384.607188 32.201761 
" clip-path="url(#p3e7ce30cf1)" style="fill: none; stroke: #ffffff; stroke-linecap: round"/>
     </g>
     <g id="text_12">
      <!-- 1.0 -->
      <g style="fill: #262626" transform="translate(22.81375 36.380902)scale(0.11 -0.11)">
       <use xlink:href="#DejaVuSans-31"/>
       <use xlink:href="#DejaVuSans-2e" x="63.623047"/>
       <use xlink:href="#DejaVuSans-30" x="95.410156"/>
      </g>
     </g>
    </g>
    <g id="text_13">
     <!-- ARI -->
     <g style="fill: #262626" transform="translate(16.318125 141.081562)rotate(-90)scale(0.12 -0.12)">
      <defs>
       <path id="DejaVuSans-41" d="M 2188 4044 
L 1331 1722 
L 3047 1722 
L 2188 4044 
z
M 1831 4666 
L 2547 4666 
L 4325 0 
L 3669 0 
L 3244 1197 
L 1141 1197 
L 716 0 
L 50 0 
L 1831 4666 
z
" transform="scale(0.015625)"/>
       <path id="DejaVuSans-52" d="M 2841 2188 
Q 3044 2119 3236 1894 
Q 3428 1669 3622 1275 
L 4263 0 
L 3584 0 
L 2988 1197 
Q 2756 1666 2539 1819 
Q 2322 1972 1947 1972 
L 1259 1972 
L 1259 0 
L 628 0 
L 628 4666 
L 2053 4666 
Q 2853 4666 3247 4331 
Q 3641 3997 3641 3322 
Q 3641 2881 3436 2590 
Q 3231 2300 2841 2188 
z
M 1259 4147 
L 1259 2491 
L 2053 2491 
Q 2509 2491 2742 2702 
Q 2975 2913 2975 3322 
Q 2975 3731 2742 3939 
Q 2509 4147 2053 4147 
L 1259 4147 
z
" transform="scale(0.015625)"/>
       <path id="DejaVuSans-49" d="M 628 4666 
L 1259 4666 
L 1259 0 
L 628 0 
L 628 4666 
z
" transform="scale(0.015625)"/>
      </defs>
      <use xlink:href="#DejaVuSans-41"/>
      <use xlink:href="#DejaVuSans-52" x="68.408203"/>
      <use xlink:href="#DejaVuSans-49" x="137.890625"/>
     </g>
    </g>
   </g>
   <g id="line2d_12">
    <path d="M 65.025369 32.201761 
L 65.145766 172.710734 
L 65.160816 181.884293 
L 65.175866 171.141147 
L 65.190915 77.471574 
L 65.281213 192.85234 
L 65.371511 197.336655 
L 65.431709 123.38986 
L 65.461808 175.162735 
L 65.537057 155.214348 
L 65.567156 155.769706 
L 65.597255 87.749066 
L 65.642404 186.705361 
L 65.702602 148.868116 
L 65.732702 88.522571 
L 65.762801 148.869125 
L 65.7929 116.303859 
L 65.80795 182.535632 
L 65.868148 90.370527 
L 65.898248 96.744892 
L 65.943397 167.583749 
L 65.988545 130.579334 
L 77.832601 178.496558 
L 77.847651 116.704186 
L 77.937948 170.619902 
L 78.013197 106.412847 
L 78.058345 124.987257 
L 78.178742 192.500926 
L 78.193792 188.372187 
L 78.299139 139.79562 
L 78.314189 158.281111 
L 78.344288 171.511106 
L 78.374388 133.109731 
L 78.404487 144.193596 
L 78.419536 137.3746 
L 78.434586 187.944926 
L 78.494785 131.585646 
L 78.524884 145.733506 
L 78.600132 109.160062 
L 78.554983 159.775118 
L 78.615182 125.18621 
L 78.630231 96.227968 
L 78.67538 189.456838 
L 78.720529 125.341835 
L 78.795777 184.625826 
L 78.825876 165.654974 
L 78.901124 90.375936 
L 78.855976 182.234099 
L 78.946273 110.560576 
L 78.991422 177.622918 
L 82.166893 163.204304 
L 82.181943 159.02721 
L 82.196993 181.207321 
L 82.212042 186.617325 
L 82.227092 160.973417 
L 82.257191 171.018982 
L 82.332439 124.356464 
L 82.30234 201.600938 
L 82.362538 165.559354 
L 82.437787 201.15453 
L 82.407687 158.025391 
L 82.452836 183.174091 
L 82.467886 105.232276 
L 82.528084 184.976493 
L 82.558184 182.002097 
L 82.648481 191.439773 
L 82.70868 107.850109 
L 82.783928 179.898044 
L 82.829077 160.426657 
L 82.844127 108.75198 
L 82.934424 170.84765 
L 82.949474 119.410549 
L 82.964524 94.319575 
L 82.979573 176.798107 
L 83.039772 139.230741 
L 83.09997 176.992991 
L 83.069871 126.44402 
L 83.145119 148.960235 
L 83.235417 169.269373 
L 83.265516 89.597509 
L 83.295615 170.929779 
L 83.325715 127.465972 
L 86.501186 99.263826 
L 86.561384 159.93166 
L 86.621583 134.508695 
L 86.666732 172.380492 
L 86.681781 171.361219 
L 86.696831 82.374249 
L 86.72693 175.528477 
L 86.787129 111.110547 
L 86.877426 179.747515 
L 86.892476 169.491077 
L 86.907526 102.46251 
L 87.012873 107.449179 
L 87.058022 111.749687 
L 87.073071 92.650439 
L 87.14832 178.992516 
L 87.193468 151.783973 
L 87.208518 162.137857 
L 87.238617 137.177053 
L 87.298816 159.280129 
L 87.328915 173.069152 
L 87.434262 123.747415 
L 87.479411 153.494899 
L 87.494461 133.399439 
L 87.614858 182.804855 
L 87.644957 141.036509 
L 87.660007 164.768477 
L 90.835478 168.463353 
L 90.850528 108.704152 
L 90.910726 179.785444 
L 90.940825 177.821969 
L 90.955875 176.607425 
L 90.970925 179.109246 
L 90.985974 186.991927 
L 91.016073 153.615976 
L 91.031123 161.875407 
L 91.046173 159.578996 
L 91.076272 126.26811 
L 91.13647 180.317806 
L 91.15152 134.930053 
L 91.196669 189.125402 
L 91.211719 129.847042 
L 91.256867 161.913974 
L 91.271917 88.836648 
L 91.332116 175.206219 
L 91.362215 134.901763 
L 91.467562 199.188287 
L 91.482612 192.545315 
L 91.512711 129.939733 
L 91.603009 149.646826 
L 91.633108 194.653723 
L 91.648158 113.940407 
L 91.708356 174.471604 
L 91.723406 139.587144 
L 91.768555 189.23999 
L 91.798654 185.446969 
L 91.813704 191.437432 
L 91.828753 172.966893 
L 91.873902 129.711956 
L 91.904001 200.552374 
L 91.919051 201.005431 
L 91.979249 135.003948 
L 91.994299 148.542981 
L 95.16977 180.318544 
L 95.275118 72.551862 
L 95.305217 101.306288 
L 95.395515 179.99584 
L 95.425614 166.536134 
L 95.485812 132.139957 
L 95.515912 183.558793 
L 95.530961 154.935986 
L 95.57611 180.465259 
L 95.59116 122.020548 
L 95.606209 69.465373 
L 95.636309 196.438236 
L 95.696507 132.62456 
L 95.741656 147.66712 
L 95.771755 127.008336 
L 95.786805 102.855619 
L 95.816904 146.203331 
L 95.862053 136.574788 
L 95.907202 187.731146 
L 95.937301 165.338415 
L 95.952351 102.175982 
L 96.042649 177.642041 
L 96.102847 92.999717 
L 96.163046 127.739125 
L 96.223244 182.606563 
L 96.238294 206.442989 
L 96.268393 127.336799 
L 96.298492 137.414377 
L 96.313542 108.728659 
L 96.328591 161.166407 
L 108.172647 164.280686 
L 108.187697 173.189079 
L 108.247895 153.444078 
L 108.277994 170.225924 
L 108.338193 135.606602 
L 108.323143 174.498248 
L 108.398391 151.605388 
L 108.488689 185.368344 
L 108.503739 182.230777 
L 108.518788 119.169052 
L 108.609086 143.953818 
L 108.669285 173.611808 
L 108.654235 143.556222 
L 108.684334 171.469771 
L 108.789682 85.914941 
L 108.804731 116.273491 
L 108.834831 108.500271 
L 108.84988 80.892296 
L 108.86493 154.572983 
L 108.925128 130.33425 
L 108.940178 128.847765 
L 108.970277 103.763825 
L 109.015426 154.037876 
L 109.030476 127.331073 
L 109.045525 164.337031 
L 109.060575 107.283608 
L 109.120774 129.148016 
L 109.135823 95.969136 
L 109.211071 169.302011 
L 109.226121 131.564842 
L 109.301369 170.788258 
L 109.27127 107.464614 
L 109.316419 138.174069 
L 109.331468 116.758741 
L 112.506939 161.146269 
L 112.597237 96.180048 
L 112.567138 170.304418 
L 112.612287 156.48374 
L 112.642386 170.034409 
L 112.657436 138.207421 
L 112.702585 154.643448 
L 112.717634 63.56629 
L 112.792882 198.119394 
L 112.807932 160.993736 
L 112.822982 191.292106 
L 112.86813 121.086532 
L 112.913279 156.712852 
L 112.973478 187.566656 
L 112.943379 127.399573 
L 113.018627 156.543218 
L 113.063776 186.102027 
L 113.078825 143.895401 
L 113.093875 184.954114 
L 113.108924 73.364343 
L 113.169123 181.724802 
L 113.27447 72.305805 
L 113.379818 194.734126 
L 113.394867 153.366387 
L 113.500215 39.210231 
L 113.455066 156.020876 
L 113.530314 44.236875 
L 113.650711 172.833796 
L 113.665761 164.427465 
L 116.841232 146.277616 
L 116.931529 174.905102 
L 116.961629 86.766665 
L 116.991728 183.032015 
L 117.051926 62.501593 
L 117.066976 92.938957 
L 117.082026 95.451347 
L 117.097075 175.407364 
L 117.172323 162.075741 
L 117.187373 37.462867 
L 117.277671 109.883633 
L 117.337869 69.735585 
L 117.398068 165.738479 
L 117.413117 32.201761 
L 117.503415 107.730267 
L 117.533514 83.50645 
L 117.548564 189.084884 
L 117.608763 68.176874 
L 117.638862 153.36498 
L 117.744209 82.191748 
L 117.71411 160.647531 
L 117.759259 85.71241 
L 117.789358 171.984641 
L 117.864606 78.765807 
L 117.879656 42.216617 
L 117.924805 126.327853 
L 117.954904 97.631127 
L 118.000053 139.943246 
L 125.509816 42.950119 
L 125.600114 134.901321 
L 125.630213 71.384962 
L 125.660313 64.923342 
L 125.690412 169.187977 
L 125.795759 148.928679 
L 125.810809 93.221531 
L 125.901107 161.252468 
L 125.976355 85.263092 
L 125.946255 173.838611 
L 126.036553 115.604901 
L 126.066652 130.734152 
L 126.081702 112.656592 
L 126.126851 128.951302 
L 126.141901 97.890597 
L 138.512693 156.565127 
L 138.572892 49.941039 
L 138.557842 179.408789 
L 138.61804 143.14275 
L 138.63309 152.317984 
L 138.64814 148.793662 
L 138.753487 62.931262 
L 138.678239 151.216718 
L 138.768537 92.67655 
L 138.813686 131.833449 
L 138.843785 101.568206 
L 138.934083 49.505078 
L 138.888934 114.409159 
L 138.949132 64.00438 
L 139.069529 151.214609 
L 139.084579 138.116642 
L 139.204976 78.177985 
L 139.129728 156.565276 
L 139.220026 99.240581 
L 139.265174 144.919892 
L 139.295274 86.197103 
L 139.310323 41.728395 
L 139.340423 145.362769 
L 139.385571 112.672363 
L 139.46082 165.323094 
L 139.475869 56.047067 
L 139.490919 105.166293 
L 139.521018 141.469514 
L 139.536068 80.217095 
L 139.596266 132.427405 
L 139.611316 98.006067 
L 139.671514 119.476259 
L 142.846985 110.179265 
L 142.877085 119.342706 
L 142.892134 110.411331 
L 142.952333 94.496864 
L 142.997482 158.869832 
L 143.012531 64.216046 
L 143.102829 127.993991 
L 143.163028 76.570311 
L 143.178077 141.519818 
L 143.208176 177.528093 
L 143.238276 77.292378 
L 143.313524 175.083915 
L 143.358673 79.888126 
L 143.418871 133.937688 
L 143.47907 126.809561 
L 143.524219 163.142423 
L 143.584417 66.448073 
L 143.614516 168.649674 
L 143.644616 110.841396 
L 143.719864 39.96801 
L 143.765013 179.006213 
L 143.88541 93.69685 
L 143.900459 194.498208 
L 143.975707 151.657946 
L 143.990757 51.7631 
L 144.005807 155.548957 
L 147.181278 181.888983 
L 147.226427 90.942424 
L 147.286625 149.853851 
L 147.376923 76.235899 
L 147.391972 146.546945 
L 147.407022 149.265066 
L 147.437121 69.594597 
L 147.452171 162.816891 
L 147.512369 137.466739 
L 147.602667 102.365836 
L 147.542469 177.620239 
L 147.632766 106.448186 
L 147.723064 200.365338 
L 147.753163 159.217483 
L 147.828412 108.499421 
L 147.798312 174.794503 
L 147.858511 164.144957 
L 147.87356 162.625937 
L 147.88861 165.999889 
L 147.933759 180.531933 
L 147.918709 163.526356 
L 147.963858 171.695113 
L 148.054156 81.065182 
L 147.993957 173.779621 
L 148.084255 86.866678 
L 148.099305 173.159723 
L 148.174553 61.391695 
L 148.189603 74.774434 
L 148.249801 177.211581 
L 148.31 167.839117 
L 148.340099 99.147592 
L 151.51557 63.726925 
L 151.545669 53.927864 
L 151.651017 172.113873 
L 151.741314 65.096709 
L 151.726265 179.108771 
L 151.801513 74.857273 
L 151.861711 193.535308 
L 151.92191 175.080623 
L 151.93696 129.037361 
L 151.982108 180.706672 
L 152.042307 135.410298 
L 152.087456 176.520681 
L 152.072406 134.911238 
L 152.117555 170.124762 
L 152.132605 62.423959 
L 152.222902 180.184898 
L 152.32825 78.304821 
L 152.343299 136.325546 
L 152.388448 148.675655 
L 152.433597 72.277646 
L 152.463696 188.080347 
L 152.493796 97.18256 
L 152.553994 172.519821 
L 152.584093 140.237856 
L 152.599143 71.946937 
L 152.659342 188.248192 
L 152.674391 181.434442 
L 155.849862 177.443069 
L 155.864912 172.251659 
L 156.000359 98.677451 
L 156.075607 66.320657 
L 156.120756 173.759277 
L 156.180954 191.086026 
L 156.256202 34.969813 
L 156.3465 187.598791 
L 156.391649 177.069059 
L 156.436798 177.525947 
L 156.512046 41.618182 
L 156.602344 179.905685 
L 156.632443 148.143867 
L 156.692641 83.634035 
L 156.662542 148.715653 
L 156.73779 119.351824 
L 156.75284 142.00575 
L 156.782939 112.993441 
L 156.828088 118.931397 
L 156.843138 32.201761 
L 156.903336 178.210838 
L 156.948485 63.206083 
L 156.963535 50.070272 
L 156.978584 134.508186 
L 157.008683 115.351882 
L 168.852739 105.665133 
L 168.897888 35.475859 
L 168.927987 114.633375 
L 168.943037 35.582667 
L 168.973136 161.513042 
L 169.048384 49.1747 
L 169.078484 55.482708 
L 169.093533 48.890516 
L 169.138682 38.379543 
L 169.198881 183.353168 
L 169.244029 35.43834 
L 169.304228 95.782204 
L 169.409575 175.829771 
L 169.349377 61.94887 
L 169.424625 155.75881 
L 169.499873 55.481209 
L 169.545022 59.637413 
L 169.60522 84.8772 
L 169.665419 32.201761 
L 169.785816 157.177764 
L 169.800866 155.810849 
L 169.830965 120.149114 
L 169.906213 158.470914 
L 169.951362 111.925006 
L 169.966411 159.584909 
L 169.981461 128.945343 
L 169.996511 178.582816 
L 170.01156 146.351323 
L 173.187031 116.386252 
L 173.217131 91.663751 
L 173.23218 143.657374 
L 173.26228 108.126045 
L 173.367627 174.704107 
L 173.382677 164.392804 
L 173.412776 55.763974 
L 173.488024 172.370744 
L 173.563272 103.623695 
L 173.593371 180.774773 
L 173.698719 68.694977 
L 173.728818 122.641001 
L 173.743868 133.80298 
L 173.789016 106.609244 
L 173.804066 127.620135 
L 173.849215 35.633189 
L 173.924463 98.925733 
L 173.939513 84.83051 
L 173.984662 122.107005 
L 173.999711 132.923344 
L 174.05991 113.207328 
L 174.074959 116.214802 
L 174.090009 112.633677 
L 174.105059 133.717731 
L 174.120108 129.419221 
L 174.135158 145.854734 
L 174.165257 120.396408 
L 174.180307 126.332895 
L 174.195356 82.896088 
L 174.255555 178.227689 
L 174.270605 170.589058 
L 174.285654 179.615101 
L 174.300704 153.25773 
L 174.330803 109.199887 
L 174.345853 115.330477 
L 177.521324 103.697057 
L 177.566473 174.815245 
L 177.596572 101.953011 
L 177.626671 159.478928 
L 177.641721 54.563824 
L 177.716969 183.52957 
L 177.732018 152.577108 
L 177.762118 47.738799 
L 177.837366 137.677681 
L 177.852415 140.903686 
L 177.867465 84.281285 
L 177.882515 183.964251 
L 177.957763 109.351683 
L 177.987862 79.095867 
L 178.07816 153.167837 
L 178.09321 56.591617 
L 178.123309 166.530535 
L 178.198557 80.052297 
L 178.273805 126.087074 
L 178.288855 76.699561 
L 178.303904 116.845126 
L 178.334004 32.201761 
L 178.394202 184.855487 
L 178.439351 84.996913 
L 178.544698 126.803081 
L 178.589847 185.98555 
L 178.604897 125.639148 
L 178.665095 155.070917 
L 178.680145 157.564765 
L 181.855616 161.325048 
L 181.870666 158.415409 
L 181.885715 110.028473 
L 181.915815 177.243377 
L 181.976013 115.786823 
L 182.051261 168.644203 
L 182.066311 89.041375 
L 182.08136 151.464449 
L 182.126509 107.003063 
L 182.171658 155.902431 
L 182.201757 199.892333 
L 182.231857 140.227224 
L 182.307105 99.627494 
L 182.261956 170.691868 
L 182.337204 154.428807 
L 182.382353 172.663132 
L 182.412452 142.252016 
L 182.427502 64.299442 
L 182.50275 173.468794 
L 182.5178 169.685485 
L 182.532849 188.18517 
L 182.547899 103.659681 
L 182.608097 185.092826 
L 182.743544 99.798625 
L 182.758594 149.457864 
L 182.773643 94.240455 
L 182.848891 121.349096 
L 182.863941 36.019677 
L 182.954239 133.732861 
L 182.969288 163.352409 
L 182.999388 90.027543 
L 183.014437 101.017154 
L 186.204958 119.746751 
L 186.280206 154.724209 
L 186.325355 51.732059 
L 186.430702 152.66631 
L 186.445752 129.652953 
L 186.460802 62.987816 
L 186.475851 130.195213 
L 186.566149 84.251444 
L 186.611298 69.68084 
L 186.626347 105.858432 
L 186.641397 39.301657 
L 186.716645 140.356179 
L 186.731695 134.489758 
L 186.821993 35.805449 
L 186.852092 63.393181 
L 186.867141 84.787572 
L 186.94239 53.882686 
L 186.957439 59.544267 
L 187.002588 57.246915 
L 187.062787 79.384077 
L 187.077836 35.787377 
L 187.122985 108.927049 
L 187.168134 57.040492 
L 187.258432 135.808266 
L 187.228332 47.358424 
L 187.288531 124.406712 
L 187.303581 124.676966 
L 187.31863 69.431944 
L 187.34873 74.148282 
L 199.192785 115.701451 
L 199.237934 124.966647 
L 199.222884 100.430049 
L 199.252984 115.87045 
L 199.328232 62.611922 
L 199.283083 142.929166 
L 199.373381 105.842861 
L 199.38843 135.101017 
L 199.463678 69.012237 
L 199.493778 42.284834 
L 199.599125 161.160443 
L 199.659324 32.201761 
L 199.704472 139.306297 
L 199.719522 158.524792 
L 199.749621 75.443508 
L 199.764671 55.76546 
L 199.79477 120.117263 
L 199.839919 80.556311 
L 199.870018 176.728165 
L 199.945266 135.729519 
L 200.035564 50.019105 
L 200.065663 71.948661 
L 200.080713 54.623185 
L 200.125862 103.32473 
L 200.155961 163.245973 
L 200.231209 87.303842 
L 200.261309 160.697404 
L 200.321507 74.3287 
L 200.336557 77.546921 
L 200.351606 130.978185 
L 203.527077 128.822985 
L 203.587276 49.630717 
L 203.632425 132.178871 
L 203.662524 126.866123 
L 203.692623 42.460914 
L 203.767871 129.096692 
L 203.797971 159.118879 
L 203.81302 112.170859 
L 203.82807 143.999471 
L 203.84312 44.94941 
L 203.858169 164.635086 
L 203.933417 119.292871 
L 203.948467 110.493438 
L 203.963517 147.625209 
L 203.978566 164.782137 
L 203.993616 93.268286 
L 204.023715 119.249207 
L 204.068864 43.868416 
L 204.083914 143.287334 
L 204.129062 126.038089 
L 204.174211 69.714632 
L 204.204311 153.646749 
L 204.23441 115.657168 
L 204.264509 160.963651 
L 204.279559 107.280224 
L 204.354807 142.250744 
L 204.399956 34.603053 
L 204.475204 115.074589 
L 204.505303 172.612727 
L 204.595601 166.604444 
L 204.610651 91.12515 
L 204.685899 135.075713 
L 207.86137 90.812353 
L 207.936618 149.202354 
L 207.981767 131.746893 
L 208.026916 158.449429 
L 208.011866 116.044545 
L 208.057015 118.112144 
L 208.102164 82.867596 
L 208.117213 170.928287 
L 208.147313 97.752139 
L 208.23761 180.316321 
L 208.207511 76.062309 
L 208.26771 169.416628 
L 208.433256 83.085766 
L 208.478404 162.96998 
L 208.568702 154.670854 
L 208.628901 186.814484 
L 208.659 178.36829 
L 208.704149 83.177358 
L 208.764347 136.704603 
L 208.854645 179.538341 
L 208.824546 119.923069 
L 208.869695 148.923718 
L 208.929893 94.880993 
L 208.914844 162.561585 
L 208.944943 157.252738 
L 208.959992 182.354934 
L 208.975042 122.335815 
L 209.020191 161.835299 
L 212.195662 158.185727 
L 212.240811 155.962787 
L 212.27091 184.054167 
L 212.376258 70.17446 
L 212.391307 181.585907 
L 212.421406 65.262436 
L 212.496655 142.636356 
L 212.541803 189.023156 
L 212.556853 82.94076 
L 212.586952 181.07061 
L 212.632101 56.320612 
L 212.707349 103.821235 
L 212.722399 97.304671 
L 212.737449 174.584586 
L 212.797647 60.549812 
L 212.827746 102.14247 
L 212.842796 127.669521 
L 212.887945 38.992998 
L 212.902994 52.696953 
L 212.918044 52.0753 
L 212.978243 42.491743 
L 213.008342 123.756637 
L 213.023391 180.403191 
L 213.06854 95.661871 
L 213.128739 158.895414 
L 213.158838 55.915347 
L 213.203987 185.775683 
L 213.234086 170.87457 
L 213.264185 83.615903 
L 213.339434 172.457657 
L 213.354483 146.846822 
L 216.529954 101.271272 
L 216.575103 71.661528 
L 216.650351 160.1801 
L 216.665401 48.025219 
L 216.725599 174.251827 
L 216.755699 62.560251 
L 216.815897 179.07404 
L 216.876096 161.999394 
L 216.891145 163.826026 
L 216.936294 50.332507 
L 216.951344 177.417273 
L 216.981443 154.710473 
L 216.996493 209.867226 
L 217.056691 62.068498 
L 217.11689 39.464797 
L 217.10184 69.597316 
L 217.131939 42.697527 
L 217.192138 128.744136 
L 217.252336 112.151597 
L 217.372733 198.120707 
L 217.297485 92.20525 
L 217.387783 155.036603 
L 217.402833 173.121659 
L 217.49313 32.201761 
L 217.50818 121.281828 
L 217.52323 114.785508 
L 217.538279 119.764543 
L 217.628577 171.573214 
L 217.583428 76.266114 
L 217.658676 160.286448 
L 217.673726 143.767382 
L 217.688776 189.730407 
L 229.532831 153.209857 
L 229.547881 48.092143 
L 229.608079 155.460022 
L 229.638179 140.249544 
L 229.728476 39.509242 
L 229.758576 115.174988 
L 229.773625 109.125422 
L 229.788675 58.264711 
L 229.833824 128.16767 
L 229.863923 103.483288 
L 229.894022 155.990934 
L 229.909072 60.91009 
L 229.954221 111.761483 
L 229.99937 38.033054 
L 229.98432 118.470204 
L 230.059568 83.728006 
L 230.134816 190.345683 
L 230.210064 168.142063 
L 230.300362 42.352433 
L 230.315412 78.249391 
L 230.345511 167.749563 
L 230.420759 103.410704 
L 230.465908 108.907429 
L 230.511057 42.513336 
L 230.541156 123.025837 
L 230.616404 107.436935 
L 230.676603 40.179259 
L 230.691652 100.616039 
L 233.867123 105.146975 
L 233.972471 176.388586 
L 233.927322 54.509947 
L 233.98752 140.265234 
L 234.00257 73.763287 
L 234.032669 142.85628 
L 234.092868 77.101014 
L 234.122967 140.103033 
L 234.168116 41.785694 
L 234.198215 117.336534 
L 234.243364 50.286396 
L 234.303563 118.156924 
L 234.40891 163.077283 
L 234.348712 86.075564 
L 234.454059 151.095599 
L 234.469109 99.479646 
L 234.559406 137.715979 
L 234.649704 171.970314 
L 234.604555 136.595559 
L 234.664754 142.389979 
L 234.770101 100.823219 
L 234.724952 179.402379 
L 234.785151 107.493561 
L 234.875448 167.599904 
L 234.845349 78.623888 
L 234.890498 139.639295 
L 234.950697 150.095914 
L 234.965746 45.987494 
L 234.980796 189.942302 
L 235.025945 94.499007 
L 238.201416 51.926726 
L 238.291714 184.052831 
L 238.321813 182.133625 
L 238.336862 187.287302 
L 238.351912 155.153713 
L 238.397061 40.041124 
L 238.42716 175.622464 
L 238.457259 128.220628 
L 238.472309 135.45422 
L 238.487359 131.790628 
L 238.502408 83.02276 
L 238.577656 141.32543 
L 238.607756 96.482332 
L 238.622805 94.107096 
L 238.637855 58.412693 
L 238.683004 135.700252 
L 238.713103 94.784696 
L 238.788351 183.249876 
L 238.84855 181.876791 
L 238.923798 101.310738 
L 238.953897 175.965325 
L 239.059244 77.305244 
L 239.074294 79.317495 
L 239.089344 188.650428 
L 239.134493 74.044818 
L 239.179641 83.342326 
L 239.25489 163.093864 
L 239.300038 125.813554 
L 239.315088 112.201734 
L 239.345187 155.936959 
L 239.360237 135.263855 
L 242.535708 121.62532 
L 242.565807 146.41056 
L 242.641055 60.204188 
L 242.716304 175.226561 
L 242.761452 133.57871 
L 242.791552 138.426185 
L 242.8668 98.709618 
L 242.926998 71.311653 
L 243.002246 178.867754 
L 243.032346 65.818467 
L 243.077495 186.944952 
L 243.122643 131.330994 
L 243.197892 56.707701 
L 243.182842 148.743847 
L 243.227991 140.637592 
L 243.25809 192.62376 
L 243.348388 99.828101 
L 243.393537 174.61443 
L 243.453735 166.685113 
L 243.468785 103.141836 
L 243.559083 186.196704 
L 243.589182 198.930428 
L 243.66443 80.309059 
L 243.67948 179.820573 
L 243.694529 163.268734 
L 259.872877 177.465561 
L 259.887927 117.028668 
L 259.993274 136.597332 
L 260.008324 165.853858 
L 260.053473 123.355282 
L 260.113671 157.804048 
L 260.14377 120.802017 
L 260.203969 173.787431 
L 260.219019 136.962496 
L 260.249118 119.295067 
L 260.324366 177.025413 
L 260.429713 72.27279 
L 260.459813 190.050835 
L 260.535061 127.183062 
L 260.55011 129.496007 
L 260.56516 156.528732 
L 260.58021 81.435742 
L 260.640408 140.719802 
L 260.655458 69.211355 
L 260.670507 162.359222 
L 260.745756 132.570248 
L 260.790904 107.036932 
L 260.851103 148.064182 
L 260.866153 108.851977 
L 260.911301 157.487238 
L 260.941401 123.129299 
L 260.95645 167.123633 
L 261.031698 117.788131 
L 264.20717 108.232116 
L 264.312517 187.549412 
L 264.342616 163.081812 
L 264.387765 130.612376 
L 264.447964 148.565826 
L 264.493112 132.798961 
L 264.508162 166.111566 
L 264.538261 89.98868 
L 264.613509 169.270584 
L 264.628559 130.240725 
L 264.643609 99.689483 
L 264.748956 105.388021 
L 264.764006 132.337185 
L 264.794105 80.511453 
L 264.824204 112.701088 
L 264.839254 33.712283 
L 264.944601 60.800076 
L 265.049949 95.761569 
L 265.064998 85.670964 
L 265.095097 63.687017 
L 265.110147 140.45379 
L 265.140246 56.940937 
L 265.200445 103.335678 
L 265.215494 103.727114 
L 265.305792 93.97758 
L 265.335891 166.91308 
L 265.365991 87.77315 
L 268.541462 146.926035 
L 268.556511 158.045185 
L 268.571561 50.862931 
L 268.661859 115.36145 
L 268.676908 112.540735 
L 268.752157 163.013712 
L 268.767206 109.682416 
L 268.797305 37.058881 
L 268.857504 136.394311 
L 268.872554 62.248278 
L 268.962851 145.63871 
L 268.977901 32.201761 
L 269.068199 89.622395 
L 269.158496 159.361656 
L 269.188596 145.036651 
L 269.263844 170.810695 
L 269.293943 77.662344 
L 269.308993 154.256084 
L 269.384241 75.24175 
L 269.39929 92.490617 
L 269.474539 83.506454 
L 269.489588 127.141465 
L 269.609985 55.322674 
L 269.685233 95.109469 
L 269.655134 48.371876 
L 269.700283 92.995453 
L 272.875754 58.426812 
L 272.905853 106.939676 
L 272.920903 55.071998 
L 272.981101 89.126099 
L 272.996151 56.328384 
L 273.02625 137.077078 
L 273.086449 83.176833 
L 273.221895 180.046402 
L 273.267044 58.100355 
L 273.342293 160.181115 
L 273.402491 89.286426 
L 273.44764 137.233374 
L 273.522888 191.871192 
L 273.537938 129.684194 
L 273.552987 153.097467 
L 273.568037 63.132315 
L 273.643285 161.503425 
L 273.658335 106.106341 
L 273.673384 173.6118 
L 273.778732 157.790012 
L 273.869029 107.013576 
L 273.884079 164.074512 
L 274.034575 35.29156 
L 277.210046 69.807856 
L 277.225096 67.56162 
L 277.240146 47.955788 
L 277.270245 143.0548 
L 277.285295 72.430858 
L 277.315394 169.053606 
L 277.405692 113.237148 
L 277.435791 160.359365 
L 277.45084 61.710909 
L 277.526089 148.132338 
L 277.586287 55.29869 
L 277.631436 155.073989 
L 277.691634 106.965062 
L 277.721734 72.461682 
L 277.766883 118.899796 
L 277.796982 146.067385 
L 277.842131 140.877939 
L 277.85718 85.024528 
L 277.932428 148.614526 
L 277.947478 135.226747 
L 277.962528 135.67044 
L 278.052825 84.302611 
L 277.992627 167.177745 
L 278.067875 137.477469 
L 278.097974 130.875613 
L 278.113024 145.955402 
L 278.128074 69.758205 
L 278.158173 173.583709 
L 278.218371 141.574414 
L 278.293619 68.633868 
L 278.26352 179.578669 
L 278.308669 127.504342 
L 278.323719 188.582105 
L 278.353818 102.522663 
L 278.368868 145.031688 
L 290.212923 160.064543 
L 290.227973 95.618982 
L 290.273122 188.372727 
L 290.318271 124.104173 
L 290.378469 177.522162 
L 290.36342 110.474739 
L 290.438668 170.989733 
L 290.483817 128.732081 
L 290.498866 193.502306 
L 290.544015 111.262159 
L 290.589164 159.20005 
L 290.619263 120.20051 
L 290.649362 165.879049 
L 290.679462 130.018413 
L 290.694511 182.254154 
L 290.75471 94.000128 
L 290.784809 139.444825 
L 290.799859 92.139778 
L 290.845008 182.310673 
L 290.875107 110.941855 
L 290.995504 170.185069 
L 291.040653 189.212964 
L 291.13095 76.261461 
L 291.16105 183.030499 
L 291.206199 69.212194 
L 291.236298 149.109519 
L 291.281447 90.541166 
L 291.326596 153.959968 
L 291.341645 180.147801 
L 291.356695 110.940371 
L 291.371744 116.718912 
L 294.547216 190.414606 
L 294.592364 64.763875 
L 294.682662 88.264837 
L 294.727811 184.860256 
L 294.78801 64.084349 
L 294.863258 148.341274 
L 294.833158 48.345957 
L 294.908407 141.088908 
L 295.013754 81.537946 
L 295.058903 160.669327 
L 295.134151 120.09706 
L 295.149201 163.072901 
L 295.209399 95.295651 
L 295.239498 136.776861 
L 295.299697 59.942422 
L 295.344846 91.771901 
L 295.359895 155.432735 
L 295.465243 133.43824 
L 295.55554 147.365677 
L 295.57059 68.922536 
L 295.675937 159.361829 
L 295.690987 138.318771 
L 295.706037 129.600564 
L 298.881508 96.413511 
L 298.896557 60.984181 
L 298.926657 148.626183 
L 298.956756 140.641694 
L 298.986855 162.545154 
L 299.016954 138.496808 
L 299.032004 106.79088 
L 299.062103 151.867656 
L 299.122302 126.912249 
L 299.137351 120.665173 
L 299.152401 146.274385 
L 299.167451 58.963029 
L 299.257748 127.895361 
L 299.272798 179.705324 
L 299.348046 65.35485 
L 299.363096 53.798318 
L 299.378145 98.161675 
L 299.393195 167.746382 
L 299.468443 32.201761 
L 299.483493 97.655381 
L 299.498543 55.717627 
L 299.528642 155.171862 
L 299.58884 109.169447 
L 299.61894 126.776439 
L 299.679138 115.925258 
L 299.694188 35.221105 
L 299.784485 94.953851 
L 299.799535 99.424385 
L 299.829634 33.992485 
L 299.844684 146.102227 
L 299.904882 109.873975 
L 300.01023 159.336464 
L 299.950031 107.049166 
L 300.025279 151.697597 
L 300.040329 112.743585 
L 303.2158 76.431263 
L 303.245899 183.998945 
L 303.321148 68.801215 
L 303.336197 133.02972 
L 303.351247 38.733301 
L 303.456594 45.58643 
L 303.576991 155.867963 
L 303.592041 165.220771 
L 303.60709 120.967877 
L 303.62214 143.848887 
L 303.742537 70.656763 
L 303.772636 46.158668 
L 303.862934 179.667901 
L 303.953232 39.377425 
L 303.983331 97.005704 
L 304.02848 137.80016 
L 304.04353 67.749585 
L 304.133827 111.668263 
L 304.148877 122.843979 
L 304.163927 51.158748 
L 304.194026 156.404568 
L 304.254224 136.061824 
L 304.269274 101.823929 
L 304.314423 153.92376 
L 304.374621 102.674753 
L 307.550092 149.729835 
L 307.595241 107.145216 
L 307.610291 169.237732 
L 307.65544 153.508613 
L 307.715638 70.514764 
L 307.730688 174.861043 
L 307.745738 175.585585 
L 307.760787 172.67268 
L 307.851085 184.87561 
L 307.926333 70.543381 
L 308.001581 179.315923 
L 308.03168 146.33139 
L 308.091879 42.7829 
L 308.137028 117.308271 
L 308.182177 62.816065 
L 308.257425 178.410274 
L 308.332673 53.569257 
L 308.362772 117.510603 
L 308.377822 143.67698 
L 308.407921 38.726085 
L 308.46812 113.569704 
L 308.483169 112.126358 
L 308.498219 121.167687 
L 308.573467 32.201761 
L 308.588517 176.433396 
L 308.603566 126.956073 
L 308.633665 93.551089 
L 308.678814 113.379187 
L 308.693864 151.887093 
L 308.708914 120.745928 
L 320.552969 157.07956 
L 320.568019 73.867868 
L 320.658317 141.615126 
L 320.673366 153.061406 
L 320.688416 131.059836 
L 320.718515 143.962235 
L 320.733565 108.147682 
L 320.748614 160.482763 
L 320.823863 148.299391 
L 320.899111 185.68454 
L 320.869011 137.177887 
L 320.91416 156.315188 
L 320.974359 56.927926 
L 320.989408 163.847061 
L 321.019508 124.731824 
L 321.079706 136.943933 
L 321.109805 107.263224 
L 321.124855 139.913944 
L 321.154954 57.752298 
L 321.200103 121.878504 
L 321.275351 67.381064 
L 321.230202 145.153928 
L 321.305451 76.559788 
L 321.350599 187.088535 
L 321.455947 181.284574 
L 321.470996 93.68264 
L 321.531195 186.325012 
L 321.576344 117.803527 
L 321.591393 112.195997 
L 321.606443 54.277313 
L 321.651592 115.845112 
L 321.696741 65.103516 
L 321.71179 79.749118 
L 329.221554 229.874489 
L 333.555846 32.201761 
L 364.558076 32.201761 
L 364.573125 229.874489 
L 364.663423 114.275107 
L 364.753721 157.490393 
L 364.78382 62.671192 
L 364.79887 162.376851 
L 364.904217 151.343982 
L 365.009565 49.981494 
L 365.054713 78.492782 
L 368.230184 154.522813 
L 368.350581 79.236233 
L 368.365631 118.767222 
L 368.380681 176.605538 
L 368.440879 113.978042 
L 368.470978 129.499448 
L 368.501078 66.906012 
L 368.531177 154.401609 
L 368.591376 71.706831 
L 368.651574 180.516235 
L 368.681673 134.798354 
L 368.696723 43.664211 
L 368.711773 166.233439 
L 368.80207 53.203541 
L 368.81712 180.02336 
L 368.907418 106.920418 
L 368.922467 90.219082 
L 368.937517 175.005421 
L 368.982666 141.032743 
L 368.997715 140.141592 
L 369.012765 181.337956 
L 369.042864 111.394095 
L 369.072964 144.630329 
L 369.103063 47.949873 
L 369.163261 162.556798 
L 369.178311 93.74303 
L 369.238509 148.378349 
L 369.268609 81.978291 
L 369.298708 128.320223 
L 369.328807 150.172138 
L 369.358906 122.052872 
L 369.389006 137.825014 
" clip-path="url(#p3e7ce30cf1)" style="fill: none; stroke: #4c72b0; stroke-width: 1.5; stroke-linecap: round"/>
   </g>
   <g id="patch_3">
    <path d="M 49.807187 239.758125 
L 49.807187 22.318125 
" style="fill: none; stroke: #ffffff; stroke-width: 1.25; stroke-linejoin: miter; stroke-linecap: square"/>
   </g>
   <g id="patch_4">
    <path d="M 384.607188 239.758125 
L 384.607188 22.318125 
" style="fill: none; stroke: #ffffff; stroke-width: 1.25; stroke-linejoin: miter; stroke-linecap: square"/>
   </g>
   <g id="patch_5">
    <path d="M 49.807188 239.758125 
L 384.607187 239.758125 
" style="fill: none; stroke: #ffffff; stroke-width: 1.25; stroke-linejoin: miter; stroke-linecap: square"/>
   </g>
   <g id="patch_6">
    <path d="M 49.807188 22.318125 
L 384.607187 22.318125 
" style="fill: none; stroke: #ffffff; stroke-width: 1.25; stroke-linejoin: miter; stroke-linecap: square"/>
   </g>
   <g id="text_14">
    <!-- ARI measure with respect to time -->
    <g style="fill: #262626" transform="translate(116.85625 16.318125)scale(0.12 -0.12)">
     <defs>
      <path id="DejaVuSans-20" transform="scale(0.015625)"/>
      <path id="DejaVuSans-73" d="M 2834 3397 
L 2834 2853 
Q 2591 2978 2328 3040 
Q 2066 3103 1784 3103 
Q 1356 3103 1142 2972 
Q 928 2841 928 2578 
Q 928 2378 1081 2264 
Q 1234 2150 1697 2047 
L 1894 2003 
Q 2506 1872 2764 1633 
Q 3022 1394 3022 966 
Q 3022 478 2636 193 
Q 2250 -91 1575 -91 
Q 1294 -91 989 -36 
Q 684 19 347 128 
L 347 722 
Q 666 556 975 473 
Q 1284 391 1588 391 
Q 1994 391 2212 530 
Q 2431 669 2431 922 
Q 2431 1156 2273 1281 
Q 2116 1406 1581 1522 
L 1381 1569 
Q 847 1681 609 1914 
Q 372 2147 372 2553 
Q 372 3047 722 3315 
Q 1072 3584 1716 3584 
Q 2034 3584 2315 3537 
Q 2597 3491 2834 3397 
z
" transform="scale(0.015625)"/>
      <path id="DejaVuSans-75" d="M 544 1381 
L 544 3500 
L 1119 3500 
L 1119 1403 
Q 1119 906 1312 657 
Q 1506 409 1894 409 
Q 2359 409 2629 706 
Q 2900 1003 2900 1516 
L 2900 3500 
L 3475 3500 
L 3475 0 
L 2900 0 
L 2900 538 
Q 2691 219 2414 64 
Q 2138 -91 1772 -91 
Q 1169 -91 856 284 
Q 544 659 544 1381 
z
M 1991 3584 
L 1991 3584 
z
" transform="scale(0.015625)"/>
      <path id="DejaVuSans-72" d="M 2631 2963 
Q 2534 3019 2420 3045 
Q 2306 3072 2169 3072 
Q 1681 3072 1420 2755 
Q 1159 2438 1159 1844 
L 1159 0 
L 581 0 
L 581 3500 
L 1159 3500 
L 1159 2956 
Q 1341 3275 1631 3429 
Q 1922 3584 2338 3584 
Q 2397 3584 2469 3576 
Q 2541 3569 2628 3553 
L 2631 2963 
z
" transform="scale(0.015625)"/>
      <path id="DejaVuSans-77" d="M 269 3500 
L 844 3500 
L 1563 769 
L 2278 3500 
L 2956 3500 
L 3675 769 
L 4391 3500 
L 4966 3500 
L 4050 0 
L 3372 0 
L 2619 2869 
L 1863 0 
L 1184 0 
L 269 3500 
z
" transform="scale(0.015625)"/>
      <path id="DejaVuSans-68" d="M 3513 2113 
L 3513 0 
L 2938 0 
L 2938 2094 
Q 2938 2591 2744 2837 
Q 2550 3084 2163 3084 
Q 1697 3084 1428 2787 
Q 1159 2491 1159 1978 
L 1159 0 
L 581 0 
L 581 4863 
L 1159 4863 
L 1159 2956 
Q 1366 3272 1645 3428 
Q 1925 3584 2291 3584 
Q 2894 3584 3203 3211 
Q 3513 2838 3513 2113 
z
" transform="scale(0.015625)"/>
      <path id="DejaVuSans-70" d="M 1159 525 
L 1159 -1331 
L 581 -1331 
L 581 3500 
L 1159 3500 
L 1159 2969 
Q 1341 3281 1617 3432 
Q 1894 3584 2278 3584 
Q 2916 3584 3314 3078 
Q 3713 2572 3713 1747 
Q 3713 922 3314 415 
Q 2916 -91 2278 -91 
Q 1894 -91 1617 61 
Q 1341 213 1159 525 
z
M 3116 1747 
Q 3116 2381 2855 2742 
Q 2594 3103 2138 3103 
Q 1681 3103 1420 2742 
Q 1159 2381 1159 1747 
Q 1159 1113 1420 752 
Q 1681 391 2138 391 
Q 2594 391 2855 752 
Q 3116 1113 3116 1747 
z
" transform="scale(0.015625)"/>
      <path id="DejaVuSans-63" d="M 3122 3366 
L 3122 2828 
Q 2878 2963 2633 3030 
Q 2388 3097 2138 3097 
Q 1578 3097 1268 2742 
Q 959 2388 959 1747 
Q 959 1106 1268 751 
Q 1578 397 2138 397 
Q 2388 397 2633 464 
Q 2878 531 3122 666 
L 3122 134 
Q 2881 22 2623 -34 
Q 2366 -91 2075 -91 
Q 1284 -91 818 406 
Q 353 903 353 1747 
Q 353 2603 823 3093 
Q 1294 3584 2113 3584 
Q 2378 3584 2631 3529 
Q 2884 3475 3122 3366 
z
" transform="scale(0.015625)"/>
      <path id="DejaVuSans-6f" d="M 1959 3097 
Q 1497 3097 1228 2736 
Q 959 2375 959 1747 
Q 959 1119 1226 758 
Q 1494 397 1959 397 
Q 2419 397 2687 759 
Q 2956 1122 2956 1747 
Q 2956 2369 2687 2733 
Q 2419 3097 1959 3097 
z
M 1959 3584 
Q 2709 3584 3137 3096 
Q 3566 2609 3566 1747 
Q 3566 888 3137 398 
Q 2709 -91 1959 -91 
Q 1206 -91 779 398 
Q 353 888 353 1747 
Q 353 2609 779 3096 
Q 1206 3584 1959 3584 
z
" transform="scale(0.015625)"/>
     </defs>
     <use xlink:href="#DejaVuSans-41"/>
     <use xlink:href="#DejaVuSans-52" x="68.408203"/>
     <use xlink:href="#DejaVuSans-49" x="137.890625"/>
     <use xlink:href="#DejaVuSans-20" x="167.382812"/>
     <use xlink:href="#DejaVuSans-6d" x="199.169922"/>
     <use xlink:href="#DejaVuSans-65" x="296.582031"/>
     <use xlink:href="#DejaVuSans-61" x="358.105469"/>
     <use xlink:href="#DejaVuSans-73" x="419.384766"/>
     <use xlink:href="#DejaVuSans-75" x="471.484375"/>
     <use xlink:href="#DejaVuSans-72" x="534.863281"/>
     <use xlink:href="#DejaVuSans-65" x="573.726562"/>
     <use xlink:href="#DejaVuSans-20" x="635.25"/>
     <use xlink:href="#DejaVuSans-77" x="667.037109"/>
     <use xlink:href="#DejaVuSans-69" x="748.824219"/>
     <use xlink:href="#DejaVuSans-74" x="776.607422"/>
     <use xlink:href="#DejaVuSans-68" x="815.816406"/>
     <use xlink:href="#DejaVuSans-20" x="879.195312"/>
     <use xlink:href="#DejaVuSans-72" x="910.982422"/>
     <use xlink:href="#DejaVuSans-65" x="949.845703"/>
     <use xlink:href="#DejaVuSans-73" x="1011.369141"/>
     <use xlink:href="#DejaVuSans-70" x="1063.46875"/>
     <use xlink:href="#DejaVuSans-65" x="1126.945312"/>
     <use xlink:href="#DejaVuSans-63" x="1188.46875"/>
     <use xlink:href="#DejaVuSans-74" x="1243.449219"/>
     <use xlink:href="#DejaVuSans-20" x="1282.658203"/>
     <use xlink:href="#DejaVuSans-74" x="1314.445312"/>
     <use xlink:href="#DejaVuSans-6f" x="1353.654297"/>
     <use xlink:href="#DejaVuSans-20" x="1414.835938"/>
     <use xlink:href="#DejaVuSans-74" x="1446.623047"/>
     <use xlink:href="#DejaVuSans-69" x="1485.832031"/>
     <use xlink:href="#DejaVuSans-6d" x="1513.615234"/>
     <use xlink:href="#DejaVuSans-65" x="1611.027344"/>
    </g>
   </g>
  </g>
 </g>
 <defs>
  <clipPath id="p3e7ce30cf1">
   <rect x="49.807187" y="22.318125" width="334.8" height="217.44"/>
  </clipPath>
 </defs>
</svg>
