<?xml version="1.0" encoding="utf-8" standalone="no"?>
<!DOCTYPE svg PUBLIC "-//W3C//DTD SVG 1.1//EN"
  "http://www.w3.org/Graphics/SVG/1.1/DTD/svg11.dtd">
<svg xmlns:xlink="http://www.w3.org/1999/xlink" width="391.807188pt" height="312.099091pt" viewBox="0 0 391.807188 312.099091" xmlns="http://www.w3.org/2000/svg" version="1.1">
 <metadata>
  <rdf:RDF xmlns:dc="http://purl.org/dc/elements/1.1/" xmlns:cc="http://creativecommons.org/ns#" xmlns:rdf="http://www.w3.org/1999/02/22-rdf-syntax-ns#">
   <cc:Work>
    <dc:type rdf:resource="http://purl.org/dc/dcmitype/StillImage"/>
    <dc:date>2022-01-30T23:42:11.623270</dc:date>
    <dc:format>image/svg+xml</dc:format>
    <dc:creator>
     <cc:Agent>
      <dc:title>Matplotlib v3.5.0, https://matplotlib.org/</dc:title>
     </cc:Agent>
    </dc:creator>
   </cc:Work>
  </rdf:RDF>
 </metadata>
 <defs>
  <style type="text/css">*{stroke-linejoin: round; stroke-linecap: butt}</style>
 </defs>
 <g id="figure_1">
  <g id="patch_1">
   <path d="M 0 312.099091 
L 391.807188 312.099091 
L 391.807188 0 
L 0 0 
z
" style="fill: #ffffff"/>
  </g>
  <g id="axes_1">
   <g id="patch_2">
    <path d="M 49.807187 239.758125 
L 384.607188 239.758125 
L 384.607188 22.318125 
L 49.807187 22.318125 
z
" style="fill: #eaeaf2"/>
   </g>
   <g id="matplotlib.axis_1">
    <g id="xtick_1">
     <g id="line2d_1">
      <path d="M 77.077016 239.758125 
L 77.077016 22.318125 
" clip-path="url(#p7bd478f863)" style="fill: none; stroke: #ffffff; stroke-linecap: round"/>
     </g>
     <g id="text_1">
      <!-- 2020-04 -->
      <g style="fill: #262626" transform="translate(62.973606 287.667723)rotate(-45)scale(0.11 -0.11)">
       <defs>
        <path id="DejaVuSans-32" d="M 1228 531 
L 3431 531 
L 3431 0 
L 469 0 
L 469 531 
Q 828 903 1448 1529 
Q 2069 2156 2228 2338 
Q 2531 2678 2651 2914 
Q 2772 3150 2772 3378 
Q 2772 3750 2511 3984 
Q 2250 4219 1831 4219 
Q 1534 4219 1204 4116 
Q 875 4013 500 3803 
L 500 4441 
Q 881 4594 1212 4672 
Q 1544 4750 1819 4750 
Q 2544 4750 2975 4387 
Q 3406 4025 3406 3419 
Q 3406 3131 3298 2873 
Q 3191 2616 2906 2266 
Q 2828 2175 2409 1742 
Q 1991 1309 1228 531 
z
" transform="scale(0.015625)"/>
        <path id="DejaVuSans-30" d="M 2034 4250 
Q 1547 4250 1301 3770 
Q 1056 3291 1056 2328 
Q 1056 1369 1301 889 
Q 1547 409 2034 409 
Q 2525 409 2770 889 
Q 3016 1369 3016 2328 
Q 3016 3291 2770 3770 
Q 2525 4250 2034 4250 
z
M 2034 4750 
Q 2819 4750 3233 4129 
Q 3647 3509 3647 2328 
Q 3647 1150 3233 529 
Q 2819 -91 2034 -91 
Q 1250 -91 836 529 
Q 422 1150 422 2328 
Q 422 3509 836 4129 
Q 1250 4750 2034 4750 
z
" transform="scale(0.015625)"/>
        <path id="DejaVuSans-2d" d="M 313 2009 
L 1997 2009 
L 1997 1497 
L 313 1497 
L 313 2009 
z
" transform="scale(0.015625)"/>
        <path id="DejaVuSans-34" d="M 2419 4116 
L 825 1625 
L 2419 1625 
L 2419 4116 
z
M 2253 4666 
L 3047 4666 
L 3047 1625 
L 3713 1625 
L 3713 1100 
L 3047 1100 
L 3047 0 
L 2419 0 
L 2419 1100 
L 313 1100 
L 313 1709 
L 2253 4666 
z
" transform="scale(0.015625)"/>
       </defs>
       <use xlink:href="#DejaVuSans-32"/>
       <use xlink:href="#DejaVuSans-30" x="63.623047"/>
       <use xlink:href="#DejaVuSans-32" x="127.246094"/>
       <use xlink:href="#DejaVuSans-30" x="190.869141"/>
       <use xlink:href="#DejaVuSans-2d" x="254.492188"/>
       <use xlink:href="#DejaVuSans-30" x="290.576172"/>
       <use xlink:href="#DejaVuSans-34" x="354.199219"/>
      </g>
     </g>
    </g>
    <g id="xtick_2">
     <g id="line2d_2">
      <path d="M 116.987245 239.758125 
L 116.987245 22.318125 
" clip-path="url(#p7bd478f863)" style="fill: none; stroke: #ffffff; stroke-linecap: round"/>
     </g>
     <g id="text_2">
      <!-- 2020-07 -->
      <g style="fill: #262626" transform="translate(102.883835 287.667723)rotate(-45)scale(0.11 -0.11)">
       <defs>
        <path id="DejaVuSans-37" d="M 525 4666 
L 3525 4666 
L 3525 4397 
L 1831 0 
L 1172 0 
L 2766 4134 
L 525 4134 
L 525 4666 
z
" transform="scale(0.015625)"/>
       </defs>
       <use xlink:href="#DejaVuSans-32"/>
       <use xlink:href="#DejaVuSans-30" x="63.623047"/>
       <use xlink:href="#DejaVuSans-32" x="127.246094"/>
       <use xlink:href="#DejaVuSans-30" x="190.869141"/>
       <use xlink:href="#DejaVuSans-2d" x="254.492188"/>
       <use xlink:href="#DejaVuSans-30" x="290.576172"/>
       <use xlink:href="#DejaVuSans-37" x="354.199219"/>
      </g>
     </g>
    </g>
    <g id="xtick_3">
     <g id="line2d_3">
      <path d="M 157.336049 239.758125 
L 157.336049 22.318125 
" clip-path="url(#p7bd478f863)" style="fill: none; stroke: #ffffff; stroke-linecap: round"/>
     </g>
     <g id="text_3">
      <!-- 2020-10 -->
      <g style="fill: #262626" transform="translate(143.232638 287.667723)rotate(-45)scale(0.11 -0.11)">
       <defs>
        <path id="DejaVuSans-31" d="M 794 531 
L 1825 531 
L 1825 4091 
L 703 3866 
L 703 4441 
L 1819 4666 
L 2450 4666 
L 2450 531 
L 3481 531 
L 3481 0 
L 794 0 
L 794 531 
z
" transform="scale(0.015625)"/>
       </defs>
       <use xlink:href="#DejaVuSans-32"/>
       <use xlink:href="#DejaVuSans-30" x="63.623047"/>
       <use xlink:href="#DejaVuSans-32" x="127.246094"/>
       <use xlink:href="#DejaVuSans-30" x="190.869141"/>
       <use xlink:href="#DejaVuSans-2d" x="254.492188"/>
       <use xlink:href="#DejaVuSans-31" x="290.576172"/>
       <use xlink:href="#DejaVuSans-30" x="354.199219"/>
      </g>
     </g>
    </g>
    <g id="xtick_4">
     <g id="line2d_4">
      <path d="M 197.703126 239.758125 
L 197.703126 22.318125 
" clip-path="url(#p7bd478f863)" style="fill: none; stroke: #ffffff; stroke-linecap: round"/>
     </g>
     <g id="text_4">
      <!-- 2021-01 -->
      <g style="fill: #262626" transform="translate(183.599716 287.667723)rotate(-45)scale(0.11 -0.11)">
       <use xlink:href="#DejaVuSans-32"/>
       <use xlink:href="#DejaVuSans-30" x="63.623047"/>
       <use xlink:href="#DejaVuSans-32" x="127.246094"/>
       <use xlink:href="#DejaVuSans-31" x="190.869141"/>
       <use xlink:href="#DejaVuSans-2d" x="254.492188"/>
       <use xlink:href="#DejaVuSans-30" x="290.576172"/>
       <use xlink:href="#DejaVuSans-31" x="354.199219"/>
      </g>
     </g>
    </g>
    <g id="xtick_5">
     <g id="line2d_5">
      <path d="M 237.156508 239.758125 
L 237.156508 22.318125 
" clip-path="url(#p7bd478f863)" style="fill: none; stroke: #ffffff; stroke-linecap: round"/>
     </g>
     <g id="text_5">
      <!-- 2021-04 -->
      <g style="fill: #262626" transform="translate(223.053097 287.667723)rotate(-45)scale(0.11 -0.11)">
       <use xlink:href="#DejaVuSans-32"/>
       <use xlink:href="#DejaVuSans-30" x="63.623047"/>
       <use xlink:href="#DejaVuSans-32" x="127.246094"/>
       <use xlink:href="#DejaVuSans-31" x="190.869141"/>
       <use xlink:href="#DejaVuSans-2d" x="254.492188"/>
       <use xlink:href="#DejaVuSans-30" x="290.576172"/>
       <use xlink:href="#DejaVuSans-34" x="354.199219"/>
      </g>
     </g>
    </g>
    <g id="xtick_6">
     <g id="line2d_6">
      <path d="M 277.066737 239.758125 
L 277.066737 22.318125 
" clip-path="url(#p7bd478f863)" style="fill: none; stroke: #ffffff; stroke-linecap: round"/>
     </g>
     <g id="text_6">
      <!-- 2021-07 -->
      <g style="fill: #262626" transform="translate(262.963327 287.667723)rotate(-45)scale(0.11 -0.11)">
       <use xlink:href="#DejaVuSans-32"/>
       <use xlink:href="#DejaVuSans-30" x="63.623047"/>
       <use xlink:href="#DejaVuSans-32" x="127.246094"/>
       <use xlink:href="#DejaVuSans-31" x="190.869141"/>
       <use xlink:href="#DejaVuSans-2d" x="254.492188"/>
       <use xlink:href="#DejaVuSans-30" x="290.576172"/>
       <use xlink:href="#DejaVuSans-37" x="354.199219"/>
      </g>
     </g>
    </g>
    <g id="xtick_7">
     <g id="line2d_7">
      <path d="M 317.415541 239.758125 
L 317.415541 22.318125 
" clip-path="url(#p7bd478f863)" style="fill: none; stroke: #ffffff; stroke-linecap: round"/>
     </g>
     <g id="text_7">
      <!-- 2021-10 -->
      <g style="fill: #262626" transform="translate(303.31213 287.667723)rotate(-45)scale(0.11 -0.11)">
       <use xlink:href="#DejaVuSans-32"/>
       <use xlink:href="#DejaVuSans-30" x="63.623047"/>
       <use xlink:href="#DejaVuSans-32" x="127.246094"/>
       <use xlink:href="#DejaVuSans-31" x="190.869141"/>
       <use xlink:href="#DejaVuSans-2d" x="254.492188"/>
       <use xlink:href="#DejaVuSans-31" x="290.576172"/>
       <use xlink:href="#DejaVuSans-30" x="354.199219"/>
      </g>
     </g>
    </g>
    <g id="xtick_8">
     <g id="line2d_8">
      <path d="M 357.782618 239.758125 
L 357.782618 22.318125 
" clip-path="url(#p7bd478f863)" style="fill: none; stroke: #ffffff; stroke-linecap: round"/>
     </g>
     <g id="text_8">
      <!-- 2022-01 -->
      <g style="fill: #262626" transform="translate(343.679208 287.667723)rotate(-45)scale(0.11 -0.11)">
       <use xlink:href="#DejaVuSans-32"/>
       <use xlink:href="#DejaVuSans-30" x="63.623047"/>
       <use xlink:href="#DejaVuSans-32" x="127.246094"/>
       <use xlink:href="#DejaVuSans-32" x="190.869141"/>
       <use xlink:href="#DejaVuSans-2d" x="254.492188"/>
       <use xlink:href="#DejaVuSans-30" x="290.576172"/>
       <use xlink:href="#DejaVuSans-31" x="354.199219"/>
      </g>
     </g>
    </g>
    <g id="text_9">
     <!-- Datetime -->
     <g style="fill: #262626" transform="translate(189.310937 302.403466)scale(0.12 -0.12)">
      <defs>
       <path id="DejaVuSans-44" d="M 1259 4147 
L 1259 519 
L 2022 519 
Q 2988 519 3436 956 
Q 3884 1394 3884 2338 
Q 3884 3275 3436 3711 
Q 2988 4147 2022 4147 
L 1259 4147 
z
M 628 4666 
L 1925 4666 
Q 3281 4666 3915 4102 
Q 4550 3538 4550 2338 
Q 4550 1131 3912 565 
Q 3275 0 1925 0 
L 628 0 
L 628 4666 
z
" transform="scale(0.015625)"/>
       <path id="DejaVuSans-61" d="M 2194 1759 
Q 1497 1759 1228 1600 
Q 959 1441 959 1056 
Q 959 750 1161 570 
Q 1363 391 1709 391 
Q 2188 391 2477 730 
Q 2766 1069 2766 1631 
L 2766 1759 
L 2194 1759 
z
M 3341 1997 
L 3341 0 
L 2766 0 
L 2766 531 
Q 2569 213 2275 61 
Q 1981 -91 1556 -91 
Q 1019 -91 701 211 
Q 384 513 384 1019 
Q 384 1609 779 1909 
Q 1175 2209 1959 2209 
L 2766 2209 
L 2766 2266 
Q 2766 2663 2505 2880 
Q 2244 3097 1772 3097 
Q 1472 3097 1187 3025 
Q 903 2953 641 2809 
L 641 3341 
Q 956 3463 1253 3523 
Q 1550 3584 1831 3584 
Q 2591 3584 2966 3190 
Q 3341 2797 3341 1997 
z
" transform="scale(0.015625)"/>
       <path id="DejaVuSans-74" d="M 1172 4494 
L 1172 3500 
L 2356 3500 
L 2356 3053 
L 1172 3053 
L 1172 1153 
Q 1172 725 1289 603 
Q 1406 481 1766 481 
L 2356 481 
L 2356 0 
L 1766 0 
Q 1100 0 847 248 
Q 594 497 594 1153 
L 594 3053 
L 172 3053 
L 172 3500 
L 594 3500 
L 594 4494 
L 1172 4494 
z
" transform="scale(0.015625)"/>
       <path id="DejaVuSans-65" d="M 3597 1894 
L 3597 1613 
L 953 1613 
Q 991 1019 1311 708 
Q 1631 397 2203 397 
Q 2534 397 2845 478 
Q 3156 559 3463 722 
L 3463 178 
Q 3153 47 2828 -22 
Q 2503 -91 2169 -91 
Q 1331 -91 842 396 
Q 353 884 353 1716 
Q 353 2575 817 3079 
Q 1281 3584 2069 3584 
Q 2775 3584 3186 3129 
Q 3597 2675 3597 1894 
z
M 3022 2063 
Q 3016 2534 2758 2815 
Q 2500 3097 2075 3097 
Q 1594 3097 1305 2825 
Q 1016 2553 972 2059 
L 3022 2063 
z
" transform="scale(0.015625)"/>
       <path id="DejaVuSans-69" d="M 603 3500 
L 1178 3500 
L 1178 0 
L 603 0 
L 603 3500 
z
M 603 4863 
L 1178 4863 
L 1178 4134 
L 603 4134 
L 603 4863 
z
" transform="scale(0.015625)"/>
       <path id="DejaVuSans-6d" d="M 3328 2828 
Q 3544 3216 3844 3400 
Q 4144 3584 4550 3584 
Q 5097 3584 5394 3201 
Q 5691 2819 5691 2113 
L 5691 0 
L 5113 0 
L 5113 2094 
Q 5113 2597 4934 2840 
Q 4756 3084 4391 3084 
Q 3944 3084 3684 2787 
Q 3425 2491 3425 1978 
L 3425 0 
L 2847 0 
L 2847 2094 
Q 2847 2600 2669 2842 
Q 2491 3084 2119 3084 
Q 1678 3084 1418 2786 
Q 1159 2488 1159 1978 
L 1159 0 
L 581 0 
L 581 3500 
L 1159 3500 
L 1159 2956 
Q 1356 3278 1631 3431 
Q 1906 3584 2284 3584 
Q 2666 3584 2933 3390 
Q 3200 3197 3328 2828 
z
" transform="scale(0.015625)"/>
      </defs>
      <use xlink:href="#DejaVuSans-44"/>
      <use xlink:href="#DejaVuSans-61" x="77.001953"/>
      <use xlink:href="#DejaVuSans-74" x="138.28125"/>
      <use xlink:href="#DejaVuSans-65" x="177.490234"/>
      <use xlink:href="#DejaVuSans-74" x="239.013672"/>
      <use xlink:href="#DejaVuSans-69" x="278.222656"/>
      <use xlink:href="#DejaVuSans-6d" x="306.005859"/>
      <use xlink:href="#DejaVuSans-65" x="403.417969"/>
     </g>
    </g>
   </g>
   <g id="matplotlib.axis_2">
    <g id="ytick_1">
     <g id="line2d_9">
      <path d="M 49.807187 216.575572 
L 384.607188 216.575572 
" clip-path="url(#p7bd478f863)" style="fill: none; stroke: #ffffff; stroke-linecap: round"/>
     </g>
     <g id="text_10">
      <!-- 0.2 -->
      <g style="fill: #262626" transform="translate(22.81375 220.754712)scale(0.11 -0.11)">
       <defs>
        <path id="DejaVuSans-2e" d="M 684 794 
L 1344 794 
L 1344 0 
L 684 0 
L 684 794 
z
" transform="scale(0.015625)"/>
       </defs>
       <use xlink:href="#DejaVuSans-30"/>
       <use xlink:href="#DejaVuSans-2e" x="63.623047"/>
       <use xlink:href="#DejaVuSans-32" x="95.410156"/>
      </g>
     </g>
    </g>
    <g id="ytick_2">
     <g id="line2d_10">
      <path d="M 49.807187 170.482119 
L 384.607188 170.482119 
" clip-path="url(#p7bd478f863)" style="fill: none; stroke: #ffffff; stroke-linecap: round"/>
     </g>
     <g id="text_11">
      <!-- 0.4 -->
      <g style="fill: #262626" transform="translate(22.81375 174.66126)scale(0.11 -0.11)">
       <use xlink:href="#DejaVuSans-30"/>
       <use xlink:href="#DejaVuSans-2e" x="63.623047"/>
       <use xlink:href="#DejaVuSans-34" x="95.410156"/>
      </g>
     </g>
    </g>
    <g id="ytick_3">
     <g id="line2d_11">
      <path d="M 49.807187 124.388666 
L 384.607188 124.388666 
" clip-path="url(#p7bd478f863)" style="fill: none; stroke: #ffffff; stroke-linecap: round"/>
     </g>
     <g id="text_12">
      <!-- 0.6 -->
      <g style="fill: #262626" transform="translate(22.81375 128.567807)scale(0.11 -0.11)">
       <defs>
        <path id="DejaVuSans-36" d="M 2113 2584 
Q 1688 2584 1439 2293 
Q 1191 2003 1191 1497 
Q 1191 994 1439 701 
Q 1688 409 2113 409 
Q 2538 409 2786 701 
Q 3034 994 3034 1497 
Q 3034 2003 2786 2293 
Q 2538 2584 2113 2584 
z
M 3366 4563 
L 3366 3988 
Q 3128 4100 2886 4159 
Q 2644 4219 2406 4219 
Q 1781 4219 1451 3797 
Q 1122 3375 1075 2522 
Q 1259 2794 1537 2939 
Q 1816 3084 2150 3084 
Q 2853 3084 3261 2657 
Q 3669 2231 3669 1497 
Q 3669 778 3244 343 
Q 2819 -91 2113 -91 
Q 1303 -91 875 529 
Q 447 1150 447 2328 
Q 447 3434 972 4092 
Q 1497 4750 2381 4750 
Q 2619 4750 2861 4703 
Q 3103 4656 3366 4563 
z
" transform="scale(0.015625)"/>
       </defs>
       <use xlink:href="#DejaVuSans-30"/>
       <use xlink:href="#DejaVuSans-2e" x="63.623047"/>
       <use xlink:href="#DejaVuSans-36" x="95.410156"/>
      </g>
     </g>
    </g>
    <g id="ytick_4">
     <g id="line2d_12">
      <path d="M 49.807187 78.295214 
L 384.607188 78.295214 
" clip-path="url(#p7bd478f863)" style="fill: none; stroke: #ffffff; stroke-linecap: round"/>
     </g>
     <g id="text_13">
      <!-- 0.8 -->
      <g style="fill: #262626" transform="translate(22.81375 82.474355)scale(0.11 -0.11)">
       <defs>
        <path id="DejaVuSans-38" d="M 2034 2216 
Q 1584 2216 1326 1975 
Q 1069 1734 1069 1313 
Q 1069 891 1326 650 
Q 1584 409 2034 409 
Q 2484 409 2743 651 
Q 3003 894 3003 1313 
Q 3003 1734 2745 1975 
Q 2488 2216 2034 2216 
z
M 1403 2484 
Q 997 2584 770 2862 
Q 544 3141 544 3541 
Q 544 4100 942 4425 
Q 1341 4750 2034 4750 
Q 2731 4750 3128 4425 
Q 3525 4100 3525 3541 
Q 3525 3141 3298 2862 
Q 3072 2584 2669 2484 
Q 3125 2378 3379 2068 
Q 3634 1759 3634 1313 
Q 3634 634 3220 271 
Q 2806 -91 2034 -91 
Q 1263 -91 848 271 
Q 434 634 434 1313 
Q 434 1759 690 2068 
Q 947 2378 1403 2484 
z
M 1172 3481 
Q 1172 3119 1398 2916 
Q 1625 2713 2034 2713 
Q 2441 2713 2670 2916 
Q 2900 3119 2900 3481 
Q 2900 3844 2670 4047 
Q 2441 4250 2034 4250 
Q 1625 4250 1398 4047 
Q 1172 3844 1172 3481 
z
" transform="scale(0.015625)"/>
       </defs>
       <use xlink:href="#DejaVuSans-30"/>
       <use xlink:href="#DejaVuSans-2e" x="63.623047"/>
       <use xlink:href="#DejaVuSans-38" x="95.410156"/>
      </g>
     </g>
    </g>
    <g id="ytick_5">
     <g id="line2d_13">
      <path d="M 49.807187 32.201761 
L 384.607188 32.201761 
" clip-path="url(#p7bd478f863)" style="fill: none; stroke: #ffffff; stroke-linecap: round"/>
     </g>
     <g id="text_14">
      <!-- 1.0 -->
      <g style="fill: #262626" transform="translate(22.81375 36.380902)scale(0.11 -0.11)">
       <use xlink:href="#DejaVuSans-31"/>
       <use xlink:href="#DejaVuSans-2e" x="63.623047"/>
       <use xlink:href="#DejaVuSans-30" x="95.410156"/>
      </g>
     </g>
    </g>
    <g id="text_15">
     <!-- ARI -->
     <g style="fill: #262626" transform="translate(16.318125 141.081562)rotate(-90)scale(0.12 -0.12)">
      <defs>
       <path id="DejaVuSans-41" d="M 2188 4044 
L 1331 1722 
L 3047 1722 
L 2188 4044 
z
M 1831 4666 
L 2547 4666 
L 4325 0 
L 3669 0 
L 3244 1197 
L 1141 1197 
L 716 0 
L 50 0 
L 1831 4666 
z
" transform="scale(0.015625)"/>
       <path id="DejaVuSans-52" d="M 2841 2188 
Q 3044 2119 3236 1894 
Q 3428 1669 3622 1275 
L 4263 0 
L 3584 0 
L 2988 1197 
Q 2756 1666 2539 1819 
Q 2322 1972 1947 1972 
L 1259 1972 
L 1259 0 
L 628 0 
L 628 4666 
L 2053 4666 
Q 2853 4666 3247 4331 
Q 3641 3997 3641 3322 
Q 3641 2881 3436 2590 
Q 3231 2300 2841 2188 
z
M 1259 4147 
L 1259 2491 
L 2053 2491 
Q 2509 2491 2742 2702 
Q 2975 2913 2975 3322 
Q 2975 3731 2742 3939 
Q 2509 4147 2053 4147 
L 1259 4147 
z
" transform="scale(0.015625)"/>
       <path id="DejaVuSans-49" d="M 628 4666 
L 1259 4666 
L 1259 0 
L 628 0 
L 628 4666 
z
" transform="scale(0.015625)"/>
      </defs>
      <use xlink:href="#DejaVuSans-41"/>
      <use xlink:href="#DejaVuSans-52" x="68.408203"/>
      <use xlink:href="#DejaVuSans-49" x="137.890625"/>
     </g>
    </g>
   </g>
   <g id="line2d_14">
    <path d="M 65.025369 32.201761 
L 65.043643 199.599766 
L 65.098465 187.054085 
L 65.427395 175.159529 
L 65.518765 86.388407 
L 65.537039 123.637661 
L 65.865969 140.061097 
L 65.902517 117.199054 
L 65.920791 143.056556 
L 65.939065 167.475201 
L 65.975613 134.201124 
L 67.163417 106.582623 
L 67.181691 115.39872 
L 67.199965 201.523577 
L 67.236513 101.268553 
L 67.273061 165.856419 
L 67.620265 186.952161 
L 67.656813 114.194102 
L 67.711635 180.676306 
L 68.040565 185.823665 
L 68.058839 125.748545 
L 68.131935 189.331643 
L 68.150209 155.031868 
L 68.479139 165.436052 
L 68.552235 135.520128 
L 68.570509 169.336192 
L 68.588783 144.104284 
L 68.917713 133.850716 
L 69.009083 200.774585 
L 69.027357 162.66268 
L 70.233435 162.74865 
L 70.251709 106.782123 
L 70.324805 221.464045 
L 70.343078 167.534477 
L 70.690283 197.32732 
L 70.763379 137.282438 
L 70.781652 148.962081 
L 71.110583 122.074422 
L 71.201952 199.819508 
L 71.220226 177.15507 
L 71.549157 192.498186 
L 71.585705 170.414826 
L 71.603979 177.201919 
L 71.622252 222.804329 
L 71.6588 204.920674 
L 71.987731 171.946649 
L 72.006005 122.6838 
L 72.042553 194.895757 
L 72.097374 135.29079 
L 73.303453 130.42577 
L 73.358274 191.937824 
L 73.394822 127.7654 
L 73.413096 75.508398 
L 73.742027 121.717759 
L 73.7603 149.567142 
L 73.85167 126.173863 
L 74.180601 118.961643 
L 74.253696 84.226955 
L 74.235422 145.007887 
L 74.27197 133.8823 
L 74.290244 140.14861 
L 74.619174 140.558254 
L 74.637448 77.17867 
L 74.710544 165.411283 
L 74.728818 183.773889 
L 75.076022 148.990602 
L 75.11257 94.477794 
L 75.130844 186.900156 
L 75.167392 147.836385 
L 76.37347 126.796221 
L 76.391744 130.040857 
L 76.446566 182.733985 
L 76.483114 159.901748 
L 76.812044 158.335716 
L 76.830318 193.838651 
L 76.866866 127.046597 
L 76.903414 177.207835 
L 76.921688 135.68695 
L 77.250618 77.339949 
L 77.287166 88.75812 
L 77.30544 43.085135 
L 77.323714 113.283646 
L 77.360262 98.11161 
L 77.689192 125.209209 
L 77.780562 160.275479 
L 77.744014 72.283917 
L 77.798836 147.060595 
L 78.127766 101.916142 
L 78.14604 80.358457 
L 78.182588 101.977656 
L 78.219136 167.442938 
L 78.23741 91.372468 
L 79.443488 127.856257 
L 79.534858 87.040511 
L 79.553131 93.579544 
L 79.882062 105.100709 
L 79.900336 41.966089 
L 79.991705 96.707441 
L 80.320636 121.797405 
L 80.357184 39.219919 
L 80.393731 138.329163 
L 80.430279 100.974794 
L 80.75921 94.689532 
L 80.777484 89.167432 
L 80.795758 114.868094 
L 80.832305 102.83088 
L 80.850579 136.055271 
L 80.868853 77.876683 
L 82.513506 152.28782 
L 82.568327 56.695678 
L 82.604875 161.319574 
L 82.623149 130.87117 
L 82.95208 127.434986 
L 82.988627 174.744479 
L 83.061723 132.107695 
L 83.390653 154.335409 
L 83.408927 197.738179 
L 83.445475 131.581691 
L 83.463749 137.225221 
L 83.500297 93.583218 
L 83.829227 115.976939 
L 83.902323 194.864809 
L 83.920597 133.179546 
L 83.938871 89.42655 
L 84.267801 172.690434 
L 84.286075 167.163623 
L 84.377445 81.003124 
L 85.583523 126.528203 
L 85.601797 77.293335 
L 85.656619 181.837235 
L 85.693167 114.897345 
L 86.022097 45.427204 
L 86.131741 178.407565 
L 86.460671 184.382913 
L 86.478945 208.851141 
L 86.497219 154.763551 
L 86.515493 198.056888 
L 86.533767 132.992005 
L 86.552041 202.506221 
L 86.570315 162.680779 
L 86.899245 198.889627 
L 86.954067 59.487888 
L 87.008889 189.094705 
L 87.337819 189.869259 
L 87.429189 84.126925 
L 87.447463 167.481591 
L 88.653541 141.337628 
L 88.671815 134.360973 
L 88.690089 146.301162 
L 88.708363 174.789947 
L 88.74491 161.401771 
L 88.763184 50.91369 
L 89.092115 102.807873 
L 89.128663 221.740699 
L 89.201758 122.355572 
L 89.548963 136.675809 
L 89.603784 38.257561 
L 89.622058 175.36967 
L 89.640332 167.61555 
L 89.969263 140.588379 
L 89.987537 181.963364 
L 90.024084 116.346634 
L 90.078906 176.065293 
L 90.407837 127.114301 
L 90.426111 140.296104 
L 90.444385 90.521954 
L 90.499206 189.935038 
L 90.51748 111.340837 
L 91.723559 108.222466 
L 91.741832 220.249343 
L 91.833202 123.857268 
L 92.162132 138.419002 
L 92.235228 80.168857 
L 92.271776 190.667201 
L 92.600706 162.451072 
L 92.61898 169.016075 
L 92.655528 142.129336 
L 92.692076 155.48858 
L 92.71035 217.741166 
L 93.057554 153.989808 
L 93.13065 176.289688 
L 93.148924 51.16738 
L 93.532676 167.449217 
L 93.587498 52.805494 
L 94.793576 68.471321 
L 94.830124 160.383733 
L 94.866672 49.734433 
L 94.90322 115.241065 
L 95.23215 164.352949 
L 95.268698 98.035033 
L 95.286972 165.750574 
L 95.341794 140.228723 
L 95.670724 131.834359 
L 95.688998 124.507809 
L 95.707272 46.888364 
L 95.780368 169.578714 
L 96.109298 93.014121 
L 96.145846 102.530957 
L 96.16412 177.671411 
L 96.218942 72.051134 
L 96.547872 153.92574 
L 96.620968 55.156236 
L 96.639242 170.86616 
L 96.657515 55.993448 
L 97.863594 186.898346 
L 97.900142 82.513379 
L 97.918416 213.157835 
L 97.973237 179.513575 
L 98.302168 180.593558 
L 98.393537 32.201761 
L 98.411811 82.459588 
L 98.740742 67.821881 
L 98.795563 167.616207 
L 98.813837 207.753852 
L 98.850385 83.051595 
L 99.19759 117.70669 
L 99.215864 136.349108 
L 99.234137 81.34003 
L 99.252411 111.999144 
L 99.270685 32.201761 
L 99.288959 118.790644 
L 99.61789 136.321938 
L 99.672711 183.483797 
L 99.690985 116.686518 
L 99.709259 78.787799 
L 99.727533 120.492733 
L 101.372185 48.331975 
L 101.445281 196.073555 
L 101.481829 109.052432 
L 101.810759 48.436422 
L 101.883855 113.646425 
L 101.902129 40.462729 
L 101.920403 48.040001 
L 102.249333 80.431725 
L 102.322429 183.289654 
L 102.340703 126.985733 
L 102.358977 63.724004 
L 102.706181 151.489752 
L 102.724455 161.103549 
L 102.742729 153.60377 
L 102.761003 109.578493 
L 102.797551 157.711856 
L 104.003629 142.867314 
L 104.076725 183.188739 
L 104.113273 93.94696 
L 104.478751 159.198045 
L 104.497025 158.705568 
L 104.515299 106.855055 
L 104.533573 198.412479 
L 104.551847 192.995173 
L 104.880777 141.395565 
L 104.917325 190.634228 
L 104.935599 117.863154 
L 104.972147 130.938239 
L 104.990421 131.477784 
L 105.319351 98.559396 
L 105.374173 181.028073 
L 105.392447 156.848156 
L 105.410721 35.293391 
L 105.428994 177.166308 
L 105.757925 183.346992 
L 105.812747 46.406836 
L 105.849295 199.416006 
L 105.867568 177.755961 
L 107.073647 165.325332 
L 107.146742 117.640689 
L 107.165016 161.77736 
L 107.18329 167.48018 
L 107.512221 123.303198 
L 107.548769 154.107525 
L 107.60359 89.261392 
L 107.621864 133.118218 
L 107.950795 122.033581 
L 108.005616 154.915947 
L 108.02389 87.850232 
L 108.060438 139.686282 
L 108.389369 145.098736 
L 108.44419 120.864692 
L 108.499012 191.883308 
L 108.827943 152.985708 
L 108.901038 172.447239 
L 108.937586 120.449319 
L 110.143664 148.203339 
L 110.161938 140.043157 
L 110.180212 38.638517 
L 110.235034 208.622134 
L 110.253308 178.788239 
L 110.582238 130.970424 
L 110.618786 70.588976 
L 110.673608 143.540706 
L 110.691882 188.433059 
L 111.020812 44.417239 
L 111.05736 153.556416 
L 111.130456 119.996708 
L 111.459386 113.005809 
L 111.550756 152.200705 
L 111.532482 111.239271 
L 111.56903 140.856241 
L 111.89796 123.527058 
L 111.98933 193.891978 
L 111.952782 74.569535 
L 112.007604 145.104736 
L 113.213682 109.049628 
L 113.268504 176.107018 
L 113.323326 153.831854 
L 113.652256 163.866681 
L 113.725352 132.22687 
L 113.743626 212.510837 
L 113.7619 143.991785 
L 114.09083 70.391249 
L 114.127378 183.090089 
L 114.1822 68.794868 
L 114.200474 61.935132 
L 114.529404 160.18832 
L 114.547678 137.831596 
L 114.565952 134.30942 
L 114.620774 198.374725 
L 114.639047 63.31867 
L 115.041074 190.205624 
L 115.059347 183.744814 
L 115.077621 137.891699 
L 116.2837 117.789984 
L 116.356795 195.359995 
L 116.393343 160.718824 
L 116.722274 156.418241 
L 116.813643 203.105643 
L 116.758822 152.32359 
L 116.831917 202.025697 
L 117.160848 110.33963 
L 117.179122 211.389054 
L 117.197396 90.49247 
L 117.270491 153.36516 
L 117.599422 114.972849 
L 117.617696 211.862351 
L 117.654243 95.361572 
L 117.709065 126.700962 
L 119.353717 185.226994 
L 119.371991 114.923835 
L 119.426813 210.93873 
L 119.463361 156.070937 
L 119.792291 154.333517 
L 119.828839 200.258564 
L 119.865387 100.595391 
L 119.883661 104.242478 
L 119.901935 139.183466 
L 120.230865 182.615926 
L 120.285687 63.981266 
L 120.340509 167.288193 
L 120.669439 64.515974 
L 120.760809 129.393476 
L 120.779083 120.52233 
L 121.108013 156.223314 
L 121.217657 93.26595 
L 122.442009 135.7259 
L 122.478557 33.456864 
L 122.515105 155.353392 
L 122.533379 116.678918 
L 122.862309 83.678479 
L 122.880583 39.391215 
L 122.935405 127.015732 
L 122.971953 67.699428 
L 123.300883 124.651561 
L 123.319157 160.453085 
L 123.337431 48.137113 
L 123.373979 71.868138 
L 123.392253 32.201761 
L 123.410526 85.004229 
L 123.739457 88.776419 
L 123.812553 173.12591 
L 123.794279 60.154689 
L 123.8491 130.333204 
L 124.178031 98.729792 
L 124.214579 105.482717 
L 124.232853 78.948597 
L 124.2694 146.392731 
L 124.287674 133.55918 
L 125.493753 105.296741 
L 125.566848 102.821759 
L 125.585122 183.087496 
L 125.603396 91.867182 
L 125.932327 166.328104 
L 126.023696 80.956871 
L 126.04197 189.388193 
L 126.389175 103.873436 
L 126.407448 179.656296 
L 126.480544 178.9291 
L 126.827748 122.2462 
L 126.846022 129.879526 
L 126.864296 133.223944 
L 126.88257 90.622497 
L 126.919118 199.912912 
L 127.248049 175.927581 
L 127.266322 180.650865 
L 127.284596 183.268342 
L 127.321144 67.955888 
L 127.357692 90.255122 
L 128.56377 39.496248 
L 128.636866 169.456077 
L 128.673414 121.831557 
L 129.002344 142.712844 
L 129.057166 43.58496 
L 129.038892 150.182909 
L 129.093714 98.506776 
L 129.111988 151.685141 
L 129.440918 128.903194 
L 129.49574 84.791536 
L 129.532288 197.897222 
L 129.550562 184.077215 
L 129.879492 121.734812 
L 129.91604 191.042615 
L 129.934314 54.317602 
L 129.989136 153.077675 
L 130.318066 159.744699 
L 130.409436 63.221818 
L 130.42771 127.865567 
L 131.633788 153.537896 
L 131.670336 192.917254 
L 131.68861 150.277725 
L 131.743432 177.320711 
L 132.072362 139.301674 
L 132.163732 217.826795 
L 132.182005 216.800845 
L 132.510936 199.737808 
L 132.52921 200.248407 
L 132.565758 140.637367 
L 132.602306 223.703062 
L 132.620579 213.634195 
L 132.94951 203.052123 
L 132.967784 203.817022 
L 132.986058 223.439701 
L 133.040879 164.541933 
L 133.059153 163.27498 
L 133.388084 179.960823 
L 133.406358 189.735824 
L 133.424632 158.187897 
L 133.479453 181.989591 
L 133.497727 134.613587 
L 134.703806 133.180275 
L 134.758627 123.919914 
L 134.813449 190.275262 
L 135.14238 158.404809 
L 135.160654 166.658924 
L 135.178927 95.84656 
L 135.252023 136.83665 
L 135.580954 124.467868 
L 135.654049 174.092562 
L 135.690597 135.318889 
L 136.019528 167.383623 
L 136.037801 165.390218 
L 136.092623 128.307015 
L 136.074349 185.588345 
L 136.129171 166.07877 
L 136.458101 161.410135 
L 136.494649 183.454511 
L 136.512923 101.99441 
L 136.549471 204.79535 
L 136.567745 199.014547 
L 137.773823 131.738304 
L 137.810371 211.390055 
L 137.883467 72.200881 
L 138.212397 99.175604 
L 138.285493 194.215296 
L 138.322041 109.641415 
L 138.669245 158.303826 
L 138.687519 145.416466 
L 138.705793 136.367574 
L 138.724067 164.001775 
L 138.760615 221.934021 
L 139.089545 211.07858 
L 139.126093 102.603944 
L 139.180915 211.268806 
L 139.199189 229.7097 
L 139.528119 113.81132 
L 139.637763 206.000895 
L 140.843841 98.649671 
L 140.862115 203.221022 
L 140.953484 149.06998 
L 141.282415 179.500564 
L 141.300689 224.761178 
L 141.337237 147.406817 
L 141.392058 180.976045 
L 141.720989 195.46961 
L 141.739263 133.040345 
L 141.794085 206.287025 
L 141.830632 152.198124 
L 142.159563 205.926134 
L 142.196111 147.631013 
L 142.214385 207.311894 
L 142.269206 166.002022 
L 142.598137 115.848705 
L 142.616411 122.460494 
L 142.652959 200.763632 
L 142.70778 197.473837 
L 143.913859 183.471621 
L 143.932133 162.965797 
L 143.96868 197.436169 
L 144.005228 174.02883 
L 144.023502 189.265137 
L 144.352433 213.835776 
L 144.462076 144.295002 
L 144.791007 160.897801 
L 144.827554 196.340031 
L 144.845828 132.22474 
L 144.864102 182.805624 
L 144.882376 129.635532 
L 144.90065 143.903192 
L 145.22958 202.19058 
L 145.247854 201.444414 
L 145.302676 156.773397 
L 145.284402 221.492754 
L 145.339224 169.255259 
L 145.668154 153.84275 
L 145.686428 202.042688 
L 145.759524 157.671181 
L 145.777798 138.153559 
L 147.42245 121.640116 
L 147.477272 183.167434 
L 147.495546 115.681453 
L 147.51382 49.758006 
L 147.532094 103.064354 
L 147.861024 83.591865 
L 147.915846 165.300677 
L 147.970668 137.185501 
L 148.299598 167.093939 
L 148.336146 173.920904 
L 148.409242 40.230738 
L 148.756446 148.212086 
L 148.847816 53.227534 
L 150.053894 114.21301 
L 150.072168 95.906794 
L 150.145264 129.795187 
L 150.163537 142.136594 
L 150.492468 130.193631 
L 150.565564 74.078733 
L 150.602111 97.567523 
L 150.931042 102.531023 
L 150.949316 127.967723 
L 150.985864 49.823977 
L 151.040685 116.29014 
L 151.369616 50.798861 
L 151.424438 135.015952 
L 151.442711 50.469845 
L 151.479259 65.336142 
L 151.80819 57.616358 
L 151.844738 122.755756 
L 151.863011 56.2688 
L 151.917833 96.500673 
L 153.123912 53.433911 
L 153.142186 39.057033 
L 153.160459 63.169751 
L 153.197007 112.380921 
L 153.233555 89.068809 
L 153.580759 102.04574 
L 153.599033 76.164155 
L 153.653855 121.351949 
L 153.672129 119.335797 
L 154.00106 107.59899 
L 154.019333 114.257174 
L 154.110703 43.917843 
L 154.439633 41.126618 
L 154.476181 91.389101 
L 154.531003 35.049932 
L 154.549277 48.776338 
L 154.878207 46.389269 
L 154.896481 40.658556 
L 154.933029 63.380972 
L 154.951303 41.434285 
L 154.987851 82.756021 
L 156.193929 60.536347 
L 156.230477 88.484406 
L 156.248751 33.798871 
L 156.303573 143.560219 
L 156.650777 99.184966 
L 156.742147 57.353644 
L 157.071077 69.181284 
L 157.125899 102.462016 
L 157.162447 83.746723 
L 157.180721 45.548496 
L 157.509651 109.753246 
L 157.582747 32.201761 
L 157.619295 44.30073 
L 157.966499 69.654379 
L 157.984773 87.131767 
L 158.039595 68.422552 
L 158.057869 44.79559 
L 159.263947 53.559498 
L 159.318769 112.045002 
L 159.337043 41.307735 
L 159.37359 86.097349 
L 159.775617 41.444493 
L 159.812164 134.329424 
L 160.141095 119.778011 
L 160.195917 48.319156 
L 160.232464 115.750808 
L 160.250738 135.132179 
L 160.579669 160.080704 
L 160.671038 44.367222 
L 160.689312 93.387109 
L 161.018243 106.502429 
L 161.036517 119.051071 
L 161.054791 60.895176 
L 161.073064 107.015909 
L 161.109612 69.932114 
L 161.127886 92.663276 
L 162.333965 69.861596 
L 162.425334 103.245096 
L 162.40706 58.061102 
L 162.443608 97.442354 
L 162.772539 147.994149 
L 162.809086 62.86255 
L 162.845634 184.106679 
L 162.863908 86.165846 
L 162.882182 146.315465 
L 163.211112 57.792715 
L 163.229386 153.79197 
L 163.320756 141.750134 
L 163.649686 69.488049 
L 163.66796 73.405725 
L 163.75933 177.236021 
L 164.08826 155.448581 
L 164.143082 52.482709 
L 164.197904 78.169156 
L 165.403982 134.997109 
L 165.458804 151.850533 
L 165.44053 98.278685 
L 165.495352 144.47158 
L 165.513626 112.291393 
L 165.842556 131.973063 
L 165.86083 62.055938 
L 165.897378 148.183834 
L 165.933926 98.620135 
L 165.9522 157.86272 
L 166.28113 32.201761 
L 166.390774 200.918568 
L 166.719704 200.593689 
L 166.774526 84.40632 
L 166.829348 182.795239 
L 167.194826 91.341851 
L 167.267922 216.583352 
L 168.474 176.420766 
L 168.565369 55.954342 
L 168.583643 99.690336 
L 168.912574 138.383245 
L 168.930848 130.061243 
L 168.949122 174.11516 
L 168.967396 101.722516 
L 169.022217 134.781839 
L 169.351148 122.726633 
L 169.442517 201.358647 
L 169.460791 169.021786 
L 169.807996 113.532127 
L 169.844543 183.590095 
L 169.899365 85.030907 
L 170.24657 158.54369 
L 170.283117 104.062483 
L 170.337939 181.359105 
L 171.562291 47.405644 
L 171.671935 178.909037 
L 172.000865 169.525257 
L 172.037413 181.681056 
L 172.110509 124.355288 
L 172.439439 182.126904 
L 172.494261 102.167856 
L 172.549083 144.23423 
L 172.878013 68.658203 
L 172.987657 202.210571 
L 173.316587 146.66751 
L 173.334861 118.334592 
L 173.389683 158.623027 
L 173.426231 120.258403 
L 174.632309 69.674601 
L 174.705405 151.130159 
L 174.741953 150.750269 
L 175.070883 200.06833 
L 175.107431 98.430622 
L 175.180527 129.044701 
L 175.509457 129.097764 
L 175.546005 78.255203 
L 175.564279 192.492306 
L 175.600827 130.387478 
L 175.6191 188.808302 
L 175.966305 118.40212 
L 175.984579 200.074973 
L 176.021127 68.588147 
L 176.057674 125.878113 
L 176.386605 183.871594 
L 176.477974 47.821304 
L 176.496248 107.460901 
L 177.702327 134.477906 
L 177.775422 193.480409 
L 177.738875 128.282107 
L 177.81197 157.823431 
L 178.140901 147.093479 
L 178.195722 171.432673 
L 178.250544 106.209912 
L 178.616022 161.561933 
L 178.670844 93.086682 
L 178.65257 166.135409 
L 178.689118 126.285716 
L 179.018049 129.877737 
L 179.054596 194.562349 
L 179.127692 150.253153 
L 179.456623 178.852153 
L 179.49317 197.513071 
L 179.511444 130.112646 
L 179.529718 90.229027 
L 179.566266 150.72162 
L 180.772344 152.259018 
L 180.790618 172.263042 
L 180.827166 44.719034 
L 180.881988 126.584135 
L 181.210918 163.821542 
L 181.302288 73.371454 
L 181.320562 193.553489 
L 181.68604 44.646348 
L 181.722588 57.518042 
L 181.759136 130.838629 
L 182.52664 77.485742 
L 182.563188 170.534378 
L 182.590599 154.680624 
L 183.842362 97.144145 
L 183.897184 143.040731 
L 183.933732 107.726245 
L 183.952006 65.152234 
L 184.280936 96.191885 
L 184.354032 127.473645 
L 184.372306 105.766365 
L 184.390579 78.955878 
L 184.737784 116.842759 
L 184.756058 167.827151 
L 184.829153 117.626074 
L 185.158084 126.785816 
L 185.249453 191.02515 
L 185.212906 84.258229 
L 185.267727 126.432056 
L 185.596658 86.876717 
L 185.65148 126.806051 
L 185.669754 74.02845 
L 185.706301 125.524989 
L 186.91238 84.373403 
L 187.003749 138.813747 
L 187.022023 47.026558 
L 187.369228 135.478075 
L 187.387501 113.519901 
L 187.424049 79.514324 
L 187.460597 93.549207 
L 187.789528 101.655845 
L 187.807802 99.16815 
L 187.844349 50.798952 
L 187.862623 134.899473 
L 187.899171 126.264242 
L 188.228102 214.827892 
L 188.282923 49.763688 
L 188.337745 63.367803 
L 188.666675 93.703694 
L 188.684949 90.262739 
L 188.703223 35.651732 
L 188.758045 120.475268 
L 188.776319 98.93621 
L 189.982397 42.561654 
L 190.073767 207.615705 
L 190.092041 112.593792 
L 190.420971 190.231472 
L 190.439245 174.626824 
L 190.512341 147.379872 
L 190.530615 179.303189 
L 190.859545 198.794337 
L 190.932641 222.469744 
L 190.969189 150.333482 
L 191.298119 172.800574 
L 191.316393 196.424171 
L 191.334667 143.118576 
L 191.352941 80.366059 
L 191.371215 203.701922 
L 191.407763 144.147066 
L 191.736693 168.112096 
L 191.809789 101.543959 
L 191.828063 188.501479 
L 191.846337 126.290702 
L 193.052415 169.802255 
L 193.125511 114.662592 
L 193.143785 149.156901 
L 193.162058 178.066161 
L 193.490989 174.829775 
L 193.527537 100.95333 
L 193.564085 192.841866 
L 193.582359 193.677315 
L 193.600632 158.141902 
L 193.929563 106.18474 
L 193.947837 183.191664 
L 194.039206 132.241824 
L 194.386411 139.309737 
L 194.404685 201.464602 
L 194.432096 112.890516 
L 196.122433 112.237284 
L 196.15898 194.95741 
L 196.213802 167.78327 
L 196.232076 102.912162 
L 196.561007 167.66835 
L 196.579281 70.115539 
L 196.67065 98.662233 
L 197.036128 137.861991 
L 197.054402 148.737417 
L 197.09095 138.81946 
L 197.109224 99.951744 
L 197.456428 131.278487 
L 197.474702 131.06195 
L 197.492976 53.420464 
L 197.51125 172.63276 
L 197.547798 95.959039 
L 199.19245 91.631534 
L 199.210724 41.472934 
L 199.247272 91.934252 
L 199.28382 71.101224 
L 199.302094 102.015086 
L 199.631024 87.358776 
L 199.70412 75.60511 
L 199.740668 175.107964 
L 200.069598 204.185474 
L 200.12442 110.421768 
L 200.179242 167.42546 
L 200.508172 131.95628 
L 200.526446 117.425333 
L 200.54472 175.998347 
L 200.562994 146.011676 
L 200.599542 190.317467 
L 200.617816 137.155758 
L 200.946746 128.554021 
L 200.96502 147.586013 
L 201.019842 97.002824 
L 201.038116 92.109449 
L 201.05639 96.882416 
L 202.262468 117.681846 
L 202.335564 63.088489 
L 202.299016 153.494355 
L 202.372111 117.801489 
L 202.701042 71.512192 
L 202.810685 190.883702 
L 203.139616 136.491523 
L 203.212712 168.078914 
L 203.230985 116.503136 
L 203.249259 60.981885 
L 203.57819 147.500168 
L 203.596464 192.953348 
L 203.633012 79.48382 
L 203.687833 152.651718 
L 204.016764 137.978948 
L 204.035038 107.143333 
L 204.053312 174.618572 
L 204.089859 145.239183 
L 204.108133 201.16461 
L 204.126407 169.551711 
L 205.77106 183.21206 
L 205.789333 151.847102 
L 205.807607 187.791085 
L 205.880703 179.699878 
L 206.209634 154.869551 
L 206.246181 203.255262 
L 206.282729 193.739536 
L 206.301003 112.046566 
L 206.319277 216.504697 
L 206.648207 210.180846 
L 206.666481 146.663933 
L 206.757851 172.132216 
L 207.086781 109.737628 
L 207.141603 197.602205 
L 207.178151 86.707249 
L 207.196425 123.37726 
L 208.402503 135.809222 
L 208.420777 192.803074 
L 208.512147 178.598599 
L 208.859351 165.636682 
L 208.877625 98.63108 
L 208.914173 214.25623 
L 208.950721 150.692278 
L 209.279651 150.412986 
L 209.297925 154.244321 
L 209.316199 151.63896 
L 209.389295 84.867801 
L 209.718225 95.676175 
L 209.773047 193.669801 
L 209.827869 122.915643 
L 210.156799 123.854307 
L 210.193347 76.671943 
L 210.248169 122.449565 
L 210.266443 144.721976 
L 211.472521 137.900514 
L 211.545617 103.489211 
L 211.582164 107.978077 
L 211.911095 190.333743 
L 212.002464 107.322947 
L 211.984191 211.821514 
L 212.020738 127.109959 
L 212.349669 135.885818 
L 212.367943 144.912645 
L 212.386217 101.694632 
L 212.422764 130.458926 
L 212.441038 103.429533 
L 212.459312 124.455419 
L 212.788243 157.033064 
L 212.879612 73.668636 
L 212.897886 119.481177 
L 213.226817 112.06328 
L 213.299912 98.969351 
L 213.33646 187.456202 
L 214.542539 138.056925 
L 214.560812 180.277543 
L 214.615634 63.033479 
L 214.633908 124.983242 
L 214.652182 79.834749 
L 214.981113 182.560755 
L 214.999386 155.674727 
L 215.035934 127.857521 
L 215.072482 138.10864 
L 215.090756 187.781491 
L 215.419686 183.117664 
L 215.43796 48.863679 
L 215.52933 121.942676 
L 215.85826 135.901323 
L 215.876534 130.887997 
L 215.894808 138.177 
L 215.913082 195.99421 
L 215.967904 122.356517 
L 216.296834 110.584115 
L 216.315108 56.363541 
L 216.36993 173.972869 
L 216.388204 153.095976 
L 216.406478 181.767187 
L 218.05113 151.734526 
L 218.105952 208.194243 
L 218.124226 134.199151 
L 218.160774 177.582389 
L 218.489704 208.977293 
L 218.581074 87.201282 
L 218.599348 186.337 
L 218.928278 177.3382 
L 218.946552 72.229742 
L 219.037922 173.985939 
L 219.366852 161.960631 
L 219.385126 116.295283 
L 219.4034 190.375088 
L 219.476496 130.719909 
L 220.682574 170.923165 
L 220.700848 189.591013 
L 220.719122 154.118611 
L 220.737396 74.440768 
L 220.773943 163.368732 
L 220.792217 95.041287 
L 221.121148 99.996642 
L 221.157696 86.509396 
L 221.230791 164.20496 
L 221.559722 163.856881 
L 221.614544 72.910764 
L 221.669365 149.234393 
L 221.998296 65.090622 
L 222.107939 180.973593 
L 222.43687 197.840131 
L 222.528239 76.020899 
L 222.546513 106.438652 
L 223.752592 91.535496 
L 223.770865 61.226227 
L 223.825687 104.513688 
L 223.843961 92.790662 
L 223.862235 138.830681 
L 224.191165 136.26406 
L 224.209439 162.651083 
L 224.245987 110.437087 
L 224.264261 81.22241 
L 224.300809 136.192193 
L 224.629739 54.98066 
L 224.684561 145.540923 
L 224.739383 75.681884 
L 225.086587 198.151719 
L 225.159683 64.425214 
L 225.177957 124.770587 
L 225.506887 119.327106 
L 225.525161 115.000525 
L 225.543435 124.025364 
L 225.579983 53.241216 
L 225.616531 159.88255 
L 226.822609 131.879812 
L 226.840883 121.276072 
L 226.877431 140.069515 
L 226.913979 176.469246 
L 226.932253 163.136224 
L 227.261183 164.443609 
L 227.279457 174.608171 
L 227.297731 127.629537 
L 227.334279 62.476116 
L 227.370827 179.351265 
L 227.699757 53.399325 
L 227.718031 160.758934 
L 227.809401 138.728567 
L 228.138331 94.43693 
L 228.211427 172.10602 
L 228.247975 133.994326 
L 228.576905 122.320971 
L 228.631727 134.770562 
L 228.650001 89.581595 
L 228.686548 137.958419 
L 229.874353 145.384529 
L 229.929175 149.192538 
L 229.983996 52.531628 
L 230.312927 71.496606 
L 230.42257 200.598093 
L 230.751501 78.155741 
L 230.769775 149.99487 
L 230.84287 35.011273 
L 230.861144 146.016269 
L 231.190075 140.658521 
L 231.244897 143.326379 
L 231.26317 35.317695 
L 231.299718 158.310752 
L 231.628649 147.279985 
L 231.665197 40.304361 
L 231.738292 83.187754 
L 232.944371 121.921835 
L 232.962644 136.8501 
L 232.999192 109.079602 
L 233.054014 133.806076 
L 233.382945 110.120086 
L 233.419492 137.65977 
L 233.437766 45.311903 
L 233.474314 160.272252 
L 233.492588 142.512458 
L 233.821518 123.528239 
L 233.894614 62.708261 
L 233.87634 135.449446 
L 233.931162 75.820078 
L 234.260092 136.969614 
L 234.278366 129.872327 
L 234.29664 51.921206 
L 234.369736 115.963744 
L 234.698666 87.426432 
L 234.790036 201.148127 
L 234.753488 57.468218 
L 234.80831 151.201884 
L 236.014388 147.51591 
L 236.032662 195.987584 
L 236.087484 62.256537 
L 236.105758 152.704677 
L 236.124032 127.213758 
L 236.452962 112.621615 
L 236.471236 97.848156 
L 236.48951 173.833309 
L 236.562606 48.608571 
L 236.90981 123.84936 
L 236.946358 47.023853 
L 236.964632 162.012125 
L 237.00118 96.26995 
L 237.33011 187.939064 
L 237.42148 32.201761 
L 237.366658 188.236254 
L 237.439754 44.139926 
L 239.084406 117.666823 
L 239.139228 111.248778 
L 239.194049 147.431898 
L 239.52298 127.930607 
L 239.541254 135.847078 
L 239.559528 118.311348 
L 239.577802 93.050947 
L 239.614349 121.911205 
L 239.632623 197.107065 
L 239.961554 171.184105 
L 240.052923 81.370943 
L 240.071197 99.825734 
L 240.400128 143.908355 
L 240.418402 165.657945 
L 240.436676 122.425878 
L 240.454949 40.309203 
L 240.509771 203.916727 
L 240.838702 108.008354 
L 240.856976 124.120819 
L 240.893523 180.296197 
L 240.948345 160.343721 
L 242.154424 32.201761 
L 242.264067 113.226122 
L 242.592997 114.238364 
L 242.611271 39.560531 
L 242.647819 114.808654 
L 242.684367 89.951196 
L 242.702641 126.805016 
L 243.049845 32.201761 
L 243.122941 131.924013 
L 243.141215 127.958971 
L 243.470145 57.837014 
L 243.579789 123.59247 
L 243.908719 80.368671 
L 243.945267 99.08436 
L 243.963541 73.129396 
L 243.981815 38.985287 
L 244.018363 108.182141 
L 245.224441 111.189066 
L 245.260989 121.951088 
L 245.334085 45.973087 
L 245.663015 132.388314 
L 245.681289 131.929191 
L 245.699563 62.57253 
L 245.772659 118.795249 
L 246.101589 45.874549 
L 246.119863 66.182878 
L 246.156411 110.337784 
L 246.174685 60.625482 
L 246.211233 173.356903 
L 246.540163 108.123813 
L 246.558437 74.612946 
L 246.576711 138.896911 
L 246.649807 86.904361 
L 246.978737 60.489586 
L 247.015285 35.457979 
L 247.08838 166.849937 
L 248.294459 122.282303 
L 248.312733 82.283373 
L 248.385828 165.380895 
L 248.404102 144.2451 
L 248.733033 100.778625 
L 248.751307 110.650885 
L 248.824402 83.507502 
L 248.842676 141.977484 
L 249.171607 156.210688 
L 249.226428 165.132182 
L 249.262976 63.334575 
L 249.28125 179.474691 
L 249.646729 59.245357 
L 249.683276 95.856821 
L 249.70155 168.240117 
L 249.719824 142.349979 
L 250.048755 131.796036 
L 250.067029 115.404604 
L 250.103576 131.743555 
L 250.140124 178.563471 
L 250.158398 177.57919 
L 251.364476 153.504101 
L 251.38275 154.971025 
L 251.401024 41.324207 
L 251.437572 177.188239 
L 251.47412 127.615702 
L 251.80305 177.977158 
L 251.821324 167.443664 
L 251.912694 123.38466 
L 252.241624 137.887963 
L 252.332994 204.116803 
L 252.351268 191.97592 
L 252.680198 200.420073 
L 252.789842 43.348515 
L 253.118772 198.691237 
L 253.137046 194.324012 
L 253.173594 113.040102 
L 253.228416 138.729793 
L 254.434494 179.64437 
L 254.471042 39.16009 
L 254.544138 161.769249 
L 254.873068 113.651167 
L 254.891342 114.447439 
L 254.92789 149.323584 
L 254.946164 111.481149 
L 254.964438 56.220245 
L 254.982712 130.322917 
L 255.311642 32.201761 
L 255.421286 209.508001 
L 255.750216 156.464852 
L 255.786764 161.095818 
L 255.805038 82.460763 
L 255.859859 201.970394 
L 256.18879 162.301829 
L 256.207064 193.673179 
L 256.243612 95.595838 
L 256.261886 77.523011 
L 256.28016 97.384155 
L 256.298433 88.79766 
L 257.504512 163.794392 
L 257.559334 206.442521 
L 257.577607 142.141815 
L 257.595881 195.023851 
L 257.614155 116.44797 
L 257.943086 183.709678 
L 258.052729 64.341031 
L 258.399934 103.140665 
L 258.418208 60.693776 
L 258.454755 183.971119 
L 258.473029 115.067582 
L 258.491303 205.137573 
L 258.820234 205.494313 
L 258.838508 205.074763 
L 258.856781 81.222129 
L 258.929877 186.950468 
L 259.258808 181.528578 
L 259.295355 158.062317 
L 259.350177 193.045605 
L 259.368451 80.736329 
L 260.574529 165.10871 
L 260.647625 184.363772 
L 260.665899 120.926871 
L 260.684173 171.265727 
L 261.013103 211.641703 
L 261.086199 155.197611 
L 261.122747 189.36796 
L 261.451677 187.256912 
L 261.469951 184.754555 
L 261.488225 128.761198 
L 261.561321 193.218354 
L 261.890251 145.147592 
L 261.963347 202.936475 
L 261.981621 152.659804 
L 261.999895 56.659326 
L 262.328825 166.385261 
L 262.401921 47.022791 
L 262.438469 160.775948 
L 264.083121 139.722574 
L 264.119669 47.878871 
L 264.156217 167.251565 
L 264.192765 62.320048 
L 264.539969 178.40006 
L 264.594791 201.237821 
L 264.631338 55.936015 
L 264.960269 59.847582 
L 264.996817 200.084129 
L 265.069912 91.65781 
L 265.398843 46.038631 
L 265.417117 56.303313 
L 265.435391 209.896499 
L 265.508486 121.635125 
L 266.714565 110.206973 
L 266.732839 198.454307 
L 266.805934 159.860461 
L 266.824208 74.387959 
L 267.171413 199.894575 
L 267.189687 138.021274 
L 267.20796 214.037015 
L 267.262782 158.418671 
L 267.591713 165.811422 
L 267.62826 131.955188 
L 267.701356 194.586652 
L 268.030287 95.995065 
L 268.085108 215.756807 
L 268.13993 179.365167 
L 268.468861 134.836625 
L 268.523682 194.953302 
L 268.541956 126.282252 
L 268.578504 188.292885 
L 269.784582 150.365287 
L 269.802856 217.722627 
L 269.857678 177.48621 
L 269.875952 51.107128 
L 269.894226 188.928274 
L 270.223156 188.474312 
L 270.296252 134.736671 
L 270.3328 154.249454 
L 270.66173 167.316378 
L 270.734826 76.356363 
L 270.771374 151.403247 
L 271.118578 212.359418 
L 271.136852 139.255525 
L 271.209948 143.681103 
L 271.538878 119.20937 
L 271.557152 120.169959 
L 271.5937 154.501483 
L 271.648522 107.950777 
L 272.872874 146.999606 
L 272.891148 168.500134 
L 272.909422 128.298094 
L 272.927696 57.43151 
L 272.94597 139.126793 
L 272.964244 125.897755 
L 273.293174 157.63427 
L 273.347996 189.666926 
L 273.36627 54.503016 
L 273.402817 164.908594 
L 273.731748 108.42037 
L 273.750022 111.2897 
L 273.78657 163.632027 
L 273.804844 139.620526 
L 273.823118 79.767951 
L 273.841391 189.581469 
L 274.170322 162.364666 
L 274.188596 178.934393 
L 274.225144 118.314794 
L 274.243418 77.956918 
L 274.261691 206.169655 
L 274.279965 182.743349 
L 274.608896 135.13635 
L 274.681992 190.860711 
L 274.700265 181.208285 
L 274.718539 115.29417 
L 275.924618 104.791411 
L 275.942892 95.362542 
L 275.961166 209.212134 
L 276.034261 162.998424 
L 276.363192 139.525016 
L 276.436287 60.965593 
L 276.418013 158.506104 
L 276.454561 132.507162 
L 276.472835 212.314368 
L 276.801766 212.689736 
L 276.911409 129.289538 
L 277.24034 166.719938 
L 277.258613 199.7926 
L 277.276887 145.396039 
L 277.349983 180.205147 
L 277.678914 178.865921 
L 277.733735 120.996539 
L 277.770283 163.142318 
L 277.788557 181.867403 
L 279.433209 39.452526 
L 279.469757 191.767057 
L 279.542853 113.249806 
L 279.908331 137.943337 
L 279.926605 114.975125 
L 279.963153 187.784323 
L 279.981427 152.891065 
L 280.310357 137.920934 
L 280.328631 137.974611 
L 280.383453 181.127755 
L 280.420001 82.522543 
L 280.748931 157.386241 
L 280.785479 51.851531 
L 280.858575 103.062089 
L 282.064653 142.942437 
L 282.101201 71.895356 
L 282.156023 112.94758 
L 282.174297 145.962061 
L 282.503227 138.170655 
L 282.521501 107.951813 
L 282.576323 182.899748 
L 282.594597 186.344127 
L 282.61287 130.509576 
L 282.941801 69.073723 
L 282.978349 157.236377 
L 283.051444 125.038263 
L 283.380375 185.150731 
L 283.471744 132.647476 
L 283.490018 138.410525 
L 283.818949 157.399259 
L 283.855497 188.53472 
L 283.873771 137.420607 
L 283.892044 48.975544 
L 283.928592 66.911961 
L 285.134671 168.383372 
L 285.152945 187.537703 
L 285.189492 135.134189 
L 285.207766 97.737163 
L 285.22604 199.784987 
L 285.244314 153.368344 
L 285.573245 175.272972 
L 285.64634 76.60615 
L 285.682888 93.728683 
L 286.011819 132.721394 
L 286.084914 196.206076 
L 286.048366 119.693743 
L 286.121462 155.811559 
L 286.450393 188.155605 
L 286.468666 202.689134 
L 286.48694 154.600228 
L 286.523488 199.794863 
L 286.560036 159.001965 
L 286.888966 153.604488 
L 286.943788 103.692029 
L 286.962062 195.582776 
L 286.99861 127.026488 
L 288.204688 157.156706 
L 288.25951 146.9787 
L 288.277784 159.419318 
L 288.296058 209.052258 
L 288.314332 197.367787 
L 288.643262 153.500383 
L 288.67981 68.190165 
L 288.734632 183.447632 
L 288.752906 98.511078 
L 289.081836 88.118654 
L 289.173206 168.737764 
L 289.19148 58.573411 
L 289.52041 112.077675 
L 289.538684 50.262891 
L 289.575232 183.372456 
L 289.61178 169.616102 
L 289.630054 156.404268 
L 289.958984 117.816405 
L 289.977258 64.264161 
L 290.050354 161.025063 
L 290.068628 157.344519 
L 291.274706 146.971495 
L 291.29298 149.445312 
L 291.311254 129.000319 
L 291.347802 183.022085 
L 291.384349 150.724078 
L 291.731554 100.345247 
L 291.749828 204.702286 
L 291.822923 157.924297 
L 292.151854 81.204097 
L 292.243223 192.579716 
L 292.261497 127.840878 
L 292.590428 136.550545 
L 292.626976 172.656931 
L 292.64525 94.381626 
L 292.681797 201.11035 
L 292.700071 191.952265 
L 293.029002 166.58698 
L 293.083824 205.722185 
L 293.102097 145.461763 
L 293.138645 43.323736 
L 294.362998 168.236169 
L 294.381271 65.525382 
L 294.454367 73.649572 
L 294.783298 210.019079 
L 294.819845 192.850362 
L 294.838119 134.933554 
L 294.892941 182.226455 
L 295.221872 140.22073 
L 295.240145 144.763868 
L 295.258419 220.631329 
L 295.313241 53.254516 
L 295.331515 112.586705 
L 295.660445 197.352856 
L 295.770089 106.038118 
L 296.099019 158.80109 
L 296.117293 150.64474 
L 296.153841 223.852195 
L 296.190389 106.450909 
L 296.208663 164.872525 
L 297.414741 161.202762 
L 297.451289 135.233175 
L 297.524385 214.721987 
L 297.853315 190.896612 
L 297.871589 223.931116 
L 297.926411 194.654636 
L 297.944685 108.311546 
L 297.962959 199.737597 
L 298.291889 163.93662 
L 298.310163 193.782482 
L 298.328437 175.422061 
L 298.346711 61.468423 
L 298.401533 214.477295 
L 298.730463 162.852562 
L 298.821833 209.326266 
L 298.785285 137.616969 
L 298.840107 167.662141 
L 299.169037 191.100753 
L 299.205585 165.498331 
L 299.223859 184.338215 
L 299.260407 75.314157 
L 299.278681 169.046569 
L 300.484759 192.031685 
L 300.521307 107.04587 
L 300.594402 176.588021 
L 300.923333 180.231988 
L 300.941607 196.459397 
L 300.959881 150.664376 
L 300.978155 190.512701 
L 300.996429 121.85946 
L 301.032976 162.99227 
L 301.361907 161.053046 
L 301.380181 166.690923 
L 301.47155 71.435371 
L 301.855303 186.010207 
L 301.873576 117.591476 
L 301.910124 159.963093 
L 302.257329 151.705086 
L 302.275603 181.711666 
L 302.293876 117.575121 
L 302.31215 122.327327 
L 302.330424 82.907134 
L 302.348698 143.460667 
L 303.554777 104.615528 
L 303.66442 65.716527 
L 303.993351 64.92444 
L 304.011624 67.685263 
L 304.08472 108.797203 
L 304.102994 53.555365 
L 304.431924 49.721193 
L 304.541568 126.505726 
L 304.870498 122.011286 
L 304.888772 80.415289 
L 304.92532 149.560106 
L 304.980142 110.458252 
L 305.309072 87.092585 
L 305.327346 89.531235 
L 305.363894 174.765725 
L 305.400442 52.757087 
L 305.418716 109.120934 
L 307.063368 68.296558 
L 307.081642 123.485692 
L 307.099916 56.26148 
L 307.154738 63.259068 
L 307.173012 56.708374 
L 307.501942 66.845277 
L 307.556764 186.273505 
L 307.611586 64.162643 
L 307.95879 193.99806 
L 308.031886 71.888215 
L 308.05016 198.05605 
L 308.37909 195.461479 
L 308.397364 189.497553 
L 308.452186 197.888458 
L 308.488734 57.712296 
L 309.694812 158.275574 
L 309.786181 186.71257 
L 309.804455 80.754719 
L 310.15166 37.307022 
L 310.188208 193.909474 
L 310.243029 143.365284 
L 310.57196 168.4121 
L 310.645055 48.158481 
L 310.681603 68.640314 
L 311.010534 164.935242 
L 311.028808 160.155388 
L 311.065355 80.720329 
L 311.120177 89.819757 
L 311.449108 153.115369 
L 311.467382 61.771975 
L 311.558751 135.454265 
L 312.76483 108.429152 
L 312.801377 174.917032 
L 312.837925 91.957239 
L 312.874473 119.572577 
L 313.203403 165.676844 
L 313.239951 160.443889 
L 313.258225 117.026443 
L 313.313047 167.029396 
L 313.641977 172.081468 
L 313.660251 119.626858 
L 313.751621 167.939605 
L 314.080551 91.776256 
L 314.171921 216.213284 
L 314.190195 134.29587 
L 314.519125 86.017191 
L 314.573947 84.866279 
L 314.628769 197.715891 
L 315.834847 171.339043 
L 315.907943 124.881027 
L 315.889669 196.068543 
L 315.944491 154.529682 
L 316.273421 169.005616 
L 316.291695 161.728454 
L 316.309969 174.009401 
L 316.328243 196.654962 
L 316.364791 118.775361 
L 316.383065 161.121765 
L 316.711995 182.655281 
L 316.821639 111.729308 
L 317.150569 176.161052 
L 317.168843 67.181927 
L 317.205391 215.371879 
L 317.260213 163.806197 
L 317.589143 188.163358 
L 317.607417 177.972245 
L 317.625691 104.478945 
L 317.662239 201.198975 
L 317.698786 160.529423 
L 318.904865 153.824486 
L 318.941413 114.921079 
L 318.996234 164.31278 
L 319.014508 117.803517 
L 319.343439 133.846376 
L 319.434808 80.977684 
L 319.453082 81.458409 
L 319.782013 38.956344 
L 319.891656 107.93199 
L 320.220587 82.234922 
L 320.238861 165.475777 
L 320.311956 65.830125 
L 320.33023 41.868296 
L 320.677435 77.156558 
L 320.713982 174.361673 
L 320.75053 54.123871 
L 320.768804 165.04384 
L 321.974883 162.029363 
L 322.029704 91.48248 
L 322.084526 108.861044 
L 322.413456 115.193381 
L 322.450004 175.283784 
L 322.504826 70.085663 
L 322.5231 84.261036 
L 322.85203 90.790374 
L 322.888578 71.050745 
L 322.961674 207.819233 
L 323.290604 137.025443 
L 323.327152 32.201761 
L 323.381974 198.090306 
L 323.400248 133.415067 
L 323.747452 211.165946 
L 323.765726 189.648034 
L 323.820548 60.565443 
L 323.838822 113.415484 
L 325.0449 212.058128 
L 325.063174 211.186381 
L 325.081448 72.380944 
L 325.154544 96.796356 
L 325.483474 129.670381 
L 325.520022 36.411037 
L 325.574844 36.479568 
L 325.593118 189.872753 
L 325.922048 189.56059 
L 326.013418 80.559927 
L 326.031692 110.053475 
L 326.378896 195.150025 
L 326.433718 49.62626 
L 326.470265 63.96335 
L 326.799196 64.604693 
L 326.908839 200.547213 
L 328.114918 168.535026 
L 328.133192 170.558616 
L 328.188013 208.971833 
L 328.224561 95.078695 
L 328.644861 215.52893 
L 328.663135 188.482469 
L 328.992066 159.02804 
L 329.01034 211.362756 
L 329.028614 137.815701 
L 329.101709 196.567898 
L 329.43064 186.28571 
L 329.467187 89.937027 
L 329.540283 116.310372 
L 329.869214 55.256785 
L 329.924035 211.571139 
L 329.978857 166.541901 
L 331.184935 195.464386 
L 331.203209 201.5846 
L 331.276305 133.980257 
L 331.258031 207.937305 
L 331.294579 143.153206 
L 331.623509 118.782285 
L 331.641783 181.54901 
L 331.678331 92.432934 
L 331.733153 124.537337 
L 332.062083 168.902692 
L 332.080357 209.916309 
L 332.135179 134.325731 
L 332.153453 188.423796 
L 332.171727 124.387009 
L 332.500657 166.626991 
L 332.518931 158.745627 
L 332.537205 151.109063 
L 332.555479 208.204035 
L 332.610301 203.717149 
L 332.939231 193.501302 
L 332.957505 229.874489 
L 332.994053 136.424689 
L 333.048875 223.017917 
L 334.273227 196.098692 
L 334.291501 188.315263 
L 334.328049 74.73444 
L 334.382871 149.205384 
L 334.711801 204.970857 
L 334.730075 132.034742 
L 334.821444 189.494528 
L 335.150375 176.112896 
L 335.186923 85.918348 
L 335.223471 191.392432 
L 335.260018 144.283219 
L 335.588949 203.913438 
L 335.698592 138.186489 
L 336.027523 117.21565 
L 336.045797 55.987353 
L 336.064071 126.115776 
L 336.118892 120.865406 
L 336.137166 173.423375 
L 337.343245 144.274042 
L 337.361519 144.815099 
L 337.379793 163.711636 
L 337.434614 114.320403 
L 337.452888 155.042931 
L 337.781819 135.887218 
L 337.873188 195.358849 
L 337.891462 177.472685 
L 338.220393 154.644215 
L 338.275214 162.669262 
L 338.25694 143.466291 
L 338.311762 162.488997 
L 338.330036 124.295452 
L 338.658967 135.062848 
L 338.76861 192.132204 
L 339.115814 174.840988 
L 339.134088 176.579602 
L 339.152362 81.904123 
L 339.18891 203.757215 
L 339.207184 156.12542 
L 340.413262 143.991257 
L 340.522906 167.397728 
L 340.851836 129.491552 
L 340.87011 205.954052 
L 340.943206 113.559871 
L 340.96148 110.788122 
L 341.29041 120.167456 
L 341.308684 171.107426 
L 341.345232 113.495234 
L 341.38178 122.806962 
L 341.400054 106.468777 
L 342.167558 112.998769 
L 342.185832 78.825932 
L 342.231517 134.659913 
L 343.48328 111.652459 
L 343.519828 48.85577 
L 343.538102 167.597396 
L 343.57465 61.996659 
L 343.592923 132.836039 
L 343.940128 97.925195 
L 343.976676 162.027951 
L 343.99495 154.858365 
L 344.013224 32.201761 
L 344.031497 154.02223 
L 344.360428 85.079232 
L 344.378702 171.409413 
L 344.470071 134.163279 
L 344.799002 117.288575 
L 344.817276 157.912712 
L 344.872097 96.929512 
L 344.890371 67.362036 
L 344.908645 73.476307 
L 345.25585 108.097072 
L 345.274124 59.831885 
L 345.292398 116.239979 
L 345.347219 109.16288 
L 346.553298 48.166007 
L 346.571572 36.539224 
L 346.644667 179.988077 
L 346.662941 67.02823 
L 346.991872 66.124322 
L 347.046693 174.075796 
L 347.101515 126.184683 
L 347.430446 63.035054 
L 347.466993 195.251278 
L 347.540089 96.202845 
L 347.869019 170.80679 
L 347.923841 106.497971 
L 347.978663 171.194208 
L 348.307593 124.637945 
L 348.398963 213.240605 
L 348.344141 110.457707 
L 348.417237 183.099172 
L 349.623315 154.312477 
L 349.641589 113.386781 
L 349.659863 197.396071 
L 349.714685 118.703878 
L 349.732959 206.202438 
L 350.061889 72.352223 
L 350.116711 181.370166 
L 350.171533 161.891134 
L 350.500463 150.818128 
L 350.518737 78.825002 
L 350.555285 193.877934 
L 350.610107 139.423299 
L 350.939037 89.305812 
L 351.030407 202.632911 
L 351.048681 156.441665 
L 351.377611 74.695474 
L 351.450707 207.859869 
L 351.468981 59.840059 
L 351.487255 204.008561 
L 352.693333 101.732027 
L 352.766429 172.994821 
L 352.748155 59.445408 
L 352.802976 138.676964 
L 353.150181 206.959956 
L 353.24155 87.210603 
L 353.570481 52.614985 
L 353.607029 46.020843 
L 353.680124 191.109472 
L 354.009055 79.325952 
L 354.08215 208.923183 
L 354.100424 32.201761 
L 354.118698 190.439191 
L 355.763351 140.701405 
L 355.781625 143.483986 
L 355.836446 172.789704 
L 355.872994 68.348474 
L 356.220198 145.323797 
L 356.238472 189.82784 
L 356.311568 120.179879 
L 356.640498 138.400812 
L 356.69532 178.463868 
L 356.750142 32.201761 
L 357.097346 226.342577 
L 357.170442 194.949124 
L 357.517646 67.970998 
L 357.572468 200.943174 
L 357.62729 73.889309 
L 358.833368 57.018583 
L 358.869916 209.145386 
L 358.943012 182.142161 
L 359.271942 75.923471 
L 359.326764 153.077096 
L 359.363312 132.504312 
L 359.381586 60.72436 
L 359.72879 128.353453 
L 359.783612 185.038896 
L 359.765338 76.99132 
L 359.82016 184.42487 
L 360.14909 152.756334 
L 360.167364 169.120585 
L 360.203912 103.638708 
L 360.222186 36.019488 
L 360.258734 141.158682 
L 360.587664 155.983081 
L 360.605938 150.279082 
L 360.624212 68.114698 
L 360.679034 167.048922 
L 360.697308 144.585798 
L 361.903386 145.008342 
L 361.958208 219.061401 
L 361.976482 130.201522 
L 362.013029 145.02162 
L 362.34196 154.400546 
L 362.378508 140.120893 
L 362.396782 180.530635 
L 362.451603 88.199764 
L 362.780534 120.010441 
L 362.798808 89.600973 
L 362.835356 145.851791 
L 362.871903 113.311472 
L 362.890177 136.396554 
L 363.219108 115.302975 
L 363.273929 196.273943 
L 363.310477 93.181002 
L 363.328751 84.560694 
L 363.657682 84.592599 
L 363.675956 43.892222 
L 363.712503 204.837061 
L 363.730777 207.512046 
L 363.749051 98.88697 
L 363.767325 122.176834 
L 365.411978 36.228948 
L 365.521621 185.045389 
L 365.850551 204.876219 
L 365.923647 69.639895 
L 365.960195 153.795639 
L 366.289125 144.136105 
L 366.343947 133.99457 
L 366.398769 197.984683 
L 366.764247 93.583629 
L 366.800795 64.519249 
L 366.819069 177.298205 
L 366.837343 112.495113 
L 368.043421 163.124321 
L 368.079969 32.201761 
L 368.153065 72.300555 
L 368.500269 32.201761 
L 368.518543 157.266657 
L 368.591639 32.201761 
L 369.389006 32.201761 
L 369.389006 32.201761 
" clip-path="url(#p7bd478f863)" style="fill: none; stroke: #4c72b0; stroke-width: 1.5; stroke-linecap: round"/>
   </g>
   <g id="patch_3">
    <path d="M 49.807187 239.758125 
L 49.807187 22.318125 
" style="fill: none; stroke: #ffffff; stroke-width: 1.25; stroke-linejoin: miter; stroke-linecap: square"/>
   </g>
   <g id="patch_4">
    <path d="M 384.607188 239.758125 
L 384.607188 22.318125 
" style="fill: none; stroke: #ffffff; stroke-width: 1.25; stroke-linejoin: miter; stroke-linecap: square"/>
   </g>
   <g id="patch_5">
    <path d="M 49.807187 239.758125 
L 384.607188 239.758125 
" style="fill: none; stroke: #ffffff; stroke-width: 1.25; stroke-linejoin: miter; stroke-linecap: square"/>
   </g>
   <g id="patch_6">
    <path d="M 49.807187 22.318125 
L 384.607188 22.318125 
" style="fill: none; stroke: #ffffff; stroke-width: 1.25; stroke-linejoin: miter; stroke-linecap: square"/>
   </g>
   <g id="text_16">
    <!-- ARI measure with respect to time -->
    <g style="fill: #262626" transform="translate(116.85625 16.318125)scale(0.12 -0.12)">
     <defs>
      <path id="DejaVuSans-20" transform="scale(0.015625)"/>
      <path id="DejaVuSans-73" d="M 2834 3397 
L 2834 2853 
Q 2591 2978 2328 3040 
Q 2066 3103 1784 3103 
Q 1356 3103 1142 2972 
Q 928 2841 928 2578 
Q 928 2378 1081 2264 
Q 1234 2150 1697 2047 
L 1894 2003 
Q 2506 1872 2764 1633 
Q 3022 1394 3022 966 
Q 3022 478 2636 193 
Q 2250 -91 1575 -91 
Q 1294 -91 989 -36 
Q 684 19 347 128 
L 347 722 
Q 666 556 975 473 
Q 1284 391 1588 391 
Q 1994 391 2212 530 
Q 2431 669 2431 922 
Q 2431 1156 2273 1281 
Q 2116 1406 1581 1522 
L 1381 1569 
Q 847 1681 609 1914 
Q 372 2147 372 2553 
Q 372 3047 722 3315 
Q 1072 3584 1716 3584 
Q 2034 3584 2315 3537 
Q 2597 3491 2834 3397 
z
" transform="scale(0.015625)"/>
      <path id="DejaVuSans-75" d="M 544 1381 
L 544 3500 
L 1119 3500 
L 1119 1403 
Q 1119 906 1312 657 
Q 1506 409 1894 409 
Q 2359 409 2629 706 
Q 2900 1003 2900 1516 
L 2900 3500 
L 3475 3500 
L 3475 0 
L 2900 0 
L 2900 538 
Q 2691 219 2414 64 
Q 2138 -91 1772 -91 
Q 1169 -91 856 284 
Q 544 659 544 1381 
z
M 1991 3584 
L 1991 3584 
z
" transform="scale(0.015625)"/>
      <path id="DejaVuSans-72" d="M 2631 2963 
Q 2534 3019 2420 3045 
Q 2306 3072 2169 3072 
Q 1681 3072 1420 2755 
Q 1159 2438 1159 1844 
L 1159 0 
L 581 0 
L 581 3500 
L 1159 3500 
L 1159 2956 
Q 1341 3275 1631 3429 
Q 1922 3584 2338 3584 
Q 2397 3584 2469 3576 
Q 2541 3569 2628 3553 
L 2631 2963 
z
" transform="scale(0.015625)"/>
      <path id="DejaVuSans-77" d="M 269 3500 
L 844 3500 
L 1563 769 
L 2278 3500 
L 2956 3500 
L 3675 769 
L 4391 3500 
L 4966 3500 
L 4050 0 
L 3372 0 
L 2619 2869 
L 1863 0 
L 1184 0 
L 269 3500 
z
" transform="scale(0.015625)"/>
      <path id="DejaVuSans-68" d="M 3513 2113 
L 3513 0 
L 2938 0 
L 2938 2094 
Q 2938 2591 2744 2837 
Q 2550 3084 2163 3084 
Q 1697 3084 1428 2787 
Q 1159 2491 1159 1978 
L 1159 0 
L 581 0 
L 581 4863 
L 1159 4863 
L 1159 2956 
Q 1366 3272 1645 3428 
Q 1925 3584 2291 3584 
Q 2894 3584 3203 3211 
Q 3513 2838 3513 2113 
z
" transform="scale(0.015625)"/>
      <path id="DejaVuSans-70" d="M 1159 525 
L 1159 -1331 
L 581 -1331 
L 581 3500 
L 1159 3500 
L 1159 2969 
Q 1341 3281 1617 3432 
Q 1894 3584 2278 3584 
Q 2916 3584 3314 3078 
Q 3713 2572 3713 1747 
Q 3713 922 3314 415 
Q 2916 -91 2278 -91 
Q 1894 -91 1617 61 
Q 1341 213 1159 525 
z
M 3116 1747 
Q 3116 2381 2855 2742 
Q 2594 3103 2138 3103 
Q 1681 3103 1420 2742 
Q 1159 2381 1159 1747 
Q 1159 1113 1420 752 
Q 1681 391 2138 391 
Q 2594 391 2855 752 
Q 3116 1113 3116 1747 
z
" transform="scale(0.015625)"/>
      <path id="DejaVuSans-63" d="M 3122 3366 
L 3122 2828 
Q 2878 2963 2633 3030 
Q 2388 3097 2138 3097 
Q 1578 3097 1268 2742 
Q 959 2388 959 1747 
Q 959 1106 1268 751 
Q 1578 397 2138 397 
Q 2388 397 2633 464 
Q 2878 531 3122 666 
L 3122 134 
Q 2881 22 2623 -34 
Q 2366 -91 2075 -91 
Q 1284 -91 818 406 
Q 353 903 353 1747 
Q 353 2603 823 3093 
Q 1294 3584 2113 3584 
Q 2378 3584 2631 3529 
Q 2884 3475 3122 3366 
z
" transform="scale(0.015625)"/>
      <path id="DejaVuSans-6f" d="M 1959 3097 
Q 1497 3097 1228 2736 
Q 959 2375 959 1747 
Q 959 1119 1226 758 
Q 1494 397 1959 397 
Q 2419 397 2687 759 
Q 2956 1122 2956 1747 
Q 2956 2369 2687 2733 
Q 2419 3097 1959 3097 
z
M 1959 3584 
Q 2709 3584 3137 3096 
Q 3566 2609 3566 1747 
Q 3566 888 3137 398 
Q 2709 -91 1959 -91 
Q 1206 -91 779 398 
Q 353 888 353 1747 
Q 353 2609 779 3096 
Q 1206 3584 1959 3584 
z
" transform="scale(0.015625)"/>
     </defs>
     <use xlink:href="#DejaVuSans-41"/>
     <use xlink:href="#DejaVuSans-52" x="68.408203"/>
     <use xlink:href="#DejaVuSans-49" x="137.890625"/>
     <use xlink:href="#DejaVuSans-20" x="167.382812"/>
     <use xlink:href="#DejaVuSans-6d" x="199.169922"/>
     <use xlink:href="#DejaVuSans-65" x="296.582031"/>
     <use xlink:href="#DejaVuSans-61" x="358.105469"/>
     <use xlink:href="#DejaVuSans-73" x="419.384766"/>
     <use xlink:href="#DejaVuSans-75" x="471.484375"/>
     <use xlink:href="#DejaVuSans-72" x="534.863281"/>
     <use xlink:href="#DejaVuSans-65" x="573.726562"/>
     <use xlink:href="#DejaVuSans-20" x="635.25"/>
     <use xlink:href="#DejaVuSans-77" x="667.037109"/>
     <use xlink:href="#DejaVuSans-69" x="748.824219"/>
     <use xlink:href="#DejaVuSans-74" x="776.607422"/>
     <use xlink:href="#DejaVuSans-68" x="815.816406"/>
     <use xlink:href="#DejaVuSans-20" x="879.195312"/>
     <use xlink:href="#DejaVuSans-72" x="910.982422"/>
     <use xlink:href="#DejaVuSans-65" x="949.845703"/>
     <use xlink:href="#DejaVuSans-73" x="1011.369141"/>
     <use xlink:href="#DejaVuSans-70" x="1063.46875"/>
     <use xlink:href="#DejaVuSans-65" x="1126.945312"/>
     <use xlink:href="#DejaVuSans-63" x="1188.46875"/>
     <use xlink:href="#DejaVuSans-74" x="1243.449219"/>
     <use xlink:href="#DejaVuSans-20" x="1282.658203"/>
     <use xlink:href="#DejaVuSans-74" x="1314.445312"/>
     <use xlink:href="#DejaVuSans-6f" x="1353.654297"/>
     <use xlink:href="#DejaVuSans-20" x="1414.835938"/>
     <use xlink:href="#DejaVuSans-74" x="1446.623047"/>
     <use xlink:href="#DejaVuSans-69" x="1485.832031"/>
     <use xlink:href="#DejaVuSans-6d" x="1513.615234"/>
     <use xlink:href="#DejaVuSans-65" x="1611.027344"/>
    </g>
   </g>
  </g>
 </g>
 <defs>
  <clipPath id="p7bd478f863">
   <rect x="49.807187" y="22.318125" width="334.8" height="217.44"/>
  </clipPath>
 </defs>
</svg>
